<svg xmlns="http://www.w3.org/2000/svg" xml:space="preserve" width="53" height="53" style="fill-rule:evenodd;clip-rule:evenodd;stroke-linejoin:round;stroke-miterlimit:2"><path d="M26.435 0C11.836 0 0 11.836 0 26.435s11.836 26.434 26.435 26.434 26.434-11.835 26.434-26.434S41.034 0 26.435 0M51.15 26.435c0 13.649-11.064 24.715-24.715 24.715S1.719 40.084 1.719 26.435c0-13.65 11.066-24.716 24.716-24.716 13.649 0 24.715 11.066 24.715 24.716" style="fill:#6f6f6f;fill-rule:nonzero"/><path d="M31.941 12.111c.359.385.877 1.007 1.168 1.385l5.353-3.398c-.268-.35-.694-.881-1.012-1.256l-3.39 2.241-.232.199.173-.251 1.497-2.988-1.059-1.058-2.989 1.497-.251.172.2-.232 2.243-3.388a33 33 0 0 0-1.258-1.016l-3.397 5.348c.43.331.998.817 1.36 1.149l3.198-1.66.206-.151-.151.205zM19.795 5.333l1.463-3.277.093-.29-.027.303.154 4.378c.513.048 1.043.12 1.565.207L22.806.169A33 33 0 0 0 20.62 0l-1.441 3.576-.051.266-.051-.266L17.638 0q-1.09.048-2.186.169l-.237 6.485a23 23 0 0 1 1.565-.207l.154-4.378-.027-.303.093.29 1.463 3.277zM7.966 10.501c.845-.891 1.324-1.92.478-2.902-.46-.533-1.232-.65-1.873-.387l-.063.025.02-.056c.095-.254.155-1.062-.533-1.62-.336-.272-.757-.373-1.183-.329-.794.08-1.405.623-3.068 2.477A40 40 0 0 0 .073 9.723l4.568 4.334c1.514-1.676 2.131-2.299 3.325-3.556m-5.961-1.06c.92-1.126 1.898-2.147 2.341-2.551.14-.127.292-.255.477-.305.3-.082.609.131.679.439.07.309-.124.603-.34.845-.487.549-2.271 2.415-2.271 2.415zm1.789 1.697s1.738-1.837 2.305-2.425c.225-.233.37-.374.525-.451.201-.098.42-.118.616.013a.54.54 0 0 1 .233.572c-.058.262-.272.513-.449.704L4.72 12.016z" style="fill:#6f6f6f;fill-rule:nonzero" transform="translate(7.305 3.109)"/><path d="M5287.849 5129.931a5.265 5.265 0 0 1 5.262 5.263 5.265 5.265 0 0 1-5.262 5.262 5.265 5.265 0 0 1-5.263-5.262 5.265 5.265 0 0 1 5.263-5.263m0 .292a4.974 4.974 0 0 0-4.972 4.971 4.974 4.974 0 0 0 4.972 4.971 4.974 4.974 0 0 0 4.971-4.971 4.973 4.973 0 0 0-4.971-4.971" style="fill:#6f6f6f" transform="matrix(2.97902 0 0 2.97902 -15726.164 -15271.402)"/><path d="M26.435 10.759v15.676H10.759c0-8.664 7.012-15.676 15.676-15.676" style="fill:#0066b1;fill-rule:nonzero"/><path d="M42.111 26.435c0 8.663-7.013 15.676-15.676 15.676V26.435z" style="fill:#0066b1;fill-rule:nonzero"/></svg>