<svg xmlns="http://www.w3.org/2000/svg" width="645" height="330" style="cursor:default" version="1.0"><path d="M206.469 39.432c6.654-1.29 11.053-1.254 12.617.418.981 1.037 1.254 2.818-.019 5.054-.69 1.182-1.418 2.218-2.763 3.818-56.521 66.593-99.57 164.891-111.806 193.252-.927 1.981-1.854 3.927-2.581 5.2-1.11 1.999-2.637 3.617-5.345 3.817-1.491.054-3.564-.273-6.69-2.145-37.524-23.161-59.776-51.94-59.776-83.227 0-56.485 72.592-104.97 176.363-126.187m57.92 42.468c5.31-12.326 14.508-38.74 35.579-49.212 6.399-3.2 14.27-4.69 21.324-4.909h3.218c58.976 0 113.842 8.18 159.856 22.18.363.145 1.418.563 1.727.654 4.272 1.436 6.417 3.381 6.417 5.781 0 2.145-1.09 3.709-2.581 5.218-.691.672-1.637 1.49-2.927 2.581-10.6 8.872-42.577 31.979-102.79 54.994-21.124 8.072-47.558 18.125-75.173 23.998-16.234 3.436-76.41 12.598-44.65-61.285m280.879 2.11c1.09-2 2.636-3.655 5.327-3.855 1.545-.054 3.545.31 6.69 2.182 37.487 23.124 59.793 51.958 59.793 83.245 0 56.467-72.61 104.934-176.362 126.132-6.69 1.29-11.053 1.29-12.635-.382-.982-1.109-1.255-2.854.036-5.072.655-1.164 1.4-2.218 2.745-3.818 56.521-66.61 99.608-164.91 111.825-193.252.909-2 1.836-3.908 2.581-5.18m-161.51 165c-5.326 12.343-14.489 38.74-35.614 49.249-6.326 3.126-14.235 4.69-21.343 4.854-1.545.09-2.672.054-3.145.054-58.975 0-113.86-8.18-159.892-22.18a47 47 0 0 1-1.69-.69c-4.29-1.418-6.454-3.327-6.454-5.745 0-2.127 1.109-3.727 2.654-5.2.618-.672 1.6-1.508 2.89-2.545 10.581-8.908 42.56-32.05 102.771-55.066 21.143-8.072 47.577-18.144 75.192-23.998 16.216-3.417 76.392-12.562 44.631 61.266m-60.157 80.282c176.527 0 319.602-73.282 319.602-163.618C643.203 75.192 500.128 2 323.6 2 147.111 2 4 75.192 4 165.673c0 90.336 143.112 163.618 319.601 163.618" style="fill:#163d7d;fill-opacity:1;fill-rule:nonzero;stroke:none"/></svg>