<svg xmlns="http://www.w3.org/2000/svg" xml:space="preserve" width="2049" height="1666" style="fill-rule:evenodd;clip-rule:evenodd;stroke-linejoin:round;stroke-miterlimit:2"><path d="M2191.131 425.086c8.19 80.21 10.528 184.954 9.028 297.703-2.432 186.677-18.473 312.745-27.64 400.005-6.341 59.899-31.34 239.956-63.471 333.092-44.136 127.975-83.817 165.249-130.535 203.324-85.411 69.647-226.067 91.076-256.081 96.461-158.757 28.56-480.215 33.702-622.139 33.516-141.889.186-463.313-4.956-622.14-33.516-29.979-5.385-170.648-26.802-256.057-96.461-46.72-38.076-86.4-75.349-130.536-203.324-32.142-93.135-57.165-273.193-63.47-333.092C18.911 1035.533 2.881 909.466.414 722.789c-1.478-112.748.861-217.458 9.016-297.703C39.373 130.477 235.939 68.263 408.516 39.332 495.462 24.744 649.95 12.401 748.994 8.341 835.544 2.803 1039.706.035 1100.28 0c60.609.023 264.758 2.803 351.308 8.341 99.045 4.06 253.533 16.403 340.514 30.991 172.555 28.931 369.108 91.145 399.029 385.754m-107.945 494.873c10.471-141.854 8.283-371.69-7.48-495.233-23.546-184.187-114.993-276.926-310.965-311.861-91.448-16.275-214.375-27.826-331.032-33.608-93.507-6.305-247.46-9.481-333.428-8.678-85.935-.803-239.887 2.373-333.43 8.678-116.657 5.759-239.583 17.322-331.032 33.608C239.847 147.799 148.4 240.573 124.913 424.749c-15.786 123.52-18.009 353.356-7.492 495.21 17.415 235.338 38.355 376.472 68.299 478.192 26.255 89.074 58.828 148.973 106.408 192.004 79.372 71.811 188.677 87.237 252.788 96.776 138.597 20.567 371.935 27.711 555.352 27.768 183.42-.07 416.781-7.212 555.354-27.768 64.146-9.551 173.474-24.965 252.859-96.776 47.556-43.03 80.117-102.894 106.408-192.004 29.92-101.732 50.848-242.854 68.297-478.192M1606.73 151.243s50.443 1.977 72.871 3.536c30.223 2.187 53.861 4.735 79.594 8.155 0 0-28.99 463.836-42.136 660.366-13.855 206.743-38.133 555.004-60.91 818.018 0 0-42.38 6.735-112.713 10.773-74 4.222-106.897 4.71-106.897 4.71-30.467-115.854-68.112-276.646-110.864-345.224-34.748-55.769-88.307-61.679-118.623-65.831-47.673-6.504-87.9-7.516-106.525-6.899h-.372c-18.625-.581-58.828.407-106.502 6.899-30.35 4.152-83.875 10.062-118.623 65.831-42.751 68.577-80.395 229.37-110.84 345.224 0 0-32.899-.465-106.897-4.71-70.357-4.038-112.713-10.773-112.713-10.773-22.801-263.001-47.057-611.309-60.876-818.018-13.146-196.519-42.171-660.366-42.171-660.366 25.757-3.42 49.395-6.003 79.594-8.155 22.336-1.57 72.789-3.536 72.789-3.536 50.569 225.542 70.543 329.147 111.607 492.465 39.46 156.698 70.02 302.124 122.811 372.644 53.582 71.532 125.115 87.108 173.81 92.588 25.21 2.827 43.579 4.083 98.184 4.303 54.595-.209 72.976-1.476 98.184-4.303 48.697-5.48 120.193-21.056 173.81-92.588 52.816-70.509 83.351-215.912 122.776-372.644 41.089-163.306 61.029-266.911 111.632-492.465" style="fill:#da251d" transform="matrix(.93111 0 0 .93111 .001 0)"/></svg>