<svg xmlns="http://www.w3.org/2000/svg" width="60" height="48.9" style="cursor:default"><path d="M59.838 21.289C58.577 10.675 50.22 3.55 39.966 1.089A42.7 42.7 0 0 0 30 .002a42.7 42.7 0 0 0-9.965 1.09C9.781 3.551 1.423 10.675.163 21.289A25 25 0 0 0 0 24.451a25 25 0 0 0 .163 3.162c1.26 10.614 9.618 17.739 19.872 20.199A42.7 42.7 0 0 0 30 48.902a42.7 42.7 0 0 0 9.965-1.09c10.254-2.46 18.612-9.585 19.872-20.2A25 25 0 0 0 60 24.451a25 25 0 0 0-.163-3.162M8.49 12.18c.018-.033.044-.08.065-.11 2.6-3.878 7.56-7.089 13.063-8.49A34 34 0 0 1 30 2.602a34 34 0 0 1 8.381.973c5.5 1.4 10.464 4.612 13.063 8.49.02.031.047.077.065.11a.06.06 0 0 1-.024.087 1 1 0 0 1-.095.051c-.808.4-2.3 1.141-3.363 1.666-6.458 3.194-11.013 5.512-12 6.387C34.8 21.458 32.988 24.181 30 28.64c-2.989-4.459-4.8-7.182-6.028-8.268-.987-.876-5.542-3.193-12-6.387-1.062-.525-2.555-1.264-3.363-1.666-.029-.014-.068-.036-.095-.051a.06.06 0 0 1-.024-.087M55.1 27.276c-1.061 9.483-8.094 15.849-16.722 18.046a34 34 0 0 1-8.378.974 34 34 0 0 1-8.382-.973C12.991 43.125 5.958 36.759 4.9 27.276a23 23 0 0 1-.137-2.825 20 20 0 0 1 .129-2.6 15.2 15.2 0 0 1 .8-3.5 1 1 0 0 1 .035-.07.07.07 0 0 1 .082-.033c.026.008.063.022.089.033.7.289 1.852.766 3.615 1.532 8.149 3.541 12.97 5.876 14.143 6.85 1 .829 3.412 4.208 5.938 7.737h.823c2.526-3.529 4.939-6.908 5.938-7.737 1.172-.973 5.993-3.309 14.143-6.85a188 188 0 0 1 3.615-1.532c.026-.011.063-.025.089-.033a.07.07 0 0 1 .082.033 1 1 0 0 1 .035.07 15.2 15.2 0 0 1 .8 3.5 20 20 0 0 1 .129 2.6 23 23 0 0 1-.137 2.825"/></svg>