<svg xmlns="http://www.w3.org/2000/svg" xml:space="preserve" width="302" height="332" style="fill-rule:evenodd;clip-rule:evenodd;stroke-linejoin:round;stroke-miterlimit:2"><path d="M144.133 328.085c-42.195-19.632-78.842-51.791-103.197-90.563C16.639 198.88 3.87 154.112.746 96.63-.247 78.297-.247 55.423.743 26.714L1.19 13.62l12.929-2.172A834.6 834.6 0 0 1 150.895 0c45.26 0 91.274 3.851 136.764 11.447l12.929 2.167.455 13.1c.995 28.71.995 51.583-.006 69.915-3.13 57.477-15.892 102.245-40.189 140.899-24.35 38.766-61.008 70.93-103.197 90.557l-6.756 3.14zm6.762-318.638c-45.63 0-92.991 3.883-141.06 12.153C9.118 40.8 8.3 70.482 9.675 95.666c3.06 56.156 15.464 99.742 39.044 137.17 23.504 37.317 59.906 69.407 102.176 88.46 42.27-19.053 78.666-51.143 102.17-88.46 23.58-37.428 35.985-81.014 39.05-137.17 1.364-25.184.55-54.867-.166-74.066-48.068-8.27-95.425-12.153-141.054-12.153m0 5.413c44.976 0 90.643 3.809 135.796 11.335.99 28.485.99 51.15.005 69.177-3.006 55.198-15.15 97.966-38.22 134.587-23.061 36.615-57.65 66.86-97.581 85.39-39.938-18.53-74.52-48.775-97.586-85.39-23.066-36.621-35.215-79.389-38.215-134.582-.99-18.032-.99-40.697.005-69.182C60.246 18.67 105.913 14.86 150.895 14.86m42.842 117.116s3.557 15.497 5.151 23.976a5.4 5.4 0 0 0 1.509 2.84c5.461 5.398 9.061 9.597 12.073 14.042a13.04 13.04 0 0 1 2.225 6.5c.835 12.308.433 29.233-.947 38.658-.272 1.91-.738 2.584-1.99 3.595-4.803 3.873-10.88 8.944-16.967 14.16l-2.803 2.407c-7.928 6.841-15.54 13.645-20.001 18.043-.877.871-1.204 1.267-1.744 2.08-1.102 1.664-2.284 4.125-2.284 4.125s-1.99-6.093-2.434-9.42c-.209-1.552-.225-1.98 0-3.563 1.01-7.114 6.002-23.526 6.815-25.992.07-.209.107-.433.107-.658l-.006-1.54c-1.802 3.765-11.083 24.59-13.046 31.753-.412 1.508-.343 2.097.048 3.225 1.203 3.456 4.713 11.999 6.323 15.502l.385-.711.337-.631c1.214-2.236 3.685-6.751 5.3-9.378.621-1 1.376-1.915 2.242-2.712 3.45-3.182 11.581-10.104 20.14-17.17l2.241-1.846c7.104-5.836 14.245-11.56 19.033-15.15 1.487-1.117 1.942-1.904 2.348-3.45 4.483-17.085 6.366-36.722 4.173-55.262-.097-.765-.353-1.434-.728-2.103-1.958-3.471-11.725-16.657-23.938-29.367a4.8 4.8 0 0 0-1.572-1.091zm-91.435 33.401-17.711 14.566c2.9-.883 6.842-2.21 9.206-3.092.428-.16.808-.422 1.091-.765 2.161-2.605 5.023-6.783 7.414-10.709m27.137-27.233-.3 3.74q-.031.386.032.764c.279 1.621 1.332 8.019 1.295 11.309-.01 1.134-.064 1.55-.68 2.749-2.685 5.274-9.88 15.63-17.69 25.981l-1.813 2.38c-5.156 6.746-10.441 13.32-14.78 18.3-1.289 1.482-1.663 2.466-2.016 4.146-.594 2.782-1.263 9.137-1.696 14.186-.235 2.712-.059 3.638 1.669 6.505 6.933 11.485 30.49 38.98 38.177 45.35a9.7 9.7 0 0 0 1.632 1.097c1.401.755 4.076 2.103 6.317 3.226l1.466.733 1.52.754.491.246.3.145-1.14-2.001a1.15 1.15 0 0 0-.31-.332s-3.15-2.038-4.113-2.68c-1.006-.663-1.354-.952-1.83-1.38-6.563-5.932-29.608-34.187-36.514-46.469-1.16-2.054-1.497-3.027-1.385-5.103.128-2.364.594-6.938 1.06-9.623.288-1.669.673-2.771 2.09-4.06 3.922-3.547 10.244-9.886 13.55-13.245 1.45-1.466 2.172-2.402 2.942-3.84 1.562-2.921 4.777-9.661 7.955-16.642l1.118-2.471c2.589-5.75 5.012-11.378 6.333-14.882.546-1.46.578-1.872.37-3.397-.22-1.583-.82-4.087-1.498-6.622l-.375-1.386c-1.07-3.894-2.177-7.478-2.177-7.478m-38.98 13.443-.637.198a446 446 0 0 1 15.647 5.627c.497.187 1.032.76 1.188 1.268l.53 1.733c.208.706.144 1.46-.193 2.118-2.45 4.783-6.687 11.121-10.073 15.192a4.5 4.5 0 0 1-1.91 1.364c-3.268 1.22-9.222 3.183-11.816 3.846-.52.134-.776.07-1.198-.224-1.889-1.316-5.783-4.964-5.783-4.964s-.326 3.963-.348 5.74c-.005.197.038.39.113.572.663 1.551 1.834 4.52 2.327 6.028.123.39.23.733.331 1.134.653 2.605 2.46 10.27 2.46 10.27.263 1.167.92 1.568 1.948 1.349 1.321-.289 5.552-1.477 7.291-2.054.262-.086.508-.23.711-.417 1.124-1.022 2.996-2.755 2.996-2.755s-6.366 1.556-8.757 2.006c-.904.176-1.396-.31-1.524-.92-.359-1.648-1.295-7.308-1.584-8.971-.16-.915.118-1.418.947-1.685 4.044-1.305 10.854-3.606 16.331-5.526 1.413-.497 1.851-1.059 2.643-2.321 1.204-1.91 3.322-5.542 5.445-9.303l1.156-2.06c1.53-2.733 2.974-5.38 3.985-7.338a2.37 2.37 0 0 0-.075-2.306l-1.214-2.017c-.417-.69-1.39-1.417-2.172-1.615a1365 1365 0 0 0-16.422-4.06 4.3 4.3 0 0 0-2.343.09m6.082-46.426c-3.46 2.006-9.634 5.66-12.827 7.665-1.364.861-2.033 1.316-3.381 2.38-.15.118-.284.257-.401.407-.845 1.049-4.258 5.467-5.462 7.083a2.5 2.5 0 0 1-.567.55c-11.447 8.147-17.861 13.336-20.397 15.47a126 126 0 0 0-2.926 2.921c-.807.835-1 1.15-1.048 1.814a24 24 0 0 0-.08 1.733c-.006.23.064.454.192.636.16.241 1.065 1.268 1.284 1.482.096.096.246.134.364.054 1.69-1.193 4.07-2.953 6.221-4.595.171-.129.492-.45.61-.653.396-.685.765-1.386 1.118-2.102.176-.375.3-.498.733-.77l1.733-1.092-.01.048-.086.332c-.257 1.027-1.006 3.873-1.573 5.001-.24.477-.47.803-.653.995-1.685 1.75-4.74 5.162-6.264 7.03-.513.625-.342 1.406.07 2.016 1.401 2.08 4.322 5.665 6.098 7.537.551.578.802.813 1.3 1.097.727.417 1.252.588 1.252.588s1.46-7.002 2.086-9.18c.208-.737.668-1.326 1.6-1.556 7.504-1.856 23.707-4.547 23.707-4.547-1.706-2.027-7.403-7.884-9.126-9.36-.519-.445-1.005-.67-1.685-.744-2.091-.241-9.291-.364-8.954-.739q.506-.562 1.037-1.102c.407-.417.648-.577 1.199-.77 8.414-2.904 19.631-7.141 26.195-9.87 1.428-.598 2.107-1.01 3.241-2.182a55 55 0 0 0 2.065-2.31c.113-.14.182-.241.209-.412.037-.209.09-.578.09-.578s-2.802 2.097-3.91 2.862c-1.016.711-1.674 1.037-2.872 1.348-2.31.599-6.654 1.626-9.233 2.204-.706.15-1.043.16-1.685-.075-.412-.15-1.198-.46-1.674-.68-.503-.235-.738-.267-1.29-.144-2.289.513-8.537 2.049-8.537 2.049s2.878-2.557 3.092-2.723c.273-.209.401-.284.867-.465 2.16-.862 4.835-1.825 7.093-2.74.519-.208.733-.46.775-.967.145-1.728.637-4.858.937-6.5.085-.465.235-.722.604-1.016a543 543 0 0 1 7.34-5.606c.069-.075.144-.14.213-.214zm53.958 73.675c-2.996 6.932-13.673 35.556-17.62 52.401-.739 3.172-.61 4.023.058 5.75 5.676 14.663 20.119 41.141 22.777 45.143l-.599-4.617a4.2 4.2 0 0 0-.337-1.235c-1.588-3.568-9.885-23.147-12.132-30.64-.791-2.654-.888-3.366-.583-6.356.54-5.258 1.466-11.41 2.536-17.604l.412-2.322c2.626-14.705 5.905-29.067 6.611-31.796.22-.845.187-1.08.038-1.941-.273-1.525-1.161-6.783-1.161-6.783m-79.838-18.62c-2.786.427-5.343 2.208-6.215 4.102l4.803 5.622zm95.65-58.666c-8.072 1.418-16.556 3.092-22.975 4.552-.524.118-.979.45-1.246.915l-1.995 3.445a.451.451 0 0 0 .3.669c1.684.31 5.113.925 6.29 1.096.722.112.968.091 1.562-.155 4.065-1.68 10.714-4.258 15.657-6.05.396-.14.819-.144 1.214-.021l2.268.727c.332.107.61.332.781.637a56 56 0 0 1 1.659 3.075c.278.562.123 1.316-.348 1.996-1.68 2.418-4.552 6.237-6.526 8.628a2.06 2.06 0 0 0-.385 1.883c1.155 3.99 3.675 12.196 5.017 16.123.16.476.412.845.787 1.192l1.893 1.718s-3.006-13.882-3.728-17.856c-.107-.62-.07-1.247.289-1.77 1.588-2.317 4.429-6.634 5.814-9.03.45-.781.62-1.701.466-2.59-.37-2.15-.926-4.675-1.38-6.584a1.22 1.22 0 0 0-.658-.813l-3.344-1.594a2.34 2.34 0 0 0-1.412-.193m38.14.69c-4.61 1.685-11.982 4.777-19.637 8.366l.171.011c.375.027 1.338.102 2.365.187l.882.08c.584.054 1.134.107 1.568.156.818.096 1.134.08 1.936-.14 2.349-.636 6.52-1.668 9.8-2.407a5.6 5.6 0 0 1 4.6.974c4.5 3.343 11.737 9.158 16.364 13.036a10 10 0 0 0 2.696 1.61c7.055 2.82 10.158 4.231 11.736 5.04a4.32 4.32 0 0 1 2.22 2.786c1.835 7.066 3.06 17.888 3.702 25.698.117 1.444-.075 2.9-.562 4.263-1.99 5.606-6.927 14.925-9.688 19.375-.246.396-.513.706-.99 1.113-.978.845-2.706 2.236-3.963 3.21-.246.186-.39.475-.396.786-.027 2.754-.513 7.842-.599 8.74l-.016.14c6.777-8.474 13.218-19.456 18.942-31.128.47-.957.647-1.498.743-2.396 1.338-12.518.535-27.383-1.589-37.006-.23-1.044-.577-1.493-1.45-2.14-9.029-6.703-25.274-16.219-34.935-20.263a5.3 5.3 0 0 0-3.9-.091m-59.96-66.496c-4.348.032-6.504 1.444-6.504 5.729v8.574c0 4.595 2.413 5.409 7.152 5.376a940 940 0 0 1 19.423.086V43.842a992 992 0 0 0-13.822-.101v3.177c3.471-.005 6.943.01 10.42.054v5.317a957 957 0 0 0-17.963-.027c-.904.01-1.808-.883-1.808-1.781v-9.864c0-.904.904-1.68 1.808-1.69a962 962 0 0 1 20.033.048v-3.173a951 951 0 0 0-18.738-.058m-20.583 41.97c-1.15.101-2.076.658-2.616 1.455-.631.914-1.664 2.562-2.605 4.087a8.5 8.5 0 0 1-1.68 1.984c-2.915 2.546-7.81 6.655-10.907 8.987-.267.198-.401.3-.615.444-.428.3-1.193.808-2.049 1.375l-1.054.7c-1.422.942-2.835 1.867-3.247 2.14-.3.193-.363.24-.583.524l-1.535 1.969c2.504-1.402 5.135-2.878 7.8-4.354l2.283-1.268c10.292-5.703 20.558-11.255 24.767-13.1a7.9 7.9 0 0 1 2.638-.653c10.42-.786 21.718-1 30.501-1.016h1.98c4.091.005 8.184.053 12.27.144.77.016 1.525.15 2.258.385l3.76 1.257c-9.249.487-31.603 2.472-40.649 4.028l3.194.498q.336.047.68.032c6.686-.418 19.786-.835 25.542-.915 1.401-.021 2.129.107 3.562.653 3.35 1.273 10.068 4.311 12.844 5.718 1.45.733 2.46.979 3.942 1.043 3.012.118 7.607.439 11.01.802a7.7 7.7 0 0 1 2.652.776c6.992 3.515 15.337 8.5 21.055 12.33.332.225.706.38 1.097.455l2.83.561s-9.062-9.248-12.636-12.388a10.4 10.4 0 0 0-1.669-1.193c-13.501-7.703-25.638-13.983-32.48-16.85a10.9 10.9 0 0 0-3.44-.835c-20.883-1.573-42.745-1.187-58.9.225m7.826 15.571-6.67.097a6.6 6.6 0 0 0-1.857.305c-5.799 1.93-14.08 5.6-18.738 8.045-.525.278-1.017.717-1.391 1.182l-7.05 8.655c-.23.284-.53.508-.867.653l-4.568 1.93a.96.96 0 0 0-.492.482l-.214.455s9.644-.305 12.891-.546c1.77-.133 3.21-.412 4.906-.925l14.64-4.568a3.46 3.46 0 0 0 2.022-1.637l7.81-13.41a.53.53 0 0 0 .06-.242.48.48 0 0 0-.472-.476zM95.3 117.384l-3.167.267a.526.526 0 0 0-.476.476l-.3 3.75v.022c0 .16.134.294.3.294.016 0 .038-.006.06-.006l3.203-.711c.38-.086.85-.439 1-.797.391-.893.498-1.937.097-2.873a.71.71 0 0 0-.717-.422M56.53 40.627q-.713-.014-1.418.06a935 935 0 0 0-20.017 2.305v19.68c1.156-.145 2.317-.29 3.472-.428v-6.088c5.51-.674 11.03-1.3 16.545-1.872 3.99-.417 6.221-2.08 6.221-6.205v-2.225c0-3.525-1.706-5.152-4.803-5.227m-.385 3.13c.898-.096 1.797.588 1.797 1.487v3.99c0 .856-.899 1.675-1.797 1.771-5.863.6-11.726 1.262-17.578 1.974V45.73a924 924 0 0 1 17.578-1.974M94.16 37.46a916 916 0 0 0-25.094 1.883v19.685a916 916 0 0 1 25.094-1.883v-3.172c-7.238.444-14.475.973-21.702 1.589V50.24a933 933 0 0 1 19.3-1.434v-3.172c-6.435.407-12.87.888-19.3 1.434v-4.846q10.846-.915 21.702-1.59zm35.305-1.493q-1.748.04-3.488.086v14.844c0 .899-.69 1.69-1.728 1.717-5.456.16-10.907.364-16.363.615-1.027.048-1.803-.684-1.803-1.588v-14.84l-3.397.177v14.235c0 4.46 2.707 5.3 7.142 5.103 4.161-.182 8.323-.343 12.485-.466 4.777-.15 7.152-1.139 7.152-5.643zm43.601.016V55.67c8.383.203 16.765.518 25.136.946v-3.172a921 921 0 0 0-21.734-.861v-5.312c6.446.177 12.892.417 19.333.733v-3.177c-6.44-.31-12.887-.557-19.333-.733v-4.847a951 951 0 0 1 21.734.856v-3.172a939 939 0 0 0-25.136-.947m39.077 1.82c-3.734.01-5.414 1.187-5.414 5.049v8.789c0 4.68 2.407 5.59 7.141 5.91q6.514.442 13.02.98c4.686.385 7.136-.412 7.136-4.836v-8.79c0-4.503-2.835-5.707-7.136-6.06a962 962 0 0 0-13.02-.984 27 27 0 0 0-1.727-.059m-.21 3.107c5.639.37 11.266.792 16.894 1.268.898.075 1.803.925 1.803 1.952v9.741c0 .899-.905 1.723-1.803 1.648a937 937 0 0 0-16.893-1.273c-1.032-.07-1.808-1.017-1.808-1.92v-9.731c0-1.032.776-1.755 1.808-1.685m28.39-.861v3.172c3.83.374 7.665.77 11.495 1.187v16.514q1.739.19 3.472.39V44.8q5.702.642 11.399 1.364v-3.177a948 948 0 0 0-26.367-2.937"/></svg>