<svg xmlns="http://www.w3.org/2000/svg" width="80" height="80" fill="none"><path fill="url(#a)" d="M69.92 6.773c-3.147-1.226-6.347-2.293-9.6-3.093a91 91 0 0 0-13.653-2.187c-2.24-.213-4.32-.266-6.56-.266h-.214c-2.24 0-4.32.106-6.56.266A91 91 0 0 0 19.68 3.68c-3.253.853-6.453 1.867-9.6 3.147l-.213.053s.373 23.307.693 34.88c.053 3.413.693 6.773 1.813 9.973 1.334 3.627 3.094 7.147 5.227 10.347a41.2 41.2 0 0 0 8.107 8.853c1.226 1.014 2.506 1.974 3.893 2.827 2.08 1.28 4.32 2.4 6.56 3.307.747.32 1.387.64 1.973.8.64.213 1.227.426 1.92.586.64-.16 1.28-.373 1.92-.586.587-.214 1.227-.48 2.027-.8 2.24-.96 4.48-2.027 6.56-3.307a40 40 0 0 0 3.84-2.827c3.093-2.56 5.867-5.546 8.107-8.853 2.133-3.2 3.893-6.72 5.226-10.347 1.12-3.2 1.76-6.56 1.814-9.973.32-11.573.693-34.88.693-34.88z"/><path fill="#B12B28" d="M39.253 66.133H22.187a47 47 0 0 0 4.053 3.894 30 30 0 0 0 3.68 2.72 50 50 0 0 0 6.293 3.2c.747.32 1.334.586 1.92.8l1.12.373zm0-12.746c-2.56-.214-5.013-1.28-6.986-2.934l-.32-.32h-18.88c.106.427.266.8.426 1.227.694 2.027 1.6 4 2.56 5.867h23.254v-3.84zM68.48 33.813H51.84v7.307h16.533c0-2.133.054-4.64.107-7.307m.32-15.306H40.267v7.04H68.64c.053-2.454.107-4.854.16-7.04"/><path fill="#613E18" fill-rule="evenodd" d="M62.347 62.027a41.2 41.2 0 0 1-8.107 8.853 40 40 0 0 1-3.84 2.827c-2.08 1.28-4.32 2.4-6.56 3.306-.747.32-1.387.64-1.973.8-.64.214-1.227.427-1.92.587-.64-.16-1.28-.373-1.92-.587-.587-.213-1.227-.48-2.027-.8-2.24-.96-4.48-2.026-6.56-3.306a40 40 0 0 1-3.84-2.827c-2.56-2.133-4.907-4.533-6.933-7.2l.106.107a40.6 40.6 0 0 0 7.04 7.466 40 40 0 0 0 3.894 2.827c2.026 1.28 4.16 2.347 6.293 3.307.747.32 1.387.586 2.027.8.64.266 1.226.48 1.92.586.64-.16 1.28-.373 1.92-.586.586-.214 1.226-.534 1.973-.8 2.293-.96 4.48-2.027 6.56-3.307a40 40 0 0 0 3.84-2.827 41.3 41.3 0 0 0 8.053-8.906 50 50 0 0 0 5.227-10.4c.373-1.067.64-2.134.907-3.254-.374 1.494-.907 2.88-.907 2.88a41.5 41.5 0 0 1-5.173 10.454M68.8 7.68c-3.04-1.227-6.133-2.187-9.28-2.987-4.32-1.066-8.747-1.76-13.173-2.133-2.187-.213-4.16-.267-6.347-.267h-.213c-2.187 0-4.16.107-6.347.267-4.427.373-8.853 1.067-13.173 2.133a80 80 0 0 0-9.174 2.987l-.16.053v.427l.107-.053h.16c2.987-1.174 6.027-2.187 9.173-2.987 4.32-1.067 8.747-1.76 13.174-2.133 2.186-.214 4.16-.267 6.346-.32H40c2.187 0 4.16.106 6.347.266C50.773 3.307 55.2 4 59.52 5.067c3.147.8 6.24 1.813 9.227 3.04h.053l.213.106v-.426l-.16-.107zM33.547 11.253c1.973-.16 3.733-.266 5.706-.266v-.427c-1.92 0-3.733.107-5.706.267-4.427.373-8.854 1.066-13.174 2.133A71 71 0 0 0 11.2 16h-.053v.427a78 78 0 0 1 9.226-2.987c4.32-1.12 8.747-1.813 13.174-2.187" clip-rule="evenodd"/><path fill="#634014" fill-rule="evenodd" d="M51.787 42.24h16.426c.054-.107.054-.267.054-.373h-16.48z" clip-rule="evenodd"/><path fill="#432918" fill-rule="evenodd" d="M60.533 54.827v.16c0 .106 0 .16-.106.16a4 4 0 0 0-1.814.96l-.106.106v-.053s.053-.16.16-.267c.533-.48 1.12-.8 1.813-.906.107-.054.107-.054.053-.16m-3.306-1.92a3.9 3.9 0 0 0-1.44 1.013c-.267.267-.48.64-.64 1.013v.16c.16-.32.373-.64.586-.906a3.6 3.6 0 0 1 1.387-.96c.053 0 .053-.054.107-.107v-.267c.053.054 0 .054 0 .054m-3.467-.8c-.747.426-1.333 1.12-1.76 1.866-.213.427-.32.854-.32 1.334v.106c0-.426.107-.8.267-1.226a4 4 0 0 1 1.76-1.76c.053-.16.106-.32.106-.534 0 .054-.053.16-.106.16zm-4.587.96a2.7 2.7 0 0 0-.693.853 3.47 3.47 0 0 0-.48 2.293c0-.693.213-1.386.533-1.973q.24-.48.64-.8c.054-.16.107-.267.107-.427-.053.054-.053.054-.107.054m-7.306 6.08v-.054c-.32-.213-.48-.586-.534-.96-.053.427.107.854.427 1.12zm15.253-14.72c-.48.213-.907.533-1.173.96-.32.32-.534.746-.694 1.226v.16c.16-.373.374-.746.694-1.066.32-.427.693-.747 1.173-.907.107-.053.107-.16.107-.427 0 0-.054 0-.107.054m4.587.746c-.587.107-1.12.32-1.6.694-.427.266-.747.693-.96 1.12 0 0-.107.106.053.16a4.05 4.05 0 0 1 2.507-1.654.115.115 0 0 0 .106-.106v-.267c-.053 0-.053.053-.106.053m3.36 2.24c0 .054 0 .107-.054.054-.8.053-1.546.373-2.133.96-.107.053-.053.106-.053.106l.106.107c.107-.053.16-.16.267-.213.533-.427 1.173-.64 1.813-.694.054 0 .107-.16.054-.32m-20.16 5.814c0 .426-.267.693-.587.8-.427.16-.907.106-1.173-.214a1.06 1.06 0 0 1-.96.374 1.1 1.1 0 0 1-.747-.534c-.053-.16-.107-.266-.107-.32-.32.054-.693.054-1.013.054v.32c.32 0 .693 0 1.013-.054 0 .107.054.214.107.32.16.267.427.427.693.48a1.18 1.18 0 0 0 1.014-.32c.32.32.8.374 1.226.214a.87.87 0 0 0 .587-.694c-.053-.16-.053-.32-.053-.426m.853 8.693a1.4 1.4 0 0 1-1.44 0 1.05 1.05 0 0 1-.48-.48c0-.053-.053-.053-.107-.053-.32.266-.746.426-1.12.373-.426-.053-.853-.267-1.12-.64-.213-.267-.266-.587-.266-.96-.054.427.106.853.32 1.173.213.374.586.587 1.013.64q.64.08 1.12-.32s.053 0 .107.054q.159.32.48.48c.426.266.96.266 1.44 0 .426-.32.746-.8.746-1.334 0 .48-.266.854-.693 1.067m10.507 2.133a4 4 0 0 0-.96.48q-.64.48-.96 1.28v.054h.053c.213-.427.533-.8.907-1.12.32-.214.64-.32.96-.48.053-.107.053-.16.053-.267 0 0 0 .053-.053.053m-2.4-1.386c.053 0 .053.053 0 0-.96.266-1.814.96-2.24 1.866v.107h.106a3.68 3.68 0 0 1 2.134-1.653c.053-.054.053-.214 0-.32m-4.16-.32c-.427.373-.747.853-1.014 1.333-.213.373-.266.853-.213 1.28 0 0 0 .053.053.053 0-.373.054-.746.214-1.066q.399-.72.96-1.28c.053-.107.053-.267.053-.374zm-3.627 1.44c-.427.48-.64 1.12-.48 1.76-.053-.534.16-1.12.533-1.494v-.32c-.053 0-.053.054-.053.054m-1.867 3.573.107-.053c.053 0 0-.054-.053-.107a2.4 2.4 0 0 1-.32-.853c-.054-.267-.107-.48-.107-.747 0 .32.053.64.107.96.053.32.16.587.266.8m1.814 3.52c-.267.267-.694.32-1.067.213-.32-.106-.64-.32-.853-.64H44c-.213.48-.64.854-1.12 1.014a1.27 1.27 0 0 1-.96-.267c-.213-.213-.373-.48-.373-.8 0 .8.106.907.373 1.067.267.213.64.32.96.266.48-.16.907-.533 1.12-1.013 0 0 .053-.053.107 0 .213.32.48.533.853.64s.747.053 1.067-.213c.266-.32.426-.694.426-1.12 0 .373-.16.64-.426.853m-3.894-1.547.16-.106v-.054c-.48-.16-.8-.586-.8-1.013 0 .427.267.907.64 1.173M12.8 22.08q.08-.08 0-.16a.9.9 0 0 1-.16-.533c0 .213.053.48.16.693m.907 15.947c.053 0 .053-.107.053-.16l-.32-.48c-.107-.107-.107-.214-.107-.374 0 .214.054.427.107.694.053.106.107.266.267.32m4.213 1.333c0 .373-.213.693-.533.8-.32.213-.747.32-1.12.213-.267-.106-.534-.266-.694-.48-.053-.106-.16 0-.266.054-.214.16-.48.266-.747.373-.48.213-1.067.107-1.387-.32a1.27 1.27 0 0 1-.266-.747c0 .32.106.694.266.96.32.48.96.64 1.494.427.266-.107.533-.213.746-.373.107-.054.16-.16.214-.107.213.213.48.373.746.48.374.107.8.053 1.12-.213.427-.214.64-.64.534-1.067zm-1.12-7.947c0 .374-.213.747-.587.96-.533.374-1.28.16-1.653-.373 0-.053-.16-.107-.213 0-.374.213-.747.373-1.174.373s-.8-.266-.96-.693c-.053-.107-.106-.213-.106-.373 0 .213 0 .373.106.586.16.427.534.694.96.747.427 0 .854-.107 1.227-.373a.16.16 0 0 1 .213 0 1.29 1.29 0 0 0 1.707.533c.32-.267.533-.533.48-1.387m-3.733-1.493.053-.053c.053 0 0-.107 0-.16a1.05 1.05 0 0 1-.32-.747c0 .32.053.587.213.853zm5.973 2.027c-.427.426-.693 1.013-.853 1.6a5.1 5.1 0 0 0 0 1.28c-.054-.32 0-.64.053-.96.16-.587.427-1.12.853-1.547v-.427zm3.787-1.28c-1.174.693-1.814 2.026-1.547 3.36-.107-1.227.533-2.347 1.547-2.987.053 0 0-.267 0-.427zm1.92 2.293c0 .053.106.107.106.107h.107c.427-1.12 1.173-2.027 2.133-2.72v-.427c0 .053 0 .107-.053.107-1.067.746-1.867 1.76-2.293 2.933m-5.44-8.533c-.32.16-.587.426-.8.746a3.17 3.17 0 0 0-.48 2.187v.107c-.054-.694.16-1.334.533-1.92.16-.32.427-.587.747-.747zm4-1.067c-.427.213-.8.587-1.12.96a3.8 3.8 0 0 0-.747 1.707c0 .106.053.16.107.213.16-.533.426-1.067.746-1.493.267-.427.64-.747 1.014-.96.106-.054.106-.16.106-.214v-.213c.054-.053 0 0-.106 0m4.8-.107c-.587.054-1.174.267-1.707.587-.587.32-.96.907-1.12 1.547 0 .106.053.16.107.16a2.66 2.66 0 0 1 1.066-1.334 4.2 4.2 0 0 1 1.6-.64c.107 0 .054-.106.054-.213v-.267c.106.107.053.107 0 .16m1.92 2.24.16-.106c.586-.374 1.226-.64 1.866-.747.054 0 .107 0 .107-.213v-.16s0 .053-.053.053c-.854.16-1.6.48-2.294 1.013-.106.107-.213.16-.053.16zm-9.707-9.866c-.64.373-1.173.906-1.653 1.493-.374.64-.587 1.387-.534 2.08h.054c.053-.64.213-1.227.586-1.76a8.8 8.8 0 0 1 1.6-1.547v-.48c0 .054 0 .107-.053.16zm5.227-1.227q-.88.64-1.6 1.28c-.48.533-.8 1.227-.854 1.92l.054.053h.053c.16-.586.427-1.12.8-1.546.48-.48.96-.907 1.493-1.227.054-.053.054-.16.054-.213zm5.386-.32c-.8.267-1.493.693-2.133 1.227-.427.48-.747 1.066-.853 1.706 0 0 .053 0 .106.054.16-.48.374-.96.747-1.334.64-.586 1.44-.96 2.24-1.226.053-.054.107-.107.107-.16v-.32a.115.115 0 0 1-.107.106zm4.587 2.187q-.96 0-1.92.16c-.427.16-.8.426-1.067.746-.053.054-.053.107 0 .107l.214.053c.266-.266.586-.426.906-.533q.96-.16 1.92-.16a.115.115 0 0 0 .107-.107v-.32c-.053 0-.107.054-.16.054m-18.667 7.2c-.16.48-.266.533-.64.746-.32.214-.746.32-1.173.214a1.46 1.46 0 0 1-.64-.48h-.107c-.266.16-.533.32-.8.373-.533.213-1.066 0-1.386-.427l-.054-.106c0-.054-.053-.054-.053-.107v-.267.107c0 .267.053.533.16.747.32.48.96.64 1.493.48a3.4 3.4 0 0 0 .747-.427h.107c.16.213.426.373.693.48.427.107.853 0 1.173-.213.214-.107.374-.32.48-.587.107-.213.107-.48.107-.693v.053zm18.294-2.88c-.054.053-.107.16-.214.16-.053 0-.16 0-.16-.054-1.28-1.12-2.933-1.706-4.64-1.76-4.693.107-9.333 1.334-13.493 3.467-.053 0-.053.107-.053.16a.7.7 0 0 1 .16.213 31.8 31.8 0 0 1 13.44-3.466 7.68 7.68 0 0 1 4.64 1.76c.053.053.106.106.213.106.053 0 .107-.16.16-.213.053-.267.053-.533.053-.853-.053.16-.053.32-.106.48m-6.827 7.306c-.48-.16-.96-.266-1.493-.32A21.75 21.75 0 0 0 16.693 30.4c-.053 0-.16.107-.106.16 0 .053.053.16.106.267 0-.054.054-.054.107-.107 3.093-1.76 6.56-2.773 10.133-2.827.48.054.96.16 1.387.32h.053zm.053 7.094v.053h-.16a15.7 15.7 0 0 0-5.44.64 26.6 26.6 0 0 0-5.333 2.347c-.107.053-.107.053 0 .16l.107.106A24.4 24.4 0 0 1 22.827 36c1.76-.533 3.573-.747 5.44-.693h.106zM47.04 51.04c-.747.533-1.547.96-2.4 1.333l.107.214q1.2-.48 2.24-1.28h.053c1.173-.32 6.027-2.027 8.96-2.08a10 10 0 0 1 5.227 1.28c.8.48 1.546 1.066 2.186 1.813 0 0 .054.107.107.107s.107-.054.107-.054c.213-.48.266-1.013.266-1.546 0 .426-.106.853-.266 1.28 0 .053-.054.053-.107.053s-.107-.107-.107-.107c-.64-.693-1.386-1.333-2.24-1.76-1.6-.853-3.413-1.333-5.226-1.28-2.987 0-7.734 1.76-8.96 2.08h-.107zm12.64 8.693a1 1 0 0 1-.373.107 7.3 7.3 0 0 0-1.28-1.28c-.587-.48-1.28-.853-2.027-1.013a10.8 10.8 0 0 0-3.467-.107 17.4 17.4 0 0 0-6.293 2.187c-.107.053-.16.106-.107.16.054.053.054.106.107.106 1.92-1.12 4.053-1.813 6.293-2.133 1.174-.16 2.347-.16 3.467.053.747.16 1.44.534 2.027 1.014.48.373.906.8 1.333 1.28.107 0 .267 0 .373-.054.107-.266.16-.533.214-.853-.107.16-.16.373-.267.533m-4.747 8.427c-.053.053-.16 0-.213 0-.32-.32-.693-.64-1.067-.853-1.013-.48-2.186-.694-3.306-.534-1.654.267-3.2.96-4.48 1.974-.107.053-.107.16-.107.213l.107.107a9.74 9.74 0 0 1 4.48-1.974c1.12-.16 2.293.054 3.306.534.374.213.747.48 1.067.8.053.053.16.053.213 0 .267-.267.427-.64.374-1.014 0 .267-.16.534-.374.747" clip-rule="evenodd"/><path fill="#36250D" fill-rule="evenodd" d="M68.853 15.147c.054-4.374.107-7.414.107-7.414h-.053s0 .267-.054.32c-.053.054 0 2.827-.106 6.987z" clip-rule="evenodd"/><path fill="url(#b)" d="m50.293 47.787.267-.054 1.653-.373c.054 0 .107-.107.107-.107q.32-1.2.96-2.24c.96-1.173 2.56-1.546 3.893-.853.054.053.054.16 0 .267v.053c-.48.213-.853.533-1.173.907-.373.32-.587.746-.747 1.226v.16c0 .054.854 0 1.174.054.053 0 .053 0 .106-.107.267-.853.747-1.6 1.44-2.187.694-.533 1.654-.746 2.507-.426.533.106.96.48 1.227.96 0 0 0 .106-.054.106-.586.107-1.12.374-1.6.747-.426.267-.746.64-.96 1.067 0 0-.106.106.054.16.426.106.8.213 1.173.373.053.053.16 0 .16-.053.427-.694 1.173-1.174 1.973-1.334 1.227-.213 2.347.32 2.56 1.12 0 .107.054.267 0 .267-.64.053-1.28.267-1.813.693-.107.054-.213.16-.32.267-.107.053-.053.107-.053.16.266.267 1.173.907 1.226 1.813.054.587-.053 1.12-.266 1.654 0 .053-.054.053-.107.053a.115.115 0 0 1-.107-.107c-.64-.693-1.386-1.333-2.24-1.813-1.6-.853-3.413-1.28-5.226-1.28-2.987.053-7.787 1.76-8.96 2.08h-.054zm7.627 5.973a3.04 3.04 0 0 0-1.493 1.333s-.054.16-.107.107c-.267 0-.8-.107-1.067-.107-.16 0-.106-.106-.053-.16.107-.373.32-.746.64-1.013.373-.427.907-.8 1.44-1.013.053 0 .053-.054.053-.054-.373-.426-.906-.746-1.493-.746a2.5 2.5 0 0 0-1.973.746 3.7 3.7 0 0 0-1.067 2.4.115.115 0 0 1-.107.107c-.32.053-.586.107-.906.107-.054 0-.054-.054-.054-.107 0-.48.107-.907.32-1.333.427-.8 1.014-1.44 1.76-1.867.107-.107.107-.267.107-.267a3 3 0 0 0-2.773.267c-.534.32-1.014.747-1.28 1.333-.32.8-.48 1.654-.534 2.507a.115.115 0 0 1-.106.107 6 6 0 0 0-1.067.266s-.053 0-.053-.053c-.107-.8.053-1.653.48-2.347.16-.32.426-.64.693-.853.053-.053.053-.107.053-.16s-.053-.053-.106-.053a3.18 3.18 0 0 0-2.08.373c-.8.427-1.387 1.227-1.494 2.133-.053.64-.053 1.28.16 1.92 0 0 0 .107-.053.107-.213.107-.907.48-1.12.587h-.053a1.9 1.9 0 0 0-.854-1.174c-.48-.213-1.013-.16-1.44.054-.32.16-.533.426-.693.746-.213.534-.053 1.174.427 1.494 0 0 .053.053 0 .053-.267.16-.267.213-.534.533-.213.48-.16 1.014.16 1.44.267.374.64.587 1.067.64s.853-.106 1.173-.373c0 0 .054 0 .107.053q.16.321.48.48c.48.267 1.013.267 1.493 0 .48-.266.747-.8.694-1.333 0-.32-.107-.64-.374-.853-.053-.054 0-.107.107-.16 1.973-1.12 4.107-1.867 6.293-2.134 1.174-.16 2.294-.16 3.467.054.747.16 1.44.533 2.027 1.013.48.373.906.8 1.333 1.28.107 0 .267 0 .373-.107.214-.533.267-1.12.054-1.653a5.6 5.6 0 0 0-1.227-1.92v-.053s.053-.16.16-.267c.533-.48 1.12-.853 1.813-.96.107 0 .107-.053.054-.16-.694-.907-1.814-1.28-2.827-.96M70.133 6.827s-.373 23.306-.693 34.88c-.053 3.413-.693 6.773-1.813 10.026-1.334 3.627-3.094 7.147-5.227 10.347a41.2 41.2 0 0 1-8.107 8.853c-1.226 1.014-2.506 1.974-3.893 2.827a42 42 0 0 1-6.56 3.307c-.747.32-1.387.64-2.027.8-.64.213-1.226.426-1.92.586-.64-.16-1.28-.373-1.92-.586a39 39 0 0 1-1.973-.8c-2.293-.96-4.48-2.027-6.56-3.307a40 40 0 0 1-3.84-2.827c-3.093-2.56-5.867-5.546-8.107-8.853-2.133-3.2-3.893-6.72-5.226-10.347-1.12-3.2-1.76-6.56-1.814-9.973-.32-11.573-.693-34.88-.693-34.88.053 0 .107-.053.213-.053 3.147-1.227 6.347-2.294 9.6-3.094A90.6 90.6 0 0 1 33.28 1.547c2.24-.214 4.32-.267 6.56-.267h.213c2.24 0 4.32.107 6.56.267 4.587.373 9.174 1.12 13.707 2.186 3.253.8 6.453 1.867 9.6 3.094zM12.8 49.333h18.293c-1.706-1.813-2.666-4.213-2.72-6.72v-.266h-16.64c.054 2.346.427 4.693 1.067 6.986m26.453 16.8H22.187a47 47 0 0 0 4.053 3.894 30 30 0 0 0 3.68 2.72 50 50 0 0 0 6.293 3.2c.747.32 1.334.586 1.92.8.427.16.747.266 1.12.373zm0-7.946h-22.72a53 53 0 0 0 1.974 3.253c.853 1.333 1.866 2.613 2.88 3.787h17.866zm0-4.8c-2.56-.214-5.013-1.28-6.986-2.934l-.32-.32h-18.88c.106.427.266.8.426 1.227.694 2.027 1.6 4 2.56 5.92h23.254v-3.893zm0-42.667c-1.92 0-3.733.107-5.706.267a84 84 0 0 0-13.12 2.133c-3.147.8-6.24 1.813-9.227 2.987h-.053c.16 7.466.32 18.346.48 25.226h16.746V35.04h-.106c-1.867-.107-3.68.16-5.44.693a21.7 21.7 0 0 0-5.334 2.347c-.106.053-.106.053 0 .16.214.267.374.533.48.853.107.427-.106.907-.533 1.067-.32.213-.747.32-1.12.213a2.2 2.2 0 0 1-.747-.48c-.053-.106-.16 0-.213.107-.213.16-.48.267-.747.373-.48.214-1.12.107-1.44-.373a1.28 1.28 0 0 1 0-1.493c.16-.16.427-.267.587-.427 0 0 .053-.107 0-.16l-.32-.48c-.16-.533.053-1.067.48-1.387.427-.266.907-.32 1.387-.106.266.106.533.533.693.746.053.054.107.107.16.054l.427-.267c.053 0 0-.16 0-.213-.534-1.334-.694-2.24-.16-3.254.32-.586.853-1.013 1.546-1.226.427-.107.854-.107 1.227.053.053 0 0 .107 0 .107-.427.426-.693 1.013-.853 1.6-.107.533-.054 1.066.053 1.546.053.107.107.107.16.107a8 8 0 0 0 1.013-.373c.054 0 0-.16 0-.214-.213-.853-.213-1.76.107-2.56.533-1.12 1.707-1.76 2.933-1.706.214 0 .48.213.32.32-1.12.693-1.706 1.973-1.493 3.306 0 .054.053.107.107.107.426-.107.853-.213 1.28-.373.053 0 .053-.16.053-.214 0-1.013.373-2.026 1.013-2.826a3.71 3.71 0 0 1 2.88-1.174c.214.054.374.16.534.32a.16.16 0 0 1 0 .214c-1.067.693-1.867 1.706-2.347 2.933 0 0 .053.107.107.107.64-.054 1.28-.16 1.92-.214.106 0 .106 0 .106-.106a3.06 3.06 0 0 1 1.387-1.76c.053 0 .053-.054.107-.054v-2.986h-.054c-.48-.16-.96-.32-1.493-.32a21.75 21.75 0 0 0-10.133 2.826c-.054 0-.16.107-.107.16.373.907.16 1.44-.373 1.814-.587.373-1.334.16-1.707-.427a.16.16 0 0 0-.213 0 1.92 1.92 0 0 1-1.174.373c-.426 0-.8-.266-.96-.693-.213-.693.16-1.493.854-1.707.053 0 .053-.053 0-.106-.427-.48-.374-1.227.106-1.6l.107-.107c.587-.373 1.387-.16 1.707.427.053.106.106.16.106.266 0 .054 0 .054.107 0 .213-.053.427-.106.587-.213.106 0 .16-.32.16-.373.053-1.547 0-2.507 1.013-3.52.427-.427 1.92-.747 2.24-.32v.106c-.32.16-.587.427-.747.747a3.18 3.18 0 0 0-.48 2.187c0 .053 0 .16.054.106.426-.16.906-.32 1.28-.48.053 0 0-.106 0-.16A4.47 4.47 0 0 1 20.373 24c.694-.747 2.347-1.493 3.147-.747.053.054 0 .16-.107.214q-.64.32-1.12.96a3.8 3.8 0 0 0-.746 1.706c0 .054.106.214.16.214.373-.054 1.013-.16 1.386-.267.214-.053.16-.107.16-.32.16-1.653 1.44-2.933 3.04-3.093.534-.107 1.12 0 1.6.266.107.107.267.16.32.32q.081.08 0 .16h-.053a3.6 3.6 0 0 0-1.653.587c-.587.32-.96.907-1.12 1.547 0 .053.053.16.106.16.48 0 1.067 0 1.494-.054a.115.115 0 0 0 .106-.106c.32-.907 1.067-1.654 2.027-1.92 1.067-.374 2.187-.107 2.987.693.106.107.053.16 0 .16-.854.16-1.6.48-2.294 1.013-.106.107-.213.16-.053.16h9.44V10.72zm7.84 40.373c-.746.534-1.546.96-2.4 1.334l.107.213c.107.213.107.427.107.64 0 .373-.214.64-.587.747-.427.16-.907.106-1.227-.214-.266.267-.64.427-.96.32-.32-.053-.533-.266-.693-.533-.053-.16-.107-.267-.107-.32-.32 0-.693.053-1.013.053v24c.373-.106.907-.32 1.493-.533q.88-.32 1.92-.8a46.5 46.5 0 0 0 6.294-3.2c1.28-.853 2.56-1.76 3.733-2.72 2.987-2.453 5.6-5.387 7.787-8.587 2.08-3.146 3.786-6.506 5.013-10.026a31.4 31.4 0 0 0 1.76-9.387H51.787v.587c-.054 3.413-1.814 6.613-4.694 8.426m21.387-17.28H51.84v7.254h16.533c.054-2.134.054-4.64.107-7.254m.16-7.253h-16.8v6.187h16.693c0-1.974.054-4.107.107-6.187m.16-8.053H40.32v7.04h28.373c.054-2.454.107-4.854.107-7.04m0-2.347a82 82 0 0 0-9.28-2.987c-4.32-1.066-8.747-1.76-13.173-2.133-2.08-.213-4-.267-6.134-.267V17.6h28.48c.054-.48.054-1.013.107-1.44m.16-8.267-.213-.106A78 78 0 0 0 59.52 4.8c-4.267-1.067-8.693-1.76-13.12-2.133-2.133-.214-4.107-.267-6.293-.32h-.16c-2.24 0-4.214.106-6.347.32-4.427.373-8.853 1.066-13.173 2.133-3.147.8-6.24 1.813-9.227 2.987l-.213.053s.053 2.987.106 7.36l.054-.053c2.986-1.227 6.08-2.187 9.226-2.987 4.32-1.067 8.694-1.76 13.174-2.133 2.186-.214 4.16-.32 6.346-.32h.214c2.186 0 4.16.16 6.293.32 4.427.373 8.853 1.066 13.173 2.133 3.147.8 6.187 1.813 9.227 2.987h.053c.054-4.32.107-7.307.107-7.307zM53.493 63.467a3.26 3.26 0 0 0-1.12 1.28s0 .106-.106.106l-.694-.213v-.107a3.61 3.61 0 0 1 2.24-1.813s.054-.053 0-.053c-.373-.854-2.133-.8-2.986-.214-.8.534-1.387 1.334-1.6 2.294v.106c-.267.107-.48.16-.747.16-.053 0-.053 0-.053-.053-.054-.427 0-.907.213-1.28.267-.48.64-.907 1.013-1.28q.081-.08 0-.16a1.54 1.54 0 0 0-1.653 0c-.693.373-1.227 1.013-1.493 1.813-.16.587-.16 1.227.053 1.867v.107c-.267.106-.427.213-.693.32h-.107c-.427-.747-.32-1.707.267-2.4.053-.054.106-.107 0-.16-.64-.107-1.28.16-1.707.64a2.19 2.19 0 0 0-.373 2.133c.053.267.16.587.32.853 0 0 .106.054.053.107l-.48.373h-.053a1.5 1.5 0 0 0-.96-.746c-.374-.107-.747 0-1.014.266a1.175 1.175 0 0 0 0 1.654c.107.106.267.213.48.266 0 0 .054.054 0 .054-.266.16-.48.426-.586.693-.16.427-.054.96.266 1.333.267.214.587.32.96.267.48-.16.907-.533 1.174-1.013 0 0 .053-.054.106 0 .214.32.534.533.854.64.373.106.746.053 1.013-.214.373-.32.533-.853.373-1.28-.16-.266-.373-.533-.64-.693 0 0 0-.107.054-.16a9.3 9.3 0 0 1 4.48-2.027c1.12-.16 2.293.054 3.306.534.427.213.747.533 1.067.853.053 0 .16.053.213 0 .48-.48.534-1.227.107-1.76a2 2 0 0 0-.64-.533v-.054c.213-.48.533-.96.96-1.28q.48-.32.96-.48.08 0 0-.16c-.427-.96-2.027-.96-2.827-.48zm-19.52-48.48c.747.053 1.44.533 1.707 1.28a.115.115 0 0 1-.107.106c-.64 0-1.28.054-1.973.16-.427.16-.8.427-1.067.747-.053.053-.053.107 0 .107.747.16 1.44.533 1.974 1.12.64.533.906 1.386.64 2.186-.054.107-.107.16-.16.214a.4.4 0 0 1-.214-.107 7.07 7.07 0 0 0-4.64-1.76A30.4 30.4 0 0 0 16.64 22.4c-.053 0-.053.107-.053.16.213.267.32.64.266.96-.16.48-.266.533-.64.747-.533.426-1.333.373-1.76-.214h-.16c-.266.16-.533.32-.8.427-.533.213-1.066 0-1.386-.427-.374-.693-.054-1.546.64-1.92h.053q.08-.08 0-.16c-.32-.533-.107-1.28.427-1.546.533-.267 1.6-.48 1.92.48 0 .053.053.053.106.053.267-.053.48-.16.747-.267.053 0 .107-.16.053-.266a4.4 4.4 0 0 1 .64-3.627c1.067-1.173 2.294-1.76 3.627-1.227.053 0 0 .107 0 .16-.533.534-1.227.907-1.6 1.494a4.3 4.3 0 0 0-.587 2.133c0 .053.107.053.107 0 .64-.213 1.493-.533 2.293-.747.054 0 .16 0 .16-.053 0-.427 0-.907.107-1.333.213-1.227 1.013-2.294 2.187-2.774.8-.373 1.76-.373 2.56-.053.053 0 .053.16 0 .16a9.4 9.4 0 0 0-1.6 1.28c-.48.533-.747 1.173-.854 1.92 0 0 0 .053.054.053.693-.16 1.44-.32 2.186-.426a.115.115 0 0 0 .107-.107c.107-.693.64-2.56 1.6-3.147.96-.693 2.187-.906 3.36-.586.267.106.48.32.64.533.053.053 0 .16-.107.16-.8.267-1.546.693-2.133 1.28-.427.48-.747 1.013-.8 1.653 0 .054.053.054.107.054h1.92c.053 0 .106 0 .106-.054a3.68 3.68 0 0 1 1.6-1.76c.694-.426 1.44-.533 2.24-.426"/><path fill="url(#c)" fill-rule="evenodd" d="M60.533 5.707a82 82 0 0 1 6.987 2.24c.053 0 .053.106.053.16V9.12c0 .107-.053.16-.213.107C65.973 8.693 64 8 62.133 7.573c0 0-.053 0-.053.054v.586s0 .054.053.054C64 8.8 65.76 9.333 67.413 9.973c.054 0 .054.054.054.107v1.547c-1.654-.587-3.52-1.227-5.387-1.76h-.053v.586c0 .054 0 .054.053.107a63 63 0 0 1 5.333 1.813c.054 0 .054.054.107.107v1.333s0 .107-.107.054a81 81 0 0 0-6.933-2.24c-.053 0-.053-.054-.053-.107 0-1.973.053-3.733.106-5.707zM52.48 9.973c.48.107 1.067.16 1.493.214.054 0 .107 0 .107-.054V8.107c0-.054 0-.054.053 0 1.227.213 2.347.426 3.574.693 0 0 .16 0 .16.107 0 .693 0 1.28-.054 1.973 0 .053.054.107.107.107l1.333.32h.16c.054-1.494.107-3.787.107-5.76v-.054a70 70 0 0 0-1.493-.32c-.054 0-.054.054-.054.107-.053.747 0 1.387-.106 2.08v.053a88 88 0 0 0-3.627-.746V4.48a.115.115 0 0 0-.107-.107A12 12 0 0 0 52.8 4.16c-.053 0-.053.053-.053.053 0 .907-.16 4.694-.16 5.707zm-6.133-6.666c-.64-.054-1.227.426-1.334 1.066v3.84c0 .427.32.8.747.907 1.973.213 3.893.373 6.08.693 0 0 .107 0 .107-.053V8.427c0-.054-.054-.054-.107-.107-1.493-.213-3.413-.427-5.12-.64-.107 0-.16-.107-.213-.213v-2.56c0-.107.16-.16.266-.16 1.707.16 3.414.426 5.12.64.054 0 .107 0 .107-.054v-1.28a.115.115 0 0 0-.107-.106c-1.813-.267-3.253-.427-5.546-.64m-2.614-.16c-1.866-.054-3.893-.16-5.813-.054-.373 0-.907.374-.96.747v2.08c0 .427.533.747.96.747 1.493.053 2.827 0 4.267.106.106 0 .213.054.213.16v.427c0 .053-.053.16-.107.16-1.706 0-3.413-.107-5.12.053-.106 0-.106 0-.106.054l-.054 1.226v.107a58 58 0 0 1 6.08 0c.48 0 .907-.373.96-.853V6.08c0-.427-.533-.747-.853-.747-1.44-.106-3.04-.053-4.48-.106-.053 0-.16-.054-.16-.16V4.64c0-.107.053-.107.16-.107 1.44-.053 3.573 0 5.013.054a.23.23 0 0 0 .214-.214V3.36c0-.053-.107-.213-.214-.213M35.2 6.88c.427-.16.64-.587.64-1.013 0-.587 0-1.227-.053-1.814-.107-.48-.534-.8-1.014-.8-1.333 0-4.32.427-5.973.587v5.92l1.493-.213s.054 0 .054-.054V7.787l3.04-.32c.266-.054.586.16.8.533.213.32.32.693.373 1.067l1.493-.107h.107a3.27 3.27 0 0 0-.96-2.08m-1.067-1.227c0 .267-.213.48-.426.534l-3.36.32V5.12l3.52-.32c.16 0 .266.053.266.213zm-6.24-.586c0-.267-.16-.48-.373-.64a1.27 1.27 0 0 0-.747-.267c-1.706.267-3.466.64-5.28 1.013-.266.107-.533.214-.746.48-.16.16-.32.427-.32.64V9.92c0 .32.106.587.32.853.16.214.373.374.64.374 1.76-.374 3.52-.747 5.226-1.014.32-.106.64-.266.854-.533.213-.213.32-.48.32-.747zm-1.76 3.36c0 .106-.053.266-.16.32-.106.053-.266.106-.373.16-.907.213-2.24.426-3.2.586-.107.054-.213 0-.267-.053-.106-.107-.106-.213-.106-.32V6.773q0-.16.16-.32a.86.86 0 0 1 .373-.213c.96-.16 2.133-.427 3.147-.533.106 0 .266 0 .373.053s.16.213.16.32zM19.84 6.773c-.053-.266-.16-.48-.373-.64-.267-.213-.587-.266-.907-.213-2.08.533-4.213 1.333-6.293 2.08-.054.053-.107.107-.107.16v5.813s1.493-.586 1.867-.693c.053 0 .053-.053.053-.107v-1.706c0-.054 0-.107.053-.107l5.227-1.6a.83.83 0 0 0 .427-.32.86.86 0 0 0 .16-.48zm-1.707 1.76c0 .16-.213.32-.373.374l-3.787 1.226h-.106V8.96c0-.053.053-.107.106-.107a25.6 25.6 0 0 1 3.894-1.28.23.23 0 0 1 .213.214v.8z" clip-rule="evenodd"/><path fill="#432918" fill-rule="evenodd" d="M13.973 9.12a.115.115 0 0 0-.106.107v-.32c0-.054.053-.107.106-.107 1.28-.533 2.56-.96 3.894-1.28.106-.053.213.107.213.213V8c0-.107-.16-.213-.267-.213-1.28.373-2.613.8-3.84 1.333m5.867-.107c0 .16-.053.374-.16.48a.83.83 0 0 1-.427.32l-5.226 1.6c-.054 0-.054.054-.054.107v.267c0-.054 0-.107.054-.107l5.226-1.6a.83.83 0 0 0 .427-.32.86.86 0 0 0 .16-.48zm-5.867 4.214c0 .053 0 .106-.053.106-.32.107-1.867.694-1.867.694v.266s1.494-.586 1.867-.693c.053 0 .053-.053.053-.107zM25.92 5.813c-.107-.053-.213-.106-.373-.053-.96.16-2.187.373-3.094.533-.16 0-.266.107-.373.214-.053.106-.107.213-.107.32v.32c0-.107.054-.214.107-.32.107-.107.267-.16.373-.214.96-.16 2.134-.426 3.094-.586.106 0 .266 0 .373.053s.16.213.16.32v-.32c.053-.053 0-.213-.16-.267m.747 4.267c-1.707.32-3.52.64-5.227 1.013-.267 0-.533-.106-.64-.373a1.18 1.18 0 0 1-.32-.8v.267q.08.48.32.8c.213.266.48.426.64.373 1.76-.373 3.52-.747 5.227-1.013.32-.107.64-.267.853-.534.213-.213.32-.48.32-.746v-.32c0 .266-.107.533-.32.746-.213.32-.48.48-.853.587m7.146-5.28-3.573.373v.32l3.573-.373c.107 0 .267.053.267.213v-.32c0-.106-.107-.213-.267-.213m1.974 1.387v-.374c0 .427-.214.854-.64 1.014.053.053.16.106.213.213.267-.16.427-.48.427-.853m.266 2.826-1.493.107c-.053-.373-.16-.747-.373-1.067-.214-.373-.534-.586-.8-.533l-3.04.32v.32l3.04-.32c.266-.053.586.16.8.533.213.32.32.694.373 1.067l1.493-.107h.107v-.32zm-5.76.534L28.8 9.76v.32l1.493-.213v-.32m13.44-4.64a.23.23 0 0 0 .214-.214v-.32a.23.23 0 0 1-.214.214c-1.493-.054-3.626-.107-5.013-.054-.107 0-.16 0-.16.107v.267c0-.107.107-.107.16-.107 1.44-.053 3.573 0 5.013.107m-5.813 2.08c1.493 0 2.827 0 4.267.106.106 0 .213.054.213.16v-.32c0-.106-.107-.16-.213-.16-1.44-.106-2.774-.053-4.267-.106-.427 0-.96-.32-.96-.747v.32c0 .373.533.747.96.747m5.067 1.973a58 58 0 0 0-6.08 0v.32a58 58 0 0 1 6.08 0c.48 0 .906-.373.96-.853v-.32a.98.98 0 0 1-.96.853m8.96-3.573c-1.707-.214-3.414-.48-5.12-.64-.107 0-.267.053-.267.16v.32c0-.107.16-.16.267-.16 1.706.16 3.413.426 5.12.64.053 0 .106 0 .106-.054v-.32s-.053.054-.106.054m-.054 4.48c-2.186-.32-4.106-.48-6.08-.694a.98.98 0 0 1-.746-.96v.32c0 .427.32.8.746.96 1.974.214 3.894.374 6.08.694 0 0 .107 0 .107-.054v-.266c-.053-.054-.107 0-.107 0m5.974-.694v-.32c0-.16-.16-.106-.16-.106a71 71 0 0 0-3.574-.694c-.053 0-.053 0-.053.054v.32c0-.054 0-.054.053-.054 1.174.214 2.347.427 3.574.694-.054 0 .106 0 .16.106m-3.894 1.014c-.426-.107-.96-.16-1.493-.214v.267c.48.107 1.013.16 1.44.213.053 0 .107 0 .107-.053v-.267c0 .054-.054.054-.054.054m5.28 1.12-1.333-.32a.115.115 0 0 1-.107-.107v.32c0 .053.054.107.107.107l1.333.32c.107 0 .16 0 .16-.054v-.32c-.053.054-.053.107-.16.054m8.214-2.027c-1.387-.533-3.36-1.227-5.227-1.653h-.053v.32h.053c1.813.48 3.787 1.173 5.173 1.653.107.053.214 0 .214-.107v-.266c0 .106-.107.106-.16.053m.106 2.4c-1.653-.587-3.52-1.227-5.386-1.76h-.054v.267h.107c1.867.533 3.733 1.12 5.387 1.76v-.374c-.054 0-.054.054-.054.107m-.106 2.24a81 81 0 0 0-6.934-2.24c-.053 0-.053-.053-.053-.107v.32s0 .107.053.107c2.347.64 4.64 1.387 6.934 2.24.106 0 .106-.053.106-.053v-.32s0 .053-.106.053" clip-rule="evenodd"/><path fill="#000" d="M67.36 8.64v.48l-.373-.16-.267-.107c-.64-.213-1.227-.426-1.813-.64a11 11 0 0 0-1.654-.48l-.426-.106-.48-.16-.374-.107v1.12l.267.053.16.054.32.106.32.107c.64.213 1.333.373 1.973.587s1.334.426 1.92.64l.16.053.32.107v1.173l-.32-.107-.213-.053c-.693-.213-1.387-.48-2.133-.693-.747-.214-1.494-.48-2.24-.64l-.587-.16v1.066l.213.054.48.16.427.16.213.053.16.053c.64.214 1.28.374 1.867.587s1.227.373 1.76.587h.107l.106.053.214.053V13.6l-.32-.107h-.107c-1.067-.373-2.133-.746-3.147-1.013-.96-.267-2.133-.693-2.986-.907v-2.24c0-.853.053-3.146.053-3.2 0-.053 2.133.587 3.093.907s1.974.64 2.934 1.013h.053L67.2 8l.32.107v.533zm-8.213-2.987c-.16-.053-.32-.106-.427-.106l-.587-.107v2.293l-.266-.053-.214-.053-.16-.054h-.16l-1.28-.266-1.333-.267h-.107l-.32-.053-.32-.054h-.106v-2.4L53.6 4.48h-.213l-.267-.053-.32-.054V5.92c0 .533 0 1.067-.053 1.653v2.24l.266.054h.16l.267.053.427.053v-2.24h.213L55.467 8l2.026.427h.214l.213.053.213.053v2.24l.32.054.214.053.213.053.32.054v-.48c0-.64 0-1.387.053-2.134.054-.8 0-1.6 0-2.4v-.32zM48.373 3.68 46.4 3.52c-.267 0-.533.107-.747.267s-.373.373-.426.64v3.84c0 .106 0 .213.053.266.053.107.107.16.16.214a.86.86 0 0 0 .373.213c.107 0 .16.053.267.053h.107l2.56.267c.906.107 1.706.16 2.613.32l.427.053V8.64l-.48-.107-.374-.053h-.106l-2.134-.267c-.746-.106-1.44-.16-2.186-.266-.054 0-.054 0-.107-.054V4.907c0-.107 0-.214.107-.267.106-.053.213-.107.32-.107.48 0 4.48.587 5.12.64V4.107C51.04 4 49.6 3.84 48.373 3.68m-12.64 4.213c.16.32.267.694.267 1.014l-1.28.053a8.5 8.5 0 0 0-.373-1.067 1 1 0 0 0-1.014-.586l-3.253.32v1.706l-.587.054-.586.053V4s5.226-.587 5.76-.587c.533.054.693.32.746.64.054.64.107 1.28.054 1.92-.107.32-.32.64-.587.8.427.374.693.694.853 1.12m-1.386-2.88c0-.106-.054-.213-.107-.32-.107-.106-.267-.106-.427-.106l-3.733.373v1.653l1.813-.16 1.814-.16c.16 0 .373-.106.48-.213s.16-.32.213-.48zm-6.774.054V8.8c-.053.48-.373.907-.853 1.013l-5.12.96c-.373.107-.853-.426-.853-.8v-3.68c0-.426.426-.746.853-.853.373-.107 4.853-.96 5.173-1.013a.716.716 0 0 1 .8.64q.081-.081 0 0m-1.173.96c0-.32-.16-.587-.587-.534-.64.107-2.613.48-3.306.587-.534.107-.747.32-.747.8v2.347c0 .32.213.586.533.533l3.627-.693c.32-.054.533-.374.48-.64.053-.32.053-2.24 0-2.4M43.2 5.6c-.427 0-.907-.053-1.387-.053h-3.36c-.053 0-.053 0-.106-.054-.054-.053-.054-.106-.054-.213v-.853c0-.054.107-.107.267-.107h5.067v-.907L42.08 3.36h-4.16c-.16 0-.32.107-.427.16a.36.36 0 0 0-.213.32v2.24c0 .107.107.213.213.32q.24.16.48.16h2.987c.533 0 1.013 0 1.493.053.16 0 .214.054.214.16v.587c0 .107 0 .267-.054.373-.053.054-.16.107-.32.107H38.4l-1.12.053v.96l1.547-.053h4.266c.16 0 .32-.053.427-.16s.213-.213.213-.373v-2.08a.36.36 0 0 0-.213-.32.86.86 0 0 0-.373-.214zM19.573 6.773l.054 2.187c0 .16-.054.32-.16.427-.054.106-.16.16-.267.213l-5.44 1.707v1.866s-1.387.48-1.44.534V8.32c0-.053 0-.053.107-.107.106-.053 1.706-.64 3.786-1.333.587-.213 2.027-.64 2.347-.693.213-.054.48 0 .693.106.16.107.32.267.32.48M18.347 8.48c0-.16 0-.64-.054-.747a.4.4 0 0 0-.106-.266.4.4 0 0 0-.267-.107h-.053s-1.227.32-1.867.587-2.293.853-2.293.853v1.653l4.16-1.333c.106-.053.213-.107.32-.213.053-.107.106-.267.16-.427m18.08 19.573v1.494c0 .16 0 .32-.107.48-.107.106-.267.213-.427.16a.6.6 0 0 1-.426-.16c-.107-.16-.107-.32-.107-.48v-1.494c0-.106-.053-.213-.16-.213s-.213.053-.213.16v1.44c0 .32.053.587.213.853.16.214.48.374.747.32.266.054.586-.106.746-.32.16-.266.214-.533.16-.853v-1.387a.29.29 0 0 0-.16-.266.29.29 0 0 0-.266.16c.053.053.053.053 0 .106m2.08.16A.23.23 0 0 0 38.72 28a.23.23 0 0 0-.213-.213h-1.174a.23.23 0 0 0-.213.213.23.23 0 0 0 .213.213h.427v2.24a.23.23 0 0 0 .213.214.23.23 0 0 0 .214-.214v-2.24zm1.76 0A.23.23 0 0 0 40.48 28a.23.23 0 0 0-.213-.213h-1.12a.23.23 0 0 0-.214.213.23.23 0 0 0 .214.213h.373v2.24a.23.23 0 0 0 .213.214.23.23 0 0 0 .214-.214v-2.24zm2.24.747h-.64c-.16 0-.214.107-.214.16 0 .107.054.213.16.213h.427v.107a.765.765 0 0 1-.533.853c-.214 0-.427-.106-.48-.32a1.7 1.7 0 0 1-.16-.746c0-.267.053-.534.16-.747a.465.465 0 0 1 .426-.32c.16 0 .32.107.427.267.053.053.16.106.213.053.107 0 .107-.107.107-.213-.107-.32-.427-.534-.747-.48-.32-.054-.586.106-.746.426s-.267.64-.214 1.014c0 .32.054.693.214 1.013.16.267.426.48.746.48a.86.86 0 0 0 .48-.16c.267-.16.427-.427.48-.747v-.48c.054-.16.054-.32-.106-.373m6.613-.747a.23.23 0 0 0 .213-.213.23.23 0 0 0-.213-.213H48a.23.23 0 0 0-.213.213.23.23 0 0 0 .213.213h.373v2.24a.23.23 0 0 0 .214.214.23.23 0 0 0 .213-.214v-2.24zM46.773 29.6h.054c.16-.053.266-.16.373-.267.16-.16.267-.373.213-.64 0-.266-.16-.48-.32-.64-.213-.106-.426-.213-.693-.213h-.587c-.053 0-.106 0-.16.053-.053.054-.053.107-.053.16V30.4c0 .107.053.213.16.213h.053c.107 0 .214-.053.214-.16v-.8h.373l.587.854c.053.053.106.106.16.106.106 0 .213-.053.213-.16 0-.053-.053-.106-.053-.16zm-.746-.32v-1.067h.48c.16 0 .32.054.426.16.107.107.16.214.16.374 0 .32-.266.586-.586.533h-.48m-1.654-1.227c0-.16-.16-.266-.32-.213a.23.23 0 0 0-.213.213l-.747 2.347v.16c.054.053.107.053.16.107.107 0 .214 0 .214-.16l.106-.427h1.067l.107.373c.053.107.106.16.213.16.053 0 .107 0 .16-.053a.16.16 0 0 0 0-.213zm.107 1.707h-.8l.427-1.493.48 1.493zm-11.787-.533c-.266-.16-.533-.214-.853-.267-.213-.053-.32-.213-.32-.427.053-.213.267-.32.48-.32s.373.054.533.214c.107.16.32 0 .32-.107s-.213-.48-.746-.48c-.214 0-.427.053-.587.16s-.32.32-.32.533.053.48.213.64.374.214.534.214a.76.76 0 0 1 .64.32c.053.106 0 .266-.054.373a.86.86 0 0 1-.48.16c-.16 0-.373-.053-.48-.213a.4.4 0 0 0-.266-.107c-.107.053-.16.16-.107.267.16.266.48.48.853.426.32 0 .587-.106.8-.266.16-.16.214-.374.214-.587-.054-.213-.16-.427-.374-.533m1.76-1.014a.23.23 0 0 0 .214-.213.23.23 0 0 0-.214-.213H33.28a.23.23 0 0 0-.213.213.23.23 0 0 0 .213.213h.373V30.4c0 .107.054.213.16.213s.214-.053.214-.16v-2.24zM18.133 17.6c.32-.693.854-1.28 1.494-1.707.32-.213.32-.266.32-.32s-.054-.053-.48-.053c-.64.053-1.227.32-1.654.693a3.45 3.45 0 0 0-1.173 1.92 8.3 8.3 0 0 0 .053 2.56s-1.066.48-1.386.694c-.107-.267-.214-.534-.374-.747-.32-.267-.8-.32-1.226-.107-.32.16-.534.48-.48.854.053.266.16.533.32.746a2.2 2.2 0 0 0-.747.48c-.267.267-.373.694-.267 1.067.107.32.48.533.854.48.426-.107.853-.32 1.173-.587l.48.48c.16.107.373.214.587.214.16 0 .32-.054.48-.107.32-.16.48-.533.426-.853-.053-.48-.533-.694-.48-.854a29.1 29.1 0 0 1 7.574-2.986 27.4 27.4 0 0 1 5.493-.854c1.173-.106 2.347 0 3.467.374a5.16 5.16 0 0 1 2.453 1.386c0-.853-.533-1.653-1.28-2.026-.64-.374-1.333-.64-2.08-.694q.24-.48.64-.8c.373-.373.907-.64 1.44-.746.48-.054.96-.107 1.44-.107a1.05 1.05 0 0 0-.96-.64 2.95 2.95 0 0 0-1.653.16c-.96.427-1.707 1.173-2.08 2.133a27 27 0 0 0-2.934 0c.107-.8.374-1.546.854-2.186a3.98 3.98 0 0 1 1.973-1.28l.32-.16c-.16-.16-.373-.32-1.227-.374-1.066 0-2.026.534-2.613 1.44a6.3 6.3 0 0 0-.853 2.56c-1.547.267-3.36.747-3.36.747 0-.64.16-1.28.373-1.867.373-.746.96-1.333 1.653-1.76 0 0 .267-.16.32-.213-.16-.16-.426-.16-.64-.16-.533 0-1.013.16-1.493.427a3 3 0 0 0-1.547 2.613c0 .213.054 1.173 0 1.387-1.226.32-2.4.693-3.573 1.12-.107-.8.053-1.6.373-2.347m13.014 6.72.533-.16c-.053-.053-.16-.16-.267-.213-.32-.214-.746-.267-1.12-.267-.426 0-.8.107-1.173.267a3.47 3.47 0 0 0-1.6 1.973s-.907 0-1.28.053l-1.333.107c0-.213.053-.427.106-.64.107-.427.32-.853.64-1.227.534-.586 1.227-1.013 1.974-1.12l.213-.053c-.267-.16-.533-.267-.853-.267-1.707 0-3.147 1.334-3.307 3.094l-.053.373-.96.213c-.534.107-1.067.214-1.6.427.053-.64.213-1.28.48-1.867.266-.533.693-1.013 1.12-1.386.106-.107.213-.214.373-.267-.16-.053-.32-.053-.533-.053-1.014 0-1.867.64-2.24 1.546-.32.8-.427 1.654-.374 2.507-.48.107-1.6.533-2.08.747a3.7 3.7 0 0 1 0-1.867 2.7 2.7 0 0 1 .747-1.387l.32-.32s-.16-.053-.587 0c-.8.214-1.493.854-1.706 1.654-.16.853-.267 1.706-.214 2.56l-1.333.586c-.053-.213-.107-.426-.213-.64-.16-.213-.427-.373-.694-.373-.16 0-.32.053-.48.107-.16.053-.266.213-.32.373-.053.213-.053.427.054.587.053.106.16.213.213.32l.213.266c-.32.107-.586.214-.8.427a.854.854 0 0 0-.266 1.12c.106.267.373.427.693.427.48-.054.907-.267 1.227-.587l.373.587c.16.213.373.373.64.32.16 0 .267-.054.427-.107.266-.16.48-.48.426-.8 0-.267-.16-.533-.32-.747l-.053-.106.64-.374c1.067-.586 2.187-1.066 3.307-1.493 1.813-.64 3.733-1.067 5.653-1.333.373-.054.8-.107 1.173-.054q.72.08 1.44.32v-2.08h.8a3.4 3.4 0 0 1 1.974-1.173m-2.774 7.413v2.934c-.266 0-.64-.054-.96-.054-2.613.16-5.226.747-7.626 1.814-1.067.48-2.134 1.013-3.147 1.653.373.213.64.48.8.853.16.587-.213 1.12-.96 1.12s-.853-.586-1.067-.8c-.053.054-.64.587-.853.694a1.03 1.03 0 0 1-.533.16c-.48 0-.854-.32-.854-.8v-.214c.054-.266.267-.533.534-.693.213-.107.373-.213.586-.373-.053-.214-.426-.48-.533-.747-.107-.373 0-.8.32-1.067a.88.88 0 0 1 1.013 0c.374.214.587.96.64 1.014.214-.16.854-.587 1.227-.854-.427-.746-.64-1.653-.64-2.506.213-1.334 1.6-2.24 2.24-1.92-.533.586-.8 1.333-.853 2.08-.107.586 0 1.226.266 1.76 0 0 1.494-.587 2.027-.747-.373-.96-.373-1.973-.107-2.933.48-.907 1.387-1.494 2.454-1.494a3.57 3.57 0 0 0-1.44 3.947c.32-.053 2.026-.64 2.24-.693-.054-1.014.213-2.027.8-2.827a3 3 0 0 1 2.08-1.28c.16 0 .373 0 .533.053 0 .054 0 .054-.16.16l-.107.054A8 8 0 0 0 24.48 32c-.213.48-.373.96-.373 1.493v.107s.906-.16 1.546-.213c.694-.054 1.334-.107 1.334-.107.106-.267.213-.587.426-.853.427-.267.694-.534.96-.694m28.32 12.587c-.586.16-1.066.533-1.333 1.067-.533.8-.747 1.706-.427 1.76.32.053.587 0 .64 0 .374 0 .747 0 1.12.053.054 0 .16-.053.214-.107.053-.053.106-.16.16-.213a4.27 4.27 0 0 1 1.6-2.24c.32-.213.64-.373 1.013-.373.587-.054 1.12.213 1.493.64.16.213-.64-.16-1.813 1.013-.373.373-.64.8-.853 1.333 0 0 0 .107.053.107.533.16 1.493.373 1.973.587.107.053.214 0 .32-.107a3.1 3.1 0 0 1 1.014-1.013c.426-.267.96-.427 1.493-.427h.107c1.12.16 1.173.693 1.226.747.054.053-.213.053-.373.106-.747.16-1.44.587-1.92 1.174-.053.16.213.373.213.373.8.48 1.28 1.387 1.12 2.293 0 .16 0 .214-.16.214a3 3 0 0 1-.426-.32c-.48-.427-1.014-.8-1.547-1.174a7.3 7.3 0 0 0-2.933-1.12c-.8-.16-1.547-.213-2.347-.213-1.76 0-3.52.267-5.227.747-.32.106-1.44.426-2.4.746l-.586.214.373-.32c.427-.427.853-.854 1.227-1.28l.266-.32.48-.107 1.974-.427a.58.58 0 0 0 .426-.426 3.93 3.93 0 0 1 .96-2.08 2.61 2.61 0 0 1 1.867-1.174c.8-.106 1.12.16 1.013.267M42.507 59.147a1.66 1.66 0 0 1-.587-1.014c0-.426.213-.8.587-.96.426-.16.853-.106 1.226.107.427.32.48.64.64 1.067h.054c.373-.214 1.066-.48 1.493-.747l.267-.16s.106 0 .053-.16c-.16-.48-.213-1.013-.213-1.493.053-.587.213-1.12.533-1.6.747-1.227 2.027-1.12 1.92-.96-.48.533-.8 1.173-.907 1.92-.053.373-.053.8 0 1.173 0 .16.054.373.16.427s.534-.16.8-.267c.267-.107.8-.16 1.12-.267.16-.053.107-.16.107-.16 0-1.066.267-2.186.907-3.093a2.76 2.76 0 0 1 1.973-1.013c.267 0 .693.106.587.16-.16.106-.32.213-.48.373-.427.32-.8.747-1.067 1.227a3.87 3.87 0 0 0-.32 2.186c.587 0 1.227-.053 1.813-.213.107-.053.16-.107.16-.213.214-.694.48-2.027 1.174-2.507q.56-.48 1.28-.48c.32 0 1.226.267 1.013.373a3.5 3.5 0 0 0-1.44 1.067c-.267.373-.48.8-.533 1.28-.054.267.213.32.213.32.48.053.96.107 1.44.213.16 0 .267-.16.267-.213.213-.373.48-.693.8-.907.32-.32.746-.48 1.173-.533.907 0 1.387.64 1.227.693-.8.214-1.494.64-2.027 1.28 0 0-.107.054 0 .214a4.5 4.5 0 0 1 1.493 2.666c0 .107.054.48-.053.534-.587-.694-1.28-1.28-2.027-1.814-1.066-.533-2.186-.8-3.36-.746-1.44 0-2.826.213-4.213.64a20.5 20.5 0 0 0-4.267 1.92q.321.24.48.64c.214.426.054.96-.32 1.226-.213.16-.533.214-.8.16-.64-.106-.853-.746-.906-.96-.107.214-.267.427-.48.534-.427.32-1.014.266-1.387-.16 0-.054-.053-.054-.053-.107a.985.985 0 0 1 .16-1.28zm2.24 8.16c-.107-.214-.214-.427-.267-.694a2.55 2.55 0 0 1-.16-1.546c.16-.64.693-1.12 1.333-1.174-.32.32-.48.8-.373 1.28.053.48.16.907.427 1.28.053.054.106.054.106 0 .374-.213.747-.373 1.12-.533v-.053a3.28 3.28 0 0 1 .267-2.56c.32-.64.96-1.067 1.653-1.174 0 0 .48 0 .48.16-.48.32-.853.8-1.066 1.334-.214.533-.214 1.12-.107 1.706l.053.054 1.28-.32c.054 0 .054-.054.107-.107.16-.8.587-1.547 1.173-2.08.48-.373 1.014-.64 1.6-.693.747 0 .854.213.96.32.107.106-.16 0-.533.106a3.9 3.9 0 0 0-1.173.907c-.267.32-.48.747-.534 1.227v.106c.427.054.907.16 1.334.32h.053c.267-.48.533-.906.96-1.28.373-.32.853-.533 1.333-.533.32 0 .587.107.854.267 0 0 .32.213.213.266-.533.16-1.013.427-1.333.854-.534.586-.534.746-.587.906s0 .214.107.32c.8.534.906.96.96 1.28.053.267-.16.747-.427.427-.373-.427-.853-.8-1.387-.96a6 6 0 0 0-2.4-.48c-.746 0-1.493.107-2.24.373-.96.267-1.866.747-2.666 1.334l-.374.266a4 4 0 0 0-.746.587c-.107.107.053.16.16.213.96.427.96 1.067.746 1.334a.646.646 0 0 1-.8.106c-.746-.48-.586-.853-.906-.746s-.427.586-.587.8a.756.756 0 0 1-1.013.16c-.374-.267-.427-.8-.16-1.12.16-.16.373-.32.586-.48-.053 0-.533-.32-.693-.48a.773.773 0 0 1 0-1.12s.053 0 .053-.054c.374-.266.907-.213 1.174.214 0 0 .32.48.373.48.053.053.053 0 .107 0 .053 0 .853-.694.906-.694v-.053zM49.12 40.64h-.32c-.107 0-.213-.107-.267-.16a1.2 1.2 0 0 1-.16-.267c0-.053.054-.106.107-.16.16-.106.32-.266.427-.426s.106-.32.16-.534c0 0-.054-.053-.107 0 0 .054-.16.267-.32.32a1 1 0 0 1-.427.107.4.4 0 0 1-.266-.107c-.054-.106-.107-.16-.16-.266 0-.107.106-.16.213-.16.16 0 .373-.054.533-.16.107-.054.16-.16.214-.267s.053-.16.053-.267v-.053s-.16.107-.267.107a.74.74 0 0 1-.48 0c-.16-.107-.266-.267-.373-.427v-.107c.16 0 .267-.213.427-.426 0-.054.053-.107.053-.107 0-.053.107-.107.107-.16v-.373a.29.29 0 0 0-.16-.267H48s0 .267-.107.427c-.106.106-.213.266-.32.32.054.106-.053.16-.106.106a.36.36 0 0 1-.214-.32c0-.16 0-.32.107-.426.16-.267.32-.534.533-.8.16-.16.267-.32.427-.48.107-.16.16-.427 0-.48-.16-.054-.213.213-.267.266-.426.16-.8.374-1.173.64a1.9 1.9 0 0 0-.32.747c-.053.16 0 .373-.107.48-.053.053-.106.107-.16.053a1.03 1.03 0 0 1-.266-.48c-.16 0-.16-.16-.16-.266 0-.054 0-.107-.054-.054-.16.107-.266.214-.32.427s-.053.48.054.693l.64.96c.16.267.373.587.533.854.16.213.213.48.16.746a1.5 1.5 0 0 1-.427.747s-.106.053-.106 0c-.214-.213-.427-.427-.694-.587-.32-.16-.64-.32-.96-.373a5.1 5.1 0 0 0-1.28 0c-.426 0-.906.107-1.333.053-.373 0-.747 0-1.067-.16-.266-.106-.48-.266-.586-.533a2.2 2.2 0 0 1-.16-.853c0-.214.106-.48.213-.64s.213-.32.427-.427c.213-.107.426-.16.64-.107.106.054.213.107.32.214.106.053.16.16.266.213h.054c.053-.32 0-.587-.107-.907-.107-.213-.267-.426-.373-.64 0-.053.106-.053.16-.053.266 0 .48.053.693.213.107.107.267.214.32.32h.053c0-.373-.106-.746-.32-1.013-.106-.16-.266-.267-.426-.373-.107 0 .053-.107.16-.107.213 0 .373 0 .586.107.054.053.107.053.16.106l.107.107s.053 0 .053-.053c0-.107-.053-.214-.106-.32a6 6 0 0 0-.907-.747l-.107-.053c-.106-.107-.16-.267-.213-.427 0-.053-.107-.107-.107-.213a.16.16 0 0 1 0-.214c.107-.16.16-.213.374-.266.16-.054.32-.107.48-.107.053 0 .106.053.16 0 .053-.053.053-.053 0-.107-.16-.106-.427-.213-.64-.213-.32-.053-.587-.053-.907.053-.213.107-.427.16-.693.214-.16 0-.32 0-.48-.107-.107-.053-.16-.16-.214-.267 0-.16.054-.373.107-.533a.55.55 0 0 1 .32-.267c.107-.053.16-.053.16-.16 0-.053-.107 0-.16 0-.267.054-.533.16-.747.267-.16.16-.32.32-.48.533-.053.054-.053.054-.106.054h-.16c-.214.053-.374.16-.587.266s-.32.214-.533.32c-.16.054-.32.054-.427.054-.32 0-.693 0-.747.32 0 .053 0 .16.107.213.053.053.107.053.16.053l.213.054c.054 0 .107.053.107.053v.053c0 .054-.053.107-.16.107-.16.053-.32 0-.48-.053a.16.16 0 0 0-.213 0c-.32.266-.694.533-1.014.746l-.106.107v.107c0 .106-.107.106-.16.16-.054 0-.107.106-.16.16v.16c0 .106.106.213.266.16h.054l.266-.107h.16v.053c-.053.054-.053.107-.106.16a.16.16 0 0 0 0 .214c.106.106.32.106.426 0 .054-.054.107-.107.16-.214q.08-.16.16-.16c.16-.053.32-.106.48-.106.107 0 .214 0 .32.106.054 0 .054.054.054.054v.053c-.054.107-.054.213-.16.32 0 .053-.054.16-.054.267-.053.106-.106.16-.106.266 0 .054-.054.107-.107.16-.16.107-.32.214-.48.374-.267.213-.48.533-.64.8-.053.106-.107.213-.107.266-.053.267-.106.587-.426.374-.267-.16-.587-.32-.854-.534a.64.64 0 0 1-.266-.266c-.267-.374-.587-.054-.747.213-.267.427-.587.853-.907 1.227a.4.4 0 0 0-.106.213c-.054.107-.107.213-.214.267-.106.106-.16.266-.106.426 0 .267-.054.534-.214.747-.106.107-.16.267-.213.427v.426c0 .107.053.214.16.214h.107a6 6 0 0 0 .586-.32l.107-.054a.16.16 0 0 0 0-.213s0-.053-.053-.053c-.054-.054-.107-.054-.107-.107v-.373c0-.054.053-.16.107-.214l.32-.266a.347.347 0 0 0 .106-.48v-.16c0-.054.054-.16.107-.214l.213-.266a.83.83 0 0 1 .427-.32c.213-.054.427.053.587.213.16.213.266.48.373.747.053.213.16.426.267.64.053.16.266.213.426.16l.054-.054c.053 0 .106 0 .16.054.106.106.16.213.266.266s0 .16-.106.16h-.48c-.48.16-.96.214-1.44.214-.054 0-.107.053-.16.106v.054l-.054.16c-.053.106-.053.213 0 .373q.32 1.04.16 2.08c-.053.267 0 .48.16.693.054.054.16.107.214.16.053 0 .053.054.106.054.054.053.107.16.107.266 0 .16.053.267.16.374.107.16.267.266.48.373h.053c.107.053.214 0 .267-.107.107-.213.16-.48.16-.746a.23.23 0 0 0-.213-.214h-.267l-.16-.16c-.053-.16-.053-.32 0-.426v-.32c0-.054 0-.16-.053-.214-.054-.106-.054-.16-.16-.213-.054 0-.107-.053-.107-.053v-.107q.08-.48 0-.96c0-.107 0-.213.053-.32.214-.213.587 0 .854.053.32.107.64.214.96.267a2.14 2.14 0 0 0 1.493-.427s.053-.053.107 0c.16.107.266.214.426.32.374.267.8.427 1.28.587.587.053 1.227.053 1.814 0 .16 0 .32.053.426.107.054 0 .054.053.054.106 0 .214-.107.427-.107.64 0 .107.053.214.107.32l.16.32.053.107a1.135 1.135 0 0 1 0 1.493c-.213.214-.48.427-.747.587-.266.16-.533.267-.853.32-.213 0-.373.107-.533.213-.16.16-.374.32-.587.427a.42.42 0 0 0-.213.213c-.107.214-.16.48-.214.747 0 .16.107.213.214.16l.64-.16a.29.29 0 0 0 .16-.267v-.053l-.054-.213v-.107s0-.053.054-.053c.053-.054.106-.107.16-.107.053-.053.106-.053.213-.053h.16c.267.106.587 0 .747-.267l.053-.107a.42.42 0 0 1 .213-.213c.587-.373 1.174-.693 1.814-.907a.115.115 0 0 0 .106-.106V44.8c0-.16.054-.427.267-.427.107 0 .16.054.213.107.214.267.427.427.747.587.107.053.213.053.267.106.266.107.426.32.48.587.053.16 0 .267-.107.427a5.3 5.3 0 0 0-.587.906c-.106.16-.213.32-.373.427-.267.16-.48.32-.693.533-.16.107-.32.267-.427.427l-.32.96c-.053.213.053.213.213.213.267-.053.48-.16.694-.266.053 0 .053-.054.106-.054.054-.053.054-.106.054-.16 0-.106-.054-.16-.107-.213s-.053-.16-.053-.267v-.053c.053-.053.106-.107.16-.107l.533-.16a1.27 1.27 0 0 0 .587-.32c.053-.053.053-.106.053-.16v-.053a2.87 2.87 0 0 1 1.333-1.707c.107-.053.16-.106.16-.213v-.267l-.586-.533c-.16-.213-.267-.427-.267-.693 0-.267.053-.534.213-.747l.107-.213c.107-.214.267-.267.373-.427.16-.16.267-.32.374-.533.106-.267.213-.48.266-.747.054-.213 0-.427 0-.64 0-.053.054-.16.107-.213.107-.107.213-.214.32-.267a.6.6 0 0 1 .427 0c.266.053.426.16.693.213.16.054.267.054.427 0a.86.86 0 0 0 .373-.213v-.107zm-8.96-4.16c0 .267-.213.533-.48.533h-.053c-.107 0-.16-.16-.16-.373v-1.653c-.054-.214-.107-.48-.16-.694a2.6 2.6 0 0 0-.16-.373l-.107-.213c-.053-.054-.053-.107-.107-.16-.053-.054-.16-.107-.213-.16s0-.054 0-.054a.65.65 0 0 1 .8.107c.373.267.587.693.587 1.173.16.64.16 1.28.053 1.867M12.8 49.28h18.293c-1.706-1.813-2.666-4.213-2.72-6.72v-.32H11.68q.16 3.6 1.12 7.04m26.453 8.853H16.48a53 53 0 0 0 1.973 3.254 28.3 28.3 0 0 0 2.88 3.786h17.92zM68.64 26.56h-16.8v6.187h16.693c-.053-2.027.054-4.107.107-6.187m.16-10.453c-3.04-1.227-6.133-2.187-9.28-2.987-4.32-1.067-8.747-1.76-13.173-2.133-2.08-.214-4-.267-6.134-.267v6.88H68.8zM50.773 26.293h-21.44c-.053 0-.053 0-.053.054v15.946a9.93 9.93 0 0 0 3.573 7.467 11.37 11.37 0 0 0 7.254 2.773c1.973 0 3.893-.586 5.6-1.6 2.133-1.28 3.786-3.2 4.64-5.546.266-.8.426-1.6.48-2.454zm-.426 16.48c0 .8-.16 1.6-.427 2.347-.8 2.24-2.4 4.107-4.427 5.333a10.45 10.45 0 0 1-5.333 1.494c-2.56-.054-5.013-.96-6.933-2.667-2.134-1.76-3.36-4.373-3.414-7.147V26.827c0-.054 0-.054.054-.054h20.48c.053 0 .053 0 .053.054zm-6.24 9.814c-.747.266-1.494.48-2.24.586 0 .054.053.107.053.214.053.16.213.266.427.266.266 0 .426-.16.586-.533 0 0 .16-.053.16 0 .214.32.64.587.96.427.267-.16.32-.48.16-.694V52.8z"/><defs><linearGradient id="a" x1="9.873" x2="70.149" y1="39.809" y2="39.809" gradientUnits="userSpaceOnUse"><stop stop-color="#E1BE78"/><stop offset="1" stop-color="#E3AB36"/></linearGradient><linearGradient id="b" x1="5.363" x2="68.782" y1="14.64" y2="51.239" gradientUnits="userSpaceOnUse"><stop stop-color="#E1BE78"/><stop offset=".34" stop-color="#FFFAD1"/><stop offset=".75" stop-color="#C69632"/><stop offset=".99" stop-color="#FCDC99"/></linearGradient><linearGradient id="c" x1="12.122" x2="67.616" y1="8.523" y2="8.523" gradientUnits="userSpaceOnUse"><stop stop-color="#FFE3A8"/><stop offset="1" stop-color="#D2A249"/></linearGradient></defs></svg>