<svg width="28" height="26" viewBox="0 0 28 26" fill="none" xmlns="http://www.w3.org/2000/svg">
<path d="M15.6595 0C13.3391 0 11.3822 1.67068 11.3822 3.80859C11.3822 4.88848 11.8819 5.84883 12.6751 6.53514L13.1716 5.55838C12.7101 5.07779 12.4368 4.46461 12.4368 3.80859C12.4368 2.32207 13.8378 1.05469 15.6595 1.05469C17.4812 1.05469 18.8821 2.32207 18.8821 3.80859C18.8821 4.8283 18.2228 5.74488 17.2206 6.21996L16.7822 7.48301C16.893 7.45621 17.0027 7.42533 17.1111 7.39043L17.6477 8.32869C17.0427 8.75426 16.4571 9.28178 15.8293 9.93838L20.5959 20.4496C23.5412 20.5854 26.3829 19.0237 27.8471 16.4647L21.529 6.80625C20.3474 7.04221 19.3968 7.33676 18.548 7.77879L18.074 6.95004C19.1906 6.26947 19.9369 5.12836 19.9369 3.80865C19.9369 1.67074 17.98 5.87851e-05 15.6595 5.87851e-05V0ZM8.47207 0.348457C8.31621 0.350215 8.1525 0.375996 7.99441 0.427442C7.63289 0.544863 7.32703 0.786856 7.19402 1.04795L7.17715 1.08135L3.37418 6.48938C3.24908 6.75023 3.23461 7.1308 3.3474 7.48371C3.46283 7.84447 3.7016 8.14611 3.94518 8.27016L12.364 12.5569C12.6026 12.6785 12.9846 12.6978 13.3395 12.5819C13.6879 12.4682 13.9838 12.2371 14.1248 11.9671L15.6108 7.61596L15.6196 7.61619L15.9903 6.54803C15.9853 6.5485 15.98 6.54861 15.9751 6.54908L16.2625 5.70738L16.2795 5.6741C16.4125 5.41301 16.4283 5.02254 16.3117 4.66148C16.1951 4.30043 15.9543 3.99615 15.7003 3.86684L13.8207 2.90982C13.4374 3.389 13.3198 4.07396 13.8005 4.71861L13.9241 4.92557L14.5269 5.24197L14.0432 6.19201L14.0346 6.18791L13.5589 7.12365L13.5669 7.12746L13.1975 7.85262L7.245 4.82168L8.3352 2.68078L8.57438 2.21086L10.3822 3.13148C10.4734 2.55668 10.6706 2.00367 10.9878 1.46719L9.00768 0.459082C8.86037 0.384082 8.67246 0.346289 8.47207 0.348457ZM21.2413 8.0465L22.6523 10.6141L18.4416 12.9279L17.2845 10.8227L17.0305 10.3605L21.2413 8.0465ZM20.8249 9.47877L18.4629 10.7769L18.8579 11.4958L21.22 10.1977L20.8249 9.47877ZM5.6325 10.3129L4.40965 12.7148L8.48238 14.7886L9.70541 12.3867L5.6325 10.3129ZM23.0474 11.333L24.4583 13.9004L20.2476 16.2143L19.0907 14.109L18.8367 13.6469L23.0475 11.3329L23.0474 11.333ZM22.631 12.7652L20.2689 14.0633L20.664 14.7822L23.0261 13.4841L22.631 12.7652ZM4.76648 14.08H4.76637L0 23.4407L0.35877 24.544L4.88596 15.6532L5.82568 16.1318L1.29861 25.0225L2.60965 24.5962L3.36949 24.3492L2.96016 23.0861L4.21969 22.6777L3.80977 21.4175L5.0707 21.0074L4.75605 20.0404L7.16836 15.303L4.76648 14.08Z" fill="#F0F0F0"/>
</svg>
