<svg width="91" height="74" viewBox="0 0 91 74" fill="none" xmlns="http://www.w3.org/2000/svg">
<path d="M90.7513 32.2138C88.8389 16.1529 76.1649 5.37139 60.6141 1.64744C55.6582 0.509165 50.5853 -0.0429144 45.5 0.00260057C40.4151 -0.041265 35.3426 0.512337 30.3874 1.65198C14.8366 5.37291 2.16112 16.1529 0.250249 32.2138C0.0651538 33.8018 -0.0174166 35.4 0.00304934 36.9985C-0.0174082 38.5971 0.0651621 40.1953 0.250249 41.7833C2.16112 57.8442 14.8366 68.6257 30.3874 72.3482C35.3425 73.4883 40.415 74.0419 45.5 73.9975C50.585 74.0419 55.6575 73.4883 60.6126 72.3482C76.1634 68.6257 88.8389 57.8442 90.7498 41.7817C90.9348 40.1943 91.0173 38.5966 90.997 36.9985C91.0174 35.4 90.9364 33.8018 90.7513 32.2138ZM12.8787 18.4302C12.906 18.3803 12.9454 18.3092 12.9773 18.2638C16.9203 12.3956 24.4425 7.53677 32.7882 5.41679C36.9473 4.39824 41.2175 3.9011 45.5 3.93689C49.7816 3.89875 54.0513 4.39335 58.2103 5.40922C66.5514 7.52769 74.0797 12.388 78.0212 18.2562C78.0516 18.3031 78.0925 18.3727 78.1198 18.4226C78.1272 18.4334 78.1321 18.4456 78.1343 18.4584C78.1364 18.4712 78.1358 18.4844 78.1323 18.4969C78.1288 18.5095 78.1227 18.5211 78.1142 18.531C78.1058 18.5409 78.0952 18.5489 78.0834 18.5543C78.044 18.5785 77.9833 18.6103 77.9393 18.6315C76.7139 19.2367 74.4512 20.358 72.8391 21.1524C63.0451 25.9856 56.1372 29.4931 54.6403 30.8172C52.7795 32.4696 50.0315 36.59 45.5 43.3373C40.967 36.59 38.2205 32.4696 36.3581 30.8263C34.8613 29.5007 27.9533 25.9946 18.1594 21.1615C16.5488 20.3671 14.2845 19.2488 13.0592 18.6405C13.0152 18.6194 12.956 18.5861 12.9151 18.5634C12.9032 18.5579 12.8927 18.55 12.8843 18.5401C12.8758 18.5302 12.8697 18.5185 12.8662 18.506C12.8627 18.4935 12.8621 18.4803 12.8642 18.4675C12.8664 18.4547 12.8713 18.4409 12.8787 18.4302ZM83.5658 41.2733C81.9567 55.6229 71.2907 65.2558 58.2058 68.5803C54.0484 69.5969 49.7802 70.092 45.5 70.0542C41.2178 70.093 36.9475 69.5984 32.7882 68.5818C19.7047 65.2558 9.03874 55.6229 7.43422 41.2733C7.27858 39.8539 7.20919 38.4263 7.22645 36.9985C7.20617 35.6843 7.27152 34.3701 7.42209 33.0643C7.61463 31.2571 8.0219 29.4792 8.63534 27.7681C8.64899 27.7363 8.67174 27.6909 8.68842 27.6622C8.69954 27.6402 8.71829 27.623 8.74117 27.6138C8.76405 27.6047 8.78951 27.6041 8.81278 27.6122C8.85221 27.6243 8.90832 27.6455 8.94775 27.6622C10.0093 28.0995 11.7564 28.8213 14.4301 29.9804C26.7886 35.3386 34.1 38.8719 35.8789 40.3457C37.3955 41.6002 41.0534 46.7132 44.8843 52.0533H46.1324C49.9633 46.7132 53.6227 41.6002 55.1378 40.3457C56.9152 38.8734 64.2265 35.3386 76.5866 29.9804C79.2603 28.8213 81.0013 28.0995 82.0689 27.6622C82.1084 27.6455 82.1645 27.6243 82.2039 27.6122C82.2272 27.6041 82.2526 27.6047 82.2755 27.6138C82.2984 27.623 82.3171 27.6402 82.3283 27.6622C82.3449 27.6909 82.3677 27.7363 82.3813 27.7681C82.9948 29.4792 83.4021 31.2571 83.5946 33.0643C83.7452 34.3701 83.8105 35.6843 83.7902 36.9985C83.8075 38.4263 83.7381 39.8539 83.5825 41.2733" fill="#C0C2C4"/>
</svg>
