<svg width="118" height="38" viewBox="0 0 118 38" fill="none" xmlns="http://www.w3.org/2000/svg">
<path d="M28.6295 8.73615C27.1804 5.58289 24.6827 3.02966 21.562 1.5115C18.4414 -0.0066531 14.8909 -0.395805 11.5155 0.410356C8.14009 1.21652 5.14865 3.16811 3.05085 5.93261C0.953061 8.69711 -0.121282 12.1035 0.0108818 15.5713C0.143045 19.0391 1.47354 22.3538 3.77566 24.9506C6.07778 27.5474 9.20909 29.2657 12.636 29.8126C16.063 30.3595 19.5736 29.7012 22.5696 27.9499C25.5657 26.1987 27.8618 23.4627 29.0667 20.2083L18.7352 16.383C18.4152 17.2471 17.8055 17.9736 17.01 18.4386C16.2144 18.9036 15.2823 19.0784 14.3723 18.9332C13.4623 18.788 12.6309 18.3317 12.0196 17.6422C11.4083 16.9527 11.055 16.0725 11.0199 15.1517C10.9848 14.2309 11.2701 13.3264 11.8271 12.5923C12.3842 11.8583 13.1785 11.3401 14.0748 11.126C14.971 10.9119 15.9138 11.0153 16.7424 11.4184C17.571 11.8215 18.2343 12.4995 18.6191 13.3368L28.6295 8.73615Z" fill="#252525"/>
<circle cx="9.5" cy="34.5" r="3.5" fill="#252525"/>
<circle cx="21.5" cy="34.5" r="3.5" fill="#252525"/>
<path d="M43.86 23.3C41.7533 23.3 40.0067 22.6067 38.62 21.22C37.2467 19.8333 36.56 18.0933 36.56 16C36.56 13.9067 37.2467 12.1733 38.62 10.8C39.9933 9.40001 41.74 8.70001 43.86 8.70001C45.1267 8.70001 46.3 9.00001 47.38 9.60001C48.46 10.2 49.3067 11.0067 49.92 12.02L46.82 13.8C46.5533 13.3067 46.1533 12.92 45.62 12.64C45.1 12.3467 44.5133 12.2 43.86 12.2C42.7533 12.2 41.8467 12.5533 41.14 13.26C40.46 13.9667 40.12 14.88 40.12 16C40.12 17.1467 40.46 18.0667 41.14 18.76C41.8333 19.4533 42.74 19.8 43.86 19.8C44.5133 19.8 45.1 19.66 45.62 19.38C46.1533 19.0867 46.5533 18.6867 46.82 18.18L49.92 19.98C49.3067 21.0067 48.46 21.82 47.38 22.42C46.3133 23.0067 45.14 23.3 43.86 23.3ZM54.2373 11.62C53.864 11.9933 53.4173 12.18 52.8973 12.18C52.3773 12.18 51.924 11.9933 51.5373 11.62C51.164 11.2333 50.9773 10.78 50.9773 10.26C50.9773 9.74001 51.164 9.29335 51.5373 8.92001C51.924 8.54668 52.3773 8.36001 52.8973 8.36001C53.4173 8.36001 53.864 8.54668 54.2373 8.92001C54.624 9.29335 54.8173 9.74001 54.8173 10.26C54.8173 10.78 54.624 11.2333 54.2373 11.62ZM54.5573 23H51.2373V13H54.5573V23ZM62.6717 13V16.18H60.5917V19.08C60.5917 19.5067 60.7384 19.78 61.0317 19.9C61.3384 20.0067 61.8851 20.04 62.6717 20V23C60.6984 23.24 59.2984 23.06 58.4717 22.46C57.6717 21.8333 57.2717 20.7333 57.2717 19.16V16.18H55.7717V13H57.2717V11.2L60.5917 10.2V13H62.6717ZM69.1228 18.8L70.6828 13H74.3628L70.9428 22.84C70.4095 24.3467 69.6561 25.4333 68.6828 26.1C67.7095 26.7667 66.4495 27.0667 64.9028 27V23.88C65.6095 23.88 66.1428 23.7933 66.5028 23.62C66.8628 23.4467 67.1561 23.1333 67.3828 22.68L63.3828 13H67.1028L69.1228 18.8ZM82.5794 23.22C80.486 23.22 78.746 22.5267 77.3594 21.14C75.986 19.7533 75.2994 18.04 75.2994 16C75.2994 13.96 75.986 12.2533 77.3594 10.88C78.746 9.48001 80.486 8.78001 82.5794 8.78001C83.8727 8.78001 85.046 9.08668 86.0994 9.70001C87.1794 10.3133 88.006 11.1267 88.5794 12.14L87.6394 12.68C87.186 11.8267 86.4994 11.1333 85.5794 10.6C84.686 10.0667 83.686 9.80001 82.5794 9.80001C80.7794 9.80001 79.286 10.4 78.0994 11.6C76.9394 12.7867 76.3594 14.2533 76.3594 16C76.3594 17.7467 76.9394 19.22 78.0994 20.42C79.286 21.6067 80.7794 22.2 82.5794 22.2C83.6594 22.2 84.6594 21.9333 85.5794 21.4C86.5127 20.8667 87.2127 20.1533 87.6794 19.26L88.6194 19.8C88.046 20.84 87.2127 21.6733 86.1194 22.3C85.0394 22.9133 83.8594 23.22 82.5794 23.22ZM99.6213 15.26V13H100.641V23H99.6213V20.74C99.1813 21.5133 98.5879 22.12 97.8413 22.56C97.0946 23 96.2546 23.22 95.3213 23.22C93.9079 23.22 92.6879 22.72 91.6613 21.72C90.6479 20.7067 90.1413 19.4667 90.1413 18C90.1413 16.5333 90.6479 15.3 91.6613 14.3C92.6746 13.2867 93.8946 12.78 95.3213 12.78C96.2546 12.78 97.0946 13 97.8413 13.44C98.5879 13.88 99.1813 14.4867 99.6213 15.26ZM92.3813 21.02C93.2079 21.8467 94.2146 22.26 95.4013 22.26C96.5746 22.26 97.5746 21.8467 98.4013 21.02C99.2146 20.2067 99.6213 19.2 99.6213 18C99.6213 16.8 99.2146 15.7933 98.4013 14.98C97.5746 14.1533 96.5746 13.74 95.4013 13.74C94.2146 13.74 93.2079 14.1533 92.3813 14.98C91.5679 15.7933 91.1613 16.8 91.1613 18C91.1613 19.2 91.5679 20.2067 92.3813 21.02ZM104.712 13V14.96C105.312 13.56 106.425 12.86 108.052 12.86V13.82C107.065 13.82 106.259 14.1333 105.632 14.76C105.019 15.3867 104.712 16.28 104.712 17.44V23H103.712V13H104.712ZM110.368 15.62C110.368 16.46 111.082 17.06 112.508 17.42C112.922 17.5133 113.222 17.5867 113.408 17.64C113.608 17.68 113.895 17.76 114.268 17.88C114.655 17.9867 114.942 18.1067 115.128 18.24C115.328 18.3733 115.542 18.54 115.768 18.74C116.008 18.94 116.175 19.18 116.268 19.46C116.375 19.7267 116.428 20.0333 116.428 20.38C116.428 21.22 116.095 21.9067 115.428 22.44C114.775 22.96 113.915 23.22 112.848 23.22C111.902 23.22 111.095 23.02 110.428 22.62C109.762 22.22 109.302 21.68 109.048 21L109.908 20.5C110.095 21.06 110.442 21.4933 110.948 21.8C111.468 22.1067 112.102 22.26 112.848 22.26C113.622 22.26 114.242 22.0933 114.708 21.76C115.188 21.4267 115.428 20.9667 115.428 20.38C115.428 19.4733 114.715 18.8667 113.288 18.56C111.955 18.24 111.062 17.9467 110.608 17.68C109.782 17.2 109.368 16.5133 109.368 15.62C109.368 14.82 109.682 14.1467 110.308 13.6C110.962 13.0533 111.782 12.78 112.768 12.78C113.555 12.78 114.248 12.96 114.848 13.32C115.448 13.68 115.888 14.1667 116.168 14.78L115.328 15.26C115.128 14.78 114.795 14.4067 114.328 14.14C113.875 13.8733 113.355 13.74 112.768 13.74C112.075 13.74 111.502 13.9133 111.048 14.26C110.595 14.6067 110.368 15.06 110.368 15.62Z" fill="#252525"/>
</svg>
