<svg width="108" height="55" viewBox="0 0 108 55" fill="none" xmlns="http://www.w3.org/2000/svg">
<path d="M53.9917 55C83.8171 55 108 42.6836 108 27.5041C108 12.3082 83.8171 0 53.9917 0C24.1747 0 0 12.2999 0 27.5041C0 42.6836 24.1747 55 53.9917 55ZM64.1679 41.4989C63.2579 43.5804 61.7107 48.015 58.1532 49.7838C57.0194 50.2987 55.7921 50.5786 54.546 50.6066H54C44.0389 50.6066 34.7562 49.2244 26.9959 46.8796L26.698 46.7644C25.9782 46.5258 25.6142 46.1967 25.6142 45.7853C25.6142 45.4398 25.8045 45.1683 26.061 44.9132L26.5491 44.4854C28.3527 43.0045 33.7469 39.1129 43.9148 35.2296C47.4806 33.8803 51.9482 32.1937 56.6227 31.2064C59.3611 30.6387 69.529 29.092 64.1597 41.5071M91.4451 13.7809C91.6354 13.4518 91.8918 13.172 92.3551 13.1473C92.6033 13.1227 92.9508 13.1803 93.472 13.5093C99.8094 17.3844 103.574 22.2386 103.574 27.4959C103.574 36.9656 91.321 45.1189 73.7898 48.6814C72.6646 48.9035 71.9118 48.8953 71.6636 48.6156C71.4815 48.451 71.4319 48.1384 71.6636 47.7599C71.7942 47.5299 71.9495 47.3148 72.1269 47.1182C81.6743 35.929 88.9465 19.4166 91.0066 14.6612C91.1721 14.3321 91.321 14.003 91.4451 13.7809ZM43.9893 13.4353C44.8993 11.362 46.4465 6.92745 50.004 5.16679C51.0795 4.63201 52.4198 4.37696 53.6029 4.34405H54.1406C64.1183 4.34405 73.3844 5.7098 81.1613 8.07106C81.2192 8.09574 81.4013 8.15333 81.4592 8.18624C82.1707 8.42483 82.5347 8.75393 82.5347 9.15707C82.5347 9.51085 82.3444 9.77412 82.0962 10.0209C81.9804 10.1361 81.8232 10.2678 81.5998 10.4488C79.8128 11.9461 74.4103 15.8295 64.2424 19.7046C60.66 21.0621 56.2007 22.7487 51.5428 23.7277C48.7961 24.3037 38.6199 25.8504 43.9893 13.4353ZM34.2102 6.29394C35.3354 6.08003 36.08 6.08003 36.353 6.35976C36.5185 6.54076 36.5598 6.83695 36.3447 7.20718C36.2094 7.4362 36.0515 7.65118 35.8731 7.84892C26.3257 19.0464 19.0535 35.5505 16.9769 40.3224C16.8279 40.6515 16.6708 40.9806 16.5384 41.1945C16.3564 41.5236 16.0999 41.8115 15.6449 41.8362C15.3967 41.8609 15.0409 41.7868 14.5114 41.466C8.17405 37.5991 4.42623 32.745 4.42623 27.4877C4.42623 18.0097 16.6708 9.8564 34.2102 6.30217" fill="#C0C2C4"/>
</svg>
