<svg width="80" height="80" viewBox="0 0 80 80" fill="none" xmlns="http://www.w3.org/2000/svg">
<path d="M58.2934 14.1333L56.5867 16.7467C68.16 21.5467 72.8 30.24 72.8 39.5733C72.8 44.2667 71.52 48.48 69.12 48.48C61.12 48.48 43.9467 48.48 38.8267 48.48C34.72 48.48 33.4934 46.9867 35.3067 43.2533C38.6134 36.64 48.5334 24 54.6667 16.4267C55.5734 15.3067 56.32 13.5467 53.0667 12.6933C49.76 11.84 44.48 11.4133 40 11.4133C17.1734 11.4667 1.28003 23.8933 1.28003 40C1.28003 54.7733 15.04 68.5867 39.8934 68.5867C50.88 68.5867 64.3734 65.44 71.9467 56.6933H65.3867C57.92 63.52 48.2667 65.0667 39.9467 65.0667C19.8934 65.0667 7.25336 54.5067 7.25336 40C7.25336 26.56 21.6 14.56 39.68 14.56C41.8667 14.56 42.6134 15.04 40.2667 17.92C35.6267 23.7333 27.36 35.3067 23.4667 42.0267C19.3067 49.2267 23.52 55.0933 32.9067 55.0933C39.52 55.0933 63.2534 55.0933 70.8267 55.0933C73.12 55.0933 74.5067 53.76 75.84 51.3067C76.96 49.3867 78.6134 45.3867 78.6134 40C78.72 29.12 70.6134 19.0933 58.2934 14.1333Z" fill="#C0C2C4"/>
</svg>
