<svg width="67" height="74" viewBox="0 0 67 74" fill="none" xmlns="http://www.w3.org/2000/svg">
<g clip-path="url(#clip0_2207_8)">
<path d="M27.2605 0.0672523C27.3349 0.17934 27.0224 0.216702 25.5564 0.261537C23.4208 0.321317 18.9486 0.627689 16.7757 0.859336C16.2027 0.919115 15.6149 0.971423 15.4735 0.971423C15.3321 0.971423 14.8112 1.01626 14.3201 1.08351C13.8289 1.14329 12.9583 1.2479 12.3853 1.30768C11.8123 1.37494 10.9566 1.47955 10.4878 1.53933C7.77917 1.89054 7.86102 1.88307 5.70304 2.20438C4.53476 2.38372 2.92 2.65273 1.59545 2.88438C1.26803 2.93669 0.843877 3.00394 0.650404 3.02636C0.464371 3.04877 0.270897 3.10855 0.233691 3.16086C0.107189 3.31778 0.0327759 7.4949 0.0327759 14.123C0.0327759 21.5357 0.107189 23.5308 0.479254 26.5647C0.546225 27.0579 0.590873 27.5585 0.590873 27.6855C0.590873 27.8051 0.635521 28.231 0.695051 28.6196C0.754582 29.0082 0.843877 29.5836 0.888525 29.8899C0.940614 30.1963 1.00759 30.6671 1.03735 30.9361C1.07456 31.2051 1.14153 31.6235 1.18618 31.8701C1.23082 32.1167 1.32012 32.5875 1.37965 32.9163C1.57312 33.9475 1.88566 35.4495 2.05681 36.1295C2.11634 36.376 2.21308 36.7721 2.27261 37.0037C2.51817 37.9976 2.71164 38.7448 2.92744 39.4547C2.98697 39.6415 3.08371 39.9927 3.15812 40.2393C3.23253 40.4859 3.32183 40.7699 3.36648 40.8745C3.40368 40.9791 3.46321 41.1584 3.50042 41.2855C3.53019 41.405 3.67901 41.8459 3.82784 42.2569C3.97666 42.6679 4.12549 43.0863 4.1627 43.191C4.1999 43.2956 4.29664 43.5646 4.38593 43.7888C4.47523 44.0129 4.57197 44.2894 4.60917 44.394C4.63894 44.4986 4.69847 44.6481 4.74312 44.7303C4.78776 44.805 4.94403 45.1712 5.09286 45.5448C5.24913 45.9109 5.45004 46.4041 5.55422 46.6283C5.80722 47.1887 7.33269 50.2599 7.52616 50.5887C7.60802 50.7307 7.75684 50.9997 7.86102 51.1865C7.95776 51.3733 8.10658 51.6199 8.18844 51.7469C8.26285 51.8665 8.35959 52.0384 8.40424 52.1206C8.44888 52.2028 8.53818 52.3597 8.61259 52.4718C8.67956 52.5764 8.83583 52.8305 8.95489 53.0322C9.32696 53.6524 9.98923 54.6463 10.3166 55.0871C10.4952 55.3188 10.6366 55.528 10.6366 55.5579C10.6366 55.6102 11.8644 57.2542 12.3704 57.8744C12.5714 58.121 12.8616 58.4722 13.0104 58.659C14.6103 60.6243 17.2817 63.3667 19.3057 65.1152C20.2061 65.8924 20.2359 65.9148 20.794 66.3556C21.0842 66.5798 21.3298 66.7816 21.3521 66.804C21.5009 66.9833 24.5891 69.2101 25.1323 69.5315C25.1992 69.5763 25.4597 69.7407 25.7053 69.9051C26.241 70.2563 26.3973 70.3609 26.5982 70.4655C26.6801 70.5104 26.8512 70.6075 26.9703 70.6897C27.0968 70.7719 27.2605 70.869 27.3423 70.9139C27.4242 70.9587 27.6623 71.0932 27.8632 71.2202C28.0716 71.3398 28.3395 71.4967 28.4585 71.5565C28.585 71.6163 28.8008 71.7358 28.9422 71.8255C29.2547 72.0123 31.569 73.178 32.4024 73.5666C32.7298 73.716 33.0573 73.873 33.1242 73.9103C33.2954 74 33.593 74 33.7642 73.9103C33.8311 73.873 34.1065 73.7385 34.3744 73.6189C35.1855 73.2453 37.2839 72.1991 37.7974 71.9152C38.0652 71.7657 38.4299 71.564 38.6159 71.4594C38.8019 71.3622 39.0549 71.2128 39.174 71.1306C39.3005 71.0558 39.4642 70.9587 39.5461 70.9213C39.6279 70.884 39.814 70.7719 39.9553 70.6747C40.0967 70.5776 40.2679 70.473 40.3274 70.4431C40.3869 70.4132 40.5432 70.3235 40.6623 70.2413C40.7888 70.1591 40.9301 70.0695 40.9897 70.0471C41.0418 70.0172 41.4436 69.7556 41.8826 69.4567C42.3142 69.1653 42.8426 68.8066 43.0435 68.6721C43.4155 68.4181 45.7298 66.662 46.3549 66.1614C48.4161 64.5099 51.5117 61.4612 53.3125 59.339C53.3943 59.2418 53.5134 59.1073 53.5803 59.0401C53.6399 58.9728 53.8036 58.7711 53.945 58.5843C54.0789 58.3975 54.2352 58.2106 54.2798 58.1733C54.3245 58.1284 54.5775 57.8146 54.8379 57.4634C55.1058 57.1122 55.3588 56.7759 55.4109 56.7161C56.0881 55.8643 58.0302 52.9874 58.4098 52.27C58.4544 52.1878 58.5511 52.016 58.6256 51.8964C58.7074 51.7694 58.8637 51.5004 58.9753 51.2986C59.0869 51.0894 59.2283 50.8428 59.2804 50.7382C59.6599 50.0507 59.9724 49.4604 60.3817 48.6459C61.0068 47.3905 61.3565 46.6283 61.87 45.3953C61.9295 45.2534 62.0262 45.0217 62.0858 44.8872C62.1378 44.7602 62.242 44.4986 62.3164 44.3118C62.3834 44.125 62.4801 43.8934 62.5173 43.7888C62.562 43.6841 62.6215 43.5197 62.6513 43.4151C62.6885 43.3105 62.7852 43.0415 62.8745 42.8173C62.9638 42.5932 63.0606 42.3017 63.0978 42.1822C63.1573 41.9729 63.2168 41.7861 63.4326 41.1734C63.4847 41.0314 63.5889 40.7101 63.6559 40.4635C63.7303 40.2169 63.8196 39.9329 63.8642 39.8283C63.9014 39.7237 63.961 39.522 63.9982 39.38C64.0279 39.238 64.1247 38.8793 64.2065 38.5954C64.2958 38.3039 64.3926 37.9378 64.4372 37.7734C64.4744 37.609 64.5414 37.3251 64.5935 37.1382C64.839 36.1892 64.9507 35.7185 65.2185 34.4108C65.2855 34.082 65.3897 33.6038 65.4492 33.3497C65.5087 33.0956 65.5534 32.8117 65.5534 32.7145C65.5534 32.6249 65.598 32.3035 65.6576 32.0196C66.0073 30.3383 66.6621 25.0029 66.677 23.6504C66.6919 22.6865 66.7663 22.0812 66.8779 22.0961C66.9449 22.1111 66.9672 20.3924 66.9672 13.6672C66.9672 8.71291 66.9375 5.23821 66.9003 5.26063C66.7961 5.32788 66.744 5.10371 66.7366 4.49843C66.7291 4.18459 66.7068 3.73624 66.6845 3.51207C66.6324 3.10108 66.6324 3.10108 66.3347 3.04877C66.171 3.02636 65.8213 2.9591 65.5534 2.9068C65.2855 2.85449 64.8837 2.79471 64.6604 2.76482C64.4372 2.73493 64.0503 2.67515 63.8047 2.63031C63.3136 2.54064 62.7629 2.45097 59.9724 2.01757C59.6673 1.96526 59.1836 1.89801 58.8934 1.86812C58.6107 1.83823 58.1419 1.77098 57.8517 1.72614C57.5689 1.68131 56.9289 1.59911 56.4378 1.53933C55.9467 1.47955 55.2472 1.38988 54.8751 1.33757C54.5105 1.29274 53.9226 1.22549 53.5729 1.1956C53.2232 1.16571 52.5907 1.10593 52.1591 1.05362C51.7275 1.00879 50.9238 0.919115 50.3732 0.859336C49.8225 0.799556 49.1825 0.747248 48.9593 0.747248C48.7361 0.747248 48.1333 0.694941 47.6199 0.635161C47.1064 0.575381 46.4441 0.523074 46.1391 0.523074C45.8414 0.523074 45.0526 0.478239 44.3903 0.418459C43.7355 0.358679 42.4333 0.291427 41.5031 0.269009C39.8214 0.224174 39.5461 0.194285 39.6279 0.0672523C39.6502 0.0298899 37.0904 0 33.4442 0C29.8128 0 27.2382 0.0298899 27.2605 0.0672523ZM37.6857 2.24174C43.0732 2.37625 49.8523 2.83207 53.4241 3.30284C53.7738 3.34767 54.3394 3.40745 54.6891 3.43734C55.0388 3.46723 55.6044 3.52701 55.9541 3.57932C56.3039 3.62415 56.9736 3.71382 57.4424 3.78108C59.3027 4.02767 61.9965 4.42371 63.4698 4.67777C63.8196 4.73008 64.2214 4.79733 64.3702 4.81975C64.5265 4.84217 64.6828 4.90942 64.7349 4.9692C64.9804 5.2681 65.0102 19.8469 64.7721 22.3054C64.7125 22.9181 64.6604 23.613 64.6604 23.8372C64.6604 24.2407 64.5116 25.7875 64.3479 27.0504C64.3107 27.4016 64.2437 27.9396 64.214 28.246C64.1842 28.5524 64.1172 29.0605 64.0651 29.3669C63.8196 30.9585 63.7526 31.3919 63.6484 31.8701C63.5889 32.1541 63.5442 32.4679 63.5442 32.5651C63.5442 32.6548 63.4996 32.9238 63.4401 33.1629C63.3805 33.3945 63.2764 33.8578 63.2094 34.1866C62.8969 35.6961 62.5471 37.1009 62.0858 38.7075C61.8179 39.6116 61.2226 41.4499 60.9547 42.1822C60.8951 42.3466 60.8058 42.6006 60.7538 42.7426C60.5603 43.2731 60.1808 44.2072 60.0766 44.409C60.0171 44.5285 59.9724 44.6556 59.9724 44.6929C59.9724 44.7975 59.3101 46.2248 58.566 47.7492C58.0451 48.7953 57.5391 49.7593 57.2564 50.2151C57.1671 50.3571 57.0703 50.5289 57.048 50.5887C57.0182 50.6485 56.9289 50.7979 56.8471 50.925C56.7652 51.0445 56.6685 51.2164 56.6238 51.2986C56.4304 51.6573 55.9318 52.4344 54.8379 54.0634C54.317 54.8331 52.4121 57.3065 51.8986 57.8669C51.8614 57.9117 51.7126 58.0836 51.5712 58.248C50.8047 59.1596 49.2049 60.826 47.6868 62.2906C47.1287 62.8286 45.3205 64.3904 44.7178 64.8612C44.5317 65.0031 44.368 65.1376 44.3457 65.1601C44.3085 65.2124 43.0584 66.1614 42.7756 66.3706C42.0687 66.8713 41.451 67.3047 41.3469 67.3644C41.2873 67.4018 40.9897 67.6036 40.6846 67.8128C40.3869 68.0145 40.0818 68.2163 40.0149 68.2611C39.9479 68.2985 39.4419 68.6049 38.8987 68.9411C38.3555 69.2699 37.8569 69.5613 37.7974 69.5912C37.7378 69.6211 37.589 69.7108 37.4625 69.7855C37.1053 70.0172 36.4579 70.3534 33.98 71.5939C33.7493 71.7134 33.5112 71.8106 33.4665 71.8106C33.4144 71.8106 33.154 71.7059 32.8861 71.5789C31.9485 71.1231 30.6835 70.4879 30.2816 70.2638C30.0584 70.1367 29.731 69.9574 29.5524 69.8602C29.1282 69.6211 29.0985 69.6062 28.1758 69.0457C27.7293 68.7767 27.3126 68.5227 27.2456 68.4853C27.1786 68.4405 26.9182 68.2761 26.6726 68.1117C26.4271 67.9473 26.1666 67.7829 26.0996 67.7381C25.7722 67.5363 24.2095 66.4378 23.6142 65.982C22.8701 65.4216 21.5977 64.3904 20.8386 63.7403C18.8444 62.0291 16.9171 60.1012 15.2949 58.2106C14.6698 57.4709 14.4019 57.1496 13.5238 56.0436C13.0327 55.4309 11.5966 53.4208 11.3435 52.9949C11.2989 52.9276 11.1352 52.6661 10.9715 52.4195C10.6366 51.9113 10.525 51.7395 10.4134 51.5228C10.3687 51.4406 10.272 51.2687 10.1901 51.1491C10.1083 51.0221 10.0116 50.8577 9.96691 50.7755C9.92226 50.6933 9.78832 50.4542 9.66181 50.2524C9.54275 50.0432 9.38649 49.7742 9.32696 49.6546C9.26743 49.5276 9.10372 49.2287 8.96233 48.9821C8.39679 47.9584 7.54104 46.165 6.99039 44.8349C6.78203 44.3193 6.57368 43.8336 6.52903 43.7589C6.48438 43.6767 6.42485 43.5272 6.38764 43.4226C6.32811 43.2134 6.20161 42.8696 5.94861 42.2195C5.85931 41.9954 5.76257 41.7039 5.72537 41.5844C5.66584 41.3751 5.60631 41.1883 5.39051 40.5756C5.33842 40.4336 5.23424 40.1123 5.16727 39.8657C5.09286 39.6191 4.98868 39.3053 4.93659 39.1708C4.87706 39.0363 4.83241 38.8719 4.83241 38.7971C4.83241 38.7299 4.78776 38.5431 4.72823 38.3712C4.6687 38.2068 4.56453 37.8556 4.49755 37.5866C4.43058 37.3176 4.3264 36.929 4.27432 36.7273C4.01387 35.7857 3.76087 34.6125 3.3888 32.7071C3.15812 31.5189 3.10603 31.2499 3.0465 30.7866C2.97209 30.1814 2.84559 29.3743 2.7042 28.5374C2.65211 28.1862 2.60002 27.7976 2.60002 27.6781C2.60002 27.5585 2.55538 27.0429 2.4884 26.5273C2.35446 25.3915 2.19075 23.4412 2.07169 21.6328C1.93775 19.6003 1.90798 9.77401 2.02704 7.15864C2.08657 5.79865 2.15355 4.97667 2.20563 4.92437C2.25028 4.87953 2.51817 4.81228 2.80094 4.78239C3.07627 4.74503 3.49298 4.68525 3.71622 4.64041C3.93946 4.59558 4.44547 4.51338 4.83241 4.4536C5.21936 4.39382 5.84443 4.28921 6.21649 4.22195C6.58856 4.16217 6.99039 4.10987 7.10945 4.10987C7.22851 4.10987 7.59313 4.06503 7.92055 4.00525C8.65724 3.87075 9.5874 3.74371 10.3762 3.66152C10.7036 3.63163 11.2394 3.56437 11.5668 3.51954C11.8942 3.4747 12.616 3.39251 13.1667 3.33273C13.7173 3.27295 14.5061 3.18328 14.9154 3.13844C15.3246 3.08614 16.0316 3.02636 16.478 2.98899C16.932 2.9591 17.6687 2.89185 18.1151 2.84702C19.5141 2.71251 20.9726 2.60042 22.2078 2.54064C22.8627 2.51075 24.1054 2.4435 24.9611 2.39867C28.7264 2.18944 33.3549 2.12966 37.6857 2.24174Z" fill="#C0C2C4"/>
<path d="M26.5238 3.51957C26.0326 3.54946 24.8123 3.61671 23.8077 3.65408C22.8031 3.69891 21.7316 3.77363 21.4265 3.811C21.1214 3.84836 20.6005 3.87825 20.2731 3.88572C19.9382 3.88572 19.2685 3.93803 18.7848 3.99781C18.2937 4.05759 17.6761 4.1099 17.4082 4.1099C17.1403 4.1099 16.6045 4.1622 16.2176 4.22198C15.8306 4.28176 15.3246 4.33407 15.0939 4.33407C14.8633 4.33407 14.4912 4.37143 14.2754 4.4088C14.0522 4.45363 13.5238 4.52088 13.0922 4.55825C12.3258 4.6255 11.8421 4.67781 10.2645 4.89451C9.83295 4.95429 9.33438 5.01407 9.14835 5.03648C8.96231 5.05143 8.56048 5.10374 8.25539 5.15604C7.9503 5.20088 7.36988 5.29055 6.96805 5.35033C5.46491 5.56703 4.69845 5.69406 4.01385 5.8211L3.30693 5.9556L3.22508 8.18987C3.11346 11.0668 3.09857 17.0522 3.19531 19.5406C3.28461 21.8645 3.45576 24.3454 3.60458 25.6306C3.67155 26.1463 3.7162 26.6619 3.7162 26.7889C3.70876 27.3269 4.37848 31.6161 4.72078 33.2526C4.77287 33.5216 4.87704 34.0073 4.94401 34.3361C5.19702 35.5541 5.71047 37.5567 6.06021 38.6701C6.10486 38.8345 6.20904 39.1708 6.28345 39.4174C6.35042 39.664 6.4546 39.9853 6.50669 40.1273C6.72248 40.74 6.78202 40.9268 6.84155 41.1361C6.87875 41.2556 6.97549 41.547 7.06478 41.7712C7.31779 42.4213 7.44429 42.7651 7.50382 42.9743C7.54103 43.0789 7.60056 43.2283 7.64521 43.3105C7.68985 43.3853 7.84612 43.7514 7.99495 44.125C8.57537 45.5373 9.3567 47.1738 10.0711 48.4964C10.2199 48.7655 10.3613 49.0345 10.391 49.0942C10.4431 49.2138 11.031 50.245 11.1575 50.4393C11.1947 50.4991 11.3138 50.7008 11.4254 50.8876C11.537 51.0745 11.8495 51.5602 12.1174 51.9712C12.3853 52.3821 12.6383 52.7782 12.683 52.8454C12.8541 53.1443 14.3647 55.2217 14.5433 55.401C14.5879 55.4459 14.8261 55.7522 15.0791 56.081C15.3321 56.4098 15.6148 56.761 15.7116 56.8656C15.8083 56.9702 16.0688 57.2766 16.292 57.5382C16.8799 58.248 17.3784 58.7711 18.7104 60.1162C20.8237 62.2309 21.6274 62.9408 24.1054 64.8462C24.5742 65.2124 25.1843 65.6682 25.4671 65.855C25.7424 66.0493 26.1889 66.3557 26.4568 66.5425C26.7247 66.7293 26.9554 66.8788 26.9703 66.8788C26.9851 66.8788 27.2084 67.0207 27.4688 67.2001C27.7293 67.3794 27.9897 67.5438 28.0492 67.5737C28.1088 67.6036 28.265 67.6933 28.3841 67.7755C28.5106 67.8577 28.6743 67.9548 28.7562 67.9996C28.838 68.0445 29.0092 68.1416 29.1282 68.2238C29.2547 68.306 29.4184 68.4031 29.5003 68.448C29.5821 68.4853 29.85 68.6348 30.0956 68.7768C31.3011 69.4717 33.273 70.4655 33.4591 70.4655C33.6228 70.4655 36.3388 69.0831 37.3434 68.4853C37.8494 68.179 38.7349 67.6409 38.8987 67.5363C39.0103 67.4616 39.1442 67.3794 39.2037 67.357C39.7172 67.1029 43.2965 64.5324 44.1969 63.7627C44.301 63.6731 44.6136 63.4115 44.9038 63.1649C45.1865 62.9258 45.4619 62.6942 45.5065 62.6568C45.5512 62.612 45.9009 62.2981 46.2879 61.9544C47.1883 61.1399 49.123 59.1896 49.9341 58.2929C50.2764 57.9043 50.6112 57.5381 50.6782 57.4709C50.7377 57.4036 51.0056 57.0823 51.2735 56.7535C51.534 56.4248 51.787 56.1184 51.8316 56.081C51.9804 55.9465 53.8929 53.3386 54.3542 52.6437C54.8826 51.8441 54.7784 52.016 55.6788 50.5065C56.0806 49.834 56.4378 49.2288 56.475 49.169C56.6982 48.7879 57.74 46.7329 58.1716 45.8064C58.6999 44.6556 58.8562 44.3044 58.8562 44.2446C58.8562 44.2072 58.9009 44.0802 58.9604 43.9606C59.0646 43.7589 59.4441 42.8248 59.6375 42.2943C59.6896 42.1523 59.7789 41.8982 59.8385 41.7338C59.9947 41.3229 60.0989 40.9941 60.2775 40.4262C60.3668 40.1572 60.4784 39.8209 60.5305 39.6789C60.5826 39.5369 60.6793 39.2156 60.7537 38.969C61.0365 37.9976 61.0812 37.8332 61.2002 37.3998C61.2672 37.1532 61.3714 36.7945 61.4309 36.6077C61.4904 36.4134 61.5351 36.1967 61.5351 36.1295C61.5351 36.0548 61.5797 35.8231 61.6393 35.6139C61.7583 35.1954 61.8997 34.5752 62.0932 33.6636C62.1601 33.3348 62.2494 32.9163 62.2941 32.7295C62.3313 32.5427 62.3983 32.1915 62.428 31.9449C62.4652 31.6983 62.5248 31.3097 62.5694 31.0856C63.0159 28.6869 63.4326 24.8311 63.6335 21.2219C63.7451 19.3015 63.7526 7.71911 63.6484 6.61318L63.5814 5.94813L62.8745 5.81362C61.5127 5.56703 60.0766 5.35033 56.7206 4.90198C55.8946 4.78989 54.57 4.63297 52.866 4.44616C52.3376 4.38638 51.4298 4.28924 50.8568 4.22198C50.2838 4.1622 49.6662 4.1099 49.4802 4.1099C49.2941 4.1099 48.6467 4.05759 48.0291 3.99781C46.9873 3.90067 45.4768 3.79605 41.8528 3.57935C40.119 3.47474 27.893 3.42243 26.5238 3.51957ZM36.0412 8.11515C36.2123 8.1824 36.2049 8.72042 36.0338 8.77273C35.9593 8.79514 34.9176 8.81009 33.7121 8.81009C32.1866 8.81009 31.502 8.83251 31.4425 8.89229C31.316 9.01932 31.3309 11.4479 31.4648 11.6123C31.5541 11.7244 31.7773 11.7318 33.6228 11.7169L35.6766 11.6945V10.6483L34.6422 10.6259C34.0097 10.611 33.5632 10.5736 33.5037 10.5213C33.4367 10.469 33.407 10.327 33.4219 10.1701L33.4442 9.90107L34.8431 9.87865C35.7212 9.87118 36.2942 9.88613 36.3835 9.93843C36.5249 10.0132 36.5323 10.1028 36.5323 11.1714C36.5323 11.9859 36.51 12.3371 36.443 12.3745C36.3909 12.4044 35.2152 12.4268 33.8162 12.4118C30.996 12.3894 30.9662 12.3894 30.7132 11.8813C30.609 11.6646 30.5867 11.3881 30.5793 10.3569C30.5793 9.58723 30.6165 8.98196 30.6686 8.80262C30.7653 8.46635 31.1002 8.17493 31.435 8.12262C31.7922 8.07031 35.9147 8.06284 36.0412 8.11515ZM28.7041 9.82635C28.7338 12.5538 28.7562 12.5314 25.4448 12.6061C23.6366 12.6509 23.5324 12.6435 23.2496 12.494C22.751 12.24 22.6841 11.9411 22.7064 10.0132L22.7287 8.41405L22.9892 8.36174C23.5101 8.24965 23.5101 8.25712 23.5101 10.058C23.5101 11.0967 23.5398 11.7244 23.5919 11.8215C23.6738 11.9784 23.711 11.9784 25.1397 11.9261C27.0819 11.8663 27.6623 11.8066 27.7962 11.6795C27.8781 11.5899 27.9004 11.2461 27.9004 9.90854C27.9004 8.9969 27.9227 8.21976 27.9525 8.18987C27.9823 8.15998 28.1609 8.14504 28.3469 8.15998L28.6818 8.1824L28.7041 9.82635ZM42.1505 8.22723C42.969 8.27207 43.7132 8.33932 43.8099 8.37668C43.9959 8.45141 44.0331 8.71295 43.8769 8.92218C43.7801 9.04921 43.6983 9.05668 42.3663 8.97448C41.5924 8.92218 40.5581 8.87734 40.0669 8.86987L39.174 8.85492V9.90107L40.6622 9.95338C41.4808 9.98327 42.4333 10.0356 42.783 10.0655L43.4155 10.1252L43.4378 10.3718C43.475 10.723 43.3411 10.8501 43.0137 10.8052C42.8649 10.7828 41.9868 10.723 41.0492 10.6782C39.7172 10.611 39.3302 10.6184 39.2484 10.6857C39.1293 10.7828 39.0921 11.545 39.1963 11.7094C39.2558 11.8066 41.1608 11.9336 43.0807 11.9784L43.8546 11.9934L43.929 12.24C44.0555 12.6958 44.0703 12.6958 41.3692 12.6211C38.8838 12.5538 38.5043 12.5239 38.4298 12.4044C38.4001 12.352 38.3703 9.27338 38.3926 8.23471C38.3926 8.11515 40.0818 8.11515 42.1505 8.22723ZM20.8386 8.63822C20.8907 8.78767 20.8833 8.87734 20.8014 9.00437C20.7121 9.13888 20.6005 9.17624 20.1168 9.2136C19.8043 9.24349 19.3206 9.26591 19.0527 9.26591C18.7848 9.27338 17.996 9.33316 17.2966 9.40041L16.0315 9.53492L16.0092 10.0057C15.9943 10.2672 16.0167 10.5138 16.0539 10.5512C16.0985 10.596 16.5078 10.5811 17.118 10.5063C17.6686 10.4466 18.5914 10.3718 19.1643 10.3494C20.288 10.3046 20.3103 10.3121 20.3103 10.6707C20.3029 10.9771 20.2136 11.007 18.9932 11.0743C18.3458 11.1041 17.4156 11.1789 16.9245 11.2312L16.0315 11.3208L16.0092 11.7991C15.9943 12.0681 16.0241 12.3147 16.0688 12.3595C16.1655 12.4567 17.2296 12.4268 18.4872 12.2848C19.7224 12.1503 20.8014 12.1428 20.8461 12.2698C20.8609 12.3222 20.8609 12.4641 20.8386 12.5912C20.794 12.8153 20.7865 12.8153 20.1987 12.8602C17.81 13.0395 17.118 13.0918 16.3292 13.1815C15.8381 13.2338 15.4065 13.2562 15.3767 13.2263C15.3097 13.1665 15.3023 8.98943 15.3693 8.88481C15.3916 8.84745 15.6 8.81756 15.8306 8.81756C16.0613 8.81756 16.6715 8.76525 17.1849 8.70547C17.6984 8.64569 18.3979 8.59339 18.7476 8.58591C19.0974 8.57844 19.581 8.54855 19.8266 8.51866C20.6824 8.41405 20.7493 8.42152 20.8386 8.63822ZM49.7629 8.72042C51.2214 8.8624 51.4893 8.95954 51.7647 9.45272C51.9209 9.7292 51.9358 9.84129 51.9358 11.0817C51.9358 12.4865 51.906 12.6584 51.5637 12.9648C51.4075 13.1068 51.3107 13.1142 50.1573 13.0918C49.0932 13.0769 47.4785 12.9498 46.6674 12.8079C46.5334 12.7854 46.3176 12.6584 46.1688 12.509L45.9083 12.2474V10.6483C45.9083 9.09404 45.9158 9.04174 46.0795 8.85492C46.1688 8.74284 46.3623 8.63075 46.5037 8.59339C46.8385 8.51119 48.1259 8.5635 49.7629 8.72042ZM54.6147 9.15382C55.0016 9.2136 55.4704 9.26591 55.6564 9.26591C55.8425 9.26591 56.341 9.31074 56.7726 9.378C57.2042 9.43778 57.874 9.51997 58.2609 9.57228C58.6478 9.61712 59.0125 9.69184 59.0646 9.7292C59.1836 9.83382 59.1836 10.3046 59.0497 10.3569C58.9976 10.3793 58.6553 10.3419 58.2907 10.2822C57.4721 10.1402 56.795 10.1103 56.6982 10.2074C56.661 10.2448 56.6164 11.0219 56.6089 11.9934L56.5866 13.712L56.341 13.7345C55.8871 13.7793 55.8797 13.7643 55.8797 11.8439C55.8797 10.5437 55.8574 10.0879 55.7904 10.0356C55.7383 9.99074 55.396 9.93843 55.0239 9.90854C54.6593 9.87865 54.1235 9.81887 53.8333 9.76657C53.3422 9.68437 53.3124 9.66195 53.2901 9.46767C53.238 8.9969 53.372 8.95954 54.6147 9.15382ZM13.0178 9.2958C13.1146 9.34063 13.2783 9.49008 13.3676 9.63206C13.5164 9.84876 13.5387 9.98327 13.5387 10.5661C13.5387 11.134 13.5089 11.2984 13.3676 11.545C13.1666 11.9037 12.683 12.1727 12.229 12.1727C12.0579 12.1802 11.7379 12.2175 11.5221 12.2549C11.2989 12.2997 10.7333 12.367 10.2645 12.4044C9.79574 12.4492 9.20788 12.5239 8.96231 12.5762L8.51584 12.6659L8.47863 13.3011L8.44142 13.9287L8.18098 13.9885C8.03959 14.0184 7.87589 14.0259 7.83124 14.0109C7.75683 13.9885 7.7345 13.4879 7.7345 11.8514C7.7345 9.8936 7.74194 9.72173 7.86844 9.68437C8.00983 9.63953 8.72419 9.54986 10.1901 9.378C12.4672 9.11646 12.6234 9.11646 13.0178 9.2958ZM36.7928 17.1867C37.5741 17.2241 38.7275 17.2764 39.36 17.3063C40.5283 17.3511 41.0641 17.4483 41.6668 17.7248C42.2621 17.9938 44.6582 19.2043 45.3503 19.5779C45.7223 19.7797 46.1911 20.0263 46.392 20.1384C46.6004 20.243 46.8832 20.3999 47.0245 20.4896C47.1659 20.5718 47.4338 20.7212 47.6198 20.8258C48.2449 21.1621 48.6244 21.3938 48.8105 21.5357C49.1304 21.7823 51.4893 24.1436 51.4893 24.2183C51.4893 24.3304 51.1173 24.2931 50.8717 24.1511C50.7452 24.0838 50.4252 23.8821 50.1648 23.7027C49.9043 23.5309 49.6811 23.3889 49.6662 23.3889C49.6513 23.3889 49.5099 23.2992 49.3537 23.1946C49.1974 23.09 49.0039 22.9704 48.9221 22.9331C48.8402 22.8957 48.6765 22.7986 48.55 22.7164C48.4309 22.6342 48.2747 22.5445 48.2152 22.5146C48.1556 22.4847 47.8729 22.3203 47.5826 22.1559C47.2999 21.9841 46.7641 21.7001 46.3995 21.5208C45.7298 21.1995 45.7298 21.1995 44.6136 21.1397C43.3485 21.065 42.5374 20.9529 42.2621 20.8109C41.8752 20.6017 40.7887 20.1085 40.1413 19.8395C39.7767 19.69 39.3451 19.5107 39.1889 19.4434C38.9359 19.3388 38.6829 19.3388 36.6588 19.421C35.4236 19.4733 34.0023 19.5406 33.4963 19.5555C32.8935 19.5854 32.5512 19.5705 32.4991 19.5182C32.4396 19.4584 32.4694 19.4285 32.5959 19.3986C33.0275 19.3164 34.5083 19.1221 35.565 19.025C36.1975 18.9577 37.0904 18.8755 37.5369 18.8307C37.9908 18.7784 38.8838 18.7186 39.5312 18.6812C40.1786 18.6513 40.7218 18.6065 40.7441 18.5841C40.7664 18.5692 40.6548 18.472 40.4985 18.3749L40.2158 18.1955L36.0114 18.2105C32.7298 18.2179 31.5318 18.2478 30.5644 18.345L29.3217 18.4645L28.2576 19.01C27.6697 19.3089 26.9628 19.6826 26.6726 19.8395C25.9061 20.2654 25.3034 20.5942 24.8867 20.8109C24.6858 20.9155 24.4179 21.065 24.2914 21.1397C24.1723 21.2144 23.8523 21.3938 23.5845 21.5357C23.3166 21.6852 22.9296 21.9019 22.7287 22.0214C22.5204 22.141 22.3046 22.2606 22.245 22.2904C22.1855 22.3203 22.0739 22.3801 22.0069 22.4324C21.8581 22.537 21.7613 22.4773 21.8209 22.3203C21.8432 22.2606 22.1557 22.014 22.5204 21.7748C23.3389 21.2368 24.1723 20.6091 25.0281 19.8768C25.9508 19.0997 26.1071 18.9278 26.5684 18.2329C26.8586 17.792 27.0372 17.5977 27.2307 17.5155C27.4837 17.4034 28.3171 17.3437 31.5839 17.1942C33.3326 17.112 35.1929 17.112 36.7928 17.1867ZM29.1878 21.1173C29.1803 21.2069 28.972 21.6105 28.7338 22.014C28.4957 22.4175 28.2799 22.8061 28.2502 22.8658C28.2204 22.9256 28.1311 23.0751 28.0492 23.2021C27.9748 23.3217 27.8334 23.5757 27.7367 23.7551C27.5432 24.1287 27.2307 24.4201 26.9479 24.4799C26.8363 24.5023 26.628 24.5621 26.4866 24.6144C26.3452 24.6742 26.0401 24.7713 25.8169 24.8386C25.5936 24.8983 25.1099 25.0553 24.7379 25.1674C23.4803 25.5709 23.1901 25.6232 21.7613 25.7054C19.8861 25.8025 19.9903 25.81 20.0796 25.6456C20.1168 25.5709 20.3549 25.4289 20.6079 25.3243C21.1586 25.1076 21.2479 25.0254 21.9846 24.0988C22.9073 22.9406 22.9743 22.8808 23.8821 22.4399C24.7974 21.999 25.1174 21.8496 25.5043 21.6926C25.6308 21.6403 25.8541 21.5507 25.988 21.4909C26.2112 21.3938 26.4047 21.319 27.1191 21.05C27.3349 20.9678 27.6697 20.9379 28.3097 20.9454C29.1729 20.9603 29.2026 20.9678 29.1878 21.1173ZM37.5667 22.9854C37.9908 23.2021 38.095 23.2918 38.095 23.4263C38.095 23.5159 38.1471 23.7401 38.2066 23.9195C38.2736 24.0913 38.3257 24.4799 38.3331 24.7638C38.348 25.2421 38.3257 25.3317 38.1322 25.6306C38.0057 25.8175 37.8941 25.9968 37.8718 26.0416C37.8494 26.079 37.6411 26.4153 37.3955 26.7814C37.0011 27.3867 36.9639 27.4838 36.9639 27.8276C36.9714 28.0368 37.0234 28.4104 37.083 28.657C37.1425 28.9036 37.2467 29.3744 37.3137 29.7032C37.3806 30.0319 37.4699 30.4504 37.5146 30.6372C37.6336 31.1229 37.6783 31.6086 37.5964 31.6086C37.3881 31.6086 37.1127 31.093 36.8672 30.2262C36.7928 29.9796 36.696 29.6583 36.6439 29.5163C36.5918 29.3744 36.4951 29.053 36.4207 28.8065C36.3537 28.5599 36.2495 28.2236 36.19 28.0592C35.9668 27.4166 36.0114 27.2895 36.8672 26.1537C37.3732 25.4737 37.6485 25.0478 37.6485 24.9282C37.6485 24.6891 37.4029 24.2109 37.1574 23.9792C37.0011 23.8373 36.8895 23.7999 36.5398 23.7999C36.2942 23.7999 35.9742 23.8597 35.7807 23.9419C35.6022 24.0166 35.3194 24.1287 35.1557 24.1885C34.992 24.2557 34.7613 24.3454 34.6348 24.3977C34.5157 24.45 34.2776 24.5471 34.1139 24.6069C33.9502 24.6667 33.5558 24.8236 33.2433 24.9581L32.6628 25.2047L32.1866 25.0777C31.9187 25.0104 31.6062 24.9581 31.4946 24.9581C31.0406 24.9581 31.0109 24.7265 31.3829 24.1735C31.6062 23.8447 31.8889 23.7252 32.9828 23.5085C34.3669 23.2245 34.672 23.1647 35.2673 23.0526C35.617 22.9854 36.1007 22.8882 36.3463 22.8359C36.9862 22.6865 36.9862 22.6865 37.5667 22.9854ZM46.4813 23.0377C46.593 23.0975 47.1436 23.374 47.6943 23.6504C48.2449 23.9195 48.8998 24.2632 49.1453 24.4052C49.3909 24.5471 49.6588 24.6966 49.7406 24.7414C49.8225 24.7788 49.9564 24.8535 50.0383 24.9058C50.8047 25.3616 51.4596 25.7652 51.6233 25.8698C51.7349 25.9445 51.8763 26.0267 51.9358 26.0566C52.0549 26.1164 53.2976 26.9533 53.8036 27.3269C54.1682 27.5884 54.3914 27.992 54.3914 28.388C54.3914 28.5076 54.4361 28.8289 54.4956 29.1128C54.7784 30.4878 54.89 33.9849 54.6965 35.6438C54.5923 36.5479 54.4733 36.8543 53.6175 38.4086C53.4761 38.6776 53.305 38.9914 53.2455 39.1185C53.1859 39.238 53.0297 39.507 52.9106 39.7163C52.7841 39.918 52.6502 40.1572 52.6055 40.2394C52.5609 40.3216 52.4641 40.4859 52.3823 40.613C52.3004 40.7325 52.2111 40.8895 52.1814 40.9492C51.9953 41.3453 50.5294 43.4152 50.4327 43.4152C50.4029 43.4152 50.3731 43.0266 50.3731 42.5558C50.3731 41.5919 50.3285 41.6741 51.1693 40.9717C51.3851 40.7923 51.6754 40.4336 51.8614 40.1123C52.2111 39.5295 53.4464 37.1159 53.5208 36.8693C53.5431 36.7945 53.6324 36.5255 53.7143 36.2864C53.8036 36.0398 53.8705 35.6737 53.8705 35.4644C53.8705 34.4557 53.4092 30.8913 53.1562 29.9946C53.0966 29.7853 53.052 29.5686 53.052 29.5089C53.0446 29.337 52.7395 29.0157 52.4195 28.8588C52.0251 28.657 51.4372 28.3955 50.708 28.0966C49.8001 27.7229 49.5248 27.5884 49.3611 27.439C49.2867 27.3643 49.0337 27.155 48.803 26.9757C47.724 26.1089 47.285 25.7502 47.2478 25.7054C47.2255 25.6755 46.8013 25.3467 46.2953 24.9731C45.261 24.2034 45.1493 24.166 44.2415 24.4052C43.8173 24.5098 43.475 24.5994 42.6193 24.8161C42.21 24.9133 41.4957 24.846 41.3692 24.6966C41.3022 24.6219 41.3245 24.5845 41.4585 24.5471C41.5552 24.5172 41.8454 24.3902 42.1133 24.2632C42.6788 24.0016 43.0211 23.8522 43.3634 23.7102C43.4899 23.6579 43.7132 23.5682 43.8471 23.5085C43.9736 23.4562 44.2341 23.3515 44.4201 23.2768C44.6061 23.2096 44.8219 23.1124 44.9038 23.0676C45.313 22.8509 46.0944 22.8359 46.4813 23.0377ZM21.0544 23.897C21.0544 23.9269 20.6824 24.2333 20.2284 24.577C19.2908 25.2869 19.2015 25.4214 19.142 26.2808C19.0974 26.8786 18.956 27.155 18.6583 27.2223C18.5616 27.2447 18.3011 27.3344 18.0779 27.424C17.8547 27.5137 17.6017 27.6034 17.5198 27.6258C17.3412 27.6781 16.6641 28.1788 16.6641 28.261C16.6641 28.3506 17.051 28.3282 17.4156 28.2161C18.2118 27.9695 18.4053 27.9471 18.7551 28.0667C19.1122 28.1937 19.6108 28.1638 20.2731 27.9845C20.4814 27.9247 20.8907 27.8126 21.1884 27.7304C21.5083 27.6407 21.9251 27.4539 22.1855 27.2746C22.6841 26.9383 22.6915 26.9383 22.6915 27.0728C22.6915 27.2372 21.9995 27.8425 21.6497 27.977C21.4637 28.0517 21.2181 28.1563 21.0916 28.2087C20.9726 28.261 20.727 28.3581 20.5559 28.4254C20.3773 28.4926 20.0945 28.5972 19.9233 28.6645C19.7448 28.7317 19.5066 28.8289 19.3801 28.8812C19.2611 28.9335 19.0081 29.0306 18.822 29.1054C18.636 29.1726 18.4053 29.2697 18.3011 29.3071C18.197 29.3445 17.8844 29.4566 17.5942 29.5537C17.3114 29.6508 16.8873 29.8078 16.6641 29.89C16.4408 29.9796 16.1729 30.0693 16.0688 30.0917C15.8009 30.144 15.5181 30.3757 15.5627 30.5027C15.5925 30.5774 15.8753 30.6297 16.5599 30.7045C17.0882 30.7568 17.5719 30.8315 17.6314 30.8614C17.691 30.8913 18.1746 31.3695 18.703 31.9075C19.8043 33.0359 19.7968 33.0135 18.8816 33.1704C18.5839 33.2227 18.0779 33.3124 17.7654 33.3721C17.4454 33.4244 16.9096 33.5291 16.5748 33.5888C16.2325 33.6561 15.8083 33.7458 15.6223 33.7906C15.4362 33.8354 15.1386 33.8952 14.9526 33.9251C14.268 34.0447 14.1266 34.1941 13.9852 34.9339C13.6578 36.5928 13.6652 36.5853 13.1071 36.0398C12.6309 35.5765 11.6784 34.3211 11.6784 34.1568C11.6784 33.9924 11.8793 33.7233 12.5267 32.9985C12.8095 32.6847 13.0997 32.3484 13.1592 32.2587C13.4197 31.8926 13.6131 31.1453 13.4792 31.0557C13.3973 31.0108 12.9285 31.5414 12.8467 31.7656C12.8243 31.8328 12.5416 32.0869 12.2216 32.3335C11.3063 33.0359 11.2245 33.0583 10.9863 32.6623C10.6366 32.057 11.1501 31.4965 14.0968 29.2697C14.7144 28.799 15.4734 28.2385 15.7934 28.0069C16.3366 27.6183 16.5003 27.439 17.4007 26.2583C17.5645 26.0491 17.8249 25.7726 17.9812 25.6531C18.2491 25.4438 19.581 24.5994 20.2731 24.2109C20.4517 24.1063 20.6452 23.9792 20.6972 23.9269C20.794 23.8298 21.0544 23.7999 21.0544 23.897ZM21.233 26.4227C21.5158 26.6992 21.2628 27.1326 20.7419 27.2596C20.5335 27.3045 20.3401 27.3269 20.3028 27.3045C20.2656 27.2821 20.2359 27.1027 20.2359 26.901C20.2359 26.4377 20.3624 26.3032 20.794 26.3032C20.9874 26.3032 21.166 26.348 21.233 26.4227ZM44.1076 30.3981C45.313 31.6161 46.6748 33.2376 48.0068 35.0161C49.1602 36.5554 49.2272 36.7049 49.3462 38.0723C49.5248 40.1572 49.443 42.8697 49.1379 45.0965C48.937 46.5237 48.6765 47.9435 48.4682 48.6907C48.4086 48.9 48.364 49.1241 48.364 49.1989C48.364 49.565 47.8803 50.1254 47.099 50.6635C46.9576 50.7606 46.8236 50.8652 46.8013 50.8876C46.779 50.9101 46.5557 51.0894 46.3027 51.2837C46.0497 51.478 45.7967 51.6797 45.7446 51.732C45.6926 51.7769 45.313 52.0907 44.9038 52.4195C44.4945 52.7483 44.1299 53.0547 44.0852 53.0995C44.048 53.1443 43.862 53.2938 43.676 53.4358C43.3709 53.6674 41.838 54.9377 41.2129 55.4757C41.0715 55.6028 40.7887 55.8419 40.5953 56.0063C40.4018 56.1632 40.1637 56.365 40.0744 56.4546C39.9776 56.5368 39.5684 56.8955 39.1591 57.2542C38.4596 57.8669 38.1099 58.2854 37.7229 58.9953C37.6336 59.1597 37.4922 59.4137 37.4104 59.5557C37.3285 59.6977 37.1723 59.9742 37.0755 60.1685C36.8225 60.6542 36.6811 60.6392 36.4653 60.0937C36.3686 59.8621 36.2495 59.5557 36.19 59.4212C35.9891 58.9505 35.8775 58.6889 35.751 58.3601C35.684 58.1733 35.5873 57.9417 35.5501 57.8371C35.2747 57.1346 35.245 56.9852 35.3343 56.6041C35.3864 56.3949 35.4682 56.1109 35.5277 55.9689C35.5798 55.827 35.6691 55.5729 35.7361 55.4085C36.004 54.6837 36.1082 54.4221 36.1975 54.2129C36.2495 54.0859 36.6216 53.2116 37.016 52.2701C37.4104 51.321 37.7676 50.5215 37.8048 50.4841C37.842 50.4393 37.8718 50.3646 37.8718 50.3048C37.8718 50.245 37.9536 50.103 38.0578 49.976C38.1768 49.834 38.2438 49.7967 38.2438 49.8714C38.2438 49.9312 38.2141 50.0059 38.1694 50.0283C38.1322 50.0507 38.095 50.1628 38.095 50.2749C38.095 50.3795 38.0503 50.6037 37.9908 50.7756C37.7601 51.463 37.3583 52.8828 37.0979 53.914C37.0383 54.1606 36.9267 54.594 36.8597 54.8854C36.6811 55.6028 36.6811 56.7535 36.8597 57.3887C37.0681 58.136 37.2095 58.5096 37.2764 58.5096C37.3137 58.5096 37.4178 58.3527 37.5146 58.1584C37.7006 57.7623 38.8019 56.6116 39.9925 55.5505C40.4018 55.1918 40.7515 54.8705 40.7739 54.8481C40.8929 54.7136 44.1745 51.889 45.0154 51.2015C45.2014 51.052 45.4023 50.8802 45.4693 50.8129C45.5363 50.7531 45.8191 50.514 46.1018 50.2898C46.9501 49.6098 47.2999 49.2362 47.3817 48.9074C47.5975 48.1004 47.7091 45.7092 47.6794 42.78C47.6496 40.0974 47.6347 39.8358 47.5008 39.4473C47.218 38.6701 46.4069 37.5941 44.8963 35.995C44.5019 35.5765 44.182 35.173 44.1522 35.0609C44.1299 34.9488 44.0703 34.6425 44.0108 34.3735C43.9587 34.1044 43.8546 33.6187 43.7876 33.2899C43.7206 32.9612 43.6239 32.4904 43.5643 32.2438C43.5123 31.9972 43.4081 31.5264 43.3411 31.1976C43.2667 30.8689 43.1625 30.428 43.1104 30.2113C42.969 29.6957 42.9765 29.6658 43.1997 29.6658C43.3411 29.6658 43.5718 29.8451 44.1076 30.3981ZM28.9496 31.7656C28.972 31.9075 29.0687 32.2886 29.1654 32.6174C29.2547 32.9462 29.3589 33.3497 29.3961 33.5141C29.4259 33.6785 29.4929 33.9326 29.5375 34.0746C29.6417 34.4332 29.6342 34.8442 29.5077 35.1356C29.4482 35.2702 29.1729 35.9203 28.905 36.5778C28.399 37.7809 28.2278 38.1844 27.8111 39.0811C27.6846 39.3501 27.4911 39.7686 27.3795 40.0152C26.7768 41.3453 25.988 42.8921 25.7945 43.1536C25.668 43.318 24.7751 44.2446 23.8077 45.2086L22.0516 46.9646L21.9176 47.6371C21.8432 48.0332 21.7837 48.7206 21.7762 49.3184L21.7613 50.3272L22.2153 51.0745C22.751 51.9562 23.1901 52.6063 23.8821 53.5329C24.15 53.9065 24.4402 54.3026 24.5221 54.4072C25.0281 55.1096 26.1666 56.5667 26.6577 57.1645C26.9851 57.5531 27.3721 58.0239 27.5209 58.2032C28.265 59.1074 29.1059 60.0713 29.7607 60.7737C29.9468 60.968 30.4305 61.3566 30.8397 61.6331C31.249 61.9096 31.5913 62.1935 31.6062 62.2682C31.6508 62.5074 31.5169 62.455 29.7682 61.5359C29.344 61.3043 29.0166 61.0353 28.2799 60.303C27.3795 59.3988 26.3675 58.3153 25.921 57.7623C25.802 57.6203 25.6903 57.4858 25.668 57.4634C25.5787 57.3812 24.6262 56.2454 23.964 55.4384C23.5845 54.9676 23.1975 54.5043 23.1157 54.3997C22.9147 54.1606 21.4563 52.2028 21.166 51.7769C20.3773 50.6336 20.2731 50.3347 20.3475 49.4753C20.4814 47.8463 20.5186 47.4503 20.6079 46.9272C20.7419 46.1277 20.8907 45.7989 21.3372 45.2683C22.4385 43.9756 23.1082 43.1237 24.909 40.7176C26.4419 38.6627 27.32 37.4671 27.3721 37.34C27.387 37.3027 27.5432 37.0561 27.7218 36.7945C27.9004 36.533 28.0492 36.3014 28.0492 36.2789C28.0492 36.264 28.146 36.0996 28.2725 35.9203C28.6594 35.3449 28.9422 34.6948 28.9422 34.3959C28.9422 34.2389 28.8975 33.8055 28.838 33.4394C28.6892 32.5053 28.6148 31.6385 28.6818 31.5339C28.771 31.3919 28.905 31.4965 28.9496 31.7656ZM21.1065 34.0372C21.3223 34.097 21.6795 34.2016 21.8953 34.2614C22.1185 34.3211 22.3715 34.3735 22.4608 34.3735C22.5501 34.3735 22.6841 34.4033 22.7585 34.4482C22.8329 34.4855 23.1231 34.5677 23.4059 34.635C23.6886 34.7022 24.0012 34.777 24.1054 34.7994C24.3435 34.8592 24.7007 35.1207 24.7007 35.2403C24.7007 35.2851 24.7527 35.3673 24.8123 35.4196C24.8718 35.4719 24.9388 35.6214 24.9685 35.7559C25.0132 36.0025 24.8867 36.3163 24.4477 37.1009C24.3584 37.2653 24.15 37.6315 23.9937 37.9229C23.6961 38.4684 23.4654 38.8719 23.3017 39.1185C23.257 39.2007 23.1826 39.3352 23.1454 39.4174C23.1082 39.4996 22.9892 39.6939 22.885 39.8508C22.7808 40.0077 22.6915 40.1572 22.6915 40.1945C22.6915 40.3216 22.1557 40.7998 21.9251 40.867C21.7986 40.9044 21.3521 41.0613 20.9428 41.2108C20.5335 41.3602 20.1019 41.5097 19.9754 41.547C19.8564 41.5769 19.6331 41.6517 19.4917 41.704C19.3504 41.7488 19.1122 41.831 18.9709 41.8833C18.8295 41.9356 18.6137 42.0103 18.4872 42.0402C18.2788 42.1075 18.2639 42.1374 18.2416 42.496C18.2267 42.7053 18.2714 43.1013 18.3383 43.3703C18.3979 43.6468 18.45 43.9532 18.45 44.0578C18.45 44.1624 18.5021 44.3492 18.569 44.4763C18.6658 44.6631 18.7179 44.693 18.8816 44.6631C19.1271 44.6257 19.7075 44.4837 20.1763 44.3492C20.407 44.2894 20.5484 44.2745 20.5782 44.3268C20.66 44.4538 20.0945 44.8798 19.6555 45.0143C19.4248 45.0815 19.075 45.1936 18.8816 45.2534C18.6955 45.3206 18.4276 45.358 18.2937 45.3431C18.063 45.3206 18.0407 45.2908 17.9216 44.8723C17.7803 44.3941 17.6389 43.8486 17.4454 43.0042C17.3114 42.4437 17.1626 42.0178 16.9766 41.6591C16.8278 41.3752 16.7608 40.2842 16.8799 40.06C16.9691 39.9031 16.984 39.9106 17.5049 40.3589C18.1374 40.8969 18.2416 40.9418 18.5914 40.867C19.2685 40.7176 20.9577 40.1347 21.2256 39.9554C21.3818 39.8508 22.6915 38.1769 22.6915 38.0798C22.6915 38.0574 22.8255 37.8482 22.9817 37.6016C23.1454 37.355 23.3984 36.9216 23.5473 36.6301L23.8226 36.1071L23.6812 35.7185C23.5473 35.3225 23.4431 35.2477 22.8403 35.046C22.7362 35.0086 22.4683 34.9115 22.245 34.8218C21.7241 34.62 20.6154 34.224 20.4219 34.1792C20.1094 34.097 20.0796 34.0746 20.1243 33.9998C20.1912 33.8877 20.6452 33.9102 21.1065 34.0372ZM15.5479 36.2565C15.5479 36.7646 15.3097 37.8855 15.1981 37.8855C15.146 37.8855 15.1014 37.8631 15.1014 37.8257C15.1014 37.7959 14.9154 37.5567 14.6921 37.2877C14.4689 37.0262 14.2828 36.7721 14.2828 36.7273C14.2828 36.5031 15.0642 35.9501 15.3842 35.9427C15.5255 35.9427 15.5479 35.98 15.5479 36.2565ZM22.1929 37.751C22.0813 37.9304 21.7539 38.3862 21.4711 38.7673C21.0767 39.2978 20.8833 39.4996 20.6377 39.6042C20.4591 39.6864 20.288 39.7536 20.2433 39.7536C20.1987 39.7536 20.0573 39.7985 19.9233 39.8583C19.5438 40.0227 19.0527 40.1572 19.0006 40.1123C18.9709 40.075 19.209 39.8508 20.1243 39.0886C20.4219 38.842 21.3818 38.0649 21.8655 37.6838C22.1334 37.4671 22.3641 37.3176 22.379 37.355C22.3939 37.3998 22.312 37.5717 22.1929 37.751ZM33.5112 40.9044C33.6525 41.562 33.6451 41.9207 33.4888 42.5558C33.2284 43.5721 33.0051 44.6033 32.6256 46.5162C32.261 48.347 32.1271 49.0569 32.0675 49.5052C32.0378 49.707 31.9782 50.0806 31.9336 50.3272C31.822 50.9325 31.6508 52.0758 31.5169 53.1742C31.3904 54.2353 31.435 54.5043 31.9634 55.9839C32.1568 56.5069 32.3057 56.903 32.4024 57.1272C32.4545 57.2467 32.5438 57.4858 32.6108 57.6502C32.767 58.0687 33.1763 59.0924 33.3177 59.4063C33.3772 59.5482 33.4665 59.765 33.5186 59.892C33.5707 60.0115 33.7642 60.4823 33.9576 60.9381C34.3223 61.8124 34.5604 62.6867 34.4562 62.7913C34.4041 62.8436 34.233 62.6493 34.032 62.2832C32.1792 58.9056 30.7132 55.9764 29.6938 53.5852C29.2696 52.6063 29.2771 52.1281 29.7012 50.7382C29.7459 50.5962 29.8128 50.3571 29.8426 50.2151C29.8724 50.0731 29.9319 49.849 29.9691 49.7294C30.0137 49.6024 30.103 49.3035 30.1775 49.0569C30.2444 48.8103 30.3412 48.489 30.3932 48.347C30.4453 48.205 30.5495 47.8837 30.6165 47.6371C30.6909 47.3905 30.7802 47.1066 30.8248 47.002C30.862 46.8973 30.9216 46.7105 30.9588 46.591C30.9886 46.4639 31.1374 46.0305 31.2862 45.6195C31.435 45.2086 31.5839 44.7677 31.6211 44.6481C31.6508 44.5211 31.755 44.2371 31.8443 44.013C31.9336 43.7888 32.0303 43.5198 32.0675 43.4152C32.1047 43.3105 32.2015 43.0415 32.2908 42.8174C32.3801 42.5932 32.4768 42.3018 32.5066 42.1822C32.5363 42.0552 32.6033 41.8908 32.6405 41.8086C32.7373 41.6367 33.1019 40.6877 33.2135 40.329C33.2879 40.0899 33.3772 40.2543 33.5112 40.9044Z" fill="#C0C2C4"/>
<path d="M46.6525 9.40785C46.6153 9.49004 46.5781 10.058 46.5781 10.7081C46.5781 12.2175 46.459 12.1204 48.3268 12.2773C49.6141 12.3894 50.5889 12.4417 50.9014 12.4118C51.1247 12.3968 51.1917 12.0531 51.1917 10.9547C51.1917 9.98323 51.1768 9.86367 51.0354 9.68433C50.9163 9.52741 50.8196 9.49004 50.574 9.49004C50.4029 9.49004 49.8448 9.43774 49.3313 9.37796C48.8179 9.31818 48.0291 9.26587 47.5677 9.26587C46.8162 9.26587 46.7269 9.28081 46.6525 9.40785ZM11.3956 9.93839C11.0161 9.97576 10.6143 10.0206 10.5101 10.0505C10.4059 10.0729 9.97431 10.1252 9.55016 10.1626C8.45629 10.2597 8.47861 10.2448 8.47861 11.0966C8.47861 11.5001 8.50838 11.8215 8.55302 11.8439C8.62744 11.8887 9.07391 11.8439 10.8598 11.6197C11.3286 11.5599 11.8718 11.5076 12.0579 11.5076C12.296 11.5076 12.4671 11.4553 12.6011 11.3507C12.7797 11.2087 12.7946 11.1564 12.7946 10.6483C12.7946 9.81883 12.802 9.82631 11.3956 9.93839Z" fill="#C0C2C4"/>
</g>
<defs>
<clipPath id="clip0_2207_8">
<rect width="67" height="74" fill="white"/>
</clipPath>
</defs>
</svg>
