<svg width="70" height="70" viewBox="0 0 70 70" fill="none" xmlns="http://www.w3.org/2000/svg">
<path d="M35.0039 70.002L44.7968 14.6886C54.1312 14.6886 57.0754 15.7166 57.5005 19.9126C57.5005 19.9126 63.7623 17.5677 66.9205 12.8054C54.5963 7.06998 42.2133 6.81132 42.2133 6.81132L34.9876 15.6501L35.0039 15.649L27.7782 6.80994C27.7782 6.80994 15.3949 7.06887 3.07239 12.8043C6.22783 17.5666 12.4921 19.9114 12.4921 19.9114C12.9197 15.7152 15.8603 14.6873 25.1321 14.6806L35.0039 70.002Z" fill="#C0C2C4"/>
<path d="M35 4.25831C44.9624 4.18179 56.3654 5.80611 68.0387 10.9158C69.5989 8.0955 70 6.84906 70 6.84906C57.2394 1.77873 45.2892 0.0435257 34.9986 0C24.7086 0.0435257 12.759 1.77901 0 6.84906C0 6.84906 0.5692 8.38438 1.9599 10.9158C13.631 5.80611 25.036 4.18179 34.9986 4.25831H35Z" fill="#C0C2C4"/>
</svg>
