<svg width="72" height="72" viewBox="0 0 72 72" fill="none" xmlns="http://www.w3.org/2000/svg">
<g clip-path="url(#clip0_2056_1535)">
<mask id="mask0_2056_1535" style="mask-type:luminance" maskUnits="userSpaceOnUse" x="0" y="0" width="72" height="72">
<path d="M72 0H0V72H72V0Z" fill="white"/>
</mask>
<g mask="url(#mask0_2056_1535)">
<path d="M35.9995 72.0006C43.1197 72.0006 50.0799 69.8894 56.0002 65.9337C61.9204 61.9781 66.5347 56.3557 69.2595 49.7776C71.9843 43.1995 72.6974 35.9611 71.3084 28.9778C69.9194 21.9944 66.4908 15.5798 61.4562 10.5451C56.4216 5.5103 50.007 2.08154 43.0237 0.692387C36.0404 -0.696772 28.802 0.0160542 22.2238 2.74072C15.6457 5.46539 10.0232 10.0795 6.06737 15.9996C2.11156 21.9198 0.000110826 28.88 1.84651e-05 36.0001C-0.00477333 40.729 0.923105 45.4125 2.73054 49.7823C4.53798 54.1522 7.18949 58.1227 10.5333 61.4666C13.8771 64.8105 17.8476 67.4621 22.2174 69.2697C26.5872 71.0772 31.2706 72.0052 35.9995 72.0006ZM25.5907 52.2404C25.389 52.2404 25.2895 52.0387 25.19 51.8397L8.59882 18.4056C11.5562 13.8414 15.576 10.0623 20.3138 7.39198L32.2301 33.9412C32.2842 34.1328 32.405 34.2987 32.5707 34.4092C32.7363 34.5196 32.936 34.5673 33.1337 34.5436H38.8668C39.0646 34.5667 39.2642 34.5188 39.43 34.4085C39.5958 34.2981 39.717 34.1325 39.7721 33.9412L51.6858 7.39198C56.4234 10.0624 60.443 13.8415 63.4003 18.4056L46.8088 51.8397C46.7094 52.0387 46.6099 52.2404 46.4072 52.2404C46.2045 52.2404 46.1069 52.0387 46.0047 51.8397L39.7704 37.5598C39.7154 37.3685 39.5941 37.2029 39.4283 37.0925C39.2626 36.9822 39.063 36.9343 38.8652 36.9574H33.1325C32.9348 36.9337 32.7352 36.9814 32.5695 37.0918C32.4038 37.2023 32.2831 37.3682 32.2289 37.5598L25.9947 51.8397C25.8924 52.0387 25.7929 52.2404 25.5914 52.2404M36 28.6089C35.7983 28.6089 35.6988 28.41 35.5968 28.2082L25.3409 5.18151C32.2304 2.70144 39.7691 2.70144 46.6587 5.18151L36.4035 28.208C36.3012 28.4097 36.2018 28.6087 36.0003 28.6087M36.0003 68.6822C18.1008 68.6822 3.42021 53.8993 3.42021 36.0001C3.4045 32.1024 4.10354 28.2349 5.48264 24.5894L24.537 62.95C24.787 63.4555 25.0882 63.8561 25.6932 63.8561C26.2982 63.8561 26.6272 63.4475 26.8495 62.95L35.5961 43.2918C35.6983 43.0901 35.7978 42.8893 35.9993 42.8893C36.2008 42.8893 36.3005 43.0901 36.4026 43.2918L45.1492 62.95C45.371 63.445 45.703 63.8561 46.3054 63.8561C46.9078 63.8561 47.2107 63.4555 47.4607 62.95L66.519 24.5894C67.8961 28.2354 68.5942 32.1027 68.5789 36.0001C68.5789 53.8996 53.8974 68.6822 35.9988 68.6822" fill="#A6A6A8"/>
</g>
</g>
<defs>
<clipPath id="clip0_2056_1535">
<rect width="72" height="72" fill="white"/>
</clipPath>
</defs>
</svg>
