<svg width="74" height="61" viewBox="0 0 74 61" fill="none" xmlns="http://www.w3.org/2000/svg">
<path d="M54.2052 4.97296C52.5476 12.5982 51.8845 16.0792 50.3926 21.5495C48.9007 27.0198 48.0719 31.6612 46.2485 34.1477C44.9223 35.9711 42.7674 37.1314 40.4467 37.2972C38.2917 37.463 35.971 37.463 33.8161 37.2972C31.4954 37.1314 29.3404 35.9711 28.0143 34.1477C26.1909 31.8269 25.1963 26.854 23.8702 21.5495C22.544 16.245 21.7152 12.5982 20.0575 4.97296L17.5711 5.13873C16.5765 5.13873 15.7476 5.30449 14.9188 5.47026C14.9188 5.47026 15.9134 21.0522 16.4107 27.6828C16.908 34.645 17.7368 46.2485 18.3999 55.1999C18.3999 55.1999 19.8918 55.3656 22.2125 55.5314C24.5332 55.6971 25.8593 55.6971 25.8593 55.6971C26.8539 51.7188 28.1801 46.4143 29.5062 44.0936C30.335 42.7675 31.8269 41.9386 33.4845 41.9386C34.6449 41.7729 35.8053 41.7729 37.1314 41.7729C38.2917 41.7729 39.4521 41.7729 40.7782 41.9386C42.4359 41.9386 43.9278 42.7675 44.7566 44.0936C46.2485 46.4143 47.4088 51.7188 48.4034 55.6971C48.4034 55.6971 49.5638 55.6971 52.0503 55.5314C54.5367 55.3656 55.8629 55.1999 55.8629 55.1999C56.6917 46.4143 57.5205 34.645 57.852 27.6828C58.3493 21.0522 59.3439 5.47026 59.3439 5.47026C58.5151 5.30449 57.6863 5.30449 56.6917 5.13873L54.2052 4.97296Z" fill="#C0C2C4"/>
<path d="M73.7656 14.2558C72.771 4.3099 66.1404 2.32072 60.3386 1.32612C56.526 0.828827 52.7134 0.497296 48.9008 0.331531C45.917 0.165766 39.1206 0 37.1314 0C35.1422 0 28.1801 0.165766 25.3621 0.331531C21.3837 0.331531 17.5711 0.663062 13.7585 1.32612C7.95674 2.32072 1.32612 4.47566 0.331531 14.2558C0 17.5711 0 20.8864 0 24.2017C0 28.6774 0.331531 33.1531 0.994592 37.6287C1.32612 41.4413 2.15495 45.0882 3.14954 48.9008C4.64143 53.2107 5.96755 54.5368 7.45944 55.6971C10.1117 57.5206 12.9297 58.5152 16.0792 59.0125C30.0035 60.5043 43.9278 60.5043 57.8521 59.0125C61.0016 58.5152 63.8197 57.5206 66.4719 55.6971C68.1295 54.371 69.4557 53.2107 70.7818 48.9008C71.7764 45.2539 72.6052 41.4413 72.9367 37.6287C73.434 33.1531 73.7656 28.6774 73.9313 24.2017C74.0971 20.8864 73.9313 17.5711 73.7656 14.2558ZM70.1187 30.8323C69.953 36.3026 69.1241 41.6071 67.798 46.9116C67.3007 49.3981 65.9746 51.553 64.1512 53.3764C61.6647 55.3656 58.6809 56.526 55.6971 56.6917C43.2647 58.0179 30.8324 58.0179 18.4 56.6917C15.2504 56.526 12.4324 55.3656 9.94592 53.3764C8.1225 51.553 6.96214 49.3981 6.29908 46.9116C4.97296 41.6071 4.3099 36.3026 3.97837 30.8323C3.64684 25.3621 3.64684 19.7261 4.14413 14.2558C5.13873 7.95674 8.1225 4.97296 14.7531 3.8126C18.4 3.14954 22.2126 2.81801 25.8594 2.65225C29.0089 2.48648 34.1477 2.32071 37.1314 2.32071C40.1152 2.32071 45.2539 2.32072 48.4035 2.65225C52.0503 2.81801 55.8629 3.14954 59.5098 3.8126C66.1404 4.97296 69.1241 8.1225 69.953 14.2558C70.2845 19.7261 70.4503 25.3621 70.1187 30.8323Z" fill="#C0C2C4"/>
</svg>
