<svg width="86" height="56" viewBox="0 0 86 56" fill="none" xmlns="http://www.w3.org/2000/svg">
<path d="M61.7268 2.7089C56.4484 1.01583 49.8556 0 42.7248 0C35.594 0 29.0009 0.995913 23.7228 2.7089C9.66038 7.23034 0 16.6118 0 27.4673C0 42.7248 19.1216 55.1139 42.7248 55.1139C66.328 55.1139 85.4496 42.7446 85.4496 27.4673C85.4496 16.6118 75.789 7.23034 61.7268 2.7089ZM42.7248 43.2227C39.1992 43.2227 36.3309 36.2911 36.1517 27.6067C38.263 27.806 40.4741 27.9056 42.7248 27.9056C44.9755 27.9056 47.1666 27.806 49.2977 27.6067C49.1185 36.3111 46.2502 43.2227 42.7248 43.2227ZM36.6098 20.7946C37.5658 14.6798 39.956 10.3575 42.7248 10.3575C45.4934 10.3575 47.8836 14.6798 48.8396 20.7946C46.8876 20.974 44.8361 21.0736 42.7248 21.0736C40.6133 21.0736 38.5618 20.974 36.6098 20.7946ZM52.5843 20.3365C51.1503 10.7559 47.2861 3.88407 42.7248 3.88407C38.1634 3.88407 34.2793 10.7559 32.8651 20.3365C24.1808 18.9821 18.1257 15.8948 18.1257 12.3095C18.1257 7.46936 29.1405 3.54545 42.7446 3.54545C56.3489 3.54545 67.3437 7.46936 67.3437 12.3095C67.3437 15.8948 61.2687 18.9821 52.6041 20.3365M6.23443 26.4515C6.23443 21.7706 8.02704 17.3887 11.1742 13.6042C11.1343 13.8631 11.1144 14.1221 11.1144 14.401C11.1144 20.2967 19.958 25.2962 32.2876 27.1286C32.2876 27.5669 32.2876 28.025 32.2876 28.4633C32.2876 39.4184 35.3151 48.6802 39.5179 51.8673C20.8744 50.7318 6.23443 39.7769 6.23443 26.4315M45.9515 51.8673C50.1543 48.6802 53.1818 39.3984 53.1818 28.4633C53.1818 28.0052 53.1818 27.5669 53.1818 27.1286C65.5112 25.2962 74.3549 20.2767 74.3549 14.401C74.3549 14.142 74.3351 13.8631 74.2953 13.6042C77.4422 17.3688 79.235 21.7706 79.235 26.4515C79.235 39.7967 64.615 50.7518 45.9515 51.8871" fill="#C0C2C4"/>
</svg>
