<svg width="74" height="74" viewBox="0 0 74 74" fill="none" xmlns="http://www.w3.org/2000/svg">
<path d="M36.9089 0C16.5252 0 0 16.5252 0 36.9089C0 57.2925 16.5252 73.8177 36.9089 73.8177C57.2925 73.8177 73.8177 57.2925 73.8177 36.9089C73.8177 16.5252 57.2925 0 36.9089 0ZM71.4176 36.9089C71.4176 55.9666 55.9687 71.4176 36.9089 71.4176C17.849 71.4176 2.40012 55.9666 2.40012 36.9089C2.40012 17.8511 17.8511 2.40012 36.9089 2.40012C55.9666 2.40012 71.4176 17.8511 71.4176 36.9089Z" fill="#C0C2C4"/>
<path d="M54.7968 21.2495C55.2981 21.7877 56.0208 22.6557 56.4266 23.183L63.9004 18.4392C63.5271 17.9509 62.9325 17.2088 62.4876 16.6858L57.7547 19.815L57.4313 20.0928L57.6722 19.7413L59.762 15.5704L58.2842 14.0925L54.1111 16.1823L53.7595 16.4232L54.0395 16.0999L57.1709 11.3691C56.6197 10.9003 56.0902 10.4707 55.4153 9.94983L50.6715 17.4171C51.2726 17.8793 52.0647 18.5586 52.5703 19.0208L57.0364 16.7031L57.3228 16.4926L57.1123 16.7791L54.7968 21.2495Z" fill="#C0C2C4"/>
<path d="M37.8376 11.7857L39.8797 7.21117L40.0099 6.80537L39.973 7.22854L40.1878 13.3417C40.904 13.4089 41.644 13.5088 42.3731 13.6303L42.0411 4.57669C41.0211 4.46384 40.0055 4.38355 38.9899 4.34015L36.9783 9.33352L36.9067 9.70461L36.8351 9.33352L34.8255 4.34015C33.8099 4.38355 32.7943 4.46384 31.7744 4.57669L31.4424 13.6303C32.1715 13.5088 32.9115 13.4111 33.6277 13.3417L33.8425 7.22854L33.8056 6.80537L33.9358 7.21117L35.9779 11.7857H37.8376Z" fill="#C0C2C4"/>
<path d="M21.3211 19.0012C22.5016 17.7578 23.17 16.3212 21.9895 14.9497C21.3471 14.2053 20.2686 14.0426 19.3745 14.4093L19.2856 14.4441L19.3138 14.3659C19.4461 14.0122 19.5308 12.8838 18.5694 12.1047C18.1007 11.7249 17.5126 11.5839 16.918 11.6446C15.8091 11.7575 14.9562 12.5148 12.6342 15.1038C11.9333 15.885 10.9134 17.1176 10.3014 17.9162L16.6793 23.9664C18.7929 21.627 19.6545 20.7568 21.3211 19.0012ZM12.9988 17.5212C14.2835 15.9501 15.6485 14.5243 16.267 13.9601C16.4623 13.7822 16.6749 13.6042 16.9332 13.5348C17.352 13.4198 17.7839 13.7171 17.8815 14.1468C17.9792 14.5786 17.7079 14.9887 17.4063 15.3273C16.727 16.0933 14.2358 18.6996 14.2358 18.6996L12.9988 17.5212ZM15.4966 19.891C15.4966 19.891 17.9227 17.3259 18.7148 16.5056C19.0295 16.1801 19.2313 15.9826 19.4483 15.8763C19.7283 15.7396 20.0342 15.7114 20.3077 15.8937C20.5768 16.0738 20.7005 16.3841 20.6332 16.6923C20.5529 17.059 20.2534 17.4084 20.006 17.6753C19.6718 18.0334 16.7943 21.1127 16.79 21.1171L15.4966 19.891Z" fill="#C0C2C4"/>
<path d="M37.4089 15.5272C48.8313 15.7887 58.0293 24.9866 58.2907 36.4091H37.4089V15.5272Z" fill="#F0F0F0" stroke="#C0C2C4"/>
<path d="M36.4091 37.4089V58.2897C24.9866 58.0283 15.7887 48.8313 15.5272 37.4089H36.4091Z" fill="#F0F0F0" stroke="#C0C2C4"/>
<path d="M36.4091 36.4091H15.5272C15.7886 24.9865 24.9865 15.7886 36.4091 15.5272V36.4091Z" fill="#808183" stroke="#C0C2C4"/>
<path d="M58.2907 37.4089C58.0292 48.8312 48.8312 58.0282 37.4089 58.2897V37.4089H58.2907Z" fill="#808183" stroke="#C0C2C4"/>
</svg>
