<svg width="80" height="80" viewBox="0 0 80 80" fill="none" xmlns="http://www.w3.org/2000/svg">
<path d="M69.92 6.77332C66.7734 5.54665 63.5734 4.47999 60.32 3.67999C55.84 2.61332 51.2534 1.86665 46.6667 1.49332C44.4267 1.27999 42.3467 1.22665 40.1067 1.22665H39.8934C37.6534 1.22665 35.5734 1.33332 33.3334 1.49332C28.7467 1.86665 24.16 2.61332 19.68 3.67999C16.4267 4.53332 13.2267 5.54665 10.08 6.82665L9.8667 6.87999C9.8667 6.87999 10.24 30.1867 10.56 41.76C10.6134 45.1733 11.2534 48.5333 12.3734 51.7333C13.7067 55.36 15.4667 58.88 17.6 62.08C19.84 65.3867 22.56 68.3733 25.7067 70.9333C26.9334 71.9467 28.2134 72.9067 29.6 73.76C31.68 75.04 33.92 76.16 36.16 77.0667C36.9067 77.3867 37.5467 77.7067 38.1334 77.8667C38.7734 78.08 39.36 78.2933 40.0534 78.4533C40.6934 78.2933 41.3334 78.08 41.9734 77.8667C42.56 77.6533 43.2 77.3867 44 77.0667C46.24 76.1067 48.48 75.04 50.56 73.76C51.8934 72.9067 53.1734 71.9467 54.4 70.9333C57.4934 68.3733 60.2667 65.3867 62.5067 62.08C64.64 58.88 66.4 55.36 67.7334 51.7333C68.8534 48.5333 69.4934 45.1733 69.5467 41.76C69.8667 30.1867 70.24 6.87999 70.24 6.87999L69.92 6.77332Z" fill="url(#paint0_linear_2053_1491)"/>
<path d="M39.2533 66.1333H22.1867C23.4667 67.52 24.8 68.8 26.24 70.0267C27.4133 71.04 28.64 71.9467 29.92 72.7467C31.9467 73.9733 34.08 75.04 36.2133 75.9467C36.96 76.2667 37.5467 76.5333 38.1333 76.7467L39.2533 77.12V66.1333ZM39.2533 53.3867C36.6933 53.1733 34.24 52.1067 32.2667 50.4533L31.9467 50.1333H13.0667C13.1733 50.56 13.3333 50.9333 13.4933 51.36C14.1867 53.3867 15.0933 55.36 16.0533 57.2267H39.3067V53.3867H39.2533ZM68.48 33.8133H51.84V41.12H68.3733C68.3733 38.9867 68.4267 36.48 68.48 33.8133ZM68.8 18.5067H40.2667V25.5467H68.64C68.6933 23.0933 68.7467 20.6933 68.8 18.5067Z" fill="#B12B28"/>
<path fill-rule="evenodd" clip-rule="evenodd" d="M62.3466 62.0267C60.1066 65.3334 57.3866 68.32 54.24 70.88C53.0133 71.8934 51.7333 72.8534 50.4 73.7067C48.32 74.9867 46.08 76.1067 43.84 77.0134C43.0933 77.3334 42.4533 77.6534 41.8666 77.8134C41.2266 78.0267 40.64 78.24 39.9466 78.4C39.3066 78.24 38.6666 78.0267 38.0266 77.8134C37.44 77.6 36.8 77.3334 36 77.0134C33.76 76.0534 31.52 74.9867 29.44 73.7067C28.1066 72.8534 26.8266 71.8934 25.6 70.88C23.04 68.7467 20.6933 66.3467 18.6666 63.68L18.7733 63.7867C20.8 66.56 23.1466 69.0667 25.8133 71.2534C27.04 72.2667 28.3733 73.2267 29.7066 74.08C31.7333 75.36 33.8666 76.4267 36 77.3867C36.7466 77.7067 37.3866 77.9734 38.0266 78.1867C38.6666 78.4534 39.2533 78.6667 39.9466 78.7734C40.5866 78.6134 41.2266 78.4 41.8666 78.1867C42.4533 77.9734 43.0933 77.6534 43.84 77.3867C46.1333 76.4267 48.32 75.36 50.4 74.08C51.7333 73.2267 53.0133 72.2667 54.24 71.2534C57.3333 68.6934 60.0533 65.7067 62.2933 62.3467C64.4266 59.0934 66.1866 55.6267 67.52 51.9467C67.8933 50.88 68.16 49.8134 68.4266 48.6934C68.0533 50.1867 67.52 51.5734 67.52 51.5734C66.2933 55.3067 64.5333 58.8267 62.3466 62.0267Z" fill="#613E18"/>
<path fill-rule="evenodd" clip-rule="evenodd" d="M68.8 7.68C65.76 6.45333 62.6667 5.49333 59.52 4.69333C55.2 3.62667 50.7734 2.93333 46.3467 2.56C44.16 2.34667 42.1867 2.29333 40 2.29333H39.7867C37.6 2.29333 35.6267 2.4 33.44 2.56C29.0134 2.93333 24.5867 3.62667 20.2667 4.69333C17.1733 5.49333 14.08 6.50667 11.0933 7.68L10.9333 7.73333V8.16L11.04 8.10667H11.2C14.1867 6.93333 17.2267 5.92 20.3734 5.12C24.6934 4.05333 29.12 3.36 33.5467 2.98667C35.7334 2.77333 37.7067 2.72 39.8934 2.66667H40C42.1867 2.66667 44.16 2.77333 46.3467 2.93333C50.7734 3.30667 55.2 4 59.52 5.06667C62.6667 5.86667 65.76 6.88 68.7467 8.10667H68.8L69.0133 8.21333V7.78667L68.8534 7.68H68.8Z" fill="#613E18"/>
<path fill-rule="evenodd" clip-rule="evenodd" d="M33.5466 11.2533C35.5199 11.0933 37.2799 10.9867 39.2533 10.9867V10.56C37.3333 10.56 35.5199 10.6667 33.5466 10.8267C29.1199 11.2 24.6933 11.8933 20.3733 12.96C17.2799 13.76 14.1866 14.7733 11.1999 16H11.1466V16.4267C14.1333 15.2533 17.2266 14.24 20.3733 13.44C24.6933 12.32 29.1199 11.6267 33.5466 11.2533Z" fill="#613E18"/>
<path fill-rule="evenodd" clip-rule="evenodd" d="M51.7866 42.24H68.2133C68.2666 42.1333 68.2666 41.9733 68.2666 41.8666H51.7866V42.24Z" fill="#634014"/>
<path fill-rule="evenodd" clip-rule="evenodd" d="M60.5333 54.8267V54.9867C60.5333 55.0933 60.5333 55.1467 60.4267 55.1467C59.7333 55.3067 59.1467 55.6267 58.6133 56.1067C58.56 56.16 58.56 56.16 58.5067 56.2133V56.16C58.5067 56.16 58.56 56 58.6667 55.8933C59.2 55.4133 59.7867 55.0933 60.48 54.9867C60.5867 54.9333 60.5867 54.9333 60.5333 54.8267ZM57.2267 52.9067C56.6933 53.12 56.16 53.4933 55.7867 53.92C55.52 54.1867 55.3067 54.56 55.1467 54.9333C55.1467 54.9333 55.1467 55.04 55.1467 55.0933C55.3067 54.7733 55.52 54.4533 55.7333 54.1867C56.1067 53.76 56.5867 53.44 57.12 53.2267C57.1733 53.2267 57.1733 53.1733 57.2267 53.12V52.8533C57.28 52.9067 57.2267 52.9067 57.2267 52.9067ZM53.76 52.1067C53.0133 52.5333 52.4267 53.2267 52 53.9733C51.7867 54.4 51.68 54.8267 51.68 55.3067C51.68 55.36 51.68 55.4133 51.68 55.4133C51.68 54.9867 51.7867 54.6133 51.9467 54.1867C52.32 53.44 52.96 52.8 53.7067 52.4267C53.76 52.2667 53.8133 52.1067 53.8133 51.8933C53.8133 51.9467 53.76 52.0533 53.7067 52.0533L53.76 52.1067ZM49.1733 53.0667C48.9067 53.28 48.64 53.6 48.48 53.92C48.0533 54.6133 47.8933 55.4133 48 56.2133C48 55.52 48.2133 54.8267 48.5333 54.24C48.6933 53.92 48.9067 53.6533 49.1733 53.44C49.2267 53.28 49.28 53.1733 49.28 53.0133C49.2267 53.0667 49.2267 53.0667 49.1733 53.0667ZM41.8667 59.1467V59.0933C41.5467 58.88 41.3867 58.5067 41.3333 58.1333C41.28 58.56 41.44 58.9867 41.76 59.2533L41.8667 59.1467ZM57.12 44.4267C56.64 44.64 56.2133 44.96 55.9467 45.3867C55.6267 45.7067 55.4133 46.1333 55.2533 46.6133C55.2533 46.6667 55.2533 46.72 55.2533 46.7733C55.4133 46.4 55.6267 46.0267 55.9467 45.7067C56.2667 45.28 56.64 44.96 57.12 44.8C57.2267 44.7467 57.2267 44.64 57.2267 44.3733C57.2267 44.3733 57.1733 44.3733 57.12 44.4267ZM61.7067 45.1733C61.12 45.28 60.5867 45.4933 60.1067 45.8667C59.68 46.1333 59.36 46.56 59.1467 46.9867C59.1467 46.9867 59.04 47.0933 59.2 47.1467C59.7867 46.2933 60.6933 45.7067 61.7067 45.4933C61.76 45.4933 61.8133 45.44 61.8133 45.3867V45.12C61.76 45.12 61.76 45.1733 61.7067 45.1733ZM65.0667 47.4133C65.0667 47.4667 65.0667 47.52 65.0133 47.4667C64.2133 47.52 63.4667 47.84 62.88 48.4267C62.7733 48.48 62.8267 48.5333 62.8267 48.5333C62.88 48.5867 62.88 48.5867 62.9333 48.64C63.04 48.5867 63.0933 48.48 63.2 48.4267C63.7333 48 64.3733 47.7867 65.0133 47.7333C65.0667 47.7333 65.12 47.5733 65.0667 47.4133ZM44.9067 53.2267C44.9067 53.6533 44.64 53.92 44.32 54.0267C43.8933 54.1867 43.4133 54.1333 43.1467 53.8133C42.9333 54.08 42.56 54.24 42.1867 54.1867C41.8667 54.1333 41.6 53.92 41.44 53.6533C41.3867 53.4933 41.3333 53.3867 41.3333 53.3333C41.0133 53.3867 40.64 53.3867 40.32 53.3867V53.7067C40.64 53.7067 41.0133 53.7067 41.3333 53.6533C41.3333 53.76 41.3867 53.8667 41.44 53.9733C41.6 54.24 41.8667 54.4 42.1333 54.4533C42.5067 54.5067 42.88 54.4 43.1467 54.1333C43.4667 54.4533 43.9467 54.5067 44.3733 54.3467C44.6933 54.24 44.9067 53.9733 44.96 53.6533C44.9067 53.4933 44.9067 53.3333 44.9067 53.2267ZM45.76 61.92C45.3333 62.1867 44.7467 62.1867 44.32 61.92C44.1067 61.8133 43.9467 61.6533 43.84 61.44C43.84 61.3867 43.7867 61.3867 43.7333 61.3867C43.4133 61.6533 42.9867 61.8133 42.6133 61.76C42.1867 61.7067 41.76 61.4933 41.4933 61.12C41.28 60.8533 41.2267 60.5333 41.2267 60.16C41.1733 60.5867 41.3333 61.0133 41.5467 61.3333C41.76 61.7067 42.1333 61.92 42.56 61.9733C42.9867 62.0267 43.36 61.92 43.68 61.6533C43.68 61.6533 43.7333 61.6533 43.7867 61.7067C43.8933 61.92 44.0533 62.08 44.2667 62.1867C44.6933 62.4533 45.2267 62.4533 45.7067 62.1867C46.1333 61.8667 46.4533 61.3867 46.4533 60.8533C46.4533 61.3333 46.1867 61.7067 45.76 61.92ZM56.2667 64.0533C55.9467 64.16 55.6267 64.32 55.3067 64.5333C54.88 64.8533 54.56 65.28 54.3467 65.8133V65.8667H54.4C54.6133 65.44 54.9333 65.0667 55.3067 64.7467C55.6267 64.5333 55.9467 64.4267 56.2667 64.2667C56.32 64.16 56.32 64.1067 56.32 64C56.32 64 56.32 64.0533 56.2667 64.0533ZM53.8667 62.6667C53.92 62.6667 53.92 62.72 53.8667 62.6667C52.9067 62.9333 52.0533 63.6267 51.6267 64.5333V64.64H51.7333C52.2133 63.84 52.96 63.2533 53.8667 62.9867C53.92 62.9333 53.92 62.7733 53.8667 62.6667ZM49.7067 62.3467C49.28 62.72 48.96 63.2 48.6933 63.68C48.48 64.0533 48.4267 64.5333 48.48 64.96C48.48 64.96 48.48 65.0133 48.5333 65.0133C48.5333 64.64 48.5867 64.2667 48.7467 63.9467C49.0133 63.4667 49.3333 63.04 49.7067 62.6667C49.76 62.56 49.76 62.4 49.76 62.2933C49.76 62.2933 49.76 62.2933 49.7067 62.3467ZM46.08 63.7867C45.6533 64.2667 45.44 64.9067 45.6 65.5467C45.5467 65.0133 45.76 64.4267 46.1333 64.0533C46.1333 63.9467 46.1333 63.84 46.1333 63.7333C46.08 63.7333 46.08 63.7867 46.08 63.7867ZM44.2133 67.36L44.32 67.3067C44.3733 67.3067 44.32 67.2533 44.2667 67.2C44.1067 66.9333 44 66.6667 43.9467 66.3467C43.8933 66.08 43.84 65.8667 43.84 65.6C43.84 65.92 43.8933 66.24 43.9467 66.56C44 66.88 44.1067 67.1467 44.2133 67.36ZM46.0267 70.88C45.76 71.1467 45.3333 71.2 44.96 71.0933C44.64 70.9867 44.32 70.7733 44.1067 70.4533H44C43.7867 70.9333 43.36 71.3067 42.88 71.4667C42.56 71.52 42.1867 71.4133 41.92 71.2C41.7067 70.9867 41.5467 70.72 41.5467 70.4C41.5467 71.2 41.6533 71.3067 41.92 71.4667C42.1867 71.68 42.56 71.7867 42.88 71.7333C43.36 71.5733 43.7867 71.2 44 70.72C44 70.72 44.0533 70.6667 44.1067 70.72C44.32 71.04 44.5867 71.2533 44.96 71.36C45.3333 71.4667 45.7067 71.4133 46.0267 71.1467C46.2933 70.8267 46.4533 70.4533 46.4533 70.0267C46.4533 70.4 46.2933 70.6667 46.0267 70.88ZM42.1333 69.3333L42.2933 69.2267V69.1733C41.8133 69.0133 41.4933 68.5867 41.4933 68.16C41.4933 68.5867 41.76 69.0667 42.1333 69.3333ZM12.8 22.08C12.8533 22.0267 12.8533 21.9733 12.8 21.92C12.6933 21.76 12.64 21.6 12.64 21.3867C12.64 21.6 12.6933 21.8667 12.8 22.08ZM13.7067 38.0267C13.76 38.0267 13.76 37.92 13.76 37.8667C13.6533 37.7067 13.5467 37.5467 13.44 37.3867C13.3333 37.28 13.3333 37.1733 13.3333 37.0133C13.3333 37.2267 13.3867 37.44 13.44 37.7067C13.4933 37.8133 13.5467 37.9733 13.7067 38.0267ZM17.92 39.36C17.92 39.7333 17.7067 40.0533 17.3867 40.16C17.0667 40.3733 16.64 40.48 16.2667 40.3733C16 40.2667 15.7333 40.1067 15.5733 39.8933C15.52 39.7867 15.4133 39.8933 15.3067 39.9467C15.0933 40.1067 14.8267 40.2133 14.56 40.32C14.08 40.5333 13.4933 40.4267 13.1733 40C13.0133 39.7867 12.9067 39.52 12.9067 39.2533C12.9067 39.5733 13.0133 39.9467 13.1733 40.2133C13.4933 40.6933 14.1333 40.8533 14.6667 40.64C14.9333 40.5333 15.2 40.4267 15.4133 40.2667C15.52 40.2133 15.5733 40.1067 15.6267 40.16C15.84 40.3733 16.1067 40.5333 16.3733 40.64C16.7467 40.7467 17.1733 40.6933 17.4933 40.4267C17.92 40.2133 18.1333 39.7867 18.0267 39.36H17.92ZM16.8 31.4133C16.8 31.7867 16.5867 32.16 16.2133 32.3733C15.68 32.7467 14.9333 32.5333 14.56 32C14.56 31.9467 14.4 31.8933 14.3467 32C13.9733 32.2133 13.6 32.3733 13.1733 32.3733C12.7467 32.3733 12.3733 32.1067 12.2133 31.68C12.16 31.5733 12.1067 31.4667 12.1067 31.3067C12.1067 31.52 12.1067 31.68 12.2133 31.8933C12.3733 32.32 12.7467 32.5867 13.1733 32.64C13.6 32.64 14.0267 32.5333 14.4 32.2667C14.4533 32.2133 14.56 32.2133 14.6133 32.2667C14.9333 32.8533 15.68 33.12 16.32 32.8C16.64 32.5333 16.8533 32.2667 16.8 31.4133ZM13.0667 29.92L13.12 29.8667C13.1733 29.8667 13.12 29.76 13.12 29.7067C12.9067 29.4933 12.8 29.2267 12.8 28.96C12.8 29.28 12.8533 29.5467 13.0133 29.8133L13.0667 29.92ZM19.04 31.9467C18.6133 32.3733 18.3467 32.96 18.1867 33.5467C18.1333 33.9733 18.1333 34.4 18.1867 34.8267C18.1333 34.5067 18.1867 34.1867 18.24 33.8667C18.4 33.28 18.6667 32.7467 19.0933 32.32C19.0933 32.2667 19.0933 32.2133 19.0933 32.16V31.8933C19.0933 31.8933 19.0933 31.8933 19.04 31.9467ZM22.8267 30.6667C21.6533 31.36 21.0133 32.6933 21.28 34.0267C21.1733 32.8 21.8133 31.68 22.8267 31.04C22.88 31.04 22.8267 30.7733 22.8267 30.6133C22.8267 30.6667 22.8267 30.6667 22.8267 30.6667ZM24.7467 32.96C24.7467 33.0133 24.8533 33.0667 24.8533 33.0667H24.96C25.3867 31.9467 26.1333 31.04 27.0933 30.3467C27.0933 30.3467 27.0933 30.1867 27.0933 30.1333V29.92C27.0933 29.9733 27.0933 30.0267 27.04 30.0267C25.9733 30.7733 25.1733 31.7867 24.7467 32.96ZM19.3067 24.4267C18.9867 24.5867 18.72 24.8533 18.5067 25.1733C18.08 25.8133 17.92 26.6133 18.0267 27.36C18.0267 27.4133 18.0267 27.4133 18.0267 27.4667C17.9733 26.7733 18.1867 26.1333 18.56 25.5467C18.72 25.2267 18.9867 24.96 19.3067 24.8V24.4267ZM23.3067 23.36C22.88 23.5733 22.5067 23.9467 22.1867 24.32C21.8133 24.8 21.5467 25.3867 21.44 26.0267C21.44 26.1333 21.4933 26.1867 21.5467 26.24C21.7067 25.7067 21.9733 25.1733 22.2933 24.7467C22.56 24.32 22.9333 24 23.3067 23.7867C23.4133 23.7333 23.4133 23.6267 23.4133 23.5733V23.36C23.4667 23.3067 23.4133 23.36 23.3067 23.36ZM28.1067 23.2533C27.52 23.3067 26.9333 23.52 26.4 23.84C25.8133 24.16 25.44 24.7467 25.28 25.3867C25.28 25.4933 25.3333 25.5467 25.3867 25.5467C25.6 24.96 25.9733 24.5333 26.4533 24.2133C26.9333 23.8933 27.4667 23.68 28.0533 23.5733C28.16 23.5733 28.1067 23.4667 28.1067 23.36V23.0933C28.2133 23.2 28.16 23.2 28.1067 23.2533ZM30.0267 25.4933L30.1867 25.3867C30.7733 25.0133 31.4133 24.7467 32.0533 24.64C32.1067 24.64 32.16 24.64 32.16 24.4267V24.2667C32.16 24.2667 32.16 24.32 32.1067 24.32C31.2533 24.48 30.5067 24.8 29.8133 25.3333C29.7067 25.44 29.6 25.4933 29.76 25.4933H30.0267ZM20.32 15.6267C19.68 16 19.1467 16.5333 18.6667 17.12C18.2933 17.76 18.08 18.5067 18.1333 19.2C18.1333 19.2 18.1333 19.2 18.1867 19.2C18.24 18.56 18.4 17.9733 18.7733 17.44C19.2533 16.8533 19.7867 16.32 20.3733 15.8933C20.3733 15.7333 20.3733 15.5733 20.3733 15.4133C20.3733 15.4667 20.3733 15.52 20.32 15.5733V15.6267ZM25.5467 14.4C24.96 14.8267 24.4267 15.2533 23.9467 15.68C23.4667 16.2133 23.1467 16.9067 23.0933 17.6L23.1467 17.6533H23.2C23.36 17.0667 23.6267 16.5333 24 16.1067C24.48 15.6267 24.96 15.2 25.4933 14.88C25.5467 14.8267 25.5467 14.72 25.5467 14.6667V14.4ZM30.9333 14.08C30.1333 14.3467 29.44 14.7733 28.8 15.3067C28.3733 15.7867 28.0533 16.3733 27.9467 17.0133C27.9467 17.0133 28 17.0133 28.0533 17.0667C28.2133 16.5867 28.4267 16.1067 28.8 15.7333C29.44 15.1467 30.24 14.7733 31.04 14.5067C31.0933 14.4533 31.1467 14.4 31.1467 14.3467V14.0267C31.1467 14.08 31.0933 14.1333 31.04 14.1333L30.9333 14.08ZM35.52 16.2667C34.88 16.2667 34.24 16.32 33.6 16.4267C33.1733 16.5867 32.8 16.8533 32.5333 17.1733C32.48 17.2267 32.48 17.28 32.5333 17.28L32.7467 17.3333C33.0133 17.0667 33.3333 16.9067 33.6533 16.8C34.2933 16.6933 34.9333 16.64 35.5733 16.64C35.6267 16.64 35.68 16.5867 35.68 16.5333V16.2133C35.6267 16.2133 35.5733 16.2667 35.52 16.2667ZM16.8533 23.4667C16.6933 23.9467 16.5867 24 16.2133 24.2133C15.8933 24.4267 15.4667 24.5333 15.04 24.4267C14.7733 24.32 14.56 24.16 14.4 23.9467C14.3467 23.9467 14.3467 23.9467 14.2933 23.9467C14.0267 24.1067 13.76 24.2667 13.4933 24.32C12.96 24.5333 12.4267 24.32 12.1067 23.8933L12.0533 23.7867C12.0533 23.7333 12 23.7333 12 23.68V23.5733C12 23.52 12 23.4667 12 23.4133V23.52C12 23.7867 12.0533 24.0533 12.16 24.2667C12.48 24.7467 13.12 24.9067 13.6533 24.7467C13.92 24.64 14.1867 24.48 14.4 24.32C14.4533 24.32 14.4533 24.32 14.5067 24.32C14.6667 24.5333 14.9333 24.6933 15.2 24.8C15.6267 24.9067 16.0533 24.8 16.3733 24.5867C16.5867 24.48 16.7467 24.2667 16.8533 24C16.96 23.7867 16.96 23.52 16.96 23.3067V23.36L16.8533 23.4667ZM35.1467 20.5867C35.0933 20.64 35.04 20.7467 34.9333 20.7467C34.88 20.7467 34.7733 20.7467 34.7733 20.6933C33.4933 19.5733 31.84 18.9867 30.1333 18.9333C25.44 19.04 20.8 20.2667 16.64 22.4C16.5867 22.4 16.5867 22.5067 16.5867 22.56C16.64 22.6133 16.6933 22.6667 16.7467 22.7733C20.9067 20.64 25.4933 19.4667 30.1867 19.3067C31.8933 19.36 33.5467 20 34.8267 21.0667C34.88 21.12 34.9333 21.1733 35.04 21.1733C35.0933 21.1733 35.1467 21.0133 35.2 20.96C35.2533 20.6933 35.2533 20.4267 35.2533 20.1067C35.2 20.2667 35.2 20.4267 35.1467 20.5867ZM28.32 27.8933C27.84 27.7333 27.36 27.6267 26.8267 27.5733C23.2533 27.68 19.7867 28.64 16.6933 30.4C16.64 30.4 16.5333 30.5067 16.5867 30.56C16.5867 30.6133 16.64 30.72 16.6933 30.8267C16.6933 30.7733 16.7467 30.7733 16.8 30.72C19.8933 28.96 23.36 27.9467 26.9333 27.8933C27.4133 27.9467 27.8933 28.0533 28.32 28.2133H28.3733L28.32 27.8933ZM28.3733 34.9867V35.04H28.2133C26.4 34.9333 24.5333 35.1467 22.7733 35.68C20.9067 36.2667 19.0933 37.0667 17.44 38.0267C17.3333 38.08 17.3333 38.08 17.44 38.1867L17.5467 38.2933C19.2 37.3333 21.0133 36.5333 22.8267 36C24.5867 35.4667 26.4 35.2533 28.2667 35.3067H28.3733V34.9867ZM47.04 51.04C46.2933 51.5733 45.4933 52 44.64 52.3733L44.7467 52.5867C45.5467 52.2667 46.2933 51.84 46.9867 51.3067H47.04C48.2133 50.9867 53.0667 49.28 56 49.2267C57.8133 49.1733 59.6267 49.6 61.2267 50.5067C62.0267 50.9867 62.7733 51.5733 63.4133 52.32C63.4133 52.32 63.4667 52.4267 63.52 52.4267C63.5733 52.4267 63.6267 52.3733 63.6267 52.3733C63.84 51.8933 63.8933 51.36 63.8933 50.8267C63.8933 51.2533 63.7867 51.68 63.6267 52.1067C63.6267 52.16 63.5733 52.16 63.52 52.16C63.4667 52.16 63.4133 52.0533 63.4133 52.0533C62.7733 51.36 62.0267 50.72 61.1733 50.2933C59.5733 49.44 57.76 48.96 55.9467 49.0133C52.96 49.0133 48.2133 50.7733 46.9867 51.0933C46.9333 51.0933 46.9333 51.0933 46.88 51.0933L47.04 51.04ZM59.68 59.7333C59.5733 59.7867 59.4133 59.84 59.3067 59.84C58.9333 59.36 58.5067 58.9333 58.0267 58.56C57.44 58.08 56.7467 57.7067 56 57.5467C54.88 57.3333 53.7067 57.28 52.5333 57.44C50.2933 57.76 48.16 58.5067 46.24 59.6267C46.1333 59.68 46.08 59.7333 46.1333 59.7867C46.1867 59.84 46.1867 59.8933 46.24 59.8933C48.16 58.7733 50.2933 58.08 52.5333 57.76C53.7067 57.6 54.88 57.6 56 57.8133C56.7467 57.9733 57.44 58.3467 58.0267 58.8267C58.5067 59.2 58.9333 59.6267 59.36 60.1067C59.4667 60.1067 59.6267 60.1067 59.7333 60.0533C59.84 59.7867 59.8933 59.52 59.9467 59.2C59.84 59.36 59.7867 59.5733 59.68 59.7333ZM54.9333 68.16C54.88 68.2133 54.7733 68.16 54.72 68.16C54.4 67.84 54.0267 67.52 53.6533 67.3067C52.64 66.8267 51.4667 66.6133 50.3467 66.7733C48.6933 67.04 47.1467 67.7333 45.8667 68.7467C45.76 68.8 45.76 68.9067 45.76 68.96L45.8667 69.0667C47.1467 68.0533 48.6933 67.36 50.3467 67.0933C51.4667 66.9333 52.64 67.1467 53.6533 67.6267C54.0267 67.84 54.4 68.1067 54.72 68.4267C54.7733 68.48 54.88 68.48 54.9333 68.4267C55.2 68.16 55.36 67.7867 55.3067 67.4133C55.3067 67.68 55.1467 67.9467 54.9333 68.16Z" fill="#432918"/>
<path fill-rule="evenodd" clip-rule="evenodd" d="M68.8534 15.1467C68.9067 10.7733 68.96 7.73334 68.96 7.73334H68.9067C68.9067 7.73334 68.9067 8 68.8534 8.05334C68.8 8.10667 68.8534 10.88 68.7467 15.04L68.8534 15.1467Z" fill="#36250D"/>
<path d="M50.2933 47.7867L50.56 47.7333L52.2133 47.36C52.2667 47.36 52.32 47.2533 52.32 47.2533C52.5333 46.4533 52.8533 45.7067 53.28 45.0133C54.24 43.84 55.84 43.4667 57.1733 44.16C57.2267 44.2133 57.2267 44.32 57.1733 44.4267V44.48C56.6933 44.6933 56.32 45.0133 56 45.3867C55.6267 45.7067 55.4133 46.1333 55.2533 46.6133C55.2533 46.6667 55.2533 46.72 55.2533 46.7733C55.2533 46.8267 56.1067 46.7733 56.4267 46.8267C56.48 46.8267 56.48 46.8267 56.5333 46.72C56.8 45.8667 57.28 45.12 57.9733 44.5333C58.6667 44 59.6267 43.7867 60.48 44.1067C61.0133 44.2133 61.44 44.5867 61.7067 45.0667C61.7067 45.0667 61.7067 45.1733 61.6533 45.1733C61.0667 45.28 60.5333 45.5467 60.0533 45.92C59.6267 46.1867 59.3067 46.56 59.0933 46.9867C59.0933 46.9867 58.9867 47.0933 59.1467 47.1467C59.5733 47.2533 59.9467 47.36 60.32 47.52C60.3733 47.5733 60.48 47.52 60.48 47.4667C60.9067 46.7733 61.6533 46.2933 62.4533 46.1333C63.68 45.92 64.8 46.4533 65.0133 47.2533C65.0133 47.36 65.0667 47.52 65.0133 47.52C64.3733 47.5733 63.7333 47.7867 63.2 48.2133C63.0933 48.2667 62.9867 48.3733 62.88 48.48C62.7733 48.5333 62.8267 48.5867 62.8267 48.64C63.0933 48.9067 64 49.5467 64.0533 50.4533C64.1067 51.04 64 51.5733 63.7867 52.1067C63.7867 52.16 63.7333 52.16 63.68 52.16C63.6267 52.16 63.5733 52.1067 63.5733 52.0533C62.9333 51.36 62.1867 50.72 61.3333 50.24C59.7333 49.3867 57.92 48.96 56.1067 48.96C53.12 49.0133 48.32 50.72 47.1467 51.04H47.0933L50.2933 47.7867ZM57.92 53.76C57.28 54.0267 56.7467 54.5067 56.4267 55.0933C56.4267 55.0933 56.3733 55.2533 56.32 55.2C56.0533 55.2 55.52 55.0933 55.2533 55.0933C55.0933 55.0933 55.1467 54.9867 55.2 54.9333C55.3067 54.56 55.52 54.1867 55.84 53.92C56.2133 53.4933 56.7467 53.12 57.28 52.9067C57.3333 52.9067 57.3333 52.8533 57.3333 52.8533C56.96 52.4267 56.4267 52.1067 55.84 52.1067C55.0933 52.0533 54.4 52.32 53.8667 52.8533C53.2267 53.4933 52.8533 54.3467 52.8 55.2533C52.8 55.3067 52.7467 55.36 52.6933 55.36C52.3733 55.4133 52.1067 55.4667 51.7867 55.4667C51.7333 55.4667 51.7333 55.4133 51.7333 55.36C51.7333 54.88 51.84 54.4533 52.0533 54.0267C52.48 53.2267 53.0667 52.5867 53.8133 52.16C53.92 52.0533 53.92 51.8933 53.92 51.8933C53.0133 51.52 51.9467 51.6267 51.1467 52.16C50.6133 52.48 50.1333 52.9067 49.8667 53.4933C49.5467 54.2933 49.3867 55.1467 49.3333 56C49.3333 56.0533 49.28 56.1067 49.2267 56.1067C48.8533 56.16 48.48 56.2667 48.16 56.3733C48.16 56.3733 48.1067 56.3733 48.1067 56.32C48 55.52 48.16 54.6667 48.5867 53.9733C48.7467 53.6533 49.0133 53.3333 49.28 53.12C49.3333 53.0667 49.3333 53.0133 49.3333 52.96C49.3333 52.9067 49.28 52.9067 49.2267 52.9067C48.5333 52.8 47.7867 52.9067 47.1467 53.28C46.3467 53.7067 45.76 54.5067 45.6533 55.4133C45.6 56.0533 45.6 56.6933 45.8133 57.3333C45.8133 57.3333 45.8133 57.44 45.76 57.44C45.5467 57.5467 44.8533 57.92 44.64 58.0267H44.5867C44.48 57.5467 44.16 57.12 43.7333 56.8533C43.2533 56.64 42.72 56.6933 42.2933 56.9067C41.9733 57.0667 41.76 57.3333 41.6 57.6533C41.3867 58.1867 41.5467 58.8267 42.0267 59.1467C42.0267 59.1467 42.08 59.2 42.0267 59.2C41.76 59.36 41.76 59.4133 41.4933 59.7333C41.28 60.2133 41.3333 60.7467 41.6533 61.1733C41.92 61.5467 42.2933 61.76 42.72 61.8133C43.1467 61.8667 43.5733 61.7067 43.8933 61.44C43.8933 61.44 43.9467 61.44 44 61.4933C44.1067 61.7067 44.2667 61.8667 44.48 61.9733C44.96 62.24 45.4933 62.24 45.9733 61.9733C46.4533 61.7067 46.72 61.1733 46.6667 60.64C46.6667 60.32 46.56 60 46.2933 59.7867C46.24 59.7333 46.2933 59.68 46.4 59.6267C48.3733 58.5067 50.5067 57.76 52.6933 57.4933C53.8667 57.3333 54.9867 57.3333 56.16 57.5467C56.9067 57.7067 57.6 58.08 58.1867 58.56C58.6667 58.9333 59.0933 59.36 59.52 59.84C59.6267 59.84 59.7867 59.84 59.8933 59.7333C60.1067 59.2 60.16 58.6133 59.9467 58.08C59.68 57.3867 59.2533 56.6933 58.72 56.16V56.1067C58.72 56.1067 58.7733 55.9467 58.88 55.84C59.4133 55.36 60 54.9867 60.6933 54.88C60.8 54.88 60.8 54.8267 60.7467 54.72C60.0533 53.8133 58.9333 53.44 57.92 53.76ZM70.1333 6.82667C70.1333 6.82667 69.76 30.1333 69.44 41.7067C69.3867 45.12 68.7467 48.48 67.6267 51.7333C66.2933 55.36 64.5333 58.88 62.4 62.08C60.16 65.3867 57.44 68.3733 54.2933 70.9333C53.0667 71.9467 51.7867 72.9067 50.4 73.76C48.32 75.04 46.1333 76.16 43.84 77.0667C43.0933 77.3867 42.4533 77.7067 41.8133 77.8667C41.1733 78.08 40.5867 78.2933 39.8933 78.4533C39.2533 78.2933 38.6133 78.08 37.9733 77.8667C37.3867 77.6533 36.7467 77.3867 36 77.0667C33.7067 76.1067 31.52 75.04 29.44 73.76C28.1067 72.9067 26.8267 71.9467 25.6 70.9333C22.5067 68.3733 19.7333 65.3867 17.4933 62.08C15.36 58.88 13.6 55.36 12.2667 51.7333C11.1467 48.5333 10.5067 45.1733 10.4533 41.76C10.1333 30.1867 9.76001 6.88 9.76001 6.88C9.81334 6.88 9.86668 6.82667 9.97334 6.82667C13.12 5.6 16.32 4.53333 19.5733 3.73333C24.0533 2.66667 28.64 1.92 33.28 1.54667C35.52 1.33333 37.6 1.28 39.84 1.28H40.0533C42.2933 1.28 44.3733 1.38667 46.6133 1.54667C51.2 1.92 55.7867 2.66667 60.32 3.73333C63.5733 4.53333 66.7733 5.6 69.92 6.82667H70.1333ZM12.8 49.3333H31.0933C29.3867 47.52 28.4267 45.12 28.3733 42.6133V42.3467H11.7333C11.7867 44.6933 12.16 47.04 12.8 49.3333ZM39.2533 66.1333H22.1867C23.4667 67.52 24.8 68.8 26.24 70.0267C27.4133 71.04 28.64 71.9467 29.92 72.7467C31.9467 73.9733 34.08 75.04 36.2133 75.9467C36.96 76.2667 37.5467 76.5333 38.1333 76.7467C38.56 76.9067 38.88 77.0133 39.2533 77.12V66.1333ZM39.2533 58.1867H16.5333C17.12 59.2533 17.8133 60.3733 18.5067 61.44C19.36 62.7733 20.3733 64.0533 21.3867 65.2267H39.2533V58.1867ZM39.2533 53.3867C36.6933 53.1733 34.24 52.1067 32.2667 50.4533L31.9467 50.1333H13.0667C13.1733 50.56 13.3333 50.9333 13.4933 51.36C14.1867 53.3867 15.0933 55.36 16.0533 57.28H39.3067V53.3867H39.2533ZM39.2533 10.72C37.3333 10.72 35.52 10.8267 33.5467 10.9867C29.12 11.36 24.7467 12.0533 20.4267 13.12C17.28 13.92 14.1867 14.9333 11.2 16.1067H11.1467C11.3067 23.5733 11.4667 34.4533 11.6267 41.3333H28.3733V35.04H28.2667C26.4 34.9333 24.5867 35.2 22.8267 35.7333C20.96 36.2667 19.1467 37.0667 17.4933 38.08C17.3867 38.1333 17.3867 38.1333 17.4933 38.24C17.7067 38.5067 17.8667 38.7733 17.9733 39.0933C18.08 39.52 17.8667 40 17.44 40.16C17.12 40.3733 16.6933 40.48 16.32 40.3733C16.0533 40.2667 15.7867 40.1067 15.5733 39.8933C15.52 39.7867 15.4133 39.8933 15.36 40C15.1467 40.16 14.88 40.2667 14.6133 40.3733C14.1333 40.5867 13.4933 40.48 13.1733 40C12.8533 39.5733 12.8533 38.9333 13.1733 38.5067C13.3333 38.3467 13.6 38.24 13.76 38.08C13.76 38.08 13.8133 37.9733 13.76 37.92C13.6533 37.76 13.5467 37.6 13.44 37.44C13.28 36.9067 13.4933 36.3733 13.92 36.0533C14.3467 35.7867 14.8267 35.7333 15.3067 35.9467C15.5733 36.0533 15.84 36.48 16 36.6933C16.0533 36.7467 16.1067 36.8 16.16 36.7467L16.5867 36.48C16.64 36.48 16.5867 36.32 16.5867 36.2667C16.0533 34.9333 15.8933 34.0267 16.4267 33.0133C16.7467 32.4267 17.28 32 17.9733 31.7867C18.4 31.68 18.8267 31.68 19.2 31.84C19.2533 31.84 19.2 31.9467 19.2 31.9467C18.7733 32.3733 18.5067 32.96 18.3467 33.5467C18.24 34.08 18.2933 34.6133 18.4 35.0933C18.4533 35.2 18.5067 35.2 18.56 35.2C18.7733 35.1467 19.36 34.9333 19.5733 34.8267C19.6267 34.8267 19.5733 34.6667 19.5733 34.6133C19.36 33.76 19.36 32.8533 19.68 32.0533C20.2133 30.9333 21.3867 30.2933 22.6133 30.3467C22.8267 30.3467 23.0933 30.56 22.9333 30.6667C21.8133 31.36 21.2267 32.64 21.44 33.9733C21.44 34.0267 21.4933 34.08 21.5467 34.08C21.9733 33.9733 22.4 33.8667 22.8267 33.7067C22.88 33.7067 22.88 33.5467 22.88 33.4933C22.88 32.48 23.2533 31.4667 23.8933 30.6667C24.64 29.8667 25.7067 29.44 26.7733 29.4933C26.9867 29.5467 27.1467 29.6533 27.3067 29.8133C27.36 29.8667 27.36 29.9733 27.3067 30.0267C26.24 30.72 25.44 31.7333 24.96 32.96C24.96 32.96 25.0133 33.0667 25.0667 33.0667C25.7067 33.0133 26.3467 32.9067 26.9867 32.8533C27.0933 32.8533 27.0933 32.8533 27.0933 32.7467C27.3067 32 27.84 31.36 28.48 30.9867C28.5333 30.9867 28.5333 30.9333 28.5867 30.9333V27.9467H28.5333C28.0533 27.7867 27.5733 27.6267 27.04 27.6267C23.4667 27.7333 20 28.6933 16.9067 30.4533C16.8533 30.4533 16.7467 30.56 16.8 30.6133C17.1733 31.52 16.96 32.0533 16.4267 32.4267C15.84 32.8 15.0933 32.5867 14.72 32C14.6667 31.9467 14.56 31.9467 14.5067 32C14.1333 32.2667 13.76 32.3733 13.3333 32.3733C12.9067 32.3733 12.5333 32.1067 12.3733 31.68C12.16 30.9867 12.5333 30.1867 13.2267 29.9733C13.28 29.9733 13.28 29.92 13.2267 29.8667C12.8 29.3867 12.8533 28.64 13.3333 28.2667C13.3867 28.2133 13.3867 28.2133 13.44 28.16C14.0267 27.7867 14.8267 28 15.1467 28.5867C15.2 28.6933 15.2533 28.7467 15.2533 28.8533C15.2533 28.9067 15.2533 28.9067 15.36 28.8533C15.5733 28.8 15.7867 28.7467 15.9467 28.64C16.0533 28.64 16.1067 28.32 16.1067 28.2667C16.16 26.72 16.1067 25.76 17.12 24.7467C17.5467 24.32 19.04 24 19.36 24.4267C19.36 24.4267 19.36 24.48 19.36 24.5333C19.04 24.6933 18.7733 24.96 18.6133 25.28C18.1867 25.92 18.0267 26.72 18.1333 27.4667C18.1333 27.52 18.1333 27.6267 18.1867 27.5733C18.6133 27.4133 19.0933 27.2533 19.4667 27.0933C19.52 27.0933 19.4667 26.9867 19.4667 26.9333C19.4133 25.8667 19.7333 24.8533 20.3733 24C21.0667 23.2533 22.72 22.5067 23.52 23.2533C23.5733 23.3067 23.52 23.4133 23.4133 23.4667C22.9867 23.68 22.6133 24 22.2933 24.4267C21.92 24.9067 21.6533 25.4933 21.5467 26.1333C21.5467 26.1867 21.6533 26.3467 21.7067 26.3467C22.08 26.2933 22.72 26.1867 23.0933 26.08C23.3067 26.0267 23.2533 25.9733 23.2533 25.76C23.4133 24.1067 24.6933 22.8267 26.2933 22.6667C26.8267 22.56 27.4133 22.6667 27.8933 22.9333C28 23.04 28.16 23.0933 28.2133 23.2533C28.2667 23.3067 28.2667 23.36 28.2133 23.4133H28.16C27.5733 23.4667 26.9867 23.68 26.5067 24C25.92 24.32 25.5467 24.9067 25.3867 25.5467C25.3867 25.6 25.44 25.7067 25.4933 25.7067C25.9733 25.7067 26.56 25.7067 26.9867 25.6533C27.04 25.6533 27.0933 25.6 27.0933 25.5467C27.4133 24.64 28.16 23.8933 29.12 23.6267C30.1867 23.2533 31.3067 23.52 32.1067 24.32C32.2133 24.4267 32.16 24.48 32.1067 24.48C31.2533 24.64 30.5067 24.96 29.8133 25.4933C29.7067 25.6 29.6 25.6533 29.76 25.6533H39.2V10.72H39.2533ZM47.0933 51.0933C46.3467 51.6267 45.5467 52.0533 44.6933 52.4267L44.8 52.64C44.9067 52.8533 44.9067 53.0667 44.9067 53.28C44.9067 53.6533 44.6933 53.92 44.32 54.0267C43.8933 54.1867 43.4133 54.1333 43.0933 53.8133C42.8267 54.08 42.4533 54.24 42.1333 54.1333C41.8133 54.08 41.6 53.8667 41.44 53.6C41.3867 53.44 41.3333 53.3333 41.3333 53.28C41.0133 53.28 40.64 53.3333 40.32 53.3333V77.3333C40.6933 77.2267 41.2267 77.0133 41.8133 76.8C42.4 76.5867 43.04 76.32 43.7333 76C45.92 75.0933 48 74.0267 50.0267 72.8C51.3067 71.9467 52.5867 71.04 53.76 70.08C56.7467 67.6267 59.36 64.6933 61.5467 61.4933C63.6267 58.3467 65.3333 54.9867 66.56 51.4667C67.6267 48.4267 68.2133 45.28 68.32 42.08H51.7867V42.6667C51.7333 46.08 49.9733 49.28 47.0933 51.0933ZM68.48 33.8133H51.84V35.0933V41.0667H68.3733C68.4267 38.9333 68.4267 36.4267 68.48 33.8133ZM68.64 26.56H51.84V32.7467H68.5333C68.5333 30.7733 68.5867 28.64 68.64 26.56ZM68.8 18.5067H40.32V25.5467H68.6933C68.7467 23.0933 68.8 20.6933 68.8 18.5067ZM68.8 16.16C65.76 14.9867 62.6667 13.9733 59.52 13.1733C55.2 12.1067 50.7733 11.4133 46.3467 11.04C44.2667 10.8267 42.3467 10.7733 40.2133 10.7733V17.6H68.6933C68.7467 17.12 68.7467 16.5867 68.8 16.16ZM68.96 7.89333L68.7467 7.78667C65.76 6.61333 62.6667 5.6 59.52 4.8C55.2533 3.73333 50.8267 3.04 46.4 2.66667C44.2667 2.45333 42.2933 2.4 40.1067 2.34667H39.9467C37.7067 2.34667 35.7333 2.45333 33.6 2.66667C29.1733 3.04 24.7467 3.73333 20.4267 4.8C17.28 5.6 14.1867 6.61333 11.2 7.78667L10.9867 7.84C10.9867 7.84 11.04 10.8267 11.0933 15.2L11.1467 15.1467C14.1333 13.92 17.2267 12.96 20.3733 12.16C24.6933 11.0933 29.0667 10.4 33.5467 10.0267C35.7333 9.81333 37.7067 9.70667 39.8933 9.70667H40.1067C42.2933 9.70667 44.2667 9.86667 46.4 10.0267C50.8267 10.4 55.2533 11.0933 59.5733 12.16C62.72 12.96 65.76 13.9733 68.8 15.1467H68.8533C68.9067 10.8267 68.96 7.84 68.96 7.84V7.89333ZM53.4933 63.4667C53.0133 63.7867 52.64 64.2133 52.3733 64.7467C52.3733 64.7467 52.3733 64.8533 52.2667 64.8533L51.5733 64.64C51.5733 64.64 51.5733 64.5867 51.5733 64.5333C52.0533 63.6267 52.8533 62.9867 53.8133 62.72C53.8133 62.72 53.8667 62.6667 53.8133 62.6667C53.44 61.8133 51.68 61.8667 50.8267 62.4533C50.0267 62.9867 49.44 63.7867 49.2267 64.7467C49.2267 64.8 49.2267 64.8533 49.2267 64.8533C48.96 64.96 48.7467 65.0133 48.48 65.0133C48.4267 65.0133 48.4267 65.0133 48.4267 64.96C48.3733 64.5333 48.4267 64.0533 48.64 63.68C48.9067 63.2 49.28 62.7733 49.6533 62.4C49.7067 62.3467 49.7067 62.2933 49.6533 62.24C49.12 61.92 48.5333 61.92 48 62.24C47.3067 62.6133 46.7733 63.2533 46.5067 64.0533C46.3467 64.64 46.3467 65.28 46.56 65.92C46.56 65.92 46.56 65.9733 46.56 66.0267C46.2933 66.1333 46.1333 66.24 45.8667 66.3467C45.8667 66.3467 45.8133 66.3467 45.76 66.3467C45.3333 65.6 45.44 64.64 46.0267 63.9467C46.08 63.8933 46.1333 63.84 46.0267 63.7867C45.3867 63.68 44.7467 63.9467 44.32 64.4267C43.84 65.0133 43.68 65.8133 43.9467 66.56C44 66.8267 44.1067 67.1467 44.2667 67.4133C44.2667 67.4133 44.3733 67.4667 44.32 67.52L43.84 67.8933C43.84 67.8933 43.84 67.8933 43.7867 67.8933C43.5733 67.52 43.2533 67.2533 42.8267 67.1467C42.4533 67.04 42.08 67.1467 41.8133 67.4133C41.3333 67.8933 41.3867 68.64 41.8133 69.0667C41.92 69.1733 42.08 69.28 42.2933 69.3333C42.2933 69.3333 42.3467 69.3867 42.2933 69.3867C42.0267 69.5467 41.8133 69.8133 41.7067 70.08C41.5467 70.5067 41.6533 71.04 41.9733 71.4133C42.24 71.6267 42.56 71.7333 42.9333 71.68C43.4133 71.52 43.84 71.1467 44.1067 70.6667C44.1067 70.6667 44.16 70.6133 44.2133 70.6667C44.4267 70.9867 44.7467 71.2 45.0667 71.3067C45.44 71.4133 45.8133 71.36 46.08 71.0933C46.4534 70.7733 46.6133 70.24 46.4533 69.8133C46.2933 69.5467 46.08 69.28 45.8133 69.12C45.8133 69.12 45.8133 69.0133 45.8667 68.96C47.1467 67.8933 48.6933 67.2 50.3467 66.9333C51.4667 66.7733 52.64 66.9867 53.6533 67.4667C54.08 67.68 54.4 68 54.72 68.32C54.7733 68.32 54.88 68.3733 54.9333 68.32C55.4133 67.84 55.4667 67.0933 55.04 66.56C54.88 66.3467 54.6133 66.1333 54.4 66.0267C54.4 66.0267 54.4 66.0267 54.4 65.9733C54.6133 65.4933 54.9333 65.0133 55.36 64.6933C55.68 64.48 56 64.32 56.32 64.2133C56.3733 64.2133 56.3733 64.16 56.32 64.0533C55.8933 63.0933 54.2933 63.0933 53.4933 63.5733V63.4667ZM33.9733 14.9867C34.72 15.04 35.4133 15.52 35.68 16.2667C35.68 16.32 35.6267 16.3733 35.5733 16.3733C34.9333 16.3733 34.2933 16.4267 33.6 16.5333C33.1733 16.6933 32.8 16.96 32.5333 17.28C32.48 17.3333 32.48 17.3867 32.5333 17.3867C33.28 17.5467 33.9733 17.92 34.5067 18.5067C35.1467 19.04 35.4133 19.8933 35.1467 20.6933C35.0933 20.8 35.04 20.8533 34.9867 20.9067C34.9333 20.9067 34.8267 20.8533 34.7733 20.8C33.4933 19.68 31.84 19.04 30.1333 19.04C25.44 19.0933 20.8 20.2667 16.64 22.4C16.5867 22.4 16.5867 22.5067 16.5867 22.56C16.8 22.8267 16.9067 23.2 16.8533 23.52C16.6933 24 16.5867 24.0533 16.2133 24.2667C15.68 24.6933 14.88 24.64 14.4533 24.0533H14.4C14.3467 24.0533 14.3467 24.0533 14.2933 24.0533C14.0267 24.2133 13.76 24.3733 13.4933 24.48C12.96 24.6933 12.4267 24.48 12.1067 24.0533C11.7333 23.36 12.0533 22.5067 12.7467 22.1333C12.7467 22.1333 12.7467 22.1333 12.8 22.1333C12.8533 22.08 12.8533 22.0267 12.8 21.9733C12.48 21.44 12.6933 20.6933 13.2267 20.4267C13.76 20.16 14.8267 19.9467 15.1467 20.9067C15.1467 20.96 15.2 20.96 15.2533 20.96C15.52 20.9067 15.7333 20.8 16 20.6933C16.0533 20.6933 16.1067 20.5333 16.0533 20.4267C15.7333 19.2 15.9467 17.8667 16.6933 16.8C17.76 15.6267 18.9867 15.04 20.32 15.5733C20.3733 15.5733 20.32 15.68 20.32 15.7333C19.7867 16.2667 19.0933 16.64 18.72 17.2267C18.3467 17.8667 18.1333 18.6133 18.1333 19.36C18.1333 19.4133 18.24 19.4133 18.24 19.36C18.88 19.1467 19.7333 18.8267 20.5333 18.6133C20.5867 18.6133 20.6933 18.6133 20.6933 18.56C20.6933 18.1333 20.6933 17.6533 20.8 17.2267C21.0133 16 21.8133 14.9333 22.9867 14.4533C23.7867 14.08 24.7467 14.08 25.5467 14.4C25.6 14.4 25.6 14.56 25.5467 14.56C24.96 14.9333 24.4267 15.36 23.9467 15.84C23.4667 16.3733 23.2 17.0133 23.0933 17.76C23.0933 17.76 23.0933 17.8133 23.1467 17.8133C23.84 17.6533 24.5867 17.4933 25.3333 17.3867C25.3867 17.3867 25.44 17.3333 25.44 17.28C25.5467 16.5867 26.08 14.72 27.04 14.1333C28 13.44 29.2267 13.2267 30.4 13.5467C30.6667 13.6533 30.88 13.8667 31.04 14.08C31.0933 14.1333 31.04 14.24 30.9333 14.24C30.1333 14.5067 29.3867 14.9333 28.8 15.52C28.3733 16 28.0533 16.5333 28 17.1733C28 17.2267 28.0533 17.2267 28.1067 17.2267C28.7467 17.2267 29.3867 17.2267 30.0267 17.2267C30.08 17.2267 30.1333 17.2267 30.1333 17.1733C30.4533 16.4267 31.04 15.7867 31.7333 15.4133C32.4267 14.9867 33.1733 14.88 33.9733 14.9867Z" fill="url(#paint1_linear_2053_1491)"/>
<path fill-rule="evenodd" clip-rule="evenodd" d="M60.5334 5.70664C62.88 6.34664 65.2267 7.09331 67.52 7.94664C67.5734 7.94664 67.5734 8.05331 67.5734 8.10664C67.5734 8.42664 67.5734 8.79998 67.5734 9.11998C67.5734 9.22664 67.52 9.27997 67.36 9.22664C65.9734 8.69331 64 7.99998 62.1334 7.57331C62.1334 7.57331 62.08 7.57331 62.08 7.62664V8.21331C62.08 8.21331 62.08 8.26664 62.1334 8.26664C64 8.79998 65.76 9.33331 67.4134 9.97331C67.4667 9.97331 67.4667 10.0266 67.4667 10.08C67.4667 10.56 67.4667 11.0933 67.4667 11.5733V11.6266C65.8134 11.04 63.9467 10.4 62.08 9.86664H62.0267V10.4533C62.0267 10.5066 62.0267 10.5066 62.08 10.56C63.8934 11.0933 65.6534 11.68 67.4134 12.3733C67.4667 12.3733 67.4667 12.4266 67.52 12.48C67.52 12.9066 67.52 13.3866 67.52 13.8133C67.52 13.8133 67.52 13.92 67.4134 13.8666C65.12 13.0133 62.8267 12.2666 60.48 11.6266C60.4267 11.6266 60.4267 11.5733 60.4267 11.52C60.4267 9.54664 60.48 7.78664 60.5334 5.81331C60.5334 5.81331 60.5334 5.75998 60.5334 5.70664ZM52.48 9.97331C52.96 10.08 53.5467 10.1333 53.9734 10.1866C54.0267 10.1866 54.08 10.1866 54.08 10.1333C54.08 9.49331 54.08 8.69331 54.08 8.10664C54.08 8.05331 54.08 8.05331 54.1334 8.10664C55.36 8.31998 56.48 8.53331 57.7067 8.79998C57.7067 8.79998 57.8667 8.79998 57.8667 8.90664C57.8667 9.59998 57.8667 10.1866 57.8134 10.88C57.8134 10.9333 57.8667 10.9866 57.92 10.9866L59.2534 11.3066C59.36 11.3066 59.4134 11.3066 59.4134 11.3066C59.4667 9.81331 59.52 7.51998 59.52 5.54664V5.49331C59.04 5.38664 58.56 5.27998 58.0267 5.17331C57.9734 5.17331 57.9734 5.22664 57.9734 5.27998C57.92 6.02664 57.9734 6.66664 57.8667 7.35998V7.41331C56.6934 7.14664 55.4134 6.87998 54.24 6.66664C54.24 6.66664 54.24 6.61331 54.24 6.55998C54.24 5.86664 54.24 5.17331 54.24 4.47998C54.24 4.42664 54.1867 4.37331 54.1334 4.37331C53.6534 4.26664 53.28 4.21331 52.8 4.15998C52.7467 4.15998 52.7467 4.21331 52.7467 4.21331C52.7467 5.11998 52.5867 8.90664 52.5867 9.91998L52.48 9.97331ZM46.3467 3.30664C45.7067 3.25331 45.12 3.73331 45.0134 4.37331V8.21331C45.0134 8.63998 45.3334 9.01331 45.76 9.11998C47.7334 9.33331 49.6534 9.49331 51.84 9.81331C51.84 9.81331 51.9467 9.81331 51.9467 9.75997V8.42664C51.9467 8.37331 51.8934 8.37331 51.84 8.31998C50.3467 8.10664 48.4267 7.89331 46.72 7.67998C46.6134 7.67998 46.56 7.57331 46.5067 7.46664V4.90664C46.5067 4.79998 46.6667 4.74664 46.7734 4.74664C48.48 4.90664 50.1867 5.17331 51.8934 5.38664C51.9467 5.38664 52 5.38664 52 5.33331V4.05331C52 3.99998 51.9467 3.94664 51.8934 3.94664C50.08 3.67998 48.64 3.51998 46.3467 3.30664ZM43.7334 3.14664C41.8667 3.09331 39.84 2.98664 37.92 3.09331C37.5467 3.09331 37.0134 3.46664 36.96 3.83998V5.91998C36.96 6.34664 37.4934 6.66664 37.92 6.66664C39.4134 6.71998 40.7467 6.66664 42.1867 6.77331C42.2934 6.77331 42.4 6.82664 42.4 6.93331V7.35998C42.4 7.41331 42.3467 7.51998 42.2934 7.51998C40.5867 7.51998 38.88 7.41331 37.1734 7.57331C37.0667 7.57331 37.0667 7.57331 37.0667 7.62664L37.0134 8.85331V8.95997C39.04 8.85331 41.0667 8.85331 43.0934 8.95997C43.5734 8.95997 44 8.58664 44.0534 8.10664V6.07998C44.0534 5.65331 43.52 5.33331 43.2 5.33331C41.76 5.22664 40.16 5.27998 38.72 5.22664C38.6667 5.22664 38.56 5.17331 38.56 5.06664V4.63998C38.56 4.53331 38.6134 4.53331 38.72 4.53331C40.16 4.47998 42.2934 4.53331 43.7334 4.58664C43.84 4.58664 43.9467 4.47998 43.9467 4.37331V3.35998C43.9467 3.30664 43.84 3.14664 43.7334 3.14664ZM35.2 6.87998C35.6267 6.71998 35.84 6.29331 35.84 5.86664C35.84 5.27998 35.84 4.63998 35.7867 4.05331C35.68 3.57331 35.2534 3.25331 34.7734 3.25331C33.44 3.25331 30.4534 3.67998 28.8 3.83998V9.75997L30.2934 9.54664C30.2934 9.54664 30.3467 9.54664 30.3467 9.49331V7.78664L33.3867 7.46664C33.6534 7.41331 33.9734 7.62664 34.1867 7.99998C34.4 8.31998 34.5067 8.69331 34.56 9.06664L36.0534 8.95997H36.16C36.1067 8.21331 35.7867 7.46664 35.2 6.87998ZM34.1334 5.65331C34.1334 5.91998 33.92 6.13331 33.7067 6.18664L30.3467 6.50664V5.11998L33.8667 4.79998C34.0267 4.79998 34.1334 4.85331 34.1334 5.01331V5.65331ZM27.8934 5.06664C27.8934 4.79998 27.7334 4.58664 27.52 4.42664C27.3067 4.26664 27.04 4.15998 26.7734 4.15998C25.0667 4.42664 23.3067 4.79998 21.4934 5.17331C21.2267 5.27998 20.96 5.38664 20.7467 5.65331C20.5867 5.81331 20.4267 6.07998 20.4267 6.29331V9.91998C20.4267 10.24 20.5334 10.5066 20.7467 10.7733C20.9067 10.9866 21.12 11.1466 21.3867 11.1466C23.1467 10.7733 24.9067 10.4 26.6134 10.1333C26.9334 10.0266 27.2534 9.86664 27.4667 9.59998C27.68 9.38664 27.7867 9.11998 27.7867 8.85331L27.8934 5.06664ZM26.1334 8.42664C26.1334 8.53331 26.08 8.69331 25.9734 8.74664C25.8667 8.79998 25.7067 8.85331 25.6 8.90664C24.6934 9.11998 23.36 9.33331 22.4 9.49331C22.2934 9.54664 22.1867 9.49331 22.1334 9.43998C22.0267 9.33331 22.0267 9.22664 22.0267 9.11998V6.77331C22.0267 6.66664 22.08 6.55998 22.1867 6.45331C22.2934 6.34664 22.4 6.29331 22.56 6.23998C23.52 6.07998 24.6934 5.81331 25.7067 5.70664C25.8134 5.70664 25.9734 5.70664 26.08 5.75998C26.1867 5.81331 26.24 5.97331 26.24 6.07998L26.1334 8.42664ZM19.84 6.77331C19.7867 6.50664 19.68 6.29331 19.4667 6.13331C19.2 5.91998 18.88 5.86664 18.56 5.91998C16.48 6.45331 14.3467 7.25331 12.2667 7.99998C12.2134 8.05331 12.16 8.10664 12.16 8.15998V12.9066V13.9733C12.16 13.9733 13.6534 13.3866 14.0267 13.28C14.08 13.28 14.08 13.2266 14.08 13.1733V11.4666C14.08 11.4133 14.08 11.36 14.1334 11.36L19.36 9.75997C19.52 9.70664 19.68 9.59998 19.7867 9.43998C19.8934 9.27998 19.9467 9.11998 19.9467 8.95997L19.84 6.77331ZM18.1334 8.53331C18.1334 8.69331 17.92 8.85331 17.76 8.90664L13.9734 10.1333H13.8667V8.95997C13.8667 8.90664 13.92 8.85331 13.9734 8.85331C15.2534 8.31998 16.5334 7.89331 17.8667 7.57331C17.9734 7.57331 18.08 7.67998 18.08 7.78664C18.08 8.05331 18.08 8.31998 18.08 8.58664L18.1334 8.53331Z" fill="url(#paint2_linear_2053_1491)"/>
<path fill-rule="evenodd" clip-rule="evenodd" d="M13.9733 9.12002C13.92 9.12002 13.8667 9.17335 13.8667 9.22668V8.90669C13.8667 8.85335 13.92 8.80002 13.9733 8.80002C15.2533 8.26669 16.5333 7.84002 17.8667 7.52002C17.9733 7.46669 18.08 7.62669 18.08 7.73335V8.00002C18.08 7.89335 17.92 7.78669 17.8133 7.78669C16.5333 8.16002 15.2 8.58669 13.9733 9.12002ZM19.84 9.01335C19.84 9.17335 19.7867 9.38668 19.68 9.49335C19.5733 9.65335 19.4133 9.76002 19.2533 9.81335L14.0267 11.4134C13.9733 11.4134 13.9733 11.4667 13.9733 11.52V11.7867C13.9733 11.7334 13.9733 11.68 14.0267 11.68L19.2533 10.08C19.4133 10.0267 19.5733 9.92002 19.68 9.76002C19.7867 9.60002 19.84 9.44002 19.84 9.28002V9.01335ZM13.9733 13.2267C13.9733 13.28 13.9733 13.3334 13.92 13.3334C13.6 13.44 12.0533 14.0267 12.0533 14.0267V14.24V14.2934C12.0533 14.2934 13.5467 13.7067 13.92 13.6C13.9733 13.6 13.9733 13.5467 13.9733 13.4934V13.2267ZM25.92 5.81335C25.8133 5.76002 25.7067 5.70669 25.5467 5.76002C24.5867 5.92002 23.36 6.13335 22.4533 6.29335C22.2933 6.29335 22.1867 6.40002 22.08 6.50669C22.0267 6.61335 21.9733 6.72002 21.9733 6.82669V7.14669C21.9733 7.04002 22.0267 6.93335 22.08 6.82669C22.1867 6.72002 22.3467 6.66669 22.4533 6.61335C23.4133 6.45335 24.5867 6.18669 25.5467 6.02669C25.6533 6.02669 25.8133 6.02669 25.92 6.08002C26.0267 6.13335 26.08 6.29335 26.08 6.40002V6.08002C26.1333 6.02669 26.08 5.86669 25.92 5.81335ZM26.6667 10.08C24.96 10.4 23.1467 10.72 21.44 11.0934C21.1733 11.0934 20.9067 10.9867 20.8 10.72C20.5867 10.5067 20.48 10.1867 20.48 9.92002V10.1867C20.5333 10.5067 20.64 10.7734 20.8 10.9867C21.0133 11.2534 21.28 11.4134 21.44 11.36C23.2 10.9867 24.96 10.6134 26.6667 10.3467C26.9867 10.24 27.3067 10.08 27.52 9.81335C27.7333 9.60002 27.84 9.33335 27.84 9.06669V8.74669C27.84 9.01335 27.7333 9.28002 27.52 9.49335C27.3067 9.81335 27.04 9.97335 26.6667 10.08ZM33.8133 4.80002L30.24 5.17335V5.49335L33.8133 5.12002C33.92 5.12002 34.08 5.17335 34.08 5.33335V5.01335C34.08 4.90669 33.9733 4.80002 33.8133 4.80002ZM35.7867 6.18669V5.81335C35.7867 6.24002 35.5733 6.66669 35.1467 6.82669C35.2 6.88002 35.3067 6.93335 35.36 7.04002C35.6267 6.88002 35.7867 6.56002 35.7867 6.18669ZM36.0533 9.01335L34.56 9.12002C34.5067 8.74669 34.4 8.37335 34.1867 8.05335C33.9733 7.68002 33.6533 7.46669 33.3867 7.52002L30.3467 7.84002V8.16002L33.3867 7.84002C33.6533 7.78669 33.9733 8.00002 34.1867 8.37335C34.4 8.69335 34.5067 9.06669 34.56 9.44002L36.0533 9.33335H36.16V9.01335C36.1067 9.01335 36.0533 9.01335 36.0533 9.01335ZM30.2933 9.54668L28.8 9.76002V10.08L30.2933 9.86669V9.81335V9.54668ZM43.7333 4.90669C43.84 4.90669 43.9467 4.80002 43.9467 4.69335V4.37335C43.9467 4.48002 43.84 4.58669 43.7333 4.58669C42.24 4.53335 40.1067 4.48002 38.72 4.53335C38.6133 4.53335 38.56 4.53335 38.56 4.64002V4.90669C38.56 4.80002 38.6667 4.80002 38.72 4.80002C40.16 4.74669 42.2933 4.80002 43.7333 4.90669ZM37.92 6.98669C39.4133 6.98669 40.7467 6.98669 42.1867 7.09335C42.2933 7.09335 42.4 7.14669 42.4 7.25335V6.93335C42.4 6.82669 42.2933 6.77335 42.1867 6.77335C40.7467 6.66669 39.4133 6.72002 37.92 6.66669C37.4933 6.66669 36.96 6.34669 36.96 5.92002V6.24002C36.96 6.61335 37.4933 6.98669 37.92 6.98669ZM42.9867 8.96002C40.96 8.85335 38.9333 8.85335 36.9067 8.96002V9.28002C38.9333 9.17335 40.96 9.17335 42.9867 9.28002C43.4667 9.28002 43.8933 8.90669 43.9467 8.42669V8.10669C43.8933 8.58669 43.4667 8.96002 42.9867 8.96002ZM51.9467 5.38669C50.24 5.17335 48.5333 4.90669 46.8267 4.74669C46.72 4.74669 46.56 4.80002 46.56 4.90669V5.22669C46.56 5.12002 46.72 5.06669 46.8267 5.06669C48.5333 5.22669 50.24 5.49335 51.9467 5.70669C52 5.70669 52.0533 5.70669 52.0533 5.65335V5.33335C52.0533 5.33335 52 5.38669 51.9467 5.38669ZM51.8933 9.86669C49.7067 9.54669 47.7867 9.38669 45.8133 9.17335C45.3867 9.06669 45.0667 8.69335 45.0667 8.21335V8.53335C45.0667 8.96002 45.3867 9.33335 45.8133 9.49335C47.7867 9.70668 49.7067 9.86669 51.8933 10.1867C51.8933 10.1867 52 10.1867 52 10.1334V9.86669C51.9467 9.81335 51.8933 9.86669 51.8933 9.86669ZM57.8667 9.17335C57.8667 9.06669 57.8667 9.01335 57.8667 8.85335C57.8667 8.69335 57.7067 8.74669 57.7067 8.74669C56.5333 8.48002 55.36 8.26669 54.1333 8.05335C54.08 8.05335 54.08 8.05335 54.08 8.10669V8.42669C54.08 8.37335 54.08 8.37335 54.1333 8.37335C55.3067 8.58669 56.48 8.80002 57.7067 9.06669C57.6533 9.06669 57.8133 9.06669 57.8667 9.17335ZM53.9733 10.1867C53.5467 10.08 53.0133 10.0267 52.48 9.97335V10.24C52.96 10.3467 53.4933 10.4 53.92 10.4534C53.9733 10.4534 54.0267 10.4534 54.0267 10.4V10.1334C54.0267 10.1867 53.9733 10.1867 53.9733 10.1867ZM59.2533 11.3067L57.92 10.9867C57.8667 10.9867 57.8133 10.9334 57.8133 10.88V11.2C57.8133 11.2534 57.8667 11.3067 57.92 11.3067L59.2533 11.6267C59.36 11.6267 59.4133 11.6267 59.4133 11.5734V11.2534C59.36 11.3067 59.36 11.36 59.2533 11.3067ZM67.4667 9.28002C66.08 8.74669 64.1067 8.05335 62.24 7.62669H62.1867V7.94669H62.24C64.0533 8.42668 66.0267 9.12002 67.4133 9.60002C67.52 9.65335 67.6267 9.60002 67.6267 9.49335V9.22668C67.6267 9.33335 67.52 9.33335 67.4667 9.28002ZM67.5733 11.68C65.92 11.0934 64.0533 10.4534 62.1867 9.92002H62.1333V10.1867C62.1867 10.1867 62.1867 10.1867 62.24 10.1867C64.1067 10.72 65.9734 11.3067 67.6267 11.9467C67.6267 11.9467 67.6267 11.9467 67.6267 11.8934V11.5734C67.5733 11.5734 67.5733 11.6267 67.5733 11.68ZM67.4667 13.92C65.1733 13.0667 62.88 12.32 60.5333 11.68C60.48 11.68 60.48 11.6267 60.48 11.5734V11.8934C60.48 11.8934 60.48 12 60.5333 12C62.88 12.64 65.1733 13.3867 67.4667 14.24C67.5733 14.24 67.5733 14.1867 67.5733 14.1867V13.8667C67.5733 13.8667 67.5733 13.92 67.4667 13.92Z" fill="#432918"/>
<path d="M67.3601 8.63999C67.3601 8.74665 67.3601 9.01332 67.3601 9.11999L66.9867 8.95999L66.72 8.85332C66.08 8.63999 65.4934 8.42665 64.9067 8.21332C64.32 7.99999 63.7867 7.83999 63.2534 7.73332L62.8267 7.62665L62.3467 7.46665L61.9734 7.35999V8.47999L62.24 8.53332L62.4001 8.58665L62.7201 8.69332L63.04 8.79999C63.68 9.01332 64.3734 9.17332 65.0134 9.38665C65.6534 9.59999 66.3467 9.81332 66.9334 10.0267L67.0934 10.08L67.4134 10.1867V10.3467C67.4134 10.5067 67.4134 11.36 67.4134 11.36L67.0934 11.2533L66.8801 11.2C66.1867 10.9867 65.4934 10.72 64.7467 10.5067C64 10.2933 63.2534 10.0267 62.5067 9.86665L61.92 9.70665V10.7733L62.1334 10.8267L62.6134 10.9867L63.04 11.1467L63.2534 11.2L63.4134 11.2533C64.0534 11.4667 64.6934 11.6267 65.2801 11.84C65.8667 12.0533 66.5067 12.2133 67.04 12.4267H67.0934H67.1467L67.2534 12.48L67.4667 12.5333C67.4667 12.9067 67.4667 13.2267 67.4667 13.6L67.1467 13.4933H67.0934H67.04C65.9734 13.12 64.9067 12.7467 63.8934 12.48C62.9334 12.2133 61.76 11.7867 60.9067 11.5733C60.9067 11.0933 60.9067 10.1867 60.9067 9.33332C60.9067 8.47999 60.9601 6.18665 60.9601 6.13332C60.9601 6.07999 63.0934 6.71999 64.0534 7.03999C65.0134 7.35999 66.0267 7.67999 66.9867 8.05332H67.04L67.2001 7.99999L67.5201 8.10665V8.63999H67.3601ZM59.1467 5.65332C58.9867 5.59999 58.8267 5.54665 58.7201 5.54665L58.1334 5.43999V6.29332C58.1334 6.45332 58.1334 6.66665 58.1334 6.82665C58.1334 6.98665 58.1334 7.19999 58.1334 7.35999V7.73332L57.8667 7.67999L57.6534 7.62665L57.4934 7.57332H57.3334L56.0534 7.30665L54.7201 7.03999H54.6667H54.6134L54.2934 6.98665L53.9734 6.93332H53.8667V6.29332V5.70665V4.53332L53.6001 4.47999H53.3867L53.12 4.42665L52.8 4.37332V4.63999C52.8 4.95999 52.8 5.38665 52.8 5.91999C52.8 6.45332 52.8001 6.98665 52.7467 7.57332C52.7467 7.73332 52.7467 7.89332 52.7467 8.05332C52.7467 8.21332 52.7467 8.37332 52.7467 8.47999C52.7467 8.58665 52.7467 8.95999 52.7467 9.11999C52.7467 9.33332 52.7467 9.65332 52.7467 9.81332L53.0134 9.86665H53.1734L53.44 9.91999L53.8667 9.97332V9.22665C53.8667 9.22665 53.8667 9.06665 53.8667 8.85332C53.8667 8.63999 53.8667 8.37332 53.8667 8.15999V7.99999C53.8667 7.94665 53.8667 7.78665 53.8667 7.73332H54.0267H54.0801L55.4667 7.99999L57.4934 8.42665H57.6001H57.7067L57.92 8.47999L58.1334 8.53332C58.1334 8.58665 58.1334 8.85332 58.1334 8.90665V9.38665C58.1334 9.49332 58.1334 9.65332 58.1334 9.75998C58.1334 9.86665 58.1334 9.97332 58.1334 10.1333V10.7733L58.4534 10.8267L58.6667 10.88L58.8801 10.9333L59.2001 10.9867V10.6667V10.5067C59.2001 9.86665 59.2001 9.11999 59.2534 8.37332C59.3067 7.57332 59.2534 6.77332 59.2534 5.97332V5.65332H59.1467ZM48.3734 3.67999L46.4001 3.51999C46.1334 3.51999 45.8667 3.62665 45.6534 3.78665C45.44 3.94665 45.2801 4.15999 45.2267 4.42665C45.2267 4.63999 45.2267 6.29332 45.2267 6.29332V8.26665C45.2267 8.37332 45.2267 8.47999 45.2801 8.53332C45.3334 8.63999 45.3867 8.69332 45.44 8.74665C45.5467 8.85332 45.6534 8.90665 45.8134 8.95999C45.9201 8.95999 45.9734 9.01332 46.0801 9.01332H46.1867L48.7467 9.27999C49.6534 9.38665 50.4534 9.43999 51.3601 9.59999L51.7867 9.65332V8.63999L51.3067 8.53332L50.9334 8.47999H50.8267L48.6934 8.21332C47.9467 8.10665 47.2534 8.05332 46.5067 7.94665C46.4534 7.94665 46.4534 7.94665 46.4001 7.89332C46.4001 7.89332 46.4001 7.89332 46.4001 7.83999V4.90665C46.4001 4.79999 46.4 4.69332 46.5067 4.63999C46.6134 4.58665 46.7201 4.53332 46.8267 4.53332C47.3067 4.53332 51.3067 5.11999 51.9467 5.17332V4.10665C51.0401 3.99999 49.6 3.83999 48.3734 3.67999ZM35.7334 7.89332C35.8934 8.21332 36.0001 8.58665 36.0001 8.90665L34.7201 8.95999C34.6134 8.58665 34.5067 8.26665 34.3467 7.89332C34.1867 7.51999 33.7601 7.25332 33.3334 7.30665L30.0801 7.62665V9.33332L29.4934 9.38665L28.9067 9.43999V3.99999C28.9067 3.99999 34.1334 3.41332 34.6667 3.41332C35.2001 3.46665 35.3601 3.73332 35.4134 4.05332C35.4667 4.69332 35.5201 5.33332 35.4667 5.97332C35.3601 6.29332 35.1467 6.61332 34.8801 6.77332C35.3067 7.14665 35.5734 7.46665 35.7334 7.89332ZM34.3467 5.01332C34.3467 4.90665 34.2934 4.79999 34.24 4.69332C34.1334 4.58665 33.9734 4.58665 33.8134 4.58665L30.0801 4.95999V6.61332L31.8934 6.45332L33.7067 6.29332C33.8667 6.29332 34.0801 6.18665 34.1867 6.07999C34.2934 5.97332 34.3467 5.75999 34.4001 5.59999L34.3467 5.01332ZM27.5734 5.06665C27.5734 5.33332 27.5734 8.53332 27.5734 8.79999C27.5201 9.27999 27.2001 9.70665 26.7201 9.81332L21.6001 10.7733C21.2267 10.88 20.7467 10.3467 20.7467 9.97332C20.7467 9.59999 20.7467 6.29332 20.7467 6.29332C20.7467 5.86665 21.1734 5.54665 21.6001 5.43999C21.9734 5.33332 26.4534 4.47999 26.7734 4.42665C27.1467 4.37332 27.5201 4.63999 27.5734 5.06665C27.6267 5.01332 27.6267 5.01332 27.5734 5.06665ZM26.4001 6.02665C26.4001 5.70665 26.2401 5.43999 25.8134 5.49332C25.1734 5.59999 23.2001 5.97332 22.5067 6.07999C21.9734 6.18665 21.7601 6.39999 21.7601 6.87999V9.22665C21.7601 9.54665 21.9734 9.81332 22.2934 9.75998L25.9201 9.06665C26.2401 9.01332 26.4534 8.69332 26.4001 8.42665C26.4534 8.10665 26.4534 6.18665 26.4001 6.02665ZM43.2001 5.59999C42.7734 5.59999 42.2934 5.54665 41.8134 5.54665H40.3734C40.0534 5.54665 38.4534 5.54665 38.4534 5.54665C38.4001 5.54665 38.4001 5.54665 38.3467 5.49332C38.2934 5.43999 38.2934 5.38665 38.2934 5.27999C38.2934 5.22665 38.2934 5.11999 38.2934 5.06665V4.90665C38.2934 4.74665 38.2934 4.58665 38.2934 4.42665C38.2934 4.37332 38.4001 4.31999 38.5601 4.31999C38.7201 4.31999 40.64 4.31999 41.9734 4.31999H42.4534C42.8267 4.31999 43.2534 4.31999 43.6267 4.31999V3.41332L42.0801 3.35999H41.9734H40.9601C39.5734 3.35999 38.0801 3.35999 37.92 3.35999C37.76 3.35999 37.6001 3.46665 37.4934 3.51999C37.3867 3.57332 37.2801 3.67999 37.2801 3.83999V4.95999V6.07999C37.2801 6.18665 37.3867 6.29332 37.4934 6.39999C37.6534 6.50665 37.8134 6.55999 37.9734 6.55999H38.7201H39.4667H40.9601C41.4934 6.55999 41.9734 6.55999 42.4534 6.61332C42.6134 6.61332 42.6667 6.66665 42.6667 6.77332C42.6667 6.87999 42.6667 6.98665 42.6667 7.09332V7.35999C42.6667 7.46665 42.6667 7.62665 42.6134 7.73332C42.5601 7.78665 42.4534 7.83999 42.2934 7.83999H41.6001H39.5734C39.1467 7.83999 38.7734 7.83999 38.4001 7.83999L37.2801 7.89332V8.85332L38.8267 8.79999H40.0001H40.9601H41.8134H42.4001H43.0934C43.2534 8.79999 43.4134 8.74665 43.5201 8.63999C43.6267 8.53332 43.7334 8.42665 43.7334 8.26665V7.25332V6.18665C43.7334 6.02665 43.6267 5.91999 43.5201 5.86665C43.4134 5.75999 43.3067 5.70665 43.1467 5.65332L43.2001 5.59999ZM19.5734 6.77332L19.6267 8.95999C19.6267 9.11999 19.5734 9.27999 19.4667 9.38665C19.4134 9.49332 19.3067 9.54665 19.2001 9.59999L13.7601 11.3067V13.1733C13.7601 13.1733 12.3734 13.6533 12.3201 13.7067V11.0933C12.3201 10.1333 12.3201 8.37332 12.3201 8.31999C12.3201 8.26665 12.3201 8.26665 12.4267 8.21332C12.5334 8.15999 14.1334 7.57332 16.2134 6.87999C16.8001 6.66665 18.2401 6.23999 18.5601 6.18665C18.7734 6.13332 19.0401 6.18665 19.2534 6.29332C19.4134 6.39999 19.5734 6.55999 19.5734 6.77332ZM18.3467 8.47999C18.3467 8.31999 18.3467 7.83999 18.2934 7.73332C18.2934 7.62665 18.2401 7.51999 18.1867 7.46665C18.1334 7.41332 18.0267 7.35999 17.9201 7.35999H17.8667C17.8667 7.35999 16.6401 7.67999 16.0001 7.94665C15.3601 8.21332 13.7067 8.79999 13.7067 8.79999C13.7067 8.79999 13.7067 10.4 13.7067 10.4533L17.8667 9.11999C17.9734 9.06665 18.0801 9.01332 18.1867 8.90665C18.2401 8.79999 18.2934 8.63999 18.3467 8.47999ZM36.4267 28.0533V29.5467C36.4267 29.7067 36.4267 29.8667 36.3201 30.0267C36.2134 30.1333 36.0534 30.24 35.8934 30.1867C35.7334 30.1867 35.5734 30.1333 35.4667 30.0267C35.3601 29.8667 35.3601 29.7067 35.3601 29.5467V28.0533C35.3601 27.9467 35.3067 27.84 35.2001 27.84C35.0934 27.84 34.9867 27.8933 34.9867 28V28.0533V29.44C34.9867 29.76 35.0401 30.0267 35.2001 30.2933C35.3601 30.5067 35.6801 30.6667 35.9467 30.6133C36.2134 30.6667 36.5334 30.5067 36.6934 30.2933C36.8534 30.0267 36.9067 29.76 36.8534 29.44V28.0533C36.8534 27.9467 36.8001 27.84 36.6934 27.7867C36.5867 27.7867 36.4801 27.84 36.4267 27.9467C36.4801 28 36.4801 28 36.4267 28.0533ZM38.5067 28.2133C38.6134 28.2133 38.7201 28.1067 38.7201 28C38.7201 27.8933 38.6134 27.7867 38.5067 27.7867H37.3334C37.2267 27.7867 37.1201 27.8933 37.1201 28C37.1201 28.1067 37.2267 28.2133 37.3334 28.2133H37.7601V30.4533C37.7601 30.56 37.8667 30.6667 37.9734 30.6667C38.08 30.6667 38.1867 30.56 38.1867 30.4533V28.2133H38.5067ZM40.2667 28.2133C40.3734 28.2133 40.4801 28.1067 40.4801 28C40.4801 27.8933 40.3734 27.7867 40.2667 27.7867H39.1467C39.0401 27.7867 38.9334 27.8933 38.9334 28C38.9334 28.1067 39.0401 28.2133 39.1467 28.2133H39.5201V30.4533C39.5201 30.56 39.6267 30.6667 39.7334 30.6667C39.8401 30.6667 39.9467 30.56 39.9467 30.4533V28.2133H40.2667ZM42.5067 28.96H41.8667C41.7067 28.96 41.6534 29.0667 41.6534 29.12C41.6534 29.2267 41.7067 29.3333 41.8134 29.3333H42.24V29.44C42.2934 29.8133 42.08 30.1867 41.7067 30.2933C41.4934 30.2933 41.2801 30.1867 41.2267 29.9733C41.1201 29.76 41.0667 29.4933 41.0667 29.2267C41.0667 28.96 41.1201 28.6933 41.2267 28.48C41.2801 28.32 41.4401 28.16 41.6534 28.16C41.8134 28.16 41.9734 28.2667 42.0801 28.4267C42.1334 28.48 42.2401 28.5333 42.2934 28.48C42.4001 28.48 42.4001 28.3733 42.4001 28.2667C42.2934 27.9467 41.9734 27.7333 41.6534 27.7867C41.3334 27.7333 41.0667 27.8933 40.9067 28.2133C40.7467 28.5333 40.6401 28.8533 40.6934 29.2267C40.6934 29.5467 40.7467 29.92 40.9067 30.24C41.0667 30.5067 41.3334 30.72 41.6534 30.72C41.8134 30.72 41.9734 30.6667 42.1334 30.56C42.4001 30.4 42.5601 30.1333 42.6134 29.8133C42.6134 29.6533 42.6134 29.4933 42.6134 29.3333C42.6667 29.1733 42.6667 29.0133 42.5067 28.96ZM49.12 28.2133C49.2267 28.2133 49.3334 28.1067 49.3334 28C49.3334 27.8933 49.2267 27.7867 49.12 27.7867H48C47.8934 27.7867 47.7867 27.8933 47.7867 28C47.7867 28.1067 47.8934 28.2133 48 28.2133H48.3734V30.4533C48.3734 30.56 48.48 30.6667 48.5867 30.6667C48.6934 30.6667 48.8 30.56 48.8 30.4533V28.2133H49.12ZM46.7734 29.6H46.8267C46.9867 29.5467 47.0934 29.44 47.2001 29.3333C47.3601 29.1733 47.4667 28.96 47.4134 28.6933C47.4134 28.4267 47.2534 28.2133 47.0934 28.0533C46.8801 27.9467 46.6667 27.84 46.4001 27.84H45.8134C45.7601 27.84 45.7067 27.84 45.6534 27.8933C45.6001 27.9467 45.6001 28 45.6001 28.0533V30.4C45.6001 30.5067 45.6534 30.6133 45.7601 30.6133C45.7601 30.6133 45.7601 30.6133 45.8134 30.6133C45.9201 30.6133 46.0267 30.56 46.0267 30.4533C46.0267 30.4533 46.0267 30.4533 46.0267 30.4V29.6533H46.4001L46.9867 30.5067C47.0401 30.56 47.0934 30.6133 47.1467 30.6133C47.2534 30.6133 47.3601 30.56 47.3601 30.4533C47.3601 30.4 47.3067 30.3467 47.3067 30.2933L46.7734 29.6ZM46.0267 29.28V28.2133H46.5067C46.6667 28.2133 46.8267 28.2667 46.9334 28.3733C47.0401 28.48 47.0934 28.5867 47.0934 28.7467C47.0934 29.0667 46.8267 29.3333 46.5067 29.28H46.4534H46.0267ZM44.3734 28.0533C44.3734 27.8933 44.2134 27.7867 44.0534 27.84C43.9467 27.84 43.84 27.9467 43.84 28.0533L43.0934 30.4C43.0934 30.4533 43.0934 30.5067 43.0934 30.56C43.1467 30.6133 43.2001 30.6133 43.2534 30.6667C43.3601 30.6667 43.4667 30.6667 43.4667 30.5067L43.5734 30.08H44.64L44.7467 30.4533C44.8001 30.56 44.8534 30.6133 44.9601 30.6133C45.0134 30.6133 45.0667 30.6133 45.12 30.56C45.1734 30.5067 45.1734 30.4 45.12 30.3467L44.3734 28.0533ZM44.4801 29.76H43.6801L44.1067 28.2667L44.5867 29.76H44.4801ZM32.6934 29.2267C32.4267 29.0667 32.1601 29.0133 31.8401 28.96C31.6267 28.9067 31.5201 28.7467 31.5201 28.5333C31.5734 28.32 31.7867 28.2133 32.0001 28.2133C32.2134 28.2133 32.3734 28.2667 32.5334 28.4267C32.6401 28.5867 32.8534 28.4267 32.8534 28.32C32.8534 28.2133 32.6401 27.84 32.1067 27.84C31.8934 27.84 31.6801 27.8933 31.5201 28C31.3601 28.1067 31.2001 28.32 31.2001 28.5333C31.2001 28.7467 31.2534 29.0133 31.4134 29.1733C31.5734 29.3333 31.7867 29.3867 31.9467 29.3867C32.2134 29.3867 32.4267 29.4933 32.5867 29.7067C32.6401 29.8133 32.5867 29.9733 32.5334 30.08C32.3734 30.1867 32.2134 30.24 32.0534 30.24C31.8934 30.24 31.6801 30.1867 31.5734 30.0267C31.5201 29.9733 31.4134 29.92 31.3067 29.92C31.2001 29.9733 31.1467 30.08 31.2001 30.1867C31.3601 30.4533 31.6801 30.6667 32.0534 30.6133C32.3734 30.6133 32.6401 30.5067 32.8534 30.3467C33.0134 30.1867 33.0667 29.9733 33.0667 29.76C33.0134 29.5467 32.9067 29.3333 32.6934 29.2267ZM34.4534 28.2133C34.5601 28.2133 34.6667 28.1067 34.6667 28C34.6667 27.8933 34.5601 27.7867 34.4534 27.7867H33.2801C33.1734 27.7867 33.0667 27.8933 33.0667 28C33.0667 28.1067 33.1734 28.2133 33.2801 28.2133H33.6534V30.4C33.6534 30.5067 33.7067 30.6133 33.8134 30.6133C33.9201 30.6133 34.0267 30.56 34.0267 30.4533V30.4V28.2133H34.4534ZM18.1334 17.6C18.4534 16.9067 18.9867 16.32 19.6267 15.8933C19.9467 15.68 19.9467 15.6267 19.9467 15.5733C19.9467 15.52 19.8934 15.52 19.4667 15.52C18.8267 15.5733 18.2401 15.84 17.8134 16.2133C17.2267 16.6933 16.8001 17.3867 16.6401 18.1333C16.5334 18.9867 16.5334 19.84 16.6934 20.6933C16.6934 20.6933 15.6267 21.1733 15.3067 21.3867C15.2001 21.12 15.0934 20.8533 14.9334 20.64C14.6134 20.3733 14.1334 20.32 13.7067 20.5333C13.3867 20.6933 13.1734 21.0133 13.2267 21.3867C13.2801 21.6533 13.3867 21.92 13.5467 22.1333C13.2801 22.24 13.0134 22.4 12.8001 22.6133C12.5334 22.88 12.4267 23.3067 12.5334 23.68C12.6401 24 13.0134 24.2133 13.3867 24.16C13.8134 24.0533 14.2401 23.84 14.5601 23.5733C14.7201 23.7333 14.8801 23.8933 15.0401 24.0533C15.2001 24.16 15.4134 24.2667 15.6267 24.2667C15.7867 24.2667 15.9467 24.2133 16.1067 24.16C16.4267 24 16.5867 23.6267 16.5334 23.3067C16.4801 22.8267 16.0001 22.6133 16.0534 22.4533C18.4001 21.12 20.9601 20.1067 23.6267 19.4667C25.4401 18.9867 27.2534 18.72 29.1201 18.6133C30.2934 18.5067 31.4667 18.6133 32.5867 18.9867C33.4934 19.2 34.3467 19.68 35.0401 20.3733C35.0401 19.52 34.5067 18.72 33.7601 18.3467C33.1201 17.9733 32.4267 17.7067 31.6801 17.6533C31.8401 17.3333 32.0534 17.0667 32.3201 16.8533C32.6934 16.48 33.2267 16.2133 33.7601 16.1067C34.2401 16.0533 34.7201 16 35.2001 16C35.0401 15.6267 34.6667 15.36 34.24 15.36C33.7067 15.2533 33.1201 15.3067 32.5867 15.52C31.6267 15.9467 30.8801 16.6933 30.5067 17.6533C29.5467 17.6 28.5867 17.6 27.5734 17.6533C27.6801 16.8533 27.9467 16.1067 28.4267 15.4667C28.9601 14.8267 29.6534 14.4 30.4001 14.1867C30.5067 14.1333 30.6134 14.08 30.7201 14.0267C30.5601 13.8667 30.3467 13.7067 29.4934 13.6533C28.4267 13.6533 27.4667 14.1867 26.8801 15.0933C26.4001 15.8933 26.1334 16.7467 26.0267 17.6533C24.4801 17.92 22.6667 18.4 22.6667 18.4C22.6667 17.76 22.8267 17.12 23.0401 16.5333C23.4134 15.7867 24.0001 15.2 24.6934 14.7733C24.6934 14.7733 24.9601 14.6133 25.0134 14.56C24.8534 14.4 24.5867 14.4 24.3734 14.4C23.8401 14.4 23.3601 14.56 22.8801 14.8267C21.9201 15.36 21.3334 16.3733 21.3334 17.44C21.3334 17.6533 21.3867 18.6133 21.3334 18.8267C20.1067 19.1467 18.9334 19.52 17.7601 19.9467C17.6534 19.1467 17.8134 18.3467 18.1334 17.6ZM31.1467 24.32L31.6801 24.16C31.6267 24.1067 31.5201 24 31.4134 23.9467C31.0934 23.7333 30.6667 23.68 30.2934 23.68C29.8667 23.68 29.4934 23.7867 29.1201 23.9467C28.3734 24.3733 27.7867 25.0667 27.5201 25.92C27.5201 25.92 26.6134 25.92 26.2401 25.9733L24.9067 26.08C24.9067 25.8667 24.9601 25.6533 25.0134 25.44C25.1201 25.0133 25.3334 24.5867 25.6534 24.2133C26.1867 23.6267 26.8801 23.2 27.6267 23.0933L27.8401 23.04C27.5734 22.88 27.3067 22.7733 26.9867 22.7733C25.2801 22.7733 23.8401 24.1067 23.6801 25.8667L23.6267 26.24L22.6667 26.4533C22.1334 26.56 21.6001 26.6667 21.0667 26.88C21.1201 26.24 21.2801 25.6 21.5467 25.0133C21.8134 24.48 22.2401 24 22.6667 23.6267C22.7734 23.52 22.8801 23.4133 23.0401 23.36C22.8801 23.3067 22.7201 23.3067 22.5067 23.3067C21.4934 23.3067 20.6401 23.9467 20.2667 24.8533C19.9467 25.6533 19.8401 26.5067 19.8934 27.36C19.4134 27.4667 18.2934 27.8933 17.8134 28.1067C17.6534 27.4667 17.6534 26.88 17.8134 26.24C17.9201 25.7067 18.1867 25.2267 18.5601 24.8533C18.6667 24.7467 18.7734 24.64 18.8801 24.5333C18.8801 24.5333 18.7201 24.48 18.2934 24.5333C17.4934 24.7467 16.8001 25.3867 16.5867 26.1867C16.4267 27.04 16.3201 27.8933 16.3734 28.7467L15.0401 29.3333C14.9867 29.12 14.9334 28.9067 14.8267 28.6933C14.6667 28.48 14.4001 28.32 14.1334 28.32C13.9734 28.32 13.8134 28.3733 13.6534 28.4267C13.4934 28.48 13.3867 28.64 13.3334 28.8C13.2801 29.0133 13.2801 29.2267 13.3867 29.3867C13.4401 29.4933 13.5467 29.6 13.6001 29.7067L13.8134 29.9733C13.4934 30.08 13.2267 30.1867 13.0134 30.4C12.6401 30.6667 12.5334 31.1467 12.7467 31.52C12.8534 31.7867 13.1201 31.9467 13.4401 31.9467C13.9201 31.8933 14.3467 31.68 14.6667 31.36L15.0401 31.9467C15.2001 32.16 15.4134 32.32 15.6801 32.2667C15.8401 32.2667 15.9467 32.2133 16.1067 32.16C16.3734 32 16.5867 31.68 16.5334 31.36C16.5334 31.0933 16.3734 30.8267 16.2134 30.6133L16.1601 30.5067L16.8001 30.1333C17.8667 29.5467 18.9867 29.0667 20.1067 28.64C21.9201 28 23.8401 27.5733 25.7601 27.3067C26.1334 27.2533 26.5601 27.2 26.9334 27.2533C27.4134 27.3067 27.8934 27.4133 28.3734 27.5733V25.4933H29.1734C29.6534 24.9067 30.3467 24.48 31.1467 24.32ZM28.3734 31.7333V34.6667C28.1067 34.6667 27.7334 34.6133 27.4134 34.6133C24.8001 34.7733 22.1867 35.36 19.7867 36.4267C18.7201 36.9067 17.6534 37.44 16.6401 38.08C17.0134 38.2933 17.2801 38.56 17.4401 38.9333C17.6001 39.52 17.2267 40.0533 16.4801 40.0533C15.7334 40.0533 15.6267 39.4667 15.4134 39.2533C15.3601 39.3067 14.7734 39.84 14.5601 39.9467C14.4001 40.0533 14.1867 40.1067 14.0267 40.1067C13.5467 40.1067 13.1734 39.7867 13.1734 39.3067C13.1734 39.2533 13.1734 39.2 13.1734 39.0933C13.2267 38.8267 13.4401 38.56 13.7067 38.4C13.9201 38.2933 14.0801 38.1867 14.2934 38.0267C14.2401 37.8133 13.8667 37.5467 13.7601 37.28C13.6534 36.9067 13.7601 36.48 14.0801 36.2133C14.4001 36 14.7734 36 15.0934 36.2133C15.4667 36.4267 15.6801 37.1733 15.7334 37.2267C15.9467 37.0667 16.5867 36.64 16.9601 36.3733C16.5334 35.6267 16.3201 34.72 16.3201 33.8667C16.5334 32.5333 17.9201 31.6267 18.5601 31.9467C18.0267 32.5333 17.7601 33.28 17.7067 34.0267C17.6001 34.6133 17.7067 35.2533 17.9734 35.7867C17.9734 35.7867 19.4667 35.2 20.0001 35.04C19.6267 34.08 19.6267 33.0667 19.8934 32.1067C20.3734 31.2 21.2801 30.6133 22.3467 30.6133C21.0667 31.4667 20.4801 33.0667 20.9067 34.56C21.2267 34.5067 22.9334 33.92 23.1467 33.8667C23.0934 32.8533 23.3601 31.84 23.9467 31.04C24.4267 30.3467 25.1734 29.8667 26.0267 29.76C26.1867 29.76 26.4001 29.76 26.5601 29.8133C26.5601 29.8667 26.5601 29.8667 26.4001 29.9733L26.2934 30.0267C25.6001 30.56 24.9601 31.2533 24.4801 32C24.2667 32.48 24.1067 32.96 24.1067 33.4933V33.6C24.1067 33.6 25.0134 33.44 25.6534 33.3867C26.3467 33.3333 26.9867 33.28 26.9867 33.28C27.0934 33.0133 27.2001 32.6933 27.4134 32.4267C27.8401 32.16 28.1067 31.8933 28.3734 31.7333ZM56.6934 44.32C56.1067 44.48 55.6267 44.8533 55.3601 45.3867C54.8267 46.1867 54.6134 47.0933 54.9334 47.1467C55.2534 47.2 55.5201 47.1467 55.5734 47.1467C55.9467 47.1467 56.3201 47.1467 56.6934 47.2C56.7467 47.2 56.8534 47.1467 56.9067 47.0933C56.96 47.04 57.0134 46.9333 57.0667 46.88C57.3334 45.9733 57.9201 45.1733 58.6667 44.64C58.9867 44.4267 59.3067 44.2667 59.68 44.2667C60.2667 44.2133 60.8 44.48 61.1734 44.9067C61.3334 45.12 60.5334 44.7467 59.3601 45.92C58.9867 46.2933 58.72 46.72 58.5067 47.2533C58.5067 47.2533 58.5067 47.36 58.5601 47.36C59.0934 47.52 60.0534 47.7333 60.5334 47.9467C60.64 48 60.7467 47.9467 60.8534 47.84C61.12 47.4133 61.44 47.0933 61.8667 46.8267C62.2934 46.56 62.8267 46.4 63.3601 46.4H63.4667C64.5867 46.56 64.6401 47.0933 64.6934 47.1467C64.7467 47.2 64.48 47.2 64.32 47.2533C63.5734 47.4133 62.8801 47.84 62.4001 48.4267C62.3467 48.5867 62.6134 48.8 62.6134 48.8C63.4134 49.28 63.8934 50.1867 63.7334 51.0933C63.7334 51.2533 63.7334 51.3067 63.5734 51.3067C63.4134 51.2 63.2534 51.0933 63.1467 50.9867C62.6667 50.56 62.1334 50.1867 61.6 49.8133C60.6934 49.2267 59.7334 48.8533 58.6667 48.6933C57.8667 48.5333 57.12 48.48 56.32 48.48C54.5601 48.48 52.8001 48.7467 51.0934 49.2267C50.7734 49.3333 49.6534 49.6533 48.6934 49.9733L48.1067 50.1867L48.4801 49.8667C48.9067 49.44 49.3334 49.0133 49.7067 48.5867L49.9734 48.2667L50.4534 48.16L52.4267 47.7333C52.6401 47.68 52.8 47.52 52.8534 47.3067C52.96 46.56 53.2801 45.8133 53.8134 45.2267C54.2401 44.5867 54.8801 44.16 55.68 44.0533C56.48 43.9467 56.8001 44.2133 56.6934 44.32ZM42.5067 59.1467C42.1867 58.88 41.9734 58.5067 41.92 58.1333C41.92 57.7067 42.1334 57.3333 42.5067 57.1733C42.9334 57.0133 43.3601 57.0667 43.7334 57.28C44.16 57.6 44.2134 57.92 44.3734 58.3467H44.4267C44.8001 58.1333 45.4934 57.8667 45.9201 57.6L46.1867 57.44C46.1867 57.44 46.2934 57.44 46.24 57.28C46.08 56.8 46.0267 56.2667 46.0267 55.7867C46.0801 55.2 46.2401 54.6667 46.5601 54.1867C47.3067 52.96 48.5867 53.0667 48.4801 53.2267C48.0001 53.76 47.68 54.4 47.5734 55.1467C47.5201 55.52 47.5201 55.9467 47.5734 56.32C47.5734 56.48 47.6267 56.6933 47.7334 56.7467C47.84 56.8 48.2667 56.5867 48.5334 56.48C48.8 56.3733 49.3334 56.32 49.6534 56.2133C49.8134 56.16 49.7601 56.0533 49.7601 56.0533C49.7601 54.9867 50.0267 53.8667 50.6667 52.96C51.1467 52.3733 51.84 52 52.64 51.9467C52.9067 51.9467 53.3334 52.0533 53.2267 52.1067C53.0667 52.2133 52.9067 52.32 52.7467 52.48C52.3201 52.8 51.9467 53.2267 51.68 53.7066C51.3601 54.4 51.2534 55.1467 51.3601 55.8933C51.9467 55.8933 52.5867 55.84 53.1734 55.68C53.28 55.6267 53.3334 55.5733 53.3334 55.4667C53.5467 54.7733 53.8134 53.44 54.5067 52.96C54.88 52.64 55.3067 52.48 55.7867 52.48C56.1067 52.48 57.0134 52.7467 56.8 52.8533C56.2667 53.0667 55.7334 53.44 55.3601 53.92C55.0934 54.2933 54.8801 54.72 54.8267 55.2C54.7734 55.4667 55.0401 55.52 55.0401 55.52C55.5201 55.5733 56 55.6267 56.48 55.7333C56.6401 55.7333 56.7467 55.5733 56.7467 55.52C56.9601 55.1467 57.2267 54.8267 57.5467 54.6133C57.8667 54.2933 58.2934 54.1333 58.7201 54.08C59.6267 54.08 60.1067 54.72 59.9467 54.7733C59.1467 54.9867 58.4534 55.4133 57.92 56.0533C57.92 56.0533 57.8134 56.1067 57.92 56.2667C58.7201 56.96 59.2534 57.92 59.4134 58.9333C59.4134 59.04 59.4667 59.4133 59.3601 59.4667C58.7734 58.7733 58.0801 58.1867 57.3334 57.6533C56.2667 57.12 55.1467 56.8533 53.9734 56.9067C52.5334 56.9067 51.1467 57.12 49.7601 57.5467C48.2667 58.0267 46.8267 58.6667 45.4934 59.4667C45.7067 59.6267 45.8667 59.84 45.9734 60.1067C46.1867 60.5333 46.0267 61.0667 45.6534 61.3333C45.44 61.4933 45.12 61.5467 44.8534 61.4933C44.2134 61.3867 44.0001 60.7467 43.9467 60.5333C43.8401 60.7467 43.6801 60.96 43.4667 61.0667C43.0401 61.3867 42.4534 61.3333 42.0801 60.9067C42.0801 60.8533 42.0267 60.8533 42.0267 60.8C41.7601 60.4267 41.8134 59.84 42.1867 59.52L42.5067 59.1467ZM44.7467 67.3067C44.6401 67.0933 44.5334 66.88 44.4801 66.6133C44.2667 66.1333 44.2134 65.6 44.32 65.0667C44.48 64.4267 45.0134 63.9467 45.6534 63.8933C45.3334 64.2133 45.1734 64.6933 45.2801 65.1733C45.3334 65.6533 45.44 66.08 45.7067 66.4533C45.76 66.5067 45.8134 66.5067 45.8134 66.4533C46.1867 66.24 46.5601 66.08 46.9334 65.92V65.8667C46.6667 65.0133 46.7734 64.0533 47.2001 63.3067C47.5201 62.6667 48.16 62.24 48.8534 62.1333C48.8534 62.1333 49.3334 62.1333 49.3334 62.2933C48.8534 62.6133 48.48 63.0933 48.2667 63.6267C48.0534 64.16 48.0534 64.7467 48.1601 65.3333L48.2134 65.3867C48.6401 65.28 49.0667 65.1733 49.4934 65.0667C49.5467 65.0667 49.5467 65.0133 49.6001 64.96C49.7601 64.16 50.1867 63.4133 50.7734 62.88C51.2534 62.5067 51.7867 62.24 52.3734 62.1867C53.12 62.1867 53.2267 62.4 53.3334 62.5067C53.4401 62.6133 53.1734 62.5067 52.8 62.6133C52.3734 62.8267 51.9467 63.1467 51.6267 63.52C51.3601 63.84 51.1467 64.2667 51.0934 64.7467V64.8533C51.5201 64.9067 52.0001 65.0133 52.4267 65.1733H52.4801C52.7467 64.6933 53.0134 64.2667 53.44 63.8933C53.8134 63.5733 54.2934 63.36 54.7734 63.36C55.0934 63.36 55.3601 63.4667 55.6267 63.6267C55.6267 63.6267 55.9467 63.84 55.84 63.8933C55.3067 64.0533 54.8267 64.32 54.5067 64.7467C53.9734 65.3333 53.9734 65.4933 53.92 65.6533C53.8667 65.8133 53.9201 65.8667 54.0267 65.9733C54.8267 66.5067 54.9334 66.9333 54.9867 67.2533C55.0401 67.52 54.8267 68 54.5601 67.68C54.1867 67.2533 53.7067 66.88 53.1734 66.72C52.4267 66.4 51.6267 66.24 50.7734 66.24C50.0267 66.24 49.2801 66.3467 48.5334 66.6133C47.5734 66.88 46.6667 67.36 45.8667 67.9467L45.4934 68.2133C45.2267 68.3733 44.9601 68.5867 44.7467 68.8C44.6401 68.9067 44.8 68.96 44.9067 69.0133C45.8667 69.44 45.8667 70.08 45.6534 70.3466C45.44 70.56 45.12 70.6133 44.8534 70.4533C44.1067 69.9733 44.2667 69.6 43.9467 69.7066C43.6267 69.8133 43.5201 70.2933 43.3601 70.5067C43.0934 70.8267 42.6667 70.88 42.3467 70.6667C41.9734 70.4 41.92 69.8667 42.1867 69.5467C42.3467 69.3867 42.56 69.2267 42.7734 69.0667C42.72 69.0667 42.2401 68.7467 42.0801 68.5867C41.7601 68.2667 41.7601 67.7867 42.0801 67.4667C42.0801 67.4667 42.1334 67.4667 42.1334 67.4133C42.5067 67.1467 43.04 67.2 43.3067 67.6267C43.3067 67.6267 43.6267 68.1067 43.6801 68.1067C43.7334 68.16 43.7334 68.1067 43.7867 68.1067C43.84 68.1067 44.6401 67.4133 44.6934 67.4133V67.36L44.7467 67.3067ZM49.12 40.64C49.0134 40.64 48.9067 40.64 48.8 40.64C48.6934 40.64 48.5867 40.5333 48.5334 40.48C48.48 40.4267 48.4267 40.32 48.3734 40.2133C48.3734 40.16 48.4267 40.1067 48.4801 40.0533C48.6401 39.9467 48.8 39.7867 48.9067 39.6267C49.0134 39.4667 49.0134 39.3067 49.0667 39.0933C49.0667 39.0933 49.0134 39.04 48.9601 39.0933C48.9601 39.1467 48.8 39.36 48.64 39.4133C48.5334 39.4667 48.3734 39.52 48.2134 39.52C48.1067 39.52 48.0001 39.4667 47.9467 39.4133C47.8934 39.3067 47.84 39.2533 47.7867 39.1467C47.7867 39.04 47.8934 38.9867 48 38.9867C48.16 38.9867 48.3734 38.9333 48.5334 38.8267C48.64 38.7733 48.6934 38.6667 48.7467 38.56C48.8001 38.4533 48.8 38.4 48.8 38.2933C48.8 38.24 48.8 38.24 48.8 38.24C48.8 38.24 48.64 38.3467 48.5334 38.3467C48.3734 38.4 48.2134 38.4 48.0534 38.3467C47.8934 38.24 47.7867 38.08 47.68 37.92V37.8133C47.84 37.8133 47.9467 37.6 48.1067 37.3867C48.1067 37.3333 48.1601 37.28 48.1601 37.28C48.1601 37.2267 48.2667 37.1733 48.2667 37.12C48.2667 37.0133 48.2667 36.8533 48.2667 36.7467C48.2667 36.64 48.2134 36.5333 48.1067 36.48H48C48 36.48 48.0001 36.7467 47.8934 36.9067C47.7867 37.0133 47.68 37.1733 47.5734 37.2267C47.6267 37.3333 47.5201 37.3867 47.4667 37.3333C47.3601 37.28 47.2534 37.1733 47.2534 37.0133C47.2534 36.8533 47.2534 36.6933 47.3601 36.5867C47.5201 36.32 47.6801 36.0533 47.8934 35.7867C48.0534 35.6267 48.16 35.4667 48.32 35.3067C48.4267 35.1467 48.48 34.88 48.32 34.8267C48.16 34.7733 48.1067 35.04 48.0534 35.0933C47.6267 35.2533 47.2534 35.4667 46.8801 35.7333C46.7201 35.9467 46.6134 36.2133 46.5601 36.48C46.5067 36.64 46.5601 36.8533 46.4534 36.96C46.4001 37.0133 46.3467 37.0667 46.2934 37.0133C46.1867 36.9067 46.0801 36.7467 46.0267 36.5333C45.8667 36.5333 45.8667 36.3733 45.8667 36.2667C45.8667 36.2133 45.8667 36.16 45.8134 36.2133C45.6534 36.32 45.5467 36.4267 45.4934 36.64C45.4401 36.8533 45.4401 37.12 45.5467 37.3333C45.7601 37.6533 45.9734 37.9733 46.1867 38.2933C46.3467 38.56 46.5601 38.88 46.7201 39.1467C46.8801 39.36 46.9334 39.6267 46.8801 39.8933C46.8267 40.16 46.6667 40.4267 46.4534 40.64C46.4534 40.64 46.3467 40.6933 46.3467 40.64C46.1334 40.4267 45.9201 40.2133 45.6534 40.0533C45.3334 39.8933 45.0134 39.7333 44.6934 39.68C44.2667 39.6267 43.8401 39.6267 43.4134 39.68C42.9867 39.68 42.5067 39.7867 42.0801 39.7333C41.7067 39.7333 41.3334 39.7333 41.0134 39.5733C40.7467 39.4667 40.5334 39.3067 40.4267 39.04C40.3201 38.7733 40.2667 38.5067 40.2667 38.1867C40.2667 37.9733 40.3734 37.7067 40.4801 37.5467C40.5867 37.3867 40.6934 37.2267 40.9067 37.12C41.1201 37.0133 41.3334 36.96 41.5467 37.0133C41.6534 37.0667 41.7601 37.12 41.8667 37.2267C41.9734 37.28 42.0267 37.3867 42.1334 37.44H42.1867C42.24 37.12 42.1867 36.8533 42.0801 36.5333C41.9734 36.32 41.8134 36.1067 41.7067 35.8933C41.7067 35.84 41.8134 35.84 41.8667 35.84C42.1334 35.84 42.3467 35.8933 42.5601 36.0533C42.6667 36.16 42.8267 36.2667 42.8801 36.3733H42.9334C42.9334 36 42.8267 35.6267 42.6134 35.36C42.5067 35.2 42.3467 35.0933 42.1867 34.9867C42.08 34.9867 42.2401 34.88 42.3467 34.88C42.5601 34.88 42.7201 34.88 42.9334 34.9867C42.9867 35.04 43.0401 35.04 43.0934 35.0933L43.2001 35.2C43.2001 35.2 43.2534 35.2 43.2534 35.1467C43.2534 35.04 43.2001 34.9333 43.1467 34.8267C42.8801 34.56 42.56 34.2933 42.24 34.08L42.1334 34.0267C42.0267 33.92 41.9734 33.76 41.92 33.6C41.92 33.5467 41.8134 33.4933 41.8134 33.3867C41.7601 33.3333 41.7601 33.2267 41.8134 33.1733C41.9201 33.0133 41.9734 32.96 42.1867 32.9067C42.3467 32.8533 42.5067 32.8 42.6667 32.8C42.7201 32.8 42.7734 32.8533 42.8267 32.8C42.8801 32.7467 42.8801 32.7467 42.8267 32.6933C42.6667 32.5867 42.4001 32.48 42.1867 32.48C41.8667 32.4267 41.6001 32.4267 41.2801 32.5333C41.0667 32.64 40.8534 32.6933 40.5867 32.7467C40.4267 32.7467 40.2667 32.7467 40.1067 32.64C40 32.5867 39.9467 32.48 39.8934 32.3733C39.8934 32.2133 39.9467 32 40.0001 31.84C40.0534 31.7333 40.16 31.6267 40.3201 31.5733C40.4267 31.52 40.4801 31.52 40.4801 31.4133C40.4801 31.36 40.3734 31.4133 40.3201 31.4133C40.0534 31.4667 39.7867 31.5733 39.5734 31.68C39.4134 31.84 39.2534 32 39.0934 32.2133C39.0401 32.2667 39.0401 32.2667 38.9867 32.2667C38.9334 32.2667 38.8801 32.2667 38.8267 32.2667C38.6134 32.32 38.4534 32.4267 38.24 32.5333C38.0267 32.64 37.92 32.7467 37.7067 32.8533C37.5467 32.9067 37.3867 32.9067 37.2801 32.9067C36.9601 32.9067 36.5867 32.9067 36.5334 33.2267C36.5334 33.28 36.5334 33.3867 36.64 33.44C36.6934 33.4933 36.7467 33.4933 36.8001 33.4933L37.0134 33.5467C37.0667 33.5467 37.1201 33.6 37.1201 33.6V33.6533C37.1201 33.7067 37.0667 33.76 36.9601 33.76C36.8001 33.8133 36.6401 33.76 36.4801 33.7067C36.4267 33.6533 36.3201 33.6533 36.2667 33.7067C35.9467 33.9733 35.5734 34.24 35.2534 34.4533L35.1467 34.56V34.6133V34.6667C35.1467 34.7733 35.0401 34.7733 34.9867 34.8267C34.9334 34.8267 34.8801 34.9333 34.8267 34.9867C34.8267 35.04 34.8267 35.0933 34.8267 35.1467C34.8267 35.2533 34.9334 35.36 35.0934 35.3067H35.1467L35.4134 35.2C35.4667 35.2 35.5201 35.2 35.5734 35.2V35.2533C35.5201 35.3067 35.5201 35.36 35.4667 35.4133C35.4134 35.4667 35.4134 35.5733 35.4667 35.6267C35.5734 35.7333 35.7867 35.7333 35.8934 35.6267C35.9467 35.5733 36.0001 35.52 36.0534 35.4133C36.1067 35.3067 36.1601 35.2533 36.2134 35.2533C36.3734 35.2 36.5334 35.1467 36.6934 35.1467C36.8001 35.1467 36.9067 35.1467 37.0134 35.2533C37.0667 35.2533 37.0667 35.3067 37.0667 35.3067V35.36C37.0134 35.4667 37.0134 35.5733 36.9067 35.68C36.9067 35.7333 36.8534 35.84 36.8534 35.9467C36.8001 36.0533 36.7467 36.1067 36.7467 36.2133C36.7467 36.2667 36.6934 36.32 36.64 36.3733C36.48 36.48 36.3201 36.5867 36.1601 36.7467C35.8934 36.96 35.68 37.28 35.5201 37.5467C35.4667 37.6533 35.4134 37.76 35.4134 37.8133C35.3601 38.08 35.3067 38.4 34.9867 38.1867C34.7201 38.0266 34.4001 37.8666 34.1334 37.6533C34.0267 37.6 33.9201 37.4933 33.8667 37.3867C33.6001 37.0133 33.2801 37.3333 33.1201 37.6C32.8534 38.0267 32.5334 38.4533 32.2134 38.8267C32.1601 38.88 32.1067 38.9867 32.1067 39.04C32.0534 39.1467 32.0001 39.2533 31.8934 39.3067C31.7867 39.4133 31.7334 39.5733 31.7867 39.7333C31.7867 40 31.7334 40.2667 31.5734 40.48C31.4667 40.5867 31.4134 40.7467 31.3601 40.9067C31.3601 41.0667 31.3601 41.1733 31.3601 41.3333C31.3601 41.44 31.4134 41.5467 31.5201 41.5467C31.5734 41.5467 31.5734 41.5467 31.6267 41.5467C31.8401 41.44 32.0534 41.3333 32.2134 41.2267L32.3201 41.1733C32.3734 41.12 32.3734 41.0133 32.3201 40.96C32.3201 40.96 32.3201 40.9067 32.2667 40.9067C32.2134 40.8533 32.1601 40.8533 32.1601 40.8C32.1601 40.7467 32.1601 40.6933 32.1601 40.64C32.1601 40.5867 32.1601 40.5333 32.1601 40.4267C32.1601 40.3733 32.2134 40.2667 32.2667 40.2133L32.5867 39.9467C32.7467 39.84 32.8001 39.6267 32.6934 39.4667V39.36V39.3067C32.6934 39.2533 32.7467 39.1467 32.8001 39.0933L33.0134 38.8267C33.1201 38.6667 33.2801 38.56 33.4401 38.5066C33.6534 38.4533 33.8667 38.56 34.0267 38.72C34.1867 38.9333 34.2934 39.2 34.4001 39.4667C34.4534 39.68 34.5601 39.8933 34.6667 40.1067C34.7201 40.2667 34.9334 40.32 35.0934 40.2667L35.1467 40.2133C35.2001 40.2133 35.2534 40.2133 35.3067 40.2667C35.4134 40.3733 35.4667 40.48 35.5734 40.5333C35.68 40.5867 35.5734 40.6933 35.4667 40.6933H35.2001C35.1467 40.6933 35.0401 40.6933 34.9867 40.6933C34.5067 40.8533 34.0267 40.9067 33.5467 40.9067C33.4934 40.9067 33.4401 40.96 33.3867 41.0133V41.0667L33.3334 41.2267C33.2801 41.3333 33.2801 41.44 33.3334 41.6C33.5467 42.2933 33.6001 42.9867 33.4934 43.68C33.4401 43.9467 33.4934 44.16 33.6534 44.3733C33.7067 44.4267 33.8134 44.48 33.8667 44.5333C33.9201 44.5333 33.9201 44.5867 33.9734 44.5867C34.0267 44.64 34.0801 44.7467 34.0801 44.8533C34.0801 45.0133 34.1334 45.12 34.24 45.2267C34.3467 45.3867 34.5067 45.4933 34.7201 45.6H34.7734C34.8801 45.6533 34.9867 45.6 35.0401 45.4933C35.1467 45.28 35.2001 45.0133 35.2001 44.7467C35.2001 44.64 35.0934 44.5333 34.9867 44.5333C34.9334 44.5333 34.8801 44.5333 34.8801 44.5333H34.8267H34.7201C34.6667 44.48 34.6134 44.4267 34.5601 44.3733C34.5067 44.2133 34.5067 44.0533 34.5601 43.9467V43.84C34.5601 43.7867 34.5601 43.68 34.5601 43.6267C34.5601 43.5733 34.56 43.4667 34.5067 43.4133C34.4534 43.3067 34.4534 43.2533 34.3467 43.2C34.2934 43.2 34.24 43.1467 34.24 43.1467C34.24 43.0933 34.24 43.0933 34.24 43.04C34.2934 42.72 34.2934 42.4 34.24 42.08C34.24 41.9733 34.2401 41.8667 34.2934 41.76C34.5067 41.5467 34.8801 41.76 35.1467 41.8133C35.4667 41.92 35.7867 42.0267 36.1067 42.08C36.64 42.1333 37.1734 41.9733 37.6001 41.6533C37.6001 41.6533 37.6534 41.6 37.7067 41.6533C37.8667 41.76 37.9734 41.8666 38.1334 41.9733C38.5067 42.24 38.9334 42.4 39.4134 42.56C40.0001 42.6133 40.6401 42.6133 41.2267 42.56C41.3867 42.56 41.5467 42.6133 41.6534 42.6667C41.7067 42.6667 41.7067 42.72 41.7067 42.7733C41.7067 42.9867 41.6001 43.2 41.6001 43.4133C41.6001 43.52 41.6534 43.6267 41.7067 43.7333C41.76 43.84 41.8134 43.9467 41.8667 44.0533L41.92 44.16C42.2934 44.5867 42.2934 45.2267 41.92 45.6533C41.7067 45.8667 41.4401 46.08 41.1734 46.24C40.9067 46.4 40.6401 46.5067 40.3201 46.56C40.1067 46.56 39.9467 46.6667 39.7867 46.7733C39.6267 46.9333 39.4134 47.0933 39.2001 47.2C39.0934 47.2533 39.0401 47.3067 38.9867 47.4133C38.8801 47.6267 38.8267 47.8933 38.7734 48.16C38.7734 48.32 38.8801 48.3733 38.9867 48.32C39.2001 48.2667 39.4134 48.2133 39.6267 48.16C39.7334 48.1067 39.7867 48 39.7867 47.8933V47.84L39.7334 47.6267C39.7334 47.6267 39.7334 47.6267 39.7334 47.5733V47.52C39.7334 47.52 39.7334 47.4667 39.7867 47.4667C39.84 47.4133 39.8934 47.36 39.9467 47.36C40.0001 47.3067 40.0534 47.3067 40.1601 47.3067H40.3201C40.5867 47.4133 40.9067 47.3067 41.0667 47.04L41.1201 46.9333C41.1734 46.8267 41.2267 46.7733 41.3334 46.72C41.9201 46.3467 42.5067 46.0267 43.1467 45.8133C43.2001 45.8133 43.2534 45.76 43.2534 45.7066C43.2534 45.6533 43.2534 45.5467 43.2534 45.4933C43.2534 45.28 43.2534 45.0133 43.2534 44.8C43.2534 44.64 43.3067 44.3733 43.5201 44.3733C43.6267 44.3733 43.6801 44.4267 43.7334 44.48C43.9467 44.7467 44.1601 44.9067 44.4801 45.0667C44.5867 45.12 44.6934 45.12 44.7467 45.1733C45.0134 45.28 45.1734 45.4933 45.2267 45.76C45.2801 45.92 45.2267 46.0267 45.12 46.1867C44.9067 46.4533 44.6934 46.7733 44.5334 47.0933C44.4267 47.2533 44.3201 47.4133 44.1601 47.52C43.8934 47.68 43.6801 47.84 43.4667 48.0533C43.3067 48.16 43.1467 48.32 43.04 48.48C42.9334 48.8 42.8267 49.12 42.7201 49.44C42.6667 49.6533 42.7734 49.6533 42.9334 49.6533C43.2001 49.6 43.4134 49.4933 43.6267 49.3867C43.6801 49.3867 43.6801 49.3333 43.7334 49.3333C43.7867 49.28 43.7867 49.2267 43.7867 49.1733C43.7867 49.0667 43.7334 49.0133 43.6801 48.96C43.6267 48.9067 43.6267 48.8 43.6267 48.6933V48.64C43.6801 48.5867 43.7334 48.5333 43.7867 48.5333L44.32 48.3733C44.5334 48.32 44.7467 48.2133 44.9067 48.0533C44.96 48 44.9601 47.9467 44.9601 47.8933V47.84C45.1734 47.0933 45.6534 46.5067 46.2934 46.1333C46.4001 46.08 46.4534 46.0267 46.4534 45.92C46.4534 45.8133 46.4534 45.76 46.4534 45.6533L45.8667 45.12C45.7067 44.9067 45.6001 44.6933 45.6001 44.4267C45.6001 44.16 45.6534 43.8933 45.8134 43.68L45.9201 43.4667C46.0267 43.2533 46.1867 43.2 46.2934 43.04C46.4534 42.88 46.5601 42.72 46.6667 42.5066C46.7734 42.24 46.8801 42.0267 46.9334 41.76C46.9867 41.5467 46.9334 41.3333 46.9334 41.12C46.9334 41.0667 46.9867 40.96 47.0401 40.9067C47.1467 40.8 47.2534 40.6933 47.3601 40.64C47.5201 40.5867 47.6267 40.5867 47.7867 40.64C48.0534 40.6933 48.2134 40.8 48.4801 40.8533C48.6401 40.9067 48.7467 40.9067 48.9067 40.8533C49.0667 40.8 49.1734 40.7467 49.2801 40.64C49.2801 40.5867 49.2801 40.5333 49.2801 40.5333L49.12 40.64ZM40.1601 36.48C40.1601 36.7467 39.9467 37.0133 39.6801 37.0133H39.6267C39.5201 37.0133 39.4667 36.8533 39.4667 36.64V36.3733C39.4667 36.2667 39.4667 36.16 39.4667 36.0533C39.4667 35.9467 39.4667 35.8933 39.4667 35.84V35.5733C39.4667 35.36 39.4667 35.2 39.4667 34.9867C39.4134 34.7733 39.3601 34.5067 39.3067 34.2933C39.2534 34.1333 39.2001 34.0267 39.1467 33.92L39.0401 33.7067C38.9867 33.6533 38.9867 33.6 38.9334 33.5467C38.8801 33.4933 38.7734 33.44 38.7201 33.3867C38.6667 33.3333 38.7201 33.3333 38.7201 33.3333C38.9867 33.1733 39.3067 33.2267 39.5201 33.44C39.8934 33.7067 40.1067 34.1333 40.1067 34.6133C40.2667 35.2533 40.2667 35.8933 40.1601 36.48ZM12.8001 49.28H31.0934C29.3867 47.4667 28.4267 45.0667 28.3734 42.56V42.24H11.6801C11.7867 44.64 12.1601 46.9867 12.8001 49.28ZM39.2534 58.1333H16.4801C17.0667 59.2 17.7601 60.32 18.4534 61.3867C19.3067 62.72 20.2667 64 21.3334 65.1733H39.2534V58.1333ZM68.64 26.56H51.84V32.7467H68.5334C68.48 30.72 68.5867 28.64 68.64 26.56ZM68.8 16.1067C65.76 14.88 62.6667 13.92 59.5201 13.12C55.2001 12.0533 50.7734 11.36 46.3467 10.9867C44.2667 10.7733 42.3467 10.72 40.2134 10.72V17.6H68.8C68.8 17.12 68.8 16.64 68.8 16.1067ZM50.7734 26.2933H29.3334C29.2801 26.2933 29.2801 26.2933 29.2801 26.3467V42.2933C29.3334 45.1733 30.6134 47.8933 32.8534 49.76C34.8801 51.52 37.4401 52.48 40.1067 52.5333C42.08 52.5333 44 51.9467 45.7067 50.9333C47.84 49.6533 49.4934 47.7333 50.3467 45.3867C50.6134 44.5867 50.7734 43.7867 50.8267 42.9333L50.7734 26.2933ZM50.3467 42.7733C50.3467 43.5733 50.1867 44.3733 49.9201 45.12C49.12 47.36 47.5201 49.2267 45.4934 50.4533C43.8934 51.4133 42.0267 51.9467 40.1601 51.9467C37.6001 51.8933 35.1467 50.9867 33.2267 49.28C31.0934 47.52 29.8667 44.9067 29.8134 42.1333V26.8267C29.8134 26.7733 29.8134 26.7733 29.8667 26.7733H50.3467C50.4001 26.7733 50.4001 26.7733 50.4001 26.8267L50.3467 42.7733ZM44.1067 52.5867C43.3601 52.8533 42.6134 53.0667 41.8667 53.1733C41.8667 53.2267 41.92 53.28 41.92 53.3867C41.9734 53.5467 42.1334 53.6533 42.3467 53.6533C42.6134 53.6533 42.7734 53.4933 42.9334 53.12C42.9334 53.12 43.0934 53.0667 43.0934 53.12C43.3067 53.44 43.7334 53.7067 44.0534 53.5467C44.32 53.3867 44.3734 53.0667 44.2134 52.8533V52.8L44.1067 52.5867Z" fill="black"/>
<defs>
<linearGradient id="paint0_linear_2053_1491" x1="9.87333" y1="39.8095" x2="70.1489" y2="39.8095" gradientUnits="userSpaceOnUse">
<stop stop-color="#E1BE78"/>
<stop offset="1" stop-color="#E3AB36"/>
</linearGradient>
<linearGradient id="paint1_linear_2053_1491" x1="5.36272" y1="14.64" x2="68.7816" y2="51.2388" gradientUnits="userSpaceOnUse">
<stop stop-color="#E1BE78"/>
<stop offset="0.34" stop-color="#FFFAD1"/>
<stop offset="0.75" stop-color="#C69632"/>
<stop offset="0.99" stop-color="#FCDC99"/>
</linearGradient>
<linearGradient id="paint2_linear_2053_1491" x1="12.1219" y1="8.52283" x2="67.6156" y2="8.52283" gradientUnits="userSpaceOnUse">
<stop stop-color="#FFE3A8"/>
<stop offset="1" stop-color="#D2A249"/>
</linearGradient>
</defs>
</svg>
