<svg width="80" height="80" viewBox="0 0 80 80" fill="none" xmlns="http://www.w3.org/2000/svg">
<path d="M40.0026 1.67621C41.7918 1.67664 43.7711 2.13671 46.6862 3.82172C55.107 8.68824 67.0069 19.7394 67.3883 39.0737L67.3981 40.0004C67.3859 59.909 55.2406 71.235 46.6862 76.1791C43.7711 77.8637 41.7913 78.3237 40.0026 78.3237C38.2136 78.3237 36.2288 77.8638 33.3141 76.1791C24.7593 71.235 12.6149 59.909 12.6031 40.0004C12.615 20.0919 24.7596 8.76549 33.3141 3.82172C36.0471 2.24227 37.9619 1.73913 39.6647 1.68207L40.0026 1.67621Z" stroke="#808183"/>
<path fill-rule="evenodd" clip-rule="evenodd" d="M44.8139 21.8639L41.5049 20.5154C41.2422 20.4146 41.1297 20.5711 41.1305 20.8292L41.1314 20.8317L41.1264 31.1751L45.7386 38.6445L48.5314 38.6412C49.0195 32.8402 51.0428 27.5644 53.8231 22.7259C53.8783 22.3366 53.6487 22.281 53.3155 22.3366C52.5995 22.7604 51.9044 23.143 51.1536 23.5601L51.1432 23.5618C52.8432 20.4669 55.6583 18.0688 57.7796 17.1686L57.7779 17.167C54.4066 22.9695 51.7097 31.2349 51.9318 38.3531C51.9562 38.5581 52.0438 38.6449 52.3202 38.6449H52.3211L52.9656 38.6436C53.1474 38.6449 53.225 38.7316 53.225 38.8744L53.2233 39.9099C53.225 40.0701 53.1212 40.1394 52.9834 40.1432H27.0165C26.8796 40.139 26.775 40.0697 26.7771 39.9099L26.775 38.8744C26.775 38.7316 26.853 38.6449 27.0344 38.6436L27.6806 38.6449C27.957 38.6449 28.0437 38.5581 28.0682 38.3531C28.2907 31.2349 25.5938 22.9695 22.2225 17.167L22.2208 17.1686C24.3429 18.0688 27.1581 20.4669 28.8576 23.5618L28.8472 23.5601C28.0964 23.143 27.4013 22.7608 26.6857 22.3366C26.3521 22.281 26.1225 22.3366 26.1782 22.7259C28.9589 27.5639 30.9817 32.8402 31.4698 38.6412L34.2626 38.6445L38.8748 31.1751L38.8694 20.8317L38.8703 20.8292C38.8711 20.5711 38.7578 20.4146 38.4955 20.5154L35.1864 21.8639C37.7999 18.8611 39.6074 15.3296 39.9967 11.3814H40.0037C40.3926 15.33 42.2005 18.8611 44.8139 21.8639Z" fill="#C0C2C4"/>
<path fill-rule="evenodd" clip-rule="evenodd" d="M41.1297 35.621L43.0061 38.6445H41.1297V35.621ZM38.8707 35.621L36.9935 38.6445H38.8707V35.621Z" fill="white"/>
<path fill-rule="evenodd" clip-rule="evenodd" d="M51.3669 42.0706C51.5039 42.0665 51.6085 41.9976 51.606 41.8374L51.6085 40.8023C51.6085 40.6595 51.5301 40.5728 51.3491 40.5711H28.651C28.4696 40.5728 28.3916 40.6595 28.3916 40.8023L28.3932 41.8374C28.3916 41.998 28.4957 42.0669 28.6331 42.0706H51.3669ZM52.9847 44.0827C53.1225 44.0794 53.2263 44.0105 53.2246 43.8499L53.2263 42.8148C53.2263 42.6712 53.1483 42.5844 52.9669 42.5836H27.0365C26.8551 42.5844 26.7771 42.6712 26.7771 42.8148L26.7792 43.8499C26.7775 44.0105 26.8817 44.0794 27.0186 44.0827H52.9847ZM51.3669 46.0151C51.5039 46.0118 51.6068 45.9088 51.6068 45.7823L51.6085 44.7463C51.6085 44.6036 51.5305 44.5168 51.3491 44.516H28.651C28.4696 44.5168 28.3916 44.6036 28.3916 44.7463L28.3932 45.7823C28.3916 45.942 28.4957 46.0118 28.6331 46.0151H51.3669Z" fill="#C0C2C4"/>
<path fill-rule="evenodd" clip-rule="evenodd" d="M39.946 54.8557H40.0573V54.9698H39.946V54.8557Z" fill="white"/>
<path fill-rule="evenodd" clip-rule="evenodd" d="M28.0134 47.84C28.3143 48.4721 29.0975 48.9091 29.8441 48.9091C30.4953 48.9091 30.9303 48.7153 31.2656 48.2102C31.2887 48.1824 31.3176 48.1601 31.3503 48.1448C31.383 48.1295 31.4187 48.1216 31.4549 48.1218C31.5308 48.1218 31.625 48.1649 31.6703 48.2189C31.725 48.2811 31.7333 48.2641 31.8761 48.4281C32.3592 48.8813 32.9847 49.2548 33.7807 49.215C33.6105 49.0813 33.4715 48.9327 33.3159 48.8033C33.1503 48.6551 32.8631 48.2463 33.0631 48.2243C33.7931 48.1853 34.3231 49.2544 35.7392 49.215C35.4703 49.0025 35.4267 48.9589 35.2483 48.8087C35.0702 48.6983 34.5751 48.1512 35.037 48.2625C35.2873 48.3417 35.6782 48.5161 36.4062 48.5073C37.103 48.5161 37.2944 48.3857 37.7497 48.2218C37.1728 48.9327 37.9721 49.5673 38.483 49.979C38.5805 50.0795 38.4589 50.1492 38.2875 50.1006C37.9418 50.0405 37.6417 49.7665 37.2421 49.9961C36.7034 50.3227 36.439 50.6535 36.0671 50.8585C35.97 51.0531 36.1991 51.2964 36.2929 51.442C35.4865 51.5392 35.8517 52.8079 34.8714 52.8112C34.69 52.8129 34.6033 52.8996 34.6033 53.0424L34.6054 54.6075C34.6054 54.7341 34.7079 54.8378 34.8453 54.8407L36.8565 54.8374C36.1476 55.8663 36.0953 56.7877 36.8876 58.315L18.8848 58.32C22.684 65.9536 29.2871 71.523 33.9683 74.2281C36.5531 75.7223 38.3535 76.3116 40.0029 76.3116C41.6522 76.3116 43.4485 75.7223 46.0337 74.2281C50.714 71.523 57.3188 65.947 61.1185 58.3125L43.1189 58.3141C43.9108 56.7868 43.8589 55.8655 43.1496 54.8366L45.1609 54.8399C45.2987 54.8358 45.4008 54.7328 45.4008 54.6067L45.3941 53.0416C45.3941 52.898 45.3157 52.8121 45.1339 52.8104C44.154 52.8071 44.5197 51.5387 43.7128 51.4412C43.8071 51.2951 44.0361 51.0519 43.939 50.8577C43.5672 50.6526 43.3028 50.3219 42.7637 49.9952C42.364 49.7657 42.0639 50.0396 41.7186 50.099C41.5476 50.1484 41.426 50.0787 41.5231 49.9782C42.0336 49.5665 42.833 48.9319 42.2561 48.221C42.7118 48.3849 42.9031 48.5152 43.6 48.5065C44.3279 48.5152 44.7185 48.3413 44.9691 48.2616C45.4311 48.1496 44.9359 48.6978 44.7575 48.8078C44.5798 48.9576 44.5363 49.0016 44.2669 49.2141C45.683 49.254 46.213 48.1849 46.9426 48.2226C47.1427 48.2455 46.8559 48.6538 46.6899 48.802C46.5342 48.9315 46.3956 49.0793 46.2254 49.2137C47.0215 49.2536 47.6473 48.8796 48.1304 48.426C48.2724 48.2629 48.2811 48.2799 48.3355 48.2176C48.3807 48.1633 48.4749 48.1197 48.5513 48.1197C48.6277 48.1197 48.6957 48.1546 48.7401 48.2089C49.0759 48.714 49.51 48.9078 50.162 48.9078C50.9087 48.9078 51.6918 48.4708 51.9923 47.8387L52.9847 47.8412C53.1216 47.8379 53.2237 47.7341 53.2237 47.608V46.7049C53.2237 46.5783 53.1113 46.472 52.973 46.4691L27.019 46.465C26.8816 46.4683 26.7766 46.5712 26.7766 46.6978V47.6009C26.7766 47.7275 26.8791 47.8313 26.9899 47.8342L28.0134 47.84Z" fill="#C0C2C4"/>
<path fill-rule="evenodd" clip-rule="evenodd" d="M36.5776 52.7876L39.3667 52.7917V52.3314C39.3704 52.2966 39.431 51.618 38.8748 52.1766C38.6316 52.3925 38.4664 52.4613 38.1938 52.5626C37.5264 52.7295 36.9288 52.4273 36.5847 52.0675L36.5776 52.7876ZM39.9473 54.8565H40.0585V54.9706H39.9473V54.8565ZM38.1539 54.8598H38.6931V54.9204H38.1539V54.8598ZM43.4269 52.7871L40.6375 52.7913V52.331C40.6342 52.2962 40.5736 51.6176 41.1297 52.1762C41.3729 52.3912 41.5381 52.4609 41.8108 52.5622C42.4786 52.7282 43.0762 52.4261 43.4207 52.0671L43.4269 52.7871ZM41.304 54.859H41.8419V54.9196H41.304V54.859ZM27.522 65.1099L26.2421 61.7556H26.2321C26.2321 62.2478 26.2421 62.9251 26.2421 63.0816V66.2413H25.7677V60.8911H26.4687L27.5034 63.5888H27.5133L28.5426 60.8911H29.239V66.2413H28.7646V63.0816C28.7646 62.9251 28.7746 62.2474 28.7746 61.7481H28.7646L27.5283 65.1099H27.522ZM41.1281 66.2421H38.8703V60.8915H41.0924V61.3924H39.3596V63.4004H41.0646V63.9005H39.3596V65.7411H41.1281V66.2421ZM44.2229 65.3572C44.0408 65.1991 43.8233 65.1036 43.3742 65.0945H43.1787V66.2425H42.6633V60.8915H43.3651C44.5873 60.889 45.446 61.844 45.4427 62.977C45.4394 64.1474 44.97 64.66 44.2599 64.8721C44.709 65.0074 44.8393 65.1987 44.9376 65.6349L45.0194 66.2446L44.4616 66.2421C44.445 65.8686 44.4151 65.5668 44.2229 65.3572ZM43.1787 64.5894H43.3929C44.6056 64.5903 44.9526 63.8606 44.9468 62.9729C44.941 62.1486 44.4051 61.3493 43.4008 61.3534H43.1787V64.5894ZM53.5716 66.2413H53.0818V60.8915H53.5716V66.2413ZM52.0762 60.8907V61.321H50.9365V66.2408H50.4468V61.321H49.3071V60.8907H52.0762ZM31.0768 65.246L30.8373 66.2413H30.3326L31.6952 60.8911H32.2501L33.5624 66.2413H33.0275L32.8083 65.246H31.0768ZM32.6319 64.7451L31.9579 61.6883H31.9479L31.2283 64.7451H32.6319ZM46.9759 65.2443L46.736 66.2404H46.2317L47.5943 60.8894H48.1496L49.4611 66.2404H48.9261L48.7074 65.2443H46.9759ZM48.5306 64.7442L47.8561 61.6875H47.8466L47.1278 64.7442H48.5306ZM36.4552 63.9772C36.8545 64.1727 37.3168 64.3695 37.3143 64.9459C37.3118 65.5768 36.6059 65.8669 36.1564 65.8524C35.7501 65.8395 35.2877 65.7299 34.7324 65.5419L34.6905 65.9619C35.2533 66.1582 35.4587 66.2649 36.1767 66.2637C37.1881 66.2612 37.8041 65.6793 37.807 64.9464C37.8103 64.0702 37.1537 63.7618 36.6013 63.5149L35.8102 63.1459C35.4849 62.9911 34.9627 62.7259 34.9511 62.1171C34.9387 61.4509 35.5919 61.3123 36.1518 61.3127C36.5805 61.3136 36.8972 61.3816 37.4305 61.5883L37.455 61.1434C36.9831 60.9878 36.7262 60.8857 36.1232 60.8848C35.0101 60.8832 34.4336 61.3389 34.4332 62.1162C34.4327 62.9853 35.2201 63.419 35.6646 63.6079L36.4552 63.9772Z" fill="white"/>
</svg>
