<svg width="672" height="344" viewBox="0 0 672 344" fill="none" xmlns="http://www.w3.org/2000/svg">
<path d="M335.7 343.879C521.142 343.879 671.502 266.872 671.502 171.965C671.502 76.9547 521.142 0 335.7 0C150.309 0 0 76.9033 0 171.965C0 266.872 150.309 343.879 335.7 343.879ZM398.971 259.465C393.313 272.479 383.693 300.206 361.574 311.265C354.525 314.484 346.894 316.235 339.146 316.409H335.751C273.817 316.409 216.101 307.767 167.85 293.107L165.998 292.387C161.523 290.895 159.259 288.837 159.259 286.265C159.259 284.105 160.442 282.407 162.037 280.813L165.072 278.138C176.286 268.879 209.825 244.547 273.045 220.268C295.216 211.831 322.994 201.286 352.058 195.113C369.084 191.564 432.305 181.893 398.92 259.516M568.57 86.1626C569.753 84.1049 571.348 82.356 574.228 82.2017C575.772 82.0473 577.932 82.4074 581.173 84.465C620.576 108.693 643.982 139.043 643.982 171.914C643.982 231.121 567.798 282.099 458.796 304.372C451.8 305.761 447.119 305.71 445.576 303.961C444.444 302.932 444.136 300.977 445.576 298.611C446.388 297.173 447.354 295.828 448.457 294.599C507.819 224.64 553.035 121.399 565.844 91.6667C566.872 89.6091 567.798 87.5514 568.57 86.1626ZM273.508 84.0021C279.167 71.0391 288.786 43.3128 310.905 32.3045C317.593 28.9609 325.926 27.3663 333.282 27.1605H336.626C398.663 27.1605 456.276 35.6996 504.63 50.463C504.99 50.6173 506.121 50.9774 506.481 51.1831C510.905 52.6749 513.169 54.7325 513.169 57.2531C513.169 59.465 511.986 61.1111 510.442 62.6543C509.722 63.3745 508.745 64.1975 507.356 65.3292C496.245 74.6914 462.654 98.9712 399.434 123.2C377.161 131.687 349.434 142.232 320.473 148.354C303.395 151.955 240.123 161.626 273.508 84.0021ZM212.706 39.3519C219.702 38.0144 224.331 38.0144 226.029 39.7634C227.058 40.8951 227.315 42.7469 225.977 45.0617C225.136 46.4936 224.154 47.8378 223.045 49.0741C163.683 119.084 118.467 222.274 105.556 252.109C104.63 254.167 103.652 256.224 102.829 257.562C101.698 259.619 100.103 261.42 97.2737 261.574C95.7304 261.728 93.5185 261.265 90.2263 259.259C50.823 235.082 27.5206 204.733 27.5206 171.862C27.5206 112.603 103.652 61.6255 212.706 39.4033" fill="#C0C2C4"/>
</svg>
