<svg width="80" height="80" viewBox="0 0 80 80" fill="none" xmlns="http://www.w3.org/2000/svg">
<path fill-rule="evenodd" clip-rule="evenodd" d="M19.4409 53.0739C20.2453 54.0791 28.1828 64.4014 40 64.4014C48.592 64.4014 56.1705 59.9211 60.52 53.1777L40.3308 45.451V40.7242L60.3636 52.1351C60.8483 52.3775 61.0098 52.2567 60.5653 51.8927L42.8753 38.9873L44.6127 38.0178L61.2912 51.8961C63.3339 48.2642 64.4052 44.1669 64.4014 40C64.4014 26.7505 53.7475 15.9103 40.5686 15.606L44.2902 37.1695L40.1693 39.5933L39.9386 15.9049C39.9386 15.6222 39.7369 15.6222 39.6962 15.9049L37.4222 38.3004L35.7256 37.2902L39.182 15.6139C26.1184 16.048 15.599 26.8339 15.599 39.9996C15.5952 44.1211 16.6431 48.1755 18.6437 51.779L35.2408 37.9771L36.9781 38.9873L19.2986 51.8757C18.8138 52.1982 18.935 52.3605 19.5007 52.0774L39.5638 40.6835V45.4104L19.5339 53.0461C19.4023 53.0959 19.5455 53.0374 19.4409 53.0739ZM40 14.3742C54.114 14.3742 65.6253 25.886 65.6253 40C65.6253 54.114 54.114 65.6253 40 65.6253C25.886 65.6253 14.3742 54.114 14.3742 40C14.3742 25.886 25.886 14.3742 40 14.3742ZM40 75.159C59.365 75.159 75.159 59.365 75.159 40C75.159 20.6354 59.365 4.84134 40 4.84134C20.6354 4.84134 4.84134 20.6354 4.84134 40C4.84134 59.365 20.6354 75.159 40 75.159ZM40 76.4706C60.0871 76.4706 76.4706 60.0871 76.4706 40C76.4706 19.9128 60.0871 3.52942 40 3.52942C19.9128 3.52942 3.52942 19.9128 3.52942 40C3.52942 60.0871 19.9128 76.4706 40 76.4706ZM70.1006 25.9823C70.0293 25.8353 69.8591 25.8324 69.813 25.9462C69.647 26.4998 69.7176 26.924 70.0222 27.5826C70.6165 28.8813 71.1191 30.2197 71.4731 31.6205C71.525 31.7757 71.6408 31.8018 71.7325 31.7105C72.0795 31.0672 71.9571 30.2027 71.4993 29.022C71.076 27.9902 70.6219 26.9717 70.1006 25.9823ZM67.1929 33.0748C67.29 33.1113 67.3946 33.0274 67.3598 32.8913L66.0545 29.3926C65.8445 28.8381 65.4141 28.4679 64.9609 28.3621C64.8297 28.3251 64.7243 28.4314 64.7899 28.5372C65.1862 29.4337 65.5598 30.3405 65.8955 31.2631C66.213 32.0824 66.6646 32.8303 67.1929 33.0748ZM73.2628 38.439C73.2545 38.2759 73.0988 38.2062 73.0121 38.2925C72.6406 38.7366 72.5394 39.1546 72.5614 39.88C72.5979 41.3078 72.5348 42.7355 72.3103 44.1636C72.2974 44.3267 72.3937 44.3956 72.5136 44.3475C73.0851 43.8926 73.3122 43.0496 73.3549 41.7834C73.3707 40.669 73.3528 39.5538 73.2628 38.439ZM67.8034 43.8199C67.879 43.8922 68.0076 43.8556 68.0288 43.717L68.2023 39.9867C68.2276 39.3945 67.9769 38.8856 67.6017 38.61C67.4955 38.5245 67.3569 38.5806 67.3747 38.7038C67.3876 39.6846 67.3755 40.6649 67.3212 41.6456C67.2921 42.5221 67.4129 43.3871 67.8034 43.8199ZM71.3254 51.3731C71.386 51.2225 71.2727 51.0942 71.1586 51.1366C70.6364 51.3864 70.3708 51.7242 70.0894 52.3929C69.5283 53.7068 68.8775 54.9785 68.0798 56.185C68.0006 56.3278 68.0587 56.4307 68.1878 56.4369C68.897 56.2601 69.454 55.5882 70.0189 54.4543C70.4962 53.4466 70.944 52.4252 71.3254 51.3731ZM64.1233 53.9994C64.1615 54.0957 64.2943 54.1169 64.3707 53.9994C64.9405 52.8921 65.5095 51.7848 66.0794 50.6784C66.3475 50.15 66.3321 49.5823 66.1051 49.1764C66.0437 49.0539 65.8951 49.0481 65.8602 49.1676C65.4664 50.066 65.0425 50.951 64.5894 51.8209C64.1972 52.6062 63.9474 53.4437 64.1233 53.9994ZM67.2215 25.8378C67.2435 25.9839 67.1219 26.0844 67.0157 26.0155C66.0707 25.3423 65.5614 24.5114 65.4294 23.3277C65.4286 23.1775 65.5614 23.1248 65.6872 23.1924C66.6256 23.9341 67.1016 24.7558 67.2215 25.8378ZM64.3462 62.5765C64.4587 62.4582 64.4014 62.2976 64.279 62.2951C63.7008 62.3341 63.3298 62.5495 62.8206 63.0667C61.8137 64.0806 60.7387 65.0219 59.553 65.8478C59.4256 65.9507 59.4418 66.0682 59.5596 66.1217C60.2843 66.2197 61.0496 65.8009 61.9938 64.9559C62.8102 64.1972 63.6029 63.4132 64.3462 62.5765ZM56.6835 62.3553C56.6835 62.4591 56.7984 62.5271 56.9138 62.4462L59.7281 59.9925C60.1731 59.6003 60.3685 59.0674 60.3075 58.6063C60.2955 58.4702 60.1594 58.4092 60.083 58.5067C59.3858 59.1966 58.665 59.8623 57.9219 60.5026C57.267 61.0878 56.7266 61.7734 56.6835 62.3553ZM70.3106 33.7654C70.4298 33.6898 70.5402 33.6222 70.6389 33.4956C70.9257 33.0806 70.9 32.4692 70.7111 31.8122C70.2654 30.4858 69.8574 29.2158 69.3021 27.9358C69.0045 27.2892 68.8447 26.3255 68.9813 25.8524C69.1938 25.1136 69.5212 24.4118 69.6839 23.6942C69.7441 23.5103 70.0035 23.5473 70.145 23.7689C70.9776 25.1717 71.6699 26.6343 72.2982 28.1238C73.0416 29.7757 73.0689 31.552 72.3339 32.8623C71.8678 33.6305 71.1245 34.3335 70.4866 34.7664C70.4582 34.7848 70.4357 34.811 70.4219 34.8418C70.408 34.8727 70.4034 34.9069 70.4086 34.9403C70.4767 35.4346 70.5617 35.9339 70.6203 36.4361C70.6298 36.5614 70.7248 36.5751 70.7792 36.5336C71.2162 36.1966 71.6109 35.7862 72.0015 35.3537C72.042 35.3137 72.0707 35.2632 72.0843 35.2079C72.098 35.1526 72.096 35.0946 72.0787 35.0403C72.045 34.9158 72.0404 34.7852 72.0653 34.6586C72.0902 34.5321 72.1438 34.4129 72.2221 34.3104C72.3003 34.2078 72.4011 34.1246 72.5167 34.0673C72.6322 34.0099 72.7594 33.9799 72.8884 33.9795C73.3503 33.9795 73.7272 34.3568 73.7272 34.8191C73.7269 34.9519 73.6951 35.0827 73.6346 35.2008C73.574 35.3189 73.4863 35.421 73.3787 35.4987C73.2711 35.5765 73.1466 35.6276 73.0154 35.648C72.8843 35.6684 72.7501 35.6574 72.624 35.616C72.5348 35.584 72.3866 35.6164 72.3128 35.7044C71.9724 36.0215 71.645 36.3909 71.3466 36.7391C71.0718 37.0686 70.9249 37.4683 70.839 37.8734C70.7829 38.1377 70.7784 38.3286 70.7896 38.5943C70.8911 40.9257 70.7246 43.261 70.2932 45.5544C70.2745 45.6316 70.3169 45.693 70.3717 45.6834C70.5214 45.6621 70.6675 45.6206 70.8062 45.5602C71.2333 45.2912 71.4499 44.7189 71.5333 44.0403C71.6446 42.6454 71.7682 41.3169 71.7603 39.922C71.7408 39.2106 71.972 38.2614 72.2833 37.8804C72.768 37.284 73.3454 36.7673 73.7774 36.1713C73.9048 36.0256 74.1294 36.1622 74.1721 36.4216C74.3871 38.0385 74.4493 39.6551 74.4419 41.2716C74.4767 43.0833 73.8048 44.728 72.6141 45.6432C71.8836 46.167 70.9241 46.5218 70.1675 46.6696C70.1131 46.6783 70.0458 46.7343 70.0338 46.7945C69.9279 47.2522 69.8111 47.7074 69.6835 48.1595C69.6333 48.3069 69.6794 48.4011 69.8433 48.3475C70.3936 48.1861 70.9959 47.9665 71.496 47.6934C71.6022 47.6407 71.6628 47.5498 71.672 47.4228C71.6771 47.3483 71.692 47.2748 71.7164 47.2041C71.7902 46.9943 71.9442 46.8223 72.1445 46.7257C72.3449 46.6291 72.5753 46.6158 72.7855 46.6887C72.9956 46.7623 73.1679 46.9164 73.2646 47.117C73.3612 47.3176 73.3743 47.5484 73.3009 47.7586C73.2567 47.8837 73.1836 47.9965 73.0874 48.088C72.9913 48.1794 72.8749 48.2467 72.7477 48.2846C72.6206 48.3224 72.4863 48.3296 72.3558 48.3057C72.2253 48.2817 72.1023 48.2272 71.9969 48.1467C71.923 48.0865 71.7724 48.0682 71.6744 48.1272C71.2482 48.3143 70.8178 48.5542 70.4206 48.7854C70.0268 49.0203 69.5744 49.447 69.2436 49.8724C69.0954 50.062 69.0369 50.187 68.956 50.4082C68.1436 52.6164 67.0789 54.7233 65.7831 56.6872C65.7532 56.7304 65.7602 56.7835 65.8121 56.7976C65.915 56.8213 66.0196 56.83 66.1317 56.8308C66.6318 56.7644 67.0663 56.3332 67.4245 55.7509C68.1047 54.5278 68.77 53.3711 69.3424 52.099C69.6204 51.4441 70.2251 50.6763 70.6667 50.4592C71.3549 50.1189 72.0949 49.8885 72.7353 49.5262C72.9121 49.4461 73.0586 49.6632 72.9905 49.9176C72.5141 51.4773 71.8986 52.9735 71.22 54.4406C70.4986 56.1024 69.2042 57.3193 67.7399 57.6571C66.9202 57.8177 65.981 57.7634 65.2506 57.6102C65.1987 57.599 65.1381 57.6239 65.1144 57.658C64.7884 58.1135 64.45 58.5601 64.0997 58.9973C64.0632 59.045 64.0536 59.0898 64.1287 59.1019C64.7206 59.1799 65.4012 59.226 65.9997 59.1716C66.0567 59.1699 66.1121 59.1523 66.1597 59.1208C66.2072 59.0892 66.2449 59.045 66.2686 58.9931C66.3284 58.8787 66.4137 58.7795 66.518 58.7033C66.6222 58.6271 66.7426 58.5759 66.8698 58.5537C66.997 58.5315 67.1275 58.5388 67.2514 58.5751C67.3754 58.6115 67.4892 58.6758 67.5843 58.7632C67.923 59.077 67.945 59.6103 67.6304 59.9498C67.5401 60.0471 67.4281 60.1217 67.3034 60.1674C67.1788 60.2131 67.0451 60.2287 66.9133 60.2128C66.7815 60.1968 66.6553 60.1499 66.5452 60.0759C66.435 60.0018 66.3439 59.9027 66.2794 59.7867C66.2359 59.7024 66.1051 59.6252 65.9918 59.6406C65.5266 59.6414 65.0352 59.6908 64.5799 59.7443C64.2039 59.7937 63.7386 59.946 63.3219 60.1432C63.0252 60.2835 62.9247 60.3797 62.7068 60.6176C61.0461 62.4183 59.1772 64.0154 57.1396 65.3751C57.0935 65.4133 57.0844 65.4722 57.1259 65.5062C57.2458 65.6013 57.3562 65.666 57.5036 65.7274C57.9933 65.8507 58.5565 65.6108 59.1043 65.202C60.188 64.3176 61.2339 63.4883 62.2349 62.5172C62.7359 62.0112 63.5821 61.5227 64.0719 61.4837C64.838 61.4215 65.6104 61.4812 66.34 61.3808C66.533 61.3721 66.5899 61.6282 66.4326 61.839C65.4128 63.1115 64.2885 64.2748 63.1156 65.3888C61.8315 66.6654 60.1789 67.3178 58.6939 67.0912C57.8094 66.9252 56.8885 66.477 56.2589 66.0317C56.2376 66.0165 56.2121 66.0083 56.186 66.0081C56.1598 66.008 56.1343 66.0159 56.1128 66.0308C55.6151 66.3352 55.1089 66.6253 54.5946 66.9007C54.5216 66.9468 54.4688 66.9202 54.4365 66.8455L54.2929 66.56C54.2588 66.4816 54.2904 66.4172 54.3643 66.377C54.8578 66.1114 55.3439 65.8321 55.8219 65.5394C55.8762 65.5029 55.8916 65.4552 55.8812 65.4083C55.7459 64.7185 55.7434 64.1495 55.7775 63.3825C55.8032 62.2656 56.0821 61.1272 56.7827 60.4416C57.7991 59.5053 58.6051 58.9807 59.1616 58.4013C59.6389 57.9157 60.007 57.4351 60.4262 56.9188C60.5412 56.7947 60.757 56.7939 60.8284 56.986C61.6651 59.0263 61.0886 60.3308 59.8522 61.3771C58.9823 62.0947 58.095 62.7932 57.2259 63.5107C56.8362 63.8781 56.6486 64.3375 56.7158 64.8305C56.7216 64.8994 56.7744 64.9351 56.8179 64.9036C58.8184 63.5698 60.653 62.0027 62.2831 60.2353C62.4873 60.0141 62.5329 59.8585 62.5993 59.6273C62.7849 58.9172 62.8069 58.1884 62.5773 57.4272C62.5499 57.3168 62.43 57.2238 62.335 57.2139C62.2033 57.1968 62.0775 57.1487 61.9679 57.0737C61.8584 56.9986 61.7681 56.8986 61.7047 56.782C61.6412 56.6653 61.6062 56.5353 61.6026 56.4025C61.5991 56.2698 61.627 56.1381 61.6842 56.0182C61.8842 55.6015 62.3868 55.4238 62.8044 55.6235C63.2219 55.8231 63.3987 56.3261 63.1991 56.7436C63.1659 56.8125 63.1244 56.8748 63.0758 56.93C63.0366 56.9714 63.0097 57.0229 62.9981 57.0788C62.9865 57.1347 62.9907 57.1926 63.0102 57.2463C63.1592 57.7497 63.319 58.2378 63.5307 58.6901C63.5444 58.73 63.5884 58.7283 63.6116 58.6951C63.9494 58.2743 64.2578 57.8422 64.5932 57.4031C64.6214 57.3724 64.6143 57.3052 64.5923 57.2653C64.1553 56.62 63.9308 56.068 63.6602 55.2898C63.2709 54.2418 63.1107 53.081 63.507 52.1853C64.1059 50.9402 64.6612 50.1546 64.9646 49.4096C65.2282 48.7829 65.3925 48.1994 65.5913 47.5656C65.6527 47.4075 65.8524 47.3274 65.9902 47.4797C67.5212 49.0651 67.4681 50.4912 66.7061 51.9201C66.1628 52.9083 65.5963 53.8849 65.0543 54.8731C64.8032 55.4114 64.8256 55.9634 65.1572 56.427C65.1929 56.4772 65.2423 56.4739 65.2755 56.432C66.7534 54.4929 67.7018 52.2381 68.521 49.9284C68.5712 49.7815 68.5804 49.6283 68.5567 49.4607C68.4442 48.7377 68.174 48.0624 67.6619 47.4569C67.5922 47.366 67.4448 47.3278 67.3548 47.3573C67.2271 47.3942 67.0926 47.4003 66.9622 47.3751C66.8317 47.3499 66.7091 47.2942 66.6044 47.2125C66.4996 47.1307 66.4158 47.0253 66.3596 46.9049C66.3035 46.7845 66.2767 46.6525 66.2815 46.5197C66.2985 46.0574 66.6899 45.6946 67.1522 45.7117C67.2812 45.7168 67.4072 45.7515 67.5205 45.8131C67.6338 45.8747 67.7315 45.9616 67.8058 46.067C67.8802 46.1724 67.9293 46.2936 67.9493 46.421C67.9693 46.5485 67.9598 46.6788 67.9213 46.802C67.8831 46.9236 67.9068 47.0306 67.986 47.1182C68.2932 47.4847 68.6028 47.8358 68.9377 48.1446C69.0245 48.2226 69.0884 48.194 69.1153 48.069C69.2482 47.6013 69.3698 47.1294 69.4802 46.653C69.4988 46.5953 69.4615 46.5247 69.4196 46.489C68.8456 46.1171 68.4397 45.7295 67.9201 45.1854C67.1307 44.3952 66.5015 43.4062 66.4903 42.4263C66.5168 41.045 66.6953 40.1 66.6621 39.2965C66.6409 38.6163 66.5488 38.0174 66.4649 37.3583C66.4554 37.189 66.6036 37.0325 66.7916 37.1143C68.8439 37.9203 69.388 39.2388 69.2892 40.8562C69.2058 41.9797 69.0963 43.104 69.0137 44.2283C69.0095 44.7683 69.2154 45.2244 69.625 45.5166C69.6856 45.5635 69.7221 45.5116 69.7304 45.4606C70.1075 43.4553 70.2789 41.4167 70.2417 39.3766C70.2189 38.2266 69.2697 36.9665 68.3044 36.3963C68.2089 36.334 68.057 36.3465 67.9811 36.4037C67.8727 36.4804 67.7478 36.5303 67.6165 36.5495C67.4852 36.5686 67.3512 36.5564 67.2255 36.5138C67.0998 36.4712 66.986 36.3995 66.8933 36.3044C66.8007 36.2094 66.7318 36.0938 66.6924 35.9671C66.6271 35.7544 66.6489 35.5245 66.7528 35.3278C66.8567 35.131 67.0344 34.9835 67.2469 34.9175C67.3703 34.8796 67.5008 34.8707 67.6282 34.8914C67.7557 34.9121 67.8766 34.9618 67.9817 35.0368C68.0868 35.1118 68.1733 35.2099 68.2343 35.3237C68.2954 35.4375 68.3295 35.5637 68.3338 35.6928C68.3372 35.8202 68.3953 35.9127 68.499 35.9696C68.9846 36.2589 69.4685 36.5274 69.9678 36.7196C70.0488 36.7474 70.0774 36.6876 70.0633 36.5955C70.0045 36.063 69.9313 35.5323 69.8437 35.0038C69.8367 34.9767 69.8221 34.9521 69.8016 34.933C69.781 34.9139 69.7555 34.901 69.7279 34.8959C69.0543 34.7789 68.5281 34.5817 67.8366 34.2858C66.7999 33.8687 65.8329 33.2063 65.4382 32.3094C64.9202 31.0286 64.7135 30.089 64.3674 29.3635C64.0814 28.7464 63.7602 28.2322 63.4253 27.6586C63.3489 27.5067 63.4244 27.3046 63.6294 27.3058C65.8337 27.2411 66.8509 28.24 67.3955 29.7661C67.7603 30.8323 68.1006 31.9093 68.4654 32.976C68.6762 33.4782 69.0489 33.8185 69.5462 33.9231C69.6047 33.9372 69.6296 33.87 69.62 33.806C69.215 31.8588 68.6155 29.9571 67.8304 28.1296C67.6789 27.754 67.4673 27.5187 67.1439 27.2635C65.4303 25.8744 64.5201 24.643 64.34 21.822C64.335 21.6423 64.4317 21.6099 64.5882 21.695C66.5359 22.6429 68.4604 23.6133 68.1952 26.8833C68.1628 27.2896 68.1902 27.5386 68.3592 27.9122C69.1588 29.7751 69.7693 31.7136 70.1816 33.6985C70.1915 33.7753 70.2554 33.806 70.3106 33.7654ZM58.945 18.0688L60.0191 19.0155C59.7265 19.4044 59.5879 19.7709 59.6032 20.1166C59.6186 20.4603 59.7767 20.7952 60.0805 21.121C60.4013 21.4655 60.7176 21.658 61.0264 21.6954C61.336 21.7348 61.5883 21.6634 61.7834 21.4816C61.9091 21.3642 61.9805 21.2281 61.9992 21.0724C62.0204 20.9168 61.9772 20.7167 61.8701 20.4731C61.7979 20.3071 61.6074 19.9489 61.3028 19.3998C60.9097 18.693 60.7093 18.1274 60.7014 17.7032C60.6894 17.1055 60.8927 16.6108 61.3127 16.219C61.5825 15.9671 61.9062 15.8086 62.2847 15.7418C62.6624 15.6762 63.0476 15.7301 63.4389 15.9028C63.8303 16.0779 64.2163 16.3672 64.5956 16.7748C65.2174 17.4413 65.5382 18.0771 65.561 18.686C65.5822 19.2948 65.3576 19.8344 64.8858 20.3063L63.8407 19.2795C64.071 18.979 64.1748 18.6976 64.1528 18.4361C64.1325 18.1738 63.981 17.8924 63.6996 17.5911C63.4095 17.2799 63.1194 17.0943 62.8264 17.0387C62.7403 17.0185 62.6505 17.0204 62.5653 17.0441C62.4802 17.0678 62.4024 17.1127 62.3391 17.1744C62.2134 17.2919 62.1553 17.445 62.1656 17.6343C62.1777 17.875 62.3648 18.3141 62.7288 18.9487C63.0911 19.585 63.3232 20.0888 63.4253 20.4603C63.5257 20.8325 63.5282 21.1949 63.4327 21.5497C63.3356 21.9033 63.119 22.2362 62.7849 22.5483C62.4823 22.8314 62.1036 23.02 61.6954 23.0907C61.2721 23.1688 60.8525 23.1152 60.4366 22.9264C60.0191 22.7384 59.5953 22.4134 59.1658 21.9527C58.5407 21.282 58.2149 20.6234 58.1896 19.9751C58.1643 19.3268 58.4166 18.6906 58.945 18.0688ZM52.9166 16.703L57.179 10.8365L61.5281 13.9961L60.8068 14.9893L57.6422 12.69L56.6972 13.9903L59.6422 16.1298L58.9246 17.1172L55.9796 14.9777L54.8196 16.5743L58.0962 18.9549L57.3782 19.944L52.9166 16.703ZM50.7962 9.27803L48.9975 13.7301L50.0097 14.1393C50.3883 14.2925 50.6713 14.3825 50.8577 14.4074C51.0992 14.441 51.3188 14.4228 51.5184 14.3501C51.7172 14.2775 51.9222 14.1074 52.136 13.8442C52.3484 13.5803 52.5614 13.1876 52.7714 12.668C52.9814 12.1484 53.0947 11.7317 53.1167 11.4163C53.137 11.1004 53.0963 10.8307 52.9942 10.6095C52.8921 10.3858 52.7245 10.1965 52.4933 10.0392C52.3215 9.91884 51.9583 9.74868 51.4047 9.52456L50.7962 9.27803ZM49.8981 7.59176L52.3796 8.59406C52.939 8.81984 53.3474 9.03441 53.6068 9.23902C53.9492 9.50674 54.2126 9.86232 54.3688 10.2679C54.5319 10.6775 54.5992 11.1274 54.573 11.6159C54.5448 12.1052 54.4045 12.6639 54.1497 13.2947C53.926 13.8475 53.6641 14.297 53.364 14.6423C52.9992 15.0632 52.6004 15.362 52.165 15.538C51.8367 15.6733 51.4474 15.7231 50.9946 15.6899C50.6576 15.6641 50.2376 15.5496 49.735 15.3466L47.1817 14.3153L49.8981 7.59176ZM41.4588 13.3856L42.6529 6.23336L47.9549 7.11862L47.7532 8.32927L43.8947 7.68514L43.6303 9.27056L47.2203 9.86987L47.0194 11.0739L43.4294 10.4746L43.1044 12.4211L47.0991 13.088L46.8982 14.2937L41.4588 13.3856ZM39.944 10.7136L41.3957 11.0374C41.2484 11.845 40.9392 12.4622 40.4686 12.8896C39.9992 13.3155 39.3749 13.5632 38.5997 13.6309C37.6409 13.7147 36.8237 13.4562 36.1493 12.8556C35.4749 12.2538 35.0864 11.3843 34.9872 10.2492C34.8818 9.04686 35.1113 8.08606 35.6737 7.36598C36.2361 6.64756 37.0225 6.2429 38.0352 6.15408C38.918 6.07689 39.6592 6.27486 40.2569 6.74966C40.613 7.02856 40.8973 7.45106 41.1131 8.01509L39.6987 8.48615C39.5816 8.11843 39.3779 7.83787 39.0861 7.64488C38.7964 7.45148 38.4573 7.37304 38.0705 7.40665C37.5355 7.45355 37.1168 7.68348 36.8175 8.09768C36.5179 8.51022 36.4058 9.14688 36.4809 10.0085C36.561 10.922 36.781 11.5582 37.1446 11.9164C37.5065 12.2762 37.9506 12.4323 38.4756 12.3862C38.864 12.3522 39.1861 12.2003 39.4438 11.9288C39.7012 11.6587 39.8672 11.2523 39.944 10.7136ZM29.9695 10.929L31.01 10.6306C31.6848 10.4368 32.0994 10.2882 32.2517 10.1832C32.4024 10.0786 32.5057 9.94167 32.5614 9.77483C32.6153 9.6084 32.6145 9.42039 32.5543 9.21163C32.4867 8.97631 32.3696 8.80614 32.2032 8.6974C32.0368 8.58867 31.8338 8.54882 31.5939 8.57538C31.476 8.59323 31.1316 8.68371 30.5601 8.84723L29.4627 9.16183L29.9695 10.929ZM29.7147 15.3558L27.7159 8.38571L30.6792 7.53573C31.4242 7.32199 31.9828 7.23068 32.3563 7.2589C32.7299 7.28712 33.0644 7.43197 33.3591 7.69303C33.6537 7.95616 33.8592 8.29233 33.9774 8.70487C34.1273 9.2274 34.0974 9.7051 33.8882 10.1338C33.679 10.5609 33.2798 10.9091 32.6933 11.1718C33.0494 11.2631 33.357 11.3856 33.616 11.5416C33.8754 11.6973 34.2493 11.9977 34.7403 12.4431L35.9825 13.5587L34.2995 14.0414L32.8469 12.8158C32.3294 12.3775 31.9853 12.1073 31.8118 12.0044C31.6383 11.9015 31.4694 11.8463 31.3046 11.8355C31.1403 11.8263 30.8979 11.8678 30.5729 11.9612L30.2891 12.0426L31.1233 14.9524L29.7147 15.3558ZM24.7878 18.2303L21.1621 11.9504L25.8175 9.26268L26.4313 10.3256L23.0434 12.2812L23.8473 13.6732L26.9999 11.8533L27.6104 12.9104L24.4578 14.7307L25.4448 16.4398L28.9522 14.4145L29.5636 15.4732L24.7878 18.2303ZM19.4472 23.0642L14.4099 17.848L15.9862 16.3261L20.3689 18.9707L17.8675 14.5091L19.4476 12.9834L24.4848 18.1996L23.507 19.1438L19.5418 15.0374L22.4711 20.144L21.4572 21.1235L16.4598 18.0141L20.4246 22.1204L19.4472 23.0642ZM9.99936 25.9823C10.0703 25.8353 10.2405 25.8324 10.2866 25.9462C10.4534 26.4998 10.3824 26.924 10.0778 27.5826C9.48389 28.8813 8.9817 30.2197 8.62643 31.6205C8.57497 31.7757 8.45918 31.8018 8.36745 31.7105C8.02049 31.0672 8.14251 30.2027 8.60029 29.022C9.02486 27.9902 9.4785 26.9717 9.99936 25.9823ZM12.9071 33.0748C12.81 33.1113 12.7054 33.0274 12.7407 32.8913L14.0455 29.3926C14.2555 28.8381 14.6855 28.4679 15.1387 28.3621C15.2703 28.3251 15.3757 28.4314 15.3105 28.5372C14.9112 29.4331 14.5423 30.3423 14.2045 31.2631C13.887 32.0824 13.4362 32.8303 12.9071 33.0748ZM6.83764 38.439C6.84553 38.2759 7.00117 38.2062 7.08791 38.2925C7.45936 38.7366 7.56021 39.1546 7.53863 39.88C7.50253 41.3078 7.56561 42.7355 7.78973 44.1636C7.80301 44.3267 7.70672 44.3956 7.58678 44.3475C7.01486 43.8926 6.78825 43.0496 6.74509 41.7834C6.72974 40.669 6.74717 39.5538 6.83764 38.439ZM12.2966 43.8199C12.2214 43.8922 12.0924 43.8556 12.0716 43.717L11.8981 39.9867C11.8732 39.3945 12.1235 38.8856 12.4987 38.61C12.6053 38.5245 12.7436 38.5806 12.7253 38.7038C12.7124 39.6846 12.7249 40.6649 12.7784 41.6456C12.8087 42.5221 12.6875 43.3871 12.2966 43.8199ZM8.77501 51.3731C8.71442 51.2225 8.82689 51.0942 8.94186 51.1366C9.46397 51.3864 9.72917 51.7242 10.011 52.3929C10.5717 53.7068 11.2225 54.9785 12.0197 56.185C12.0998 56.3278 12.0409 56.4307 11.9118 56.4369C11.2025 56.2601 10.646 55.5882 10.0807 54.4543C9.60383 53.4466 9.15643 52.4252 8.77501 51.3731ZM15.9771 53.9994C15.9389 54.0957 15.8061 54.1169 15.7293 53.9994L14.0214 50.6784C13.7525 50.15 13.7683 49.5823 13.9953 49.1764C14.0567 49.0539 14.2057 49.0481 14.2406 49.1676C14.6341 50.0662 15.0579 50.9511 15.5114 51.8209C15.9032 52.6062 16.1522 53.4437 15.9771 53.9994ZM12.8789 25.8378C12.8564 25.9839 12.9785 26.0844 13.0843 26.0155C14.0302 25.3423 14.5386 24.5114 14.6706 23.3277C14.6722 23.1775 14.539 23.1248 14.4136 23.1924C13.4744 23.9341 12.9988 24.7558 12.8789 25.8378ZM15.7538 62.5765C15.6413 62.4582 15.699 62.2976 15.8214 62.2951C16.3987 62.3341 16.7706 62.5495 17.2794 63.0667C18.2859 64.0806 19.3612 65.0219 20.5474 65.8478C20.6744 65.9507 20.6578 66.0682 20.5404 66.1217C19.8161 66.2197 19.0504 65.8009 18.1062 64.9559C17.2907 64.1972 16.4975 63.4132 15.7538 62.5765ZM23.4165 62.3553C23.4165 62.4591 23.3016 62.5271 23.1862 62.4462L20.3714 59.9925C19.9261 59.6003 19.7315 59.0674 19.7921 58.6063C19.8037 58.4702 19.9398 58.4092 20.0162 58.5067C20.7136 59.1965 21.4346 59.8622 22.1777 60.5026C22.833 61.0878 23.3742 61.7734 23.4165 62.3553ZM9.78935 33.7654C9.66983 33.6898 9.55984 33.6222 9.46148 33.4956C9.17386 33.0806 9.19959 32.4692 9.38926 31.8122C9.83501 30.4858 10.243 29.2158 10.7983 27.9358C11.0955 27.2892 11.2552 26.3255 11.1187 25.8524C10.907 25.1136 10.5792 24.4118 10.4161 23.6942C10.3559 23.5103 10.0965 23.5473 9.95495 23.7689C9.12281 25.1717 8.43012 26.6343 7.80176 28.1238C7.05844 29.7757 7.03063 31.552 7.7669 32.8623C8.23298 33.6305 8.97631 34.3335 9.6138 34.7664C9.64228 34.7847 9.66483 34.8109 9.67868 34.8418C9.69254 34.8726 9.6971 34.9069 9.69182 34.9403C9.62376 35.4346 9.53826 35.9339 9.47974 36.4361C9.47061 36.5614 9.37515 36.5751 9.32037 36.5336C8.88375 36.1966 8.48947 35.7862 8.09851 35.3537C8.05791 35.3137 8.02922 35.2633 8.01566 35.2079C8.0021 35.1526 8.0042 35.0946 8.02173 35.0403C8.0554 34.9158 8.05998 34.7852 8.03511 34.6586C8.01025 34.5321 7.95661 34.4129 7.87834 34.3104C7.80007 34.2078 7.69927 34.1246 7.58373 34.0673C7.46819 34.0099 7.341 33.9799 7.212 33.9795C6.98946 33.98 6.77616 34.0686 6.61879 34.2259C6.46143 34.3833 6.37283 34.5966 6.37239 34.8191C6.3728 34.9518 6.40461 35.0826 6.4652 35.2006C6.5258 35.3187 6.61347 35.4208 6.72105 35.4985C6.82863 35.5762 6.95307 35.6274 7.0842 35.6478C7.21533 35.6682 7.34943 35.6573 7.47555 35.616C7.56478 35.584 7.71336 35.6164 7.78682 35.7044C8.12798 36.0215 8.45461 36.3909 8.75343 36.7391C9.0286 37.0686 9.17552 37.4683 9.26102 37.8734C9.31705 38.1377 9.32161 38.3286 9.30999 38.5943C9.20865 40.9256 9.37506 43.2609 9.80596 45.5544C9.82463 45.6316 9.78313 45.693 9.72793 45.6834C9.57821 45.662 9.43206 45.6206 9.29339 45.5602C8.86591 45.2912 8.65009 44.7189 8.56625 44.0403C8.45544 42.6454 8.33135 41.3169 8.33965 39.922C8.35915 39.2106 8.12756 38.2614 7.81629 37.8804C7.33195 37.284 6.75422 36.7673 6.32217 36.1713C6.19517 36.0256 5.97106 36.1622 5.92748 36.4216C5.71249 38.0385 5.65065 39.6551 5.65729 41.2716C5.62284 43.0833 6.29478 44.728 7.48551 45.6432C8.21597 46.167 9.17552 46.5218 9.93213 46.6696C9.98608 46.6783 10.0533 46.7343 10.0662 46.7945C10.1724 47.2531 10.2891 47.7088 10.4161 48.1595C10.4671 48.3069 10.4202 48.4011 10.2567 48.3475C9.70676 48.1861 9.10414 47.9665 8.60444 47.6934C8.49819 47.6407 8.43718 47.5498 8.42846 47.4228C8.41907 47.2942 8.38024 47.1695 8.31498 47.0583C8.24972 46.947 8.15977 46.8523 8.05208 46.7813C7.9444 46.7104 7.82184 46.6651 7.69388 46.649C7.56593 46.633 7.43599 46.6465 7.3141 46.6887C7.10409 46.7625 6.9319 46.9166 6.83522 47.1171C6.73853 47.3176 6.72523 47.5483 6.79821 47.7586C6.84188 47.8842 6.91478 47.9976 7.0109 48.0894C7.10702 48.1812 7.2236 48.2489 7.35102 48.2868C7.47845 48.3247 7.61306 48.3318 7.74375 48.3074C7.87444 48.283 7.99746 48.2279 8.10266 48.1467C8.17654 48.0865 8.32761 48.0682 8.42556 48.1272C8.85221 48.3143 9.2826 48.5542 9.67937 48.7854C10.0732 49.0203 10.5256 49.447 10.8568 49.8724C11.0046 50.062 11.0631 50.187 11.1449 50.4082C11.9565 52.6166 13.0211 54.7236 14.3174 56.6872C14.3472 56.7304 14.3394 56.7835 14.2879 56.7976C14.1829 56.8204 14.0757 56.8315 13.9683 56.8308C13.4678 56.7644 13.0337 56.3332 12.6751 55.7509C11.9948 54.5278 11.33 53.3711 10.7576 52.099C10.4796 51.4441 9.87402 50.6763 9.43326 50.4592C8.7443 50.1189 8.00471 49.8885 7.3639 49.5262C7.18793 49.4461 7.04059 49.6632 7.10907 49.9176C7.58595 51.4773 8.20103 52.9735 8.8796 54.4406C9.60093 56.1024 10.8954 57.3193 12.3597 57.6571C13.1798 57.8177 14.119 57.7634 14.8494 57.6102C14.9005 57.599 14.9619 57.6239 14.9851 57.658C15.3113 58.1133 15.6496 58.5599 15.9995 58.9973C16.036 59.045 16.0464 59.0898 15.9708 59.1019C15.379 59.1799 14.6984 59.226 14.0995 59.1716C14.0425 59.1698 13.9872 59.1522 13.9397 59.1207C13.8923 59.0891 13.8546 59.045 13.8309 58.9931C13.7713 58.8786 13.686 58.7794 13.5818 58.7032C13.4776 58.6269 13.3573 58.5757 13.2301 58.5535C13.1029 58.5312 12.9723 58.5386 12.8484 58.5749C12.7245 58.6113 12.6107 58.6757 12.5157 58.7632C12.1762 59.077 12.155 59.6103 12.4688 59.9498C12.5591 60.047 12.6712 60.1216 12.7959 60.1672C12.9205 60.2129 13.0542 60.2284 13.186 60.2125C13.3178 60.1966 13.444 60.1497 13.5542 60.0757C13.6644 60.0017 13.7555 59.9026 13.8202 59.7867C13.8641 59.7024 13.9949 59.6252 14.1086 59.6406C14.5738 59.6414 15.0648 59.6908 15.5205 59.7443C15.8966 59.7937 16.3614 59.946 16.7785 60.1432C17.0752 60.2835 17.1753 60.3797 17.3936 60.6176C19.0544 62.4184 20.9234 64.0155 22.9612 65.3751C23.0069 65.4133 23.0156 65.4722 22.9749 65.5062C22.8603 65.5979 22.7329 65.6724 22.5968 65.7274C22.1071 65.8507 21.5443 65.6108 20.9961 65.202C19.9124 64.3176 18.8669 63.4883 17.8651 62.5172C17.3645 62.0112 16.5183 61.5227 16.0285 61.4837C15.2624 61.4215 14.49 61.4812 13.7608 61.3808C13.5678 61.3721 13.511 61.6282 13.6682 61.839C14.688 63.1115 15.8127 64.2748 16.9852 65.3888C18.2693 66.6654 19.922 67.3178 21.4074 67.0912C22.291 66.9252 23.2128 66.477 23.8419 66.0317C23.8632 66.0165 23.8887 66.0083 23.9149 66.0081C23.941 66.008 23.9666 66.0159 23.988 66.0308C24.4858 66.3352 24.9922 66.6253 25.5066 66.9007C25.5789 66.9468 25.6316 66.9202 25.6648 66.8455L25.8075 66.56C25.842 66.4816 25.8109 66.4172 25.737 66.377C25.2433 66.1116 24.7573 65.8323 24.2794 65.5394C24.225 65.5029 24.2092 65.4552 24.22 65.4083C24.3553 64.7185 24.357 64.1495 24.3234 63.3825C24.2976 62.2656 24.0187 61.1272 23.3186 60.4416C22.3018 59.5053 21.4958 58.9807 20.9388 58.4013C20.4619 57.9157 20.0934 57.4351 19.675 56.9188C19.5596 56.7947 19.3442 56.7939 19.2724 56.986C18.4353 59.0263 19.0122 60.3308 20.2486 61.3771C21.1181 62.0947 22.0063 62.7932 22.8753 63.5107C23.265 63.8781 23.4522 64.3375 23.385 64.8305C23.3796 64.8994 23.3265 64.9351 23.2833 64.9036C21.2827 63.5699 19.4479 62.0028 17.8177 60.2353C17.6131 60.0141 17.5679 59.8585 17.5015 59.6273C17.316 58.9172 17.294 58.1884 17.5231 57.4272C17.5513 57.3168 17.6708 57.2238 17.7654 57.2139C17.8972 57.1969 18.023 57.1489 18.1326 57.0738C18.2423 56.9988 18.3325 56.8988 18.396 56.7821C18.4595 56.6654 18.4945 56.5354 18.498 56.4026C18.5015 56.2698 18.4735 56.138 18.4162 56.0182C18.3196 55.8176 18.1476 55.6635 17.9376 55.5896C17.7277 55.5156 17.497 55.5278 17.296 55.6235C17.0954 55.72 16.9413 55.892 16.8673 56.102C16.7933 56.312 16.8055 56.5427 16.9014 56.7436C16.9346 56.8125 16.9765 56.8748 17.0242 56.93C17.1076 57.0263 17.1288 57.1334 17.0902 57.2463C16.9412 57.7497 16.7814 58.2378 16.5702 58.6901C16.556 58.73 16.5125 58.7283 16.4888 58.6951C16.1514 58.2743 15.8426 57.8422 15.5077 57.4031C15.479 57.3724 15.4865 57.3052 15.5081 57.2653C15.9447 56.62 16.1692 56.068 16.4398 55.2898C16.8291 54.2418 16.9902 53.081 16.593 52.1853C15.9941 50.9402 15.4392 50.1546 15.1358 49.4096C14.8718 48.7829 14.7071 48.1994 14.5091 47.5656C14.4477 47.4075 14.2476 47.3274 14.1107 47.4797C12.5792 49.0651 12.6327 50.4912 13.3947 51.9201C13.9376 52.9083 14.5045 53.8849 15.047 54.8731C15.2977 55.4114 15.2753 55.9634 14.9432 56.427C14.9084 56.4772 14.8586 56.4739 14.8249 56.432C13.347 54.4929 12.3987 52.2381 11.5794 49.9284C11.5303 49.7776 11.5182 49.6171 11.5441 49.4607C11.657 48.7377 11.9272 48.0624 12.4389 47.4569C12.5091 47.366 12.6556 47.3278 12.7465 47.3573C12.8741 47.3941 13.0086 47.4001 13.139 47.3749C13.2693 47.3497 13.3919 47.294 13.4966 47.2122C13.6013 47.1305 13.6851 47.0252 13.7412 46.9048C13.7973 46.7844 13.8241 46.6525 13.8193 46.5197C13.8106 46.2973 13.7141 46.0875 13.551 45.936C13.3879 45.7846 13.1714 45.7039 12.949 45.7117C12.8201 45.7168 12.6941 45.7515 12.5807 45.8131C12.4674 45.8747 12.3697 45.9616 12.2953 46.067C12.2208 46.1724 12.1717 46.2935 12.1515 46.4209C12.1314 46.5484 12.1408 46.6787 12.1791 46.802C12.2173 46.9236 12.1936 47.0306 12.1144 47.1182C11.8077 47.4847 11.498 47.8358 11.1631 48.1446C11.0764 48.2226 11.0125 48.194 10.9851 48.069C10.8519 47.6001 10.7304 47.1279 10.6207 46.653C10.602 46.5953 10.6389 46.5247 10.6817 46.489C11.2548 46.1171 11.6616 45.7295 12.1812 45.1854C12.9706 44.3952 13.5994 43.4062 13.611 42.4263C13.584 41.045 13.4055 40.1 13.4392 39.2965C13.4599 38.6163 13.552 38.0174 13.6355 37.3583C13.6454 37.189 13.4968 37.0325 13.3088 37.1143C11.2565 37.9203 10.7132 39.2388 10.8116 40.8562C10.895 41.9797 11.0042 43.104 11.0876 44.2283C11.0917 44.7683 10.8855 45.2244 10.4762 45.5166C10.4148 45.5635 10.3787 45.5116 10.3704 45.4606C9.99328 43.4553 9.82195 41.4167 9.85908 39.3766C9.88149 38.2266 10.8307 36.9665 11.796 36.3963C11.8919 36.334 12.0434 36.3465 12.1193 36.4037C12.2277 36.4805 12.3527 36.5305 12.4841 36.5497C12.6155 36.5688 12.7496 36.5566 12.8754 36.514C13.0011 36.4714 13.1151 36.3997 13.2078 36.3046C13.3005 36.2096 13.3694 36.0939 13.4089 35.9671C13.545 35.5251 13.296 35.0536 12.854 34.9175C12.7306 34.8799 12.6002 34.8711 12.4728 34.8919C12.3455 34.9127 12.2247 34.9625 12.1197 35.0375C12.0147 35.1124 11.9283 35.2105 11.8672 35.3241C11.8061 35.4377 11.772 35.5639 11.7674 35.6928C11.7632 35.8202 11.706 35.9127 11.6018 35.9696C11.1158 36.2589 10.6327 36.5274 10.133 36.7196C10.0525 36.7474 10.0234 36.6876 10.0375 36.5955C10.0969 36.0605 10.1699 35.5301 10.2571 35.0038C10.2642 34.9767 10.2789 34.9522 10.2994 34.9331C10.3199 34.914 10.3454 34.9011 10.3729 34.8959C11.0465 34.7789 11.5727 34.5817 12.2646 34.2858C13.3014 33.8687 14.268 33.2063 14.6631 32.3094C15.1806 31.0286 15.3881 30.089 15.7339 29.3635C16.0202 28.7464 16.3402 28.2322 16.6756 27.6586C16.7515 27.5067 16.676 27.3046 16.471 27.3058C14.2671 27.2411 13.2495 28.24 12.7054 29.7661C12.3406 30.8323 11.9994 31.9093 11.6346 32.976C11.4242 33.4782 11.0511 33.8185 10.5538 33.9231C10.4957 33.9372 10.4708 33.87 10.4804 33.806C10.8857 31.8588 11.4854 29.9571 12.2704 28.1296C12.4215 27.754 12.6332 27.5187 12.9565 27.2635C14.6706 25.8744 15.5811 24.643 15.7604 21.822C15.7658 21.6423 15.6687 21.6099 15.5127 21.695C13.5645 22.6429 11.6396 23.6133 11.9056 26.8833C11.938 27.2896 11.9106 27.5386 11.7413 27.9122C10.942 29.7752 10.3314 31.7137 9.91884 33.6985C9.90888 33.7753 9.84497 33.806 9.78935 33.7654ZM33.7268 73.5006L34.4539 66.2861L39.802 66.8252L39.6792 68.0466L35.787 67.6536L35.626 69.2531L39.2475 69.6188L39.1251 70.8332L35.5035 70.4684L35.3056 72.4315L39.3351 72.8378L39.2127 74.0546L33.7268 73.5006ZM48.0238 73.0951L47.6162 71.8396L49.7856 66.1898L46.5724 67.234L46.1931 66.0669L51.2416 64.4263L51.5927 65.5083L49.3262 71.3876L53.2503 70.1127L53.628 71.2752L48.0238 73.0951ZM41.0608 74.0248L40.1963 66.8256L41.6111 66.6554L45.1348 71.1096L44.5575 66.3018L45.9088 66.1396L46.7729 73.3387L45.3128 73.5139L41.8473 69.1672L42.4105 73.8621L41.0608 74.0248ZM29.1573 64.5085L31.8902 65.4747C32.4315 65.666 32.8278 65.8312 33.0772 65.9715C33.3185 66.1023 33.5279 66.2847 33.6907 66.5056C33.85 66.7227 33.9567 66.9734 34.0123 67.2618C34.0678 67.5541 34.0427 67.856 33.9397 68.135C33.8314 68.4488 33.6334 68.7238 33.3703 68.9261C33.1061 69.1302 32.7883 69.2531 32.4555 69.2797C32.8282 69.5474 33.0764 69.8674 33.1964 70.238C33.3171 70.6099 33.3072 70.9934 33.1673 71.3881C33.0549 71.7028 32.8711 71.9872 32.6303 72.219C32.3817 72.4605 32.1011 72.6257 31.7894 72.7124C31.4777 72.7992 31.1307 72.7983 30.7481 72.7099C30.5107 72.6523 29.9491 72.4717 29.0668 72.1667L26.7397 71.3441L29.1573 64.5085ZM30.1363 66.1346L29.5773 67.7154L30.4812 68.035C31.0191 68.2255 31.3561 68.3359 31.4926 68.3666C31.7379 68.4227 31.9525 68.4073 32.136 68.3197C32.3194 68.2322 32.4489 68.0782 32.5273 67.857C32.602 67.6453 32.6054 67.4523 32.536 67.2797C32.4651 67.1053 32.3198 66.9651 32.1003 66.8563C31.9691 66.7924 31.5786 66.6455 30.9295 66.4156L30.1363 66.1346ZM29.1751 68.853L28.5289 70.68L29.8055 71.1316C30.3036 71.3084 30.6232 71.4063 30.7672 71.425C30.9714 71.4631 31.1825 71.4295 31.3648 71.33C31.5449 71.2312 31.679 71.0602 31.7645 70.8178C31.8371 70.6128 31.8475 70.4214 31.7994 70.243C31.75 70.0645 31.6437 69.9081 31.479 69.7769C31.3142 69.6449 30.9166 69.469 30.2895 69.2469L29.1751 68.853Z" fill="#C0C2C4"/>
</svg>
