<svg width="76" height="76" viewBox="0 0 76 76" fill="none" xmlns="http://www.w3.org/2000/svg">
<g clip-path="url(#clip0_2049_1447)">
<path fill-rule="evenodd" clip-rule="evenodd" d="M64.9255 7.75154V9.13943L37.999 4.42044L11.0746 9.13943V7.75154L37.999 3.00146L64.9255 7.75154Z" fill="#F0F0F0"/>
<path fill-rule="evenodd" clip-rule="evenodd" d="M64.9255 6.33214V7.75153L37.999 3.00146L11.0746 7.75153V6.33214L37.999 1.58331L64.9255 6.33214Z" fill="#C0C2C4"/>
<path fill-rule="evenodd" clip-rule="evenodd" d="M64.9255 9.1394L37.999 4.42041L11.0746 9.1394L11.075 13.9276L11.3083 13.7954C11.4032 13.7424 20.9572 8.44525 38.0508 8.44525C55.1456 8.44525 64.5881 13.7436 64.6838 13.7962L64.9147 13.9288L64.9255 9.1394Z" fill="#C0C2C4"/>
<path fill-rule="evenodd" clip-rule="evenodd" d="M38.0512 9.37067C53.4875 9.37067 62.5264 13.7146 63.9914 14.4763V28.2607C63.9914 35.7758 62.2214 43.2623 58.7328 50.5163C51.0967 66.3603 39.6065 72.5816 37.9994 73.3934C36.3911 72.5816 24.8922 66.3603 17.2582 50.5163C13.7696 43.2623 12 35.7758 12 28.2607V14.478C13.4782 13.7171 22.612 9.37067 38.0512 9.37067Z" fill="#F0F0F0"/>
<path fill-rule="evenodd" clip-rule="evenodd" d="M11.3088 13.795L11.0754 13.9272V28.2607C11.0754 35.9167 12.8753 43.5391 16.4252 50.9153C24.7587 68.2173 37.6787 74.2699 37.808 74.3292L37.9994 74.4166L38.1905 74.3292C38.321 74.2699 51.2302 68.2157 59.5633 50.9153C63.1149 43.5391 64.9151 35.9167 64.9151 28.2607V13.9284L64.6843 13.7958C64.589 13.7432 55.146 8.44482 38.0512 8.44482C20.9577 8.44482 11.4037 13.7419 11.3088 13.795ZM38.0512 9.37064C53.4875 9.37064 62.5264 13.7146 63.9914 14.4763V28.2607C63.9914 35.7758 62.2214 43.2622 58.7328 50.5162C51.0967 66.3603 39.6065 72.5816 37.9994 73.3934C36.3911 72.5816 24.8922 66.3603 17.2582 50.5162C13.7696 43.2622 12 35.7758 12 28.2607V14.4779C13.4782 13.7171 22.612 9.37064 38.0512 9.37064Z" fill="#C0C2C4"/>
<path fill-rule="evenodd" clip-rule="evenodd" d="M42.0942 60.0359C42.5426 60.3459 42.2173 60.8842 41.8854 60.9683C41.5397 61.0624 41.2443 60.6786 41.0768 61.0993C40.9828 61.3251 41.238 63.0363 42.9886 63.0363C44.6226 63.0363 45.4021 60.9385 45.5559 60.6227C45.7105 60.3077 45.8099 59.9057 45.6553 59.9057C44.9384 59.9057 44.7295 60.3313 44.7295 60.3313C44.7295 60.3313 44.6752 59.9219 45.0316 59.6127C45.3255 59.3604 45.7109 59.4217 45.8501 59.4217C46.1423 59.4217 46.0963 59.2041 46.2728 58.7735C46.6752 57.7603 46.9521 57.7147 47.2136 57.2526C47.4303 56.8763 47.0208 56.7288 46.2131 56.653C45.403 56.5759 44.9691 56.6086 44.6073 56.6612C44.2447 56.7131 43.8837 56.8602 43.6587 57.4147C43.5381 57.7151 43.759 58.011 44.1833 57.9343C44.6073 57.8552 45.0155 57.5344 45.0155 57.5344C45.0155 57.5344 44.8244 58.2936 44.1916 58.4507C43.6048 58.5949 42.9119 58.241 43.0051 57.6472C43.1265 56.8767 43.6591 56.3123 44.6305 56.1221C45.6035 55.9261 46.5733 56.0761 47.4382 56.2887C48.3002 56.5063 48.9346 56.3745 49.7361 56.3276C51.4642 56.2352 52.5351 55.8274 52.5351 55.8274C52.5351 55.8274 51.7564 56.4594 50.6769 56.7516C49.5973 57.0462 48.6346 56.924 48.323 57.0462C48.0714 57.154 47.7158 57.6534 47.4228 58.224C47.1535 58.7487 46.8667 59.3533 46.9906 59.3533C47.9943 59.3914 48.3619 59.1718 48.3619 59.1718C48.3619 59.1718 48.1634 59.6049 47.6852 59.8096C47.3532 59.9439 46.79 59.9439 46.79 59.9439C46.79 59.9439 46.5368 60.585 46.2517 61.1635C45.9645 61.7416 45.4941 62.6446 44.6475 63.0914C43.7975 63.5373 42.1721 64.0934 41.1485 62.621C40.0656 61.0765 41.054 59.3193 42.0942 60.0359ZM29.527 60.2373C29.7267 60.7487 29.3024 61.0151 29.0558 61.0151C28.8084 61.0151 28.5005 60.8316 28.4362 61.1407C28.3774 61.4474 29.0931 63.0292 30.7582 63.0292C32.4242 63.0292 33.1962 62.0653 33.079 61.2016C32.9484 60.2377 31.4171 59.8548 30.1967 59.2128C29.5995 58.8995 28.2497 58.6898 28.2497 57.4263C28.2497 54.7284 32.3554 56.4516 32.3554 56.4516C32.3554 56.4516 32.3641 56.1142 32.5551 56.0985C32.6475 56.0898 32.8332 56.0533 32.895 56.3583C32.9559 56.6658 33.2273 58.2862 33.2273 58.2862C33.2273 58.2862 32.6239 57.0525 30.9679 56.5137C30.6749 56.4109 29.3939 56.1673 29.4014 57.1813C29.4167 57.7835 30.1507 58.0537 31.4229 58.5477C33.0951 59.2033 33.9517 59.8137 33.5568 61.5717C33.1809 63.2596 31.5307 63.5373 30.7284 63.5373C29.9277 63.5373 28.0852 62.9757 28.0852 61.1237C28.0852 59.8141 29.3699 59.8448 29.527 60.2373ZM38.2998 50.0931L38.9741 50.4126C39.3628 50.5631 39.611 50.4968 39.7001 50.4595C39.7942 50.4189 40.1502 50.0368 40.2277 49.7114C40.2642 49.5788 40.2447 49.4636 40.1742 49.3787C39.9119 49.0679 39.4473 47.6402 39.2749 46.8685C39.2111 46.5822 39.2886 45.7919 39.3487 45.1557C39.4013 44.6095 39.4337 44.2701 39.4063 44.1827C39.3603 44.0476 39.1585 43.917 38.9264 43.7699L38.5588 43.5196C38.3628 43.3592 38.3541 43.1408 38.3433 42.9063L38.3044 42.542C38.219 42.203 36.4938 40.4409 36.2265 40.4247C35.839 40.3994 35.7383 40.8246 35.7134 41.0803C35.6981 41.2299 35.8709 41.898 36.0267 42.4902L36.1987 43.2042C36.3753 44.3269 37.5688 46.3041 38.0777 47.1478L38.3193 47.5581C38.4237 47.796 38.3831 47.9837 38.1975 48.089C38.0172 48.1926 36.466 48.0306 35.725 47.8598C35.4068 47.7869 35.0139 47.6282 34.6305 47.4727C34.1917 47.2979 33.7756 47.1279 33.5352 47.1159C33.2547 47.1014 33.1216 47.1582 33.0185 47.2059L32.8502 47.2527L32.6828 47.1992C32.4772 47.1085 32.0931 46.9427 31.0442 46.8478C29.5154 46.7044 29.4006 47.0119 29.3384 47.1781C29.2626 47.3894 30.1971 48.3832 30.3641 48.5163C30.5767 48.6878 31.2642 48.9493 31.684 48.8797C32.1639 48.8026 32.9463 48.7056 33.0433 48.7251L33.2008 48.8213L33.3471 48.9249C33.4797 48.9792 34.3342 49.026 34.5924 49.0397C34.8904 49.0558 35.6728 49.2179 36.2447 49.3376L36.8837 49.4665C37.134 49.5125 37.7789 49.8308 38.2998 50.0931Z" fill="#808183"/>
<path fill-rule="evenodd" clip-rule="evenodd" d="M54.115 30.2661C54.081 30.2242 54.0528 30.2217 54.035 30.2263C54.0188 30.2317 53.9969 30.247 53.9906 30.2967C53.9625 30.5097 53.6952 31.0572 53.483 31.138C53.0532 31.3042 52.8307 31.8081 52.6695 32.1753C52.587 32.3647 52.5066 32.5454 52.4428 32.5479C52.4154 32.5499 52.3852 32.5205 52.352 32.4592C52.0872 32.0025 52.2356 31.3042 52.3545 30.7414L52.3819 30.6034C52.4788 30.1289 53.0342 29.4642 53.3661 29.0655L53.5128 28.889C53.7387 28.6071 53.7955 27.6523 53.7532 27.5806C53.7395 27.5765 53.7304 27.5844 53.725 27.5926C53.7198 27.5968 53.7155 27.6018 53.7122 27.6076L53.7072 27.6067V27.6117C53.6935 27.6266 53.6819 27.6283 53.6707 27.6764C53.6115 27.9747 53.0661 28.581 52.1345 29.3867C51.9434 29.552 51.7259 29.8508 51.5476 30.0908C51.4329 30.2482 51.2982 30.4298 51.2625 30.4385C51.0317 29.2068 51.4494 28.5027 51.6479 28.1625L51.7404 27.9897C52.1345 26.9171 53.1494 26.1049 53.1601 26.0974C53.1738 26.0663 53.1738 26.0332 53.149 26.0121C53.11 25.9822 53.0387 25.9951 52.9264 26.0514L52.8651 26.0821C52.5112 26.2541 51.4436 26.7742 50.7888 28.0265C50.3185 28.9283 50.1366 29.9362 50.1366 30.6962C50.1366 31.0841 50.1834 31.4057 50.263 31.6187C50.493 32.2321 50.8958 33.7563 51.0197 34.3547C51.0968 34.7256 51.1088 35.9991 51.1088 36.7973C51.1088 37.1873 51.1071 37.4604 51.1071 37.4707C51.1046 37.4707 50.9041 38.1181 50.9041 38.1181C50.9032 38.1247 50.8063 38.6303 49.9799 39.4753C49.1477 40.3253 48.2211 40.5955 48.2128 40.5988C47.8407 40.6278 47.5013 40.6124 47.4892 40.564C47.4892 39.5926 45.8258 37.3327 44.9745 36.5872C44.1059 35.8259 43.4118 35.2805 42.2323 34.5628C41.0313 33.8317 39.6957 30.7671 39.6803 30.7372L39.5647 30.3232C39.5647 30.3232 39.5001 29.4965 39.4822 29.2814C39.5258 29.3063 39.5825 29.3415 39.5825 29.3415L39.992 29.5798L40.4623 29.7605C40.4665 29.7617 41.0782 29.8815 41.0782 29.8815C41.0782 29.8827 41.4205 30.058 41.4205 30.058L41.7379 30.2644L42.2315 30.6208L42.7383 30.8873C42.7487 30.8902 43.3471 30.9208 43.3471 30.9208L43.3608 30.8715C43.3608 30.8715 42.6679 30.5462 42.6662 30.5462C42.6662 30.5362 42.4167 30.1094 42.4167 30.1094C42.3197 29.9701 42.2229 29.8307 42.1262 29.6912C42.1167 29.6846 41.7661 29.4753 41.7661 29.4753C41.6177 29.4527 41.4691 29.4317 41.3202 29.4123C41.3202 29.4086 41.2328 29.3336 41.1876 29.293C41.2265 29.2702 41.2999 29.2246 41.2999 29.2246C41.2999 29.23 41.7773 29.2851 41.779 29.2851C41.779 29.2901 42.2037 29.5789 42.2037 29.5789L42.6675 29.9362C42.6749 29.9399 43.1063 30.1073 43.1063 30.1073L43.1631 30.1297L42.9737 29.637C42.8553 29.5235 42.7361 29.4109 42.6161 29.2992L42.0906 28.8525C42.0865 28.8487 41.6778 28.6382 41.6778 28.6382C41.6737 28.6374 41.2377 28.4903 41.2377 28.4903C41.2377 28.4894 40.7765 28.1952 40.7765 28.1952C40.7765 28.1952 40.7815 28.1637 40.7848 28.1368C40.8432 28.1591 41.4234 28.392 41.4234 28.392C41.4267 28.3925 41.9795 28.5429 41.9795 28.5429C41.9787 28.5408 42.4433 28.7203 42.4433 28.7203C42.4416 28.7186 43.1101 29.0447 43.1101 29.0447C43.1159 29.0476 43.6695 29.1678 43.6695 29.1678C43.6791 29.1682 44.3525 29.0476 44.3525 29.0476C44.3612 29.0435 45.0031 28.5968 45.0031 28.5968C45.0106 28.5847 45.1287 28.3191 45.1287 28.3191L45.154 28.2578L44.9476 28.3431C44.946 28.3431 44.3649 28.6382 44.3641 28.6382L43.9617 28.7281C43.9617 28.7261 43.5075 28.637 43.5067 28.637H43.5075C43.5075 28.6316 43.1391 28.2888 43.1391 28.2888L42.6161 27.7824L42.1432 27.5404C42.1366 27.5375 41.5838 27.448 41.5838 27.448C41.5838 27.4467 41.2473 27.2756 41.2415 27.2727C41.2431 27.2727 41.2439 27.2665 41.2439 27.2578C41.2439 27.2172 41.2336 27.1285 41.2294 27.087L41.9248 27.1455L42.6865 27.0841C42.6865 27.0862 43.1155 27.1736 43.1155 27.1736L43.5494 27.3527L43.9936 27.4128L44.0736 27.4235L43.5784 26.9499C43.5734 26.9474 43.079 26.5901 43.079 26.5901C43.0732 26.5872 42.6646 26.4376 42.6646 26.4376C42.6571 26.436 41.9758 26.3784 41.9621 26.3771C41.9679 26.3767 41.9688 26.3651 41.9688 26.3481C41.9688 26.3067 41.9621 26.2478 41.9584 26.2176L42.2804 26.1629C42.2804 26.1649 42.7959 26.281 42.7959 26.281C42.7959 26.2826 43.2841 26.5756 43.2841 26.5756L43.8117 26.7559C43.827 26.7563 44.5821 26.6378 44.5821 26.6378L44.6273 26.6316L44.3973 26.3278C44.3844 26.3179 44.0048 26.1998 44.004 26.1998C44.004 26.1977 43.6907 25.966 43.6907 25.966L43.2236 25.6378C43.217 25.6341 42.8685 25.5156 42.8685 25.5156C42.8627 25.5135 42.3132 25.4256 42.3115 25.4252C42.3115 25.4194 42.0413 25.1708 42.0355 25.1666C42.0438 25.165 42.0608 25.0783 42.067 25.039L42.3575 25.1202L42.7313 25.2984L43.2622 25.4666L43.1449 25.2325L42.9385 25.017L42.7578 24.7841L42.8361 24.7646C42.8361 24.7717 43.401 25.0597 43.401 25.0597L43.8411 25.2097C43.8411 25.2122 44.1809 25.5309 44.1809 25.5309C44.1859 25.535 44.8291 25.8981 44.8291 25.8981L44.8937 25.9345L44.7765 25.6204C44.7731 25.6134 44.4242 25.167 44.4242 25.167L44.1337 24.6647C44.1312 24.6589 43.6053 24.1239 43.6053 24.1239C43.6003 24.119 42.931 23.7613 42.9294 23.7613C42.9294 23.7584 42.6745 23.4696 42.6745 23.4696C42.5185 23.3109 42.3628 23.1519 42.2075 22.9926C42.2075 22.9864 42.1598 22.8231 42.1354 22.7402C42.2145 22.7655 42.5887 22.8898 42.5887 22.8898L43.1126 23.0377C43.1126 23.039 43.4864 23.2719 43.4864 23.2719C43.4864 23.2744 43.798 23.6527 43.798 23.6527C43.8092 23.6614 44.3057 23.8703 44.3057 23.8703L45.5709 24.0344L45.6447 24.0435L45.2974 23.678C45.2887 23.6714 44.6182 23.3734 44.6182 23.3734L44.2157 23.08C44.2157 23.0746 43.9907 22.671 43.9907 22.671L43.7562 22.2549C43.752 22.2487 43.3732 21.8919 43.3732 21.8919C43.3674 21.8877 42.9012 21.62 42.9012 21.62L42.44 21.2363C42.44 21.2325 42.3289 21.0025 42.258 20.8492L42.5784 21.1579L43.1905 21.6938C43.1979 21.6983 43.665 21.9068 43.665 21.9068L44.0649 22.23L44.5295 22.7041C44.5456 22.7116 45.2717 22.814 45.2717 22.814L45.3624 22.8272L44.6252 22.1886C44.6252 22.177 44.4586 21.6652 44.4586 21.6652C44.3311 21.5411 44.2023 21.4183 44.0724 21.2968L43.8718 21.061C43.8718 21.0547 43.672 20.446 43.672 20.446C43.5347 20.303 43.3963 20.1611 43.2568 20.0204C43.2568 20.017 42.5908 19.3958 42.5892 19.3933V19.3921C42.5892 19.3826 42.5655 19.2877 42.5519 19.2251C42.6028 19.2508 42.6725 19.2877 42.6725 19.2877L43.2837 19.6436C43.2895 19.6465 44.0172 19.8546 44.0172 19.8546L44.7765 20.0344L45.6538 20.1745L45.4474 19.7572C45.4329 19.7439 44.9965 19.5662 44.9965 19.5662L44.5916 19.3299C44.5875 19.3287 44.0931 19.1198 44.0931 19.1198L43.6575 18.9416C43.6575 18.9375 43.3749 18.5728 43.2174 18.3714C43.3687 18.4729 43.602 18.6316 43.602 18.6316C43.6132 18.6354 43.9944 18.6656 43.9944 18.6656L45.1901 18.666C45.1901 18.6693 45.6741 18.9308 45.6741 18.9317C45.6741 18.9333 46.0869 19.3784 46.0869 19.3784L46.1411 19.4369L46.091 18.9346C46.086 18.9201 45.8237 18.5923 45.8237 18.5923C45.8162 18.5865 45.1155 18.1994 45.1155 18.1994L44.5585 17.9897C44.5543 17.9885 43.7151 17.8401 43.711 17.8401V17.8389C43.711 17.831 43.5506 17.6399 43.5506 17.6399C43.5473 17.6383 42.9364 17.073 42.9364 17.073C42.8377 17.0214 42.7387 16.9704 42.6393 16.9201C42.6393 16.9184 42.5461 16.8227 42.488 16.7622H42.8022C42.8022 16.7672 43.2837 17.0564 43.2837 17.0564C43.2879 17.0593 43.9306 17.2665 43.9306 17.2665L44.7508 17.3863H44.7499C44.7499 17.395 45.0541 17.7357 45.0541 17.7357L45.4975 18.0079C45.6657 18.039 45.8341 18.0689 46.0027 18.0979L46.0732 18.1091L45.0355 16.8376C45.0288 16.8314 44.5328 16.5641 44.5328 16.5641C44.5286 16.5616 43.9468 16.383 43.9468 16.383C43.9468 16.3768 43.4346 15.7958 43.4346 15.7958C43.4288 15.7896 42.7873 15.4037 42.7873 15.4037C42.6322 15.3645 42.4768 15.3266 42.321 15.2902C42.35 15.2433 42.4466 15.0842 42.4466 15.0834C42.4483 15.0879 42.9605 14.8563 42.9605 14.8563C42.9605 14.8575 43.7114 14.7096 43.7114 14.7096C43.7317 14.6922 43.7885 14.5127 43.7885 14.5127C43.779 14.4825 43.4582 14.2744 43.4582 14.2744C43.3302 14.2329 43.202 14.192 43.0736 14.1518C43.05 14.1547 42.8469 14.2736 42.8469 14.2744C42.8469 14.2707 42.2187 14.2993 42.2187 14.2993C42.2187 14.2989 41.4677 14.1223 41.4677 14.1215C41.4677 14.1178 40.694 13.473 40.694 13.473C40.5756 13.412 40.4569 13.3515 40.338 13.2914C40.3293 13.2898 39.0513 13.1402 39.0479 13.1402C39.0479 13.124 38.7475 12.6756 38.7475 12.6756L38.3364 12.2264C38.3347 12.2239 37.813 11.7531 37.813 11.7531L37.7968 11.7875L37.6219 12.1746C37.6228 12.1708 37.4495 12.4386 37.4495 12.4386V12.4452C37.4495 12.4945 37.474 12.7531 37.474 12.7531C37.4814 12.7693 37.6505 12.9425 37.6543 12.9475C37.6456 12.9475 37.5904 13.2168 37.5904 13.2189C37.5888 13.2003 36.8892 13.2289 36.888 13.2289C36.888 13.2255 36.3165 12.9632 36.3165 12.9632C36.3128 12.9607 35.8747 12.8124 35.8747 12.8124C35.866 12.8095 34.847 12.841 34.847 12.841C34.8246 12.8526 34.6518 13.1203 34.6518 13.1203L34.6286 13.1555L35.077 13.2202C35.077 13.2218 35.1433 13.2641 35.1802 13.2877L35.0654 13.3814C35.0654 13.3756 34.4417 13.347 34.4417 13.347C34.4313 13.3486 33.9924 13.5264 33.9924 13.5264L33.9469 13.5459L34.1644 13.6922C34.1781 13.6972 35.1101 13.7266 35.1101 13.7266L35.8022 13.9048V13.9056C35.8022 13.9151 35.934 14.1033 35.934 14.1033C35.934 14.1033 36.0277 14.2355 36.0629 14.2873L35.7666 14.4506C35.7703 14.4502 34.9245 14.807 34.9245 14.807L33.176 15.7887C33.1744 15.7871 32.0248 15.9586 32.0248 15.9586C32.0161 15.9615 31.5747 16.2073 31.5747 16.2073C31.5652 16.2139 31.2109 16.705 31.2109 16.705C31.2071 16.7112 31.0066 17.3225 31.0066 17.3225C30.9908 18.361 31.0322 18.3851 31.0472 18.3934C31.0816 18.4149 31.3816 18.5848 31.6137 18.4605C31.8764 18.3175 32.4388 18.177 32.731 18.1149C32.8752 18.0854 32.9427 18.1372 32.9547 18.1907C32.9705 18.2491 32.927 18.3287 32.8192 18.3581L32.7587 18.3759C32.2506 18.514 31.7322 18.681 31.7492 18.877L31.8387 19.0266C32.0654 19.1919 32.6547 19.1136 32.9676 19.0428L33.2942 18.9512C33.576 18.8654 33.8963 18.7696 34.1698 18.8003C34.3277 18.8186 34.467 18.8865 34.6315 18.964C34.8544 19.0718 35.1093 19.194 35.4893 19.2189C36.123 19.2628 36.5556 19.3909 36.5896 19.4282C36.6746 19.601 36.6199 19.8567 36.5772 20.0622L36.5444 20.2483C36.3671 21.8567 34.5714 23.6751 33.7061 24.5475C33.4723 24.7837 33.3178 24.9395 33.2846 25.0046L33.1852 25.2346C33.101 25.448 33.0326 25.632 32.7583 25.7423C32.5996 25.804 32.2295 26.0825 31.8002 26.4041C31.1802 26.8666 30.4115 27.4418 30.1997 27.4169C29.8454 27.3751 28.1906 26.2358 28.121 26.1658C26.5093 24.6063 25.835 24.9263 25.4314 25.1169L25.3676 25.1467C24.8868 25.3655 24.3821 26.7273 24.3365 27.0195L24.1417 27.8583L23.9921 28.4745C23.9478 28.683 23.7492 29.1952 23.5599 29.69L23.1711 30.7675C23.1069 31.017 22.9511 31.3676 22.8243 31.651L22.6523 32.0709C22.5325 32.5636 22.5304 35.2623 22.7389 35.501L22.748 35.5109L22.789 35.523C22.9983 35.5014 23.4475 35.0385 23.663 34.8151L23.7128 34.7633C23.8951 34.5802 24.0887 34.0911 24.0887 33.8856C24.0887 33.6842 23.9946 33.2631 23.9573 33.1483C23.6655 32.2573 23.7758 31.4082 23.8288 31.0012L23.8499 30.8197C23.8653 30.6307 24.0547 30.4215 24.2387 30.2209L24.4712 29.9519C24.5988 29.782 24.7405 29.7256 24.8669 29.6755L25.0746 29.557L25.1069 29.5234C25.2445 29.3854 25.4753 29.1525 25.5764 28.8409L25.7737 27.9876L25.8168 27.7596C25.8267 27.7141 25.8499 27.6888 25.8885 27.6805C25.9668 27.6631 26.0841 27.7252 26.1342 27.792L27.5607 29.4472C27.9262 29.7584 28.3016 30.1297 28.3016 30.2113L28.3012 30.2184C28.3012 30.2171 28.2925 30.2188 28.2925 30.2188C28.0928 30.2395 27.0878 30.0253 26.9208 29.9776C25.5553 29.5773 24.932 29.6477 24.4513 30.2495C23.9034 30.9387 24.0758 33.0493 24.1877 33.2805C24.2905 33.4902 24.7903 36.0617 24.8126 36.4044C24.835 36.7405 24.9651 37.3414 25.1011 37.4794L25.1384 37.5176C25.3066 37.6842 25.7501 38.1297 25.8284 38.5689C25.9129 39.0472 26.9287 40.3277 27.3161 40.4425C27.3751 40.4596 27.4386 40.4473 27.4869 40.4094C27.7824 40.1997 27.9166 39.1748 27.9328 38.7422C27.9519 38.203 27.7583 37.9423 27.5528 37.6634L27.474 37.5544C27.3228 37.3481 27.0563 37.273 26.8806 37.2237C26.8056 37.2026 26.7028 37.1777 26.7028 37.1545C26.7028 37.1467 26.6821 36.3568 26.4301 36.2043C26.2341 36.0837 26.0335 35.3216 26.0099 35.0315C25.9871 34.7434 25.8756 34.048 25.726 33.7426C25.5748 33.4359 25.4475 32.8707 25.5122 32.4347C25.5391 32.2474 25.6726 32.1885 25.7811 32.1716C25.9685 32.1417 26.1848 32.2225 26.2184 32.288C26.2929 32.438 27.7331 33.3066 28.2188 33.4931C28.5205 33.6075 28.9287 33.9523 29.2892 34.2598C29.5457 34.4749 29.7662 34.6601 29.9038 34.726C30.0894 34.8155 30.6158 34.8259 31.0385 34.8342C31.2627 34.8379 31.4956 34.8433 31.5271 34.862C31.3555 34.9308 31.3576 35.2316 31.3717 35.3286C31.547 36.5731 36.0745 39.9916 36.4247 40.1835C36.83 40.4011 38.2838 41.9191 38.411 42.1255C38.5428 42.3294 38.6708 42.5511 38.6464 42.7218C38.6116 42.9742 38.7127 43.2627 38.9149 43.498C39.1085 43.7173 39.3608 43.8495 39.5941 43.8495C39.7964 43.8495 39.9315 43.668 40.0314 43.537L40.0525 43.5096C40.3227 43.152 40.7234 42.6282 40.7752 41.8089C40.8304 40.9688 41.2141 40.6352 41.3393 40.6133C41.3952 40.6029 41.4362 40.6199 41.4512 40.6568C41.4665 40.6949 41.4478 40.7587 41.372 40.8089C41.2062 40.9212 41.1026 41.2929 40.9891 41.6903C40.9883 41.6937 40.9468 42.0961 40.9468 42.0961C40.9373 42.3965 40.9257 42.7372 40.6256 43.0675C40.1764 43.554 39.6609 44.6758 39.5274 46.0923C39.4466 46.9456 39.8308 48.1748 40.6687 49.7413L40.7272 49.8532L40.9539 50.2336C41.183 50.602 41.5659 51.2145 41.5481 51.3579C41.5237 51.5602 41.5046 51.7189 41.1557 52.1569C40.7719 52.6385 39.3716 54.268 39.2348 54.2937C38.9564 54.2937 38.9095 54.3293 38.6853 54.4992L38.4491 54.6791C38.1905 54.8627 38.1453 55.0002 38.1018 55.1217C38.0699 55.2133 38.0397 55.2932 37.9195 55.3832L37.8295 55.4437C37.8109 55.4598 37.7603 55.5311 37.1976 56.0943C36.5523 56.7321 36.2643 57.454 36.3637 58.1714C36.3957 58.3956 36.5888 58.4739 37.1615 58.5C37.7334 58.5265 39.0446 57.609 39.1031 57.3102L39.1234 57.1962C39.1735 56.9269 39.2576 56.4727 39.406 56.4072C39.585 56.3289 39.8917 55.975 40.1167 55.7176L40.1602 55.6691C40.28 55.5307 40.309 55.3931 40.3376 55.2621C40.3621 55.1585 40.3844 55.0541 40.4524 54.9588C40.5059 54.8892 40.5842 54.8511 40.6749 54.8092C40.849 54.7259 41.0682 54.6198 41.2261 54.2232C41.3832 53.8345 42.3206 53.1619 43.0052 52.6724C43.355 52.4238 43.6293 52.2249 43.6948 52.1374C43.7847 52.0201 43.8399 51.7943 43.8399 51.5548C43.8399 51.2705 43.7636 50.9679 43.585 50.7997C43.3252 50.5585 43.0807 49.8407 43.0077 49.6157V49.6107C43.0077 49.5175 42.999 49.3467 42.9849 49.0289C42.9833 49.0144 42.9833 48.999 42.9833 48.9854C42.9833 48.1445 44.2332 47.3219 44.7727 46.9675L45.0189 46.7976C46.9754 45.072 47.3583 43.7599 47.4308 43.3998L47.4706 42.9684C47.4826 42.6696 47.4926 42.3849 47.6728 42.3476C47.7433 42.3339 47.8606 42.3907 47.9318 42.4757C47.9725 42.5217 48.0321 42.6174 47.9923 42.728C47.9032 42.9701 47.8734 45.4031 47.8726 45.5042C47.8792 45.5212 48.0831 45.7616 48.0831 45.7616L48.1204 45.8051L48.1316 45.7483C48.1341 45.7201 48.2464 45.0571 48.2464 44.8225C48.2464 44.5602 48.6683 43.4367 48.7702 43.4172C48.7702 43.4205 48.7768 43.4301 48.7768 43.4301C48.8262 43.5855 48.8892 43.9692 48.8892 44.3737C48.8892 44.7711 48.8291 45.1889 48.6359 45.4309C48.3429 45.7935 48.1096 46.3675 47.9575 46.7462L47.8166 47.0683C47.8007 47.1129 47.7938 47.1602 47.7963 47.2075C47.7963 47.5158 47.9551 48.1731 48.0595 48.2953C48.0868 48.3244 48.1088 48.3244 48.1241 48.319C48.1581 48.3061 48.1888 48.2622 48.1888 48.004C48.1888 47.0206 49.0151 46.3074 49.0251 46.302C49.7536 45.7239 49.9124 44.6518 49.9124 43.835C49.9124 43.2166 49.8216 42.7446 49.8191 42.7318C49.7039 42.5609 49.5873 42.391 49.4693 42.222C49.4863 42.2303 49.5812 42.1524 49.6127 42.1271C49.6442 42.1677 49.9762 42.6079 49.9762 42.6079C50.0321 42.6862 50.1738 42.9145 50.1738 43.0053C50.1738 43.5113 50.2518 43.8577 50.3073 44.1118L50.321 44.1719C50.3794 44.4412 50.7437 45.302 50.7598 45.3389L50.7988 45.4296L50.8108 45.331C50.8108 45.3269 50.8684 44.8768 50.8108 44.4918C50.7777 44.2759 50.8191 44.0111 50.861 43.7251L50.9273 43.0687C50.9273 42.5353 50.851 42.1984 50.6608 41.8917L50.5638 41.7446C50.5257 41.6845 50.4884 41.6257 50.4925 41.6137L50.5638 41.583C52.1026 41.0608 52.8187 39.9278 53.1104 39.3004C53.4163 38.6356 53.4324 37.612 53.4324 37.4152C53.4324 37.1587 53.4212 35.8284 53.1979 35.145C53.0669 34.7418 53.1088 34.3087 53.1527 33.8412L53.2004 33.041C53.2004 32.4935 53.4884 32.087 53.7677 31.6941L54.1005 31.1786C54.318 30.7492 54.2024 30.3734 54.115 30.2661Z" fill="#808183"/>
<path fill-rule="evenodd" clip-rule="evenodd" d="M36.8913 13.1311C36.917 13.1328 37.2439 12.9774 37.2439 12.9774C37.2584 12.9479 37.1826 12.6384 37.1826 12.6384C36.9466 12.3585 36.7094 12.0795 36.471 11.8016L36.4358 11.7606L36.4238 11.812L36.3475 12.1473C36.348 12.144 36.1217 12.6852 36.1217 12.6852L36.1113 12.708L36.5879 12.9517L36.8913 13.1311Z" fill="#808183"/>
<path fill-rule="evenodd" clip-rule="evenodd" d="M37.0329 15.279C37.1084 15.3072 37.2223 15.2948 37.3301 15.2467C37.495 15.1692 37.5924 15.0366 37.5505 14.9417L37.4747 14.8733C37.4001 14.8447 37.2861 14.8576 37.1801 14.9065C37.0387 14.9695 36.9484 15.0743 36.9484 15.1634C36.9484 15.1796 36.953 15.197 36.9583 15.2107L37.0329 15.279ZM39.8796 14.1042L40.0155 14.1775C40.0376 14.2252 40.0801 14.2602 40.1311 14.2728C40.1898 14.2851 40.2509 14.2698 40.2969 14.2314C40.3334 14.2028 40.3421 14.1493 40.3189 14.0818C40.2824 13.9695 40.1651 13.8468 40.0387 13.8468C39.8759 13.8468 39.7271 13.8654 39.7271 13.9856C39.7275 14.0532 39.805 14.0789 39.8796 14.1042ZM40.0424 14.5845C39.9795 14.6309 39.9517 14.6935 39.9695 14.7569L39.9824 14.8095C39.9985 14.8717 40.0043 14.8845 40.0615 14.8911L40.1651 14.9098C40.2977 14.9438 40.5074 14.8613 40.5551 14.7552C40.5712 14.7208 40.5841 14.6541 40.4937 14.5911C40.3383 14.4875 40.1469 14.5099 40.0424 14.5845ZM40.4664 16.429C40.4283 16.4108 40.4444 16.3503 40.4739 16.2625C40.4975 16.1908 40.519 16.122 40.4821 16.0843C40.4498 16.0532 40.3922 16.0557 40.2944 16.0921C39.9422 16.2189 39.8883 16.5778 39.8493 16.8402L39.8373 16.921C39.817 17.0378 39.8771 17.0776 39.9144 17.0909C40.0358 17.134 40.255 17.0237 40.3044 16.9396C40.3595 16.8489 40.6637 16.766 40.8854 16.7055L40.9703 16.6823C41.0731 16.6541 41.1257 16.6147 41.1332 16.5612C41.1444 16.4912 41.0669 16.4274 40.9981 16.3864C40.9343 16.3487 40.8394 16.3756 40.7399 16.4042C40.6413 16.4311 40.5352 16.4589 40.4664 16.429ZM36.7433 16.5637C36.8212 16.5559 36.8821 16.5256 36.9206 16.4701C37.0329 16.3027 37.0387 16.0656 36.9297 15.8505C36.8245 15.6454 36.6442 15.514 36.4602 15.5074L36.4627 15.5082L36.4225 15.5028L36.0835 15.5293C35.9045 15.5691 35.7383 15.7013 35.6981 15.8315C35.6778 15.8973 35.6894 15.9574 35.7346 16.0026C36.0064 16.2906 36.476 16.584 36.7433 16.5637ZM33.4051 16.291C33.4457 16.3909 33.6318 16.4021 33.9049 16.3209L33.965 16.3027L34.4544 16.1112L35.1635 15.645C35.1842 15.6288 35.3695 15.4896 35.3313 15.4005C35.3044 15.342 35.212 15.3524 35.1453 15.3648C34.9496 15.4005 34.7578 15.4945 34.5535 15.594L34.265 15.7279L34.1378 15.7801C33.6989 15.9616 33.3392 16.1245 33.4051 16.291ZM31.914 16.8099C31.7665 16.8099 31.7002 16.8899 31.6463 16.9607L31.5804 17.0353C31.4669 17.1327 31.4321 17.3681 31.4462 17.5471C31.452 17.6217 31.4731 17.7568 31.5464 17.7999C31.6869 17.8866 31.7541 17.8256 31.8975 17.6893L32.0085 17.594C32.1494 17.4759 32.3131 17.342 32.3334 17.136C32.3434 17.049 32.3226 16.9773 32.2742 16.9234C32.188 16.8298 32.0305 16.8099 31.914 16.8099ZM32.7296 16.875C32.6873 16.8658 32.6621 16.8791 32.6488 16.8928C32.6061 16.9346 32.6235 17.0242 32.6368 17.0958L32.6451 17.146L32.6364 17.1762C32.6268 17.2019 32.6161 17.2347 32.6364 17.2624C32.6546 17.2902 32.6989 17.3022 32.7744 17.3022C32.8701 17.3031 32.8796 17.2931 32.912 17.2077L32.9376 17.1418C32.9608 17.0838 32.9613 17.0316 32.9393 16.9902C32.8999 16.9172 32.8021 16.8895 32.7296 16.875ZM33.5182 18.153C33.6257 18.1481 33.7088 18.0569 33.7038 17.9495C33.6992 17.849 33.6188 17.7685 33.5182 17.7639C33.4123 17.7646 33.3269 17.851 33.3276 17.957C33.3276 17.9574 33.3276 17.9578 33.3276 17.9583C33.3276 18.0656 33.4126 18.153 33.5182 18.153ZM37.0711 17.6789C37.0153 17.6686 36.9583 17.6899 36.9231 17.7345C36.8705 17.7958 36.5501 18.0154 36.316 18.1762L36.0139 18.3909L35.9894 18.4145C35.9517 18.4502 35.9331 18.4721 35.9575 18.5459L35.9944 18.5977L36.074 18.5815L36.1917 18.538L36.3612 18.5115C36.5282 18.49 36.7109 18.4651 36.7971 18.3768L36.9094 18.1932L37.0764 17.9251C37.1564 17.8368 37.1606 17.7763 37.1494 17.7419C37.1362 17.7086 37.1065 17.6846 37.0711 17.6789ZM37.4221 18.7622C37.4221 18.8613 37.4714 18.9002 37.4992 18.9139C37.5742 18.9537 37.6819 18.9151 37.7461 18.8256L37.9633 18.6367C38.081 18.5521 38.2124 18.4568 38.3288 18.3089C38.4366 18.17 38.3902 18.0847 38.3516 18.0482C38.2779 17.9761 38.1262 17.9595 38.0748 18.0018L38.0122 18.0445C37.8701 18.1369 37.5336 18.3553 37.449 18.6209C37.4323 18.6662 37.4232 18.714 37.4221 18.7622ZM38.8369 18.6553C38.7926 18.5907 38.7163 18.5637 38.6595 18.5915L38.5066 18.7075C38.3989 18.7954 38.2646 18.9069 38.1481 18.9396C37.8655 19.0154 37.4822 19.1418 37.4585 19.3358L37.4581 19.3611C37.4581 19.4145 37.4822 19.4464 37.5054 19.4643C37.6127 19.5517 37.8734 19.4999 38.0619 19.4286C38.3512 19.3217 38.5269 19.1912 38.754 18.9848C38.8937 18.8575 38.8875 18.7303 38.8369 18.6553ZM37.7379 20.889L37.6459 20.8787C37.408 20.9421 37.0019 21.6416 36.7167 22.163L36.6658 22.2533L35.8112 23.8571L35.5431 24.3677C35.5133 24.4141 35.5236 24.482 35.5684 24.5264C35.6098 24.5678 35.6823 24.5906 35.7702 24.5351C35.9128 24.4402 36.4329 23.9242 36.674 23.5189L36.9952 23.0759C37.2012 22.807 37.4358 22.5061 37.5733 22.1476L37.6218 22.0241C37.948 21.1783 37.9989 21.049 37.7379 20.889ZM40.9513 17.8062C40.849 17.8038 40.7642 17.8849 40.7619 17.9872C40.7619 17.9872 40.7619 17.9871 40.7619 17.9872C40.7619 18.087 40.8468 18.1684 40.9513 18.1684C41.0557 18.1684 41.139 18.0871 41.139 17.9873C41.1374 17.8857 41.0538 17.8046 40.9522 17.8061C40.9519 17.8062 40.9516 17.8062 40.9513 17.8062ZM40.8613 18.5616C40.8613 18.6619 40.9463 18.7432 41.0507 18.7432C41.1519 18.7443 41.2348 18.6632 41.236 18.5621C41.236 18.5619 41.236 18.5618 41.236 18.5616C41.2348 18.4604 41.152 18.3792 41.0507 18.3801C40.9485 18.3785 40.8641 18.4595 40.8613 18.5616ZM41.0354 18.9632C40.9173 18.9632 40.8195 19.0415 40.8195 19.1352C40.8195 19.2301 40.9173 19.3076 41.0354 19.3076C41.1552 19.3076 41.2521 19.2305 41.2521 19.1352C41.2526 19.0415 41.1552 18.9632 41.0354 18.9632ZM41.0267 19.4655C40.8908 19.4655 40.7822 19.5513 40.7822 19.657C40.7822 19.7618 40.8908 19.8476 41.0267 19.8476C41.1626 19.8476 41.2695 19.7614 41.2695 19.657C41.2695 19.5513 41.1626 19.4655 41.0267 19.4655ZM41.0354 20.1029C40.8858 20.1029 40.7619 20.192 40.7619 20.3043C40.7619 20.4149 40.8858 20.504 41.0354 20.504C41.1858 20.504 41.3073 20.4149 41.3073 20.3043C41.3073 20.192 41.1858 20.1029 41.0354 20.1029ZM40.943 21.1712C41.1129 21.1563 41.2376 21.0631 41.2281 20.9553L41.1746 20.8575C41.1162 20.8082 41.0143 20.7833 40.9107 20.7929C40.7465 20.8078 40.6251 20.8965 40.6251 20.998L40.6259 21.0084L40.6811 21.1058C40.7407 21.1563 40.8381 21.1812 40.943 21.1712ZM40.9335 21.8422C41.1237 21.814 41.2579 21.7096 41.2426 21.6018L41.1867 21.5123C41.1203 21.4613 41.0014 21.441 40.88 21.4589C40.6931 21.485 40.5555 21.5915 40.5708 21.6992L40.6284 21.7883C40.6956 21.8397 40.812 21.8592 40.9335 21.8422ZM40.6131 22.1659C40.6131 22.2831 40.7557 22.3768 40.9426 22.3768C41.1286 22.3768 41.2695 22.2831 41.2695 22.1659C41.2695 22.0486 41.1286 21.9562 40.9426 21.9562C40.7552 21.9566 40.6131 22.0486 40.6131 22.1659ZM41.1958 22.8517C41.1958 22.7274 41.0259 22.6325 40.8087 22.6325C40.594 22.6325 40.4241 22.7274 40.4241 22.8517C40.4241 22.9752 40.594 23.0718 40.8087 23.0718C41.0259 23.0718 41.1958 22.9752 41.1958 22.8517ZM40.9488 23.4307C40.9488 23.3092 40.8216 23.211 40.6678 23.211C40.5116 23.211 40.3843 23.3092 40.3843 23.4307C40.3843 23.5521 40.5116 23.6507 40.6678 23.6507C40.822 23.6507 40.9488 23.5521 40.9488 23.4307ZM40.8162 24.1546C40.8162 24.0183 40.6819 23.906 40.5149 23.906C40.3499 23.906 40.2161 24.0183 40.2161 24.1546C40.2161 24.2922 40.3495 24.4029 40.5149 24.4029C40.6819 24.4029 40.8162 24.2922 40.8162 24.1546ZM40.5717 24.8592C40.5717 24.7365 40.4614 24.6391 40.3272 24.6391C40.1937 24.6391 40.081 24.7361 40.081 24.8592C40.081 24.9798 40.1933 25.0784 40.3272 25.0784C40.4614 25.0788 40.5717 24.9798 40.5717 24.8592ZM40.1481 25.2761C40.0188 25.2761 39.9119 25.3743 39.9119 25.4961C39.9119 25.6167 40.0188 25.7149 40.1481 25.7149C40.277 25.7149 40.3827 25.6163 40.3827 25.4961C40.3831 25.3743 40.277 25.2761 40.1481 25.2761ZM39.9484 26.3333C40.081 26.3333 40.1937 26.2479 40.1937 26.1422C40.1937 26.0365 40.0814 25.9524 39.9484 25.9524C39.8149 25.9524 39.7055 26.0369 39.7055 26.1422C39.7055 26.2475 39.8149 26.3333 39.9484 26.3333ZM39.7233 26.7962C39.8464 26.7962 39.9475 26.7245 39.9475 26.6341C39.9475 26.5442 39.8481 26.4729 39.7233 26.4729C39.5945 26.4729 39.4967 26.5438 39.4967 26.6341C39.4967 26.7245 39.5978 26.7962 39.7233 26.7962ZM39.5049 27.2412C39.6222 27.2412 39.7217 27.1687 39.7217 27.0788C39.7217 26.9897 39.6222 26.9172 39.5049 26.9172C39.3843 26.9172 39.289 26.9897 39.289 27.0788C39.2886 27.1687 39.3843 27.2412 39.5049 27.2412ZM33.1154 26.8471L33.1544 26.8546L33.4495 26.8015C33.7114 26.7435 34.1059 26.6553 34.5912 26.6424C34.9459 26.6329 35.3305 26.7568 35.6098 26.848C35.8634 26.9325 35.9898 26.969 36.0379 26.9168C36.0682 26.8824 36.0495 26.8322 36.0329 26.797C35.9567 26.6325 35.6227 26.0916 34.5327 26.0668C33.8245 26.0506 33.2472 26.5322 33.1237 26.7357C33.0993 26.7771 33.0926 26.8078 33.1051 26.8306L33.1154 26.8471ZM37.1685 28.896C37.2377 28.8517 37.2675 28.7734 37.2629 28.661C37.2397 28.2201 37.1216 28.17 36.8784 28.17C36.6318 28.17 36.4536 28.4174 36.4536 28.5458C36.4536 28.6664 36.5423 28.7721 36.7142 28.8583C36.8116 28.9097 37.0358 28.983 37.1685 28.896ZM40.5124 34.2864C40.8638 34.4505 40.9873 34.5089 41.04 34.5251C41.0416 34.5251 41.0433 34.53 41.0433 34.53C41.0433 34.53 41.0458 34.528 41.0458 34.5271C41.0702 34.5346 41.0781 34.5317 41.0839 34.5234C41.0806 34.5209 41.0669 34.5002 41.0594 34.4944C41.0636 34.4911 41.0677 34.4824 41.0677 34.4824C41.0677 34.4824 41.0458 34.4733 41.0441 34.4712C40.8116 34.1778 39.4117 32.1873 39.1137 30.8774C39.0669 30.6614 39.0118 30.4604 38.8709 30.3801C38.7917 30.3357 38.6919 30.3324 38.5704 30.373H38.5696C38.5414 30.3813 38.5211 30.4045 38.5083 30.4385C38.4962 30.4754 38.491 30.5141 38.4929 30.5529C38.4929 31.0207 38.9915 32.3088 39.1544 32.5736C40.0553 34.0361 40.4954 34.2764 40.5124 34.2864ZM51.9553 34.8554L51.9019 34.8657C51.9035 34.874 51.9156 35.2648 51.9156 35.7667C51.9156 36.4985 51.8903 37.4745 51.7635 37.913C51.6607 38.2681 51.1895 38.9482 50.8091 39.4923C50.8091 39.4923 50.3665 40.1562 50.3665 40.157C50.3538 40.1792 50.3474 40.2044 50.3478 40.23C50.3478 40.2954 50.381 40.3572 50.4394 40.3957C50.4837 40.4264 50.6441 40.5051 50.8675 40.2387L51.1501 39.9399C51.5272 39.5636 51.9959 39.0965 52.3262 38.0655C52.6884 36.9337 51.9616 34.8748 51.9553 34.8554ZM40.1655 38.5429C40.1995 38.5769 40.2546 38.5864 40.3122 38.5657C40.4028 38.5343 40.4664 38.4524 40.4743 38.3568C40.4879 38.2151 40.5866 38.0248 40.7333 37.8624C40.8922 37.6818 40.8797 37.4079 40.7051 37.2424L40.5174 37.1674C40.3968 37.1716 40.3068 37.2681 40.3019 37.271C40.2389 37.5721 40.1775 37.8736 40.1174 38.1753V38.1745C40.0996 38.2246 40.0835 38.4641 40.1655 38.5429ZM46.2699 41.8806L46.2604 41.8765L46.2509 41.8806C46.2434 41.8864 46.0859 41.9598 46.0412 42.1135C46.0105 42.2171 46.0677 42.307 46.1124 42.3812L46.1651 42.4798L46.1879 42.6767L46.2235 42.9664C46.2417 43.0281 46.3002 43.069 46.3644 43.065C46.4382 43.0625 46.524 43.0057 46.5521 42.8909C46.5903 42.7355 46.6089 42.525 46.6089 42.2449C46.6081 41.9892 46.2844 41.8839 46.2699 41.8806ZM36.7955 39.5238C36.7743 39.4993 34.5365 37.0709 34.0528 36.4347C33.5601 35.7828 33.3247 35.7335 33.0835 35.867C33.0474 35.8876 33.0237 35.9246 33.0201 35.966C32.9853 36.2308 33.5444 36.8715 34.0338 37.3419C34.718 38.0004 36.7391 39.5482 36.7598 39.5636L36.7955 39.5238ZM28.0243 32.3564C27.5709 32.075 26.786 31.9188 26.7781 31.9155L26.7574 31.9631L27.6281 32.6196C27.7715 32.7373 28.4051 33.1306 28.6099 32.9698C28.6368 32.9495 28.652 32.9172 28.6505 32.8836C28.6438 32.7654 28.4242 32.6076 28.0243 32.3564ZM27.8117 28.6412L27.873 28.615C27.9514 28.5268 27.7711 28.276 27.5519 28.0734C27.3542 27.891 27.1532 27.7734 27.0479 27.7792L26.9882 27.8049C26.9755 27.8204 26.9689 27.8402 26.97 27.8604C26.97 27.9748 27.1267 28.177 27.3086 28.3469C27.5067 28.5293 27.7093 28.6478 27.8117 28.6412ZM30.1382 28.3241L30.0491 28.3295C29.8801 28.4004 29.6115 28.8301 29.3973 29.3743C29.2464 29.7584 29.1324 30.1774 29.1324 30.4298C29.1324 30.5495 29.1581 30.6308 29.2153 30.6548L29.3032 30.6494C29.4723 30.5773 29.74 30.1467 29.9567 29.6043C30.1072 29.2193 30.2199 28.8003 30.2199 28.5475C30.2199 28.4285 30.1954 28.3469 30.1382 28.3241ZM25.9501 25.6702C25.7317 25.6702 25.5577 25.7738 25.5577 25.9047C25.5577 26.0349 25.7317 26.1372 25.9501 26.1372C26.1718 26.1372 26.3442 26.0349 26.3442 25.9047C26.3442 25.7738 26.1718 25.6702 25.9501 25.6702ZM24.5573 28.5699L24.6252 28.5637C24.7433 28.5056 24.922 28.1845 25.0566 27.7837C25.1992 27.3573 25.2771 26.8993 25.1391 26.8504L25.0724 26.8575C24.9522 26.9167 24.774 27.2371 24.6406 27.6374C24.4955 28.0643 24.4222 28.5222 24.5573 28.5699ZM24.9219 30.7758C25.038 30.6204 25.0612 30.4455 24.975 30.3801L24.8747 30.3585C24.791 30.3693 24.6911 30.4397 24.6165 30.5437C24.5005 30.6992 24.4773 30.8736 24.5631 30.9379L24.6638 30.9615C24.7471 30.9486 24.8482 30.879 24.9219 30.7758ZM24.7885 33.1919L24.779 33.1861L24.7355 33.1815C24.5788 33.218 24.689 33.9001 24.7699 34.259C24.8847 34.76 25.0401 35.1645 25.1478 35.2317L25.1569 35.2383L25.1996 35.2428C25.3587 35.2064 25.246 34.5209 25.1656 34.1654C25.0517 33.6614 24.8979 33.2594 24.7885 33.1919ZM23.2104 34.1078C23.084 34.1078 22.9821 34.2014 22.9821 34.3183C22.9821 34.4293 23.084 34.523 23.2104 34.523C23.336 34.523 23.4412 34.4293 23.4412 34.3183C23.4416 34.2014 23.3364 34.1078 23.2104 34.1078ZM27.0877 39.0592C26.9422 39.0585 26.8233 39.1752 26.8212 39.3207C26.8212 39.4616 26.941 39.5781 27.0877 39.5781C27.2326 39.5806 27.3522 39.4656 27.3554 39.3207C27.3534 39.1747 27.2337 39.0578 27.0877 39.0592ZM40.1954 45.9577C40.2037 45.9705 40.2277 46.0136 40.2642 46.0095L40.2795 46.0086L40.3077 45.9664L40.548 45.2337L40.7358 44.7455L40.8962 44.3742C40.9455 44.2494 40.9455 44.1661 40.897 44.1176C40.8199 44.0472 40.6608 44.1073 40.6413 44.1143C40.6284 44.1247 40.1896 44.8574 40.1896 44.8574C40.1038 44.9883 40.0715 45.1649 40.0715 45.3464C40.0715 45.605 40.1361 45.8632 40.1954 45.9577ZM41.2919 49.6178L41.3006 49.544C41.3064 49.5005 41.4382 48.4815 41.1249 48.0878C41.0602 48.0015 40.9621 47.9465 40.8547 47.9365C40.7606 47.9278 40.696 47.9552 40.6603 48.0144C40.4693 48.3269 41.219 49.5038 41.2521 49.5548L41.2919 49.6178ZM43.047 51.5565C42.8969 51.5546 42.7737 51.6748 42.7718 51.825C42.7718 51.8253 42.7718 51.8255 42.7718 51.8258C42.7718 51.9771 42.8949 52.0944 43.047 52.0944C43.1955 52.0944 43.3159 51.9739 43.3159 51.8254C43.3159 51.6769 43.1955 51.5565 43.047 51.5565ZM38.9148 48.2743C38.7859 48.2743 38.6761 48.3745 38.6761 48.4985C38.6761 48.6257 38.7863 48.7235 38.9148 48.7235C39.0466 48.7235 39.1527 48.6257 39.1527 48.4985C39.1527 48.3745 39.0466 48.2743 38.9148 48.2743ZM41.926 52.2485L41.897 52.2419C41.7544 52.2419 41.2148 52.7139 40.7548 53.1847C40.7142 53.2278 39.7155 54.2522 39.8477 54.3857L39.8551 54.394L39.8875 54.4006C40.0317 54.4006 40.5704 53.9269 41.0279 53.4586C41.071 53.4151 42.0714 52.3944 41.9351 52.256L41.926 52.2485ZM38.9268 55.0181C38.8435 55.0181 38.713 55.096 38.5965 55.2125C38.4573 55.3517 38.3562 55.5444 38.4308 55.6236L38.5045 55.6501C38.5895 55.6501 38.7205 55.5738 38.8365 55.4549C38.9724 55.314 39.0769 55.1254 38.9994 55.0455L38.9268 55.0181ZM37.611 56.9141C37.5087 56.9141 37.3641 56.9982 37.2377 57.1262C37.1055 57.2589 37.0296 57.4056 37.0296 57.5075C37.0296 57.5465 37.04 57.578 37.0644 57.5999L37.1577 57.6356C37.2584 57.6356 37.4072 57.5539 37.5311 57.425C37.7147 57.2373 37.7884 57.0363 37.7051 56.9493L37.611 56.9141ZM30.7321 47.3646C30.5348 47.3646 30.3745 47.4769 30.3745 47.6186C30.3745 47.7595 30.5353 47.8681 30.7321 47.8681C30.931 47.8681 31.0898 47.7595 31.0898 47.6186C31.0902 47.4769 30.931 47.3646 30.7321 47.3646ZM33.6455 47.5685C33.5054 47.5685 33.3964 47.6439 33.3964 47.7434C33.3964 47.8366 33.5054 47.9133 33.6455 47.9133C33.7806 47.9133 33.8925 47.8362 33.8925 47.7434C33.8925 47.646 33.7806 47.5685 33.6455 47.5685ZM37.2012 48.7583L37.2227 48.7251C37.2629 48.5577 36.4242 48.2962 35.9757 48.1827C35.4374 48.0451 34.7976 47.9348 34.6562 48.0198L34.6463 48.0264L34.6235 48.0612C34.5829 48.2303 35.4213 48.4885 35.8705 48.6058C36.4084 48.7409 37.0483 48.8478 37.1917 48.7637L37.2012 48.7583Z" fill="#F0F0F0"/>
</g>
<defs>
<clipPath id="clip0_2049_1447">
<rect width="76" height="76" fill="white"/>
</clipPath>
</defs>
</svg>
