<svg width="27" height="30" viewBox="0 0 27 30" fill="none" xmlns="http://www.w3.org/2000/svg">
<path fill-rule="evenodd" clip-rule="evenodd" d="M11.2695 11.8914C11.9048 11.388 12.6303 11.0104 13.407 10.7789C14.1848 10.5251 15.0085 10.4441 15.8208 10.5414C15.8743 10.5541 15.9298 10.5557 15.9839 10.546C16.038 10.5363 16.0896 10.5156 16.1353 10.4851C16.1811 10.4546 16.22 10.415 16.2498 10.3687C16.2795 10.3225 16.2995 10.2706 16.3083 10.2164C16.321 10.1612 16.3222 10.1041 16.3118 10.0484C16.3015 9.99281 16.2798 9.93991 16.2482 9.89301C16.2165 9.84611 16.1756 9.80623 16.1278 9.77584C16.0801 9.74545 16.0267 9.72521 15.9708 9.71636C15.0391 9.52261 14.0775 9.52261 13.1458 9.71636C12.2019 9.90333 11.2996 10.259 10.482 10.7664C10.1411 10.9415 9.84121 11.1869 9.60205 11.4864C9.36289 11.7859 9.18992 12.1327 9.09452 12.5039C9.061 12.8017 9.09656 13.1032 9.19845 13.385C9.30034 13.6668 9.46581 13.9214 9.68202 14.1289C9.95773 14.4374 10.292 14.6881 10.6653 14.8664C11.0387 15.0447 11.4438 15.1471 11.857 15.1676C12.6667 15.1828 13.4733 15.0646 14.2445 14.8176C14.8389 14.6115 15.4675 14.5223 16.0958 14.5551C17.1208 14.7176 18.2083 15.3551 19.2833 15.5676C19.8424 15.6982 20.4267 15.6723 20.972 15.4926C21.0319 15.4746 21.0877 15.4449 21.1362 15.4053C21.1846 15.3657 21.2248 15.3169 21.2544 15.2618C21.284 15.2066 21.3024 15.1462 21.3087 15.0839C21.3149 15.0217 21.3088 14.9588 21.2908 14.8989C21.2727 14.8389 21.243 14.7832 21.2034 14.7347C21.1638 14.6863 21.115 14.6461 21.0599 14.6165C21.0048 14.5869 20.9443 14.5685 20.8821 14.5622C20.8198 14.556 20.7569 14.5621 20.697 14.5801C20.3115 14.6785 19.9075 14.6785 19.522 14.5801C18.447 14.2801 17.3845 13.5301 16.3595 13.3301C15.5288 13.1791 14.6752 13.209 13.857 13.4176C13.2304 13.5916 12.5823 13.6757 11.932 13.6676C11.5039 13.6419 11.1017 13.4542 10.807 13.1426C10.657 12.9801 10.557 12.8801 10.607 12.7551C10.7222 12.4001 10.9562 12.0955 11.2695 11.8926" fill="#F0F0F0"/>
<path fill-rule="evenodd" clip-rule="evenodd" d="M25.862 10.2038C24.5245 9.64125 23.3608 8.95375 22.0483 8.31625C21.1827 7.87562 20.2785 7.51536 19.347 7.24C17.7795 6.80595 16.1345 6.72907 14.5333 7.015C14.7624 6.14833 14.9208 5.26917 15.0083 4.3775C15.083 3.59704 15.0493 2.80999 14.9083 2.03875C14.5958 0.55 13.7958 0 13.0958 0C12.6287 0.0435803 12.1798 0.202264 11.7891 0.461851C11.3984 0.721438 11.0782 1.07383 10.857 1.4875L9.96952 3.05C9.35112 4.43699 8.8205 5.86146 8.38077 7.315H8.23077C7.14568 8.02921 6.20436 8.94084 5.45577 10.0025C5.06657 10.5109 4.7271 11.0555 4.44202 11.6288C4.15085 12.2119 3.92047 12.8234 3.75452 13.4537C3.62741 13.924 3.59844 14.4154 3.6694 14.8973C3.74037 15.3792 3.90975 15.8414 4.16702 16.255C4.41582 16.5857 4.78479 16.8052 5.19414 16.866C5.60348 16.9268 6.02032 16.8241 6.35452 16.58C5.9828 18.1129 5.77332 19.6807 5.72952 21.2575C5.74035 21.4517 5.76952 21.6433 5.81702 21.8325C5.85702 22.0333 5.91535 22.2292 5.99202 22.42C6.18035 22.8617 6.41369 23.2783 6.69202 23.67C6.85452 24.0575 7.72952 24.2825 9.28077 22.845C9.44327 22.695 9.59327 22.5325 9.73077 22.3575C9.87077 22.1833 9.99577 22 10.1058 21.8075C10.3224 21.3617 10.5141 20.9075 10.6808 20.445C11.1395 20.84 11.6645 21.1488 12.232 21.3575C12.567 21.4825 12.9129 21.5575 13.2695 21.5825C13.812 21.62 14.357 21.57 14.882 21.4325C14.9945 21.4325 15.082 21.295 15.1945 21.245C16.0965 21.8255 17.1377 22.1535 18.2095 22.195C18.9543 22.1872 19.6961 22.0992 20.422 21.9325C21.4245 21.6643 22.4439 21.4638 23.4733 21.3325C23.5992 21.3325 23.7201 21.2825 23.8091 21.1934C23.8982 21.1043 23.9483 20.9835 23.9483 20.8575C23.9483 20.7315 23.8982 20.6107 23.8091 20.5216C23.7201 20.4325 23.5992 20.3825 23.4733 20.3825C22.2233 20.29 20.967 20.32 19.7233 20.47L18.3095 20.6075H17.4095C16.9883 20.6075 16.5683 20.5612 16.1595 20.47C16.3051 20.3181 16.4272 20.1453 16.522 19.9575C16.6864 19.6058 16.7173 19.2064 16.609 18.8336C16.5007 18.4608 16.2605 18.1401 15.9333 17.9313H15.7583C16.0449 17.7418 16.2894 17.4952 16.4765 17.2071C16.6636 16.9189 16.7893 16.5952 16.8458 16.2563C16.8955 15.9407 16.8465 15.6176 16.7056 15.3309C16.5646 15.0443 16.3385 14.8082 16.0583 14.655C15.9568 14.5909 15.8348 14.5676 15.7168 14.5898C15.5988 14.6119 15.4936 14.678 15.4223 14.7746C15.3511 14.8712 15.319 14.9912 15.3326 15.1105C15.3463 15.2298 15.4045 15.3395 15.4958 15.4175C15.578 15.4909 15.6363 15.5874 15.6631 15.6944C15.6898 15.8014 15.6838 15.914 15.6458 16.0175C15.5632 16.1957 15.4399 16.3519 15.2857 16.4735C15.1315 16.5952 14.9508 16.6787 14.7583 16.7175C14.4526 16.775 14.1389 16.775 13.8333 16.7175L13.0833 16.6425C12.7165 16.5877 12.353 16.5126 11.9945 16.4175V15.73C12.0225 15.6749 12.0381 15.6144 12.0403 15.5526C12.0425 15.4909 12.0312 15.4294 12.0072 15.3724C11.9832 15.3155 11.9471 15.2645 11.9014 15.2229C11.8556 15.1814 11.8014 15.1503 11.7424 15.1319C11.6834 15.1134 11.6211 15.1081 11.5598 15.1162C11.4986 15.1243 11.4398 15.1457 11.3877 15.1788C11.3355 15.212 11.2912 15.2561 11.2579 15.3081C11.2245 15.3601 11.2029 15.4188 11.1945 15.48C11.0695 15.705 10.2695 17.28 10.207 17.48C10.1468 17.6934 10.1009 17.9105 10.0695 18.13C10.0645 18.2216 10.0645 18.3134 10.0695 18.405C9.74452 18.2675 9.46952 18.105 9.14452 17.98C9.00931 17.9162 8.86648 17.87 8.71952 17.8425C8.5795 17.8094 8.43689 17.7885 8.29327 17.78C7.90577 17.78 7.58077 17.855 7.20577 17.88H7.13077C7.80577 15.2425 8.49327 12.4925 9.28077 9.79125C9.83477 7.72809 10.5409 5.70882 11.3933 3.75L12.0945 2.3125C12.382 1.825 12.682 1.4375 13.032 1.425C13.382 1.4125 13.4945 1.7625 13.6445 2.35C13.8071 3.00357 13.8744 3.67718 13.8445 4.35C13.8029 5.41417 13.6612 6.46458 13.4195 7.50125C13.3927 7.62371 13.4142 7.75178 13.4793 7.85886C13.5445 7.96593 13.6484 8.04379 13.7695 8.07625C13.8687 8.09485 13.9713 8.08048 14.0616 8.03534C14.1518 7.9902 14.2249 7.91677 14.2695 7.82625C14.3222 7.84435 14.3794 7.84435 14.432 7.82625C15.5695 7.82875 16.7008 8.00625 17.7845 8.35125C18.1845 8.47625 18.5845 8.62625 18.972 8.76375C19.5845 8.97625 20.222 9.21375 20.7845 9.43875C22.3345 10.0263 23.8983 10.6263 25.5495 11.0775C25.6706 11.1175 25.8025 11.1085 25.917 11.0524C26.0315 10.9964 26.1194 10.8977 26.162 10.7775C26.1974 10.6615 26.1858 10.5362 26.1297 10.4286C26.0736 10.321 25.9774 10.2398 25.862 10.2025M6.39327 15.005C6.2422 15.1893 6.04937 15.335 5.83077 15.43C5.6897 15.4827 5.53434 15.4827 5.39327 15.43C5.29327 15.43 5.29327 15.2675 5.25577 15.155C5.11894 14.7111 5.11894 14.2364 5.25577 13.7925C5.43861 13.1498 5.6727 12.5228 5.95577 11.9175C6.22994 11.2908 6.5466 10.6863 6.90577 10.1038C7.20577 9.66458 7.53494 9.24792 7.89327 8.85375C7.89327 9.07875 7.75577 9.27875 7.69327 9.50375C7.29402 11.1581 6.95215 12.8258 6.66827 14.5037C6.60577 14.6787 6.51827 14.8425 6.39327 15.005ZM13.0945 18.255C13.7445 18.4425 14.4333 18.4425 15.082 18.255C15.0506 18.3415 15.0457 18.4354 15.068 18.5247C15.0903 18.614 15.1387 18.6946 15.207 18.7563C15.2935 18.8597 15.3408 18.9902 15.3408 19.125C15.3408 19.2598 15.2935 19.3903 15.207 19.4938C15.113 19.617 14.9945 19.7195 14.859 19.7948C14.7235 19.8701 14.5738 19.9165 14.4195 19.9312C14.0423 20.0152 13.6556 20.0489 13.2695 20.0312C12.8509 20.0509 12.4314 20.0216 12.0195 19.9437C11.6274 19.8585 11.2488 19.7197 10.8945 19.5312C11.057 19.2313 11.2195 18.9437 11.357 18.6437C11.4529 18.4412 11.532 18.2329 11.5945 18.0187C11.6254 17.9104 11.6504 17.8021 11.6695 17.6937C12.1195 17.9387 12.5983 18.1263 13.0945 18.255ZM6.95577 18.7575C7.2616 18.9775 7.58244 19.1733 7.91827 19.345C8.05744 19.41 8.20327 19.4558 8.35577 19.4825C8.50994 19.495 8.6641 19.495 8.81827 19.4825C9.18244 19.4717 9.54494 19.4425 9.90577 19.395V19.6825C9.8673 19.7831 9.8673 19.8944 9.90577 19.995C9.49327 20.3175 9.1016 20.6633 8.73077 21.0325C8.52182 21.2893 8.32574 21.5563 8.14327 21.8325C7.93077 22.1575 7.74327 22.4962 7.54327 22.8212C7.54327 22.5296 7.51827 22.2421 7.46827 21.9587C7.44171 21.6544 7.38732 21.3532 7.30577 21.0588C7.13061 20.5613 6.89555 20.0869 6.60577 19.6463C6.60577 19.6463 6.68077 19.5588 6.69327 19.5088C6.76827 19.2338 6.84327 18.9462 6.90577 18.67C6.91827 18.7575 6.93077 18.7575 6.95577 18.7575Z" fill="#F0F0F0"/>
<path fill-rule="evenodd" clip-rule="evenodd" d="M11.6945 26.7837C10.2903 26.2355 8.75739 26.1052 7.28077 26.4087L5.80577 26.7837L4.21702 27.0087C3.88869 27.0212 3.56369 26.9962 3.24202 26.9337C2.94119 26.8708 2.6508 26.7656 2.37952 26.6212C1.86702 26.3587 1.51702 26.0462 1.45452 25.6587C1.42949 25.4179 1.46966 25.1748 1.57082 24.9549C1.67198 24.735 1.83041 24.5464 2.02952 24.4087C2.50562 24.0002 3.05791 23.6901 3.65452 23.4962C4.28095 23.2991 4.93549 23.2062 5.59202 23.2212C5.69146 23.2048 5.78185 23.1537 5.84707 23.0769C5.9123 23.0001 5.9481 22.9026 5.9481 22.8018C5.9481 22.701 5.9123 22.6035 5.84707 22.5267C5.78185 22.4499 5.69146 22.3988 5.59202 22.3824C4.85267 22.3019 4.1051 22.3442 3.37952 22.5074C2.61586 22.6754 1.89341 22.9941 1.25452 23.4449C0.852524 23.6895 0.524055 24.0382 0.303813 24.454C0.0835708 24.8699 -0.0202663 25.3375 0.0032707 25.8074C0.0706212 26.2787 0.252955 26.7262 0.534177 27.1103C0.815399 27.4944 1.18686 27.8034 1.61577 28.0099C2.00327 28.2374 2.42577 28.4024 2.86577 28.4974C3.30952 28.5912 3.76327 28.6287 4.21577 28.6099C4.5491 28.6008 4.87869 28.5674 5.20452 28.5099C5.51702 28.5099 5.82952 28.3849 6.14202 28.3099L7.64202 27.8224C8.78409 27.4778 10.0024 27.4778 11.1445 27.8224C11.3445 27.9099 11.532 27.9974 11.582 28.1849C11.632 28.3724 11.582 28.7849 11.2195 29.2349C11.1634 29.3105 11.1308 29.4009 11.1258 29.4949C11.1208 29.5888 11.1436 29.6822 11.1913 29.7633C11.2391 29.8444 11.3097 29.9096 11.3943 29.9508C11.4789 29.992 11.5737 30.0073 11.667 29.9949C11.7291 29.9864 11.789 29.9657 11.843 29.9339C11.8971 29.9022 11.9443 29.86 11.982 29.8099C12.2279 29.564 12.4134 29.2645 12.524 28.9348C12.6346 28.6052 12.6673 28.2544 12.6195 27.9099C12.5552 27.667 12.4392 27.4408 12.2796 27.2466C12.12 27.0525 11.9204 26.8938 11.6945 26.7837Z" fill="#F0F0F0"/>
</svg>
