<svg width="2793" height="1314" viewBox="0 0 2793 1314" fill="none" xmlns="http://www.w3.org/2000/svg">
<g opacity="0.1">
<path d="M820.286 703.874L805.088 720.211L802.36 729.494L807.036 733.206L815.22 734.321L820.676 732.836" stroke="#414141" stroke-width="3.66667" stroke-linecap="round" stroke-linejoin="round"/>
<path d="M774.692 1056.25L782.486 1060.34L789.11 1078.53L782.876 1087.07L774.692 1084.1L766.898 1074.82L765.73 1060.34L774.692 1056.25" stroke="#414141" stroke-width="3.66667" stroke-linecap="round" stroke-linejoin="round"/>
<path d="M692.469 545.693L702.211 533.811L710.395 530.098L715.461 536.41L715.849 545.693L710.783 563.145L702.601 569.085L694.807 569.828L687.013 567.229L684.676 564.258L685.843 554.975L692.859 545.693" stroke="#414141" stroke-width="3.66667" stroke-linecap="round" stroke-linejoin="round"/>
<path d="M819.896 1165.05L814.44 1168.39L790.28 1188.07L793.786 1198.1L819.896 1215.55" stroke="#414141" stroke-width="3.66667" stroke-linecap="round" stroke-linejoin="round"/>
<path d="M820.286 1148.71L811.322 1152.05L798.852 1163.56L771.575 1179.9L767.679 1188.81L773.135 1198.1L810.154 1225.94L812.492 1230.03" stroke="#414141" stroke-width="3.66667" stroke-linecap="round" stroke-linejoin="round"/>
<path d="M820.286 1137.94L814.83 1138.31L796.514 1142.77L777.811 1161.33L763.003 1170.62L752.481 1179.9L750.533 1188.81L754.429 1198.1L789.11 1225.94L791.838 1230.03" stroke="#414141" stroke-width="3.66667" stroke-linecap="round" stroke-linejoin="round"/>
<path d="M819.896 1127.92L790.28 1130.52L782.096 1132.74L774.302 1139.43L766.508 1152.05L741.958 1170.62L735.334 1179.9L734.944 1188.81L738.84 1198.1L764.95 1225.94L766.508 1230.03" stroke="#414141" stroke-width="3.66667" stroke-linecap="round" stroke-linejoin="round"/>
<path d="M819.896 1119.75L814.44 1120.49L790.28 1119.75L774.302 1121.6L766.508 1126.06L750.532 1148.34L723.255 1170.62L718.967 1179.9V1188.81L722.865 1198.1L744.296 1225.94L743.518 1230.03" stroke="#414141" stroke-width="3.66667" stroke-linecap="round" stroke-linejoin="round"/>
<path d="M820.286 1107.86L806.646 1110.46L774.693 1107.5L766.899 1108.24L759.105 1111.58L743.129 1136.46L714.291 1161.34L706.497 1170.62L702.601 1179.9L701.821 1188.81L704.159 1198.1L718.189 1216.66L722.085 1225.94L719.357 1230.03" stroke="#414141" stroke-width="3.66667" stroke-linecap="round" stroke-linejoin="round"/>
<path d="M649.992 1152.05L654.668 1146.11L662.852 1140.54L671.034 1139.8L679.218 1142.77L680.388 1152.05L672.204 1170.62L669.086 1188.81L678.828 1216.66L679.608 1225.94L677.66 1230.03" stroke="#414141" stroke-width="3.66667" stroke-linecap="round" stroke-linejoin="round"/>
<path d="M616.869 1230.03L628.171 1216.66" stroke="#414141" stroke-width="3.66667" stroke-linecap="round" stroke-linejoin="round"/>
<path d="M628.169 1216.66L638.691 1205.89L646.875 1205.15L654.669 1211.46L657.397 1216.66L658.177 1225.94L656.617 1230.03" stroke="#414141" stroke-width="3.66667" stroke-linecap="round" stroke-linejoin="round"/>
<path d="M1755.53 358.179L1753.97 361.891L1753.19 371.173L1755.14 380.456L1767.61 407.935L1775.79 417.217L1804.24 436.898L1828.4 438.382L1844.38 444.694L1852.56 453.976L1855.68 472.172L1866.2 490.738L1867.37 500.02L1860.35 504.476L1836.19 499.277L1780.47 491.481L1768 481.826L1758.26 463.261L1748.51 454.72L1708.77 438.382L1700.58 437.267L1692.79 439.867L1668.63 453.607L1660.84 455.091L1652.65 450.264L1640.18 417.217L1628.88 403.107L1588.74 375.629L1564.97 363.747L1548.61 364.119L1540.42 367.461L1532.24 374.145L1520.94 390.11L1513.92 417.589L1508.47 430.212L1500.67 432.07L1492.49 430.212L1466.77 417.217L1457.03 407.935L1457.81 399.022L1484.31 382.312L1491.32 371.545L1494.44 358.548" stroke="#414141" stroke-width="3.66667" stroke-linecap="round" stroke-linejoin="round"/>
<path d="M1684.99 358.179L1700.97 371.545L1709.93 371.173L1708.38 358.179" stroke="#414141" stroke-width="3.66667" stroke-linecap="round" stroke-linejoin="round"/>
<path d="M1645.25 357.807V357.807L1665.51 370.802L1678.76 389.369L1685.39 407.563L1683.83 416.846L1677.2 425.385L1669.02 429.099L1663.95 426.128L1660.84 423.157L1654.21 407.935L1628.88 381.943L1581.73 358.548" stroke="#414141" stroke-width="3.66667" stroke-linecap="round" stroke-linejoin="round"/>
<path d="M1877.89 358.178L1879.45 361.891L1887.63 371.173L1900.1 391.597L1932.06 409.047L1936.73 417.217L1939.07 426.5L1935.95 454.348L1938.29 463.261L1956.22 470.316L1967.52 481.455L1969.47 490.737L1967.91 518.586L1960.11 536.781L1950.76 546.064L1937.12 555.347L1924.65 560.545L1908.67 562.03L1876.72 554.975L1821 554.232L1796.84 549.776L1781.25 551.263L1773.06 550.148L1748.9 534.923L1709.16 524.528L1677.2 532.695L1645.64 531.211L1629.66 527.127L1615.63 518.586L1609.79 509.303L1607.84 481.455L1605.5 475.143L1597.32 464.002L1589.52 458.803L1581.34 466.23L1573.55 484.795L1568.09 490.737L1557.57 495.936L1541.59 498.164L1501.84 495.193L1493.66 492.965L1485.48 486.654L1461.32 462.889L1437.55 452.492L1421.96 441.725L1413.78 438.754L1389.61 436.897L1357.66 440.61L1349.87 439.866L1341.68 436.154L1331.55 426.128L1326.48 416.846L1317.13 380.084L1315.57 370.802L1317.13 361.519L1325.32 362.634L1341.29 368.202L1356.88 370.43L1365.06 369.317L1373.25 361.891L1374.03 357.807" stroke="#414141" stroke-width="3.66667" stroke-linecap="round" stroke-linejoin="round"/>
<path d="M2060.26 1194.01L2068.44 1199.21L2074.68 1207.38L2078.58 1216.66L2076.24 1220.37L2060.26 1222.6L2052.47 1220.37L2048.18 1216.66L2044.67 1207.38L2045.45 1198.1L2052.47 1192.53L2060.26 1194.01" stroke="#414141" stroke-width="3.66667" stroke-linecap="round" stroke-linejoin="round"/>
<path d="M1935.56 1230.03L1918.42 1216.66L1898.54 1207.38L1877.11 1194.38L1845.16 1181.39L1829.18 1170.62L1805.02 1161.71L1773.07 1154.65L1765.27 1150.94L1749.3 1134.6L1741.11 1131.26L1725.13 1130.89L1717.34 1129.03L1711.89 1125.32L1693.18 1098.21L1677.2 1085.21L1669.02 1075.56L1663.95 1061.08L1660.06 1033.23L1653.43 1019.86L1613.68 971.592L1605.5 965.279L1592.64 960.08L1584.85 950.797L1589.14 947.085L1596.93 946.342L1612.9 939.658L1621.09 938.915L1628.88 942.629L1637.07 955.624L1645.25 960.451L1653.04 961.195L1677.2 958.967L1701.36 960.08L1709.16 963.422L1715 969.362L1723.97 987.93L1741.11 1007.24L1750.85 1015.41L1773.46 1029.52L1781.64 1032.49L1789.82 1031.74L1805.41 1022.83L1813.59 1021.72L1821.78 1023.95L1840.87 1033.6L1852.95 1042.88L1865.81 1061.45L1877.5 1073.33L1885.68 1076.67H1893.87L1925.82 1071.48L1934.01 1072.96L1957.78 1093.38L1965.96 1097.1L1990.12 1096.72L1998.3 1098.58L2038.05 1120.12L2044.29 1120.86L2052.47 1118.26L2068.45 1100.07L2076.63 1098.21L2080.53 1098.58" stroke="#414141" stroke-width="3.66667" stroke-linecap="round" stroke-linejoin="round"/>
<path d="M1960.89 1230.03L1940.63 1216.29L1908.68 1199.21L1876.72 1179.16L1858.41 1170.62L1849.44 1161.33L1836.58 1141.65L1828.4 1138.31L1804.24 1134.6L1780.47 1134.23L1772.29 1126.43L1768.39 1115.29L1764.49 1111.58L1756.31 1107.49L1732.15 1100.81L1723.97 1095.61L1710.72 1078.9L1688.11 1060.71L1684.22 1051.42L1686.56 1042.14L1699.81 1013.55L1709.16 1009.47L1732.93 1030.26L1757.09 1038.43L1781.25 1050.68L1789.43 1051.42L1813.2 1045.48L1829.18 1048.83L1836.97 1054.02L1861.13 1082.62L1876.72 1093.38L1892.7 1095.98L1916.86 1093.38L1925.04 1094.5L1948.81 1114.55L1957 1118.26L1965.18 1119.38L1989.34 1112.32L1997.52 1114.18L2013.5 1121.6L2037.27 1139.8L2045.46 1142.03L2061.43 1140.17L2081.7 1124.2" stroke="#414141" stroke-width="3.66667" stroke-linecap="round" stroke-linejoin="round"/>
<path d="M2018.96 1230.03L2011.94 1220L2003.76 1219.26L1987.78 1223.72L1971.8 1221.12L1949.98 1207.38L1910.23 1188.81L1873.99 1161.33L1869.71 1152.05L1871.66 1133.49L1875.94 1126.8L1907.89 1120.12L1923.87 1123.46L1947.64 1136.46L1955.83 1139.05H1971.8L1987.78 1135.34L1996.35 1136.09L2004.54 1139.05" stroke="#414141" stroke-width="3.66667" stroke-linecap="round" stroke-linejoin="round"/>
<path d="M2004.54 1138.68L2020.13 1154.28L2028.31 1157.25L2060.26 1160.59L2076.24 1168.39L2080.14 1171.36" stroke="#414141" stroke-width="3.66667" stroke-linecap="round" stroke-linejoin="round"/>
<path d="M1972.58 1168.39L1992.85 1179.9L1996.35 1185.1L1997.91 1188.81L1994.02 1198.1L1988.56 1202.92L1980.77 1203.29L1964.79 1191.78L1941.02 1189.18L1925.04 1184.36L1915.69 1179.9L1905.95 1170.62L1900.88 1161.34L1904 1152.05L1916.86 1145.37L1925.04 1145L1933.22 1147.97L1948.81 1158.36L1972.58 1168.39" stroke="#414141" stroke-width="3.66667" stroke-linecap="round" stroke-linejoin="round"/>
<path d="M1528.73 1142.77L1541.2 1134.23L1549.39 1131.26L1557.18 1131.63L1561.47 1133.49L1564.19 1142.77L1562.63 1152.05L1557.96 1161.34L1549.39 1170.62L1517.43 1189.18L1495.22 1198.1H1489.76L1487.04 1188.81L1493.27 1179.9L1509.64 1161.34L1528.73 1142.77" stroke="#414141" stroke-width="3.66667" stroke-linecap="round" stroke-linejoin="round"/>
<path d="M1764.49 1068.13L1772.28 1075.56L1780.47 1077.05L1804.24 1075.93L1817.1 1078.9L1838.14 1097.47L1840.87 1106.75L1836.19 1108.61L1828.01 1107.49L1819.83 1103.04L1795.66 1097.84L1782.8 1088.19L1780.47 1084.1L1772.28 1081.13L1750.46 1078.9L1740.33 1069.62L1748.51 1061.08L1756.7 1063.31L1764.49 1068.13" stroke="#414141" stroke-width="3.66667" stroke-linecap="round" stroke-linejoin="round"/>
<path d="M1908.67 943.372L1918.42 931.861L1924.65 927.778L1932.83 925.55L1941.02 926.291L1947.64 931.861L1951.54 940.773L1948.81 951.17L1941.02 957.112L1925.04 964.167L1909.06 979.018L1900.88 980.876L1896.98 977.905L1893.09 968.623L1892.7 959.34L1908.67 943.372" stroke="#414141" stroke-width="3.66667" stroke-linecap="round" stroke-linejoin="round"/>
<path d="M1817.1 358.179L1805.41 363.376L1796.05 370.802L1795.66 380.085L1798.78 389.37L1812.81 400.88L1820.99 403.108L1829.18 402.364L1845.16 395.681L1853.34 394.197L1861.52 396.794L1876.72 407.563L1901.27 420.93L1906.34 426.129L1907.51 435.411L1902.44 453.977L1905.95 472.172L1911.01 481.455L1916.86 487.767L1925.04 495.193L1941.02 502.62L1946.08 509.675V518.958L1939.07 537.153L1925.04 546.436L1909.06 547.177L1884.9 541.237L1845.16 539.751L1813.2 528.612L1789.43 531.954L1781.25 530.468L1743.45 509.675L1717.34 482.198L1709.16 482.94L1684.99 502.62L1669.02 510.046L1661.22 511.531L1647.2 508.562L1637.45 500.021L1632.39 489.995L1622.26 453.235L1613.68 431.327L1605.5 422.416L1581.34 409.791L1573.54 408.307L1565.36 412.39L1562.24 416.474L1554.06 435.04L1553.67 471.801L1546.27 481.084L1533.8 484.055L1509.64 481.084L1501.84 478.112L1493.66 472.544L1469.5 448.78L1421.57 422.416L1391.56 416.846L1381.43 411.647L1372.86 416.846L1365.45 418.33L1357.27 416.846L1352.98 407.192L1357.27 402.364L1365.45 401.993L1381.43 405.335L1390 400.88L1395.46 388.998L1397.41 379.715L1398.19 357.436" stroke="#414141" stroke-width="3.66667" stroke-linecap="round" stroke-linejoin="round"/>
<path d="M1778.91 357.807L1775.01 361.519L1772.67 370.802L1774.23 380.085L1782.03 398.652L1805.02 416.103L1813.2 420.188L1845.15 424.644L1861.13 430.956L1866.98 435.04L1872.43 444.324L1874.77 462.518L1901.27 508.562L1902.44 517.844L1892.7 524.156L1868.54 525.641L1844.77 521.557L1820.61 510.79L1812.42 509.675L1788.65 511.159L1780.47 509.303L1756.31 496.308L1750.85 489.994L1740.33 471.429L1730.59 462.146L1716.56 455.835L1708.38 454.72L1700.19 456.204L1688.89 462.146L1677.98 480.712L1668.24 489.253L1657.33 489.623L1652.26 486.654L1647.97 480.34L1628.49 426.5L1621.87 415.731L1580.17 385.655L1564.58 378.972L1556.4 379.343L1548.61 384.171L1538.08 397.537L1534.19 415.731L1533.02 452.492L1524.83 461.775L1508.86 458.062L1469.11 431.327L1425.47 406.079L1415.33 397.166L1413.39 387.883L1415.72 369.317L1421.57 359.663L1429.36 356.692L1437.55 358.179L1453.52 367.833L1461.71 370.432L1469.89 369.689L1479.63 360.778L1480.8 357.064" stroke="#414141" stroke-width="3.66667" stroke-linecap="round" stroke-linejoin="round"/>
<path d="M1968.69 358.179L1967.52 371.173L1971.41 380.456L1995.96 409.419L2005.71 426.128L2005.32 435.411L1998.69 444.694L1995.57 453.976L2004.15 481.455L1997.91 500.02L1988.56 546.064L1987 564.629L1990.51 573.912L2009.21 582.823L2051.69 595.077L2068.05 605.103L2080.14 615.129" stroke="#414141" stroke-width="3.66667" stroke-linecap="round" stroke-linejoin="round"/>
<path d="M820.286 732.837L838.989 728.01L854.577 730.237L870.555 719.096L878.349 723.552L880.687 729.866L886.531 736.177L894.715 739.892L899.781 739.148L902.119 729.866L895.105 711.3L888.481 702.016L886.141 674.539L886.921 665.256L889.259 655.974L894.715 649.291L910.303 634.437L921.992 628.124L929.006 618.841V609.558L923.162 590.993L922.772 581.71L923.552 572.799L929.786 554.232L938.36 544.949L950.44 538.637L1006.17 535.295L1054.1 514.13L1077.87 518.957L1102.03 519.7L1133.98 518.216L1149.57 511.902L1157.75 511.161L1173.73 511.902L1189.71 518.216L1213.48 514.13L1221.66 526.384L1245.82 549.776L1277.77 538.266L1285.57 537.523L1293.75 539.009L1301.94 547.549L1317.91 571.313L1342.07 586.166L1359.61 599.904L1389.61 612.158L1396.24 619.213L1405.59 637.408L1413.39 642.236L1453.13 655.974L1461.32 653.003L1466.77 646.691L1467.55 637.408L1453.91 600.647L1421.57 564.629L1405.59 554.232L1397.41 545.692L1393.51 536.41L1394.29 527.127L1405.59 513.758L1421.57 505.591H1429.36L1453.52 512.646L1462.87 518.216L1477.68 523.413L1485.48 521.557L1489.37 518.216L1472.23 499.649L1454.69 490.366L1448.07 481.083L1437.54 474.4L1429.36 471.429L1397.02 467.345L1372.86 459.547L1349.09 459.175L1340.9 457.319L1324.93 448.78L1316.74 440.981L1308.17 426.5L1302.71 407.935L1286.74 371.173L1284.79 358.179" stroke="#414141" stroke-width="3.66667" stroke-linecap="round" stroke-linejoin="round"/>
<path d="M820.286 641.492L823.014 642.977L832.365 655.974L836.261 665.256L838.211 674.539L834.313 683.822L822.624 702.016L820.676 704.245" stroke="#414141" stroke-width="3.66667" stroke-linecap="round" stroke-linejoin="round"/>
<path d="M1912.18 1230.03L1908.67 1227.06L1892.31 1220.74L1868.15 1206.26L1820.21 1187.7L1756.31 1172.1L1740.33 1157.62L1732.54 1152.8L1724.74 1150.94L1709.16 1151.68L1700.97 1148.71L1695.91 1142.77L1684.61 1117.52L1656.94 1096.73L1649.14 1087.44L1646.81 1078.16L1645.25 1050.68L1642.52 1041.4L1637.06 1033.23L1605.11 1002.04L1591.47 986.444L1580.95 980.132L1565.36 974.562L1541.2 972.706L1533.02 970.478L1517.04 957.481L1493.27 943.371L1477.29 925.921L1459.37 913.295L1457.03 904.013L1462.48 885.447L1463.26 876.534L1453.52 848.686L1455.08 839.404L1461.71 830.492L1471.45 830.121L1485.48 840.888L1501.45 849.801L1517.04 863.911L1541.2 871.337L1557.18 882.476L1580.95 889.903L1596.93 904.013L1605.11 908.84L1631.22 912.924L1637.45 916.638L1653.04 934.46L1661.22 937.803L1685.38 937.431L1717.34 944.858L1736.04 958.968L1750.07 986.816L1757.09 996.47L1773.06 1009.84L1781.25 1012.07L1789.43 1011.32L1805.02 1003.9L1813.2 1003.52L1868.93 1027.29L1885.29 1051.42L1893.09 1053.28L1933.22 1052.54L1941.41 1056.62L1957 1070.36L1971.41 1078.53L1997.52 1082.62L2029.09 1096.73L2037.27 1097.47L2045.45 1092.64L2053.25 1077.05L2061.04 1070.36H2069.22L2081.3 1072.96" stroke="#414141" stroke-width="3.66667" stroke-linecap="round" stroke-linejoin="round"/>
<path d="M1973.75 646.691L1980.77 641.493L1996.74 635.181L2012.72 632.582L2020.51 634.809L2036.49 646.691L2044.67 656.346L2052.08 674.911L2051.69 684.194L2047.4 693.476L2036.1 702.018L1996.35 712.413L1980.77 720.955L1964.4 732.837L1939.85 739.149L1934.78 748.431V757.342L1942.58 784.821L1943.36 794.103L1941.02 803.386L1908.67 830.865L1891.53 857.598L1883.34 865.024L1875.16 865.768L1866.98 862.797L1851.39 850.915L1827.23 844.603L1819.05 840.889L1794.89 818.239L1769.56 803.015L1762.93 796.331L1757.09 784.449L1756.7 775.166L1763.32 739.149L1771.12 729.494L1779.3 728.01L1794.89 729.123L1819.05 714.641L1835.02 715.013L1859.18 700.531L1866.98 699.418L1883.34 711.67L1891.53 714.641L1931.67 721.696L1938.29 710.929L1948.03 683.451L1964.79 655.602L1973.75 646.691" stroke="#414141" stroke-width="3.66667" stroke-linecap="round" stroke-linejoin="round"/>
<path d="M1805.02 757.342L1821 743.976L1829.18 742.491L1845.16 743.604L1868.93 740.261L1884.91 743.976L1900.49 749.916L1908.68 756.971L1924.65 779.25L1927.38 785.192L1928.16 794.475L1922.32 803.758L1916.47 807.842L1891.53 821.952L1876.33 834.577L1868.15 834.948L1836.58 823.066L1794.89 794.475L1788.26 785.192L1789.04 775.91L1805.02 757.342" stroke="#414141" stroke-width="3.66667" stroke-linecap="round" stroke-linejoin="round"/>
<path d="M1901.66 775.537L1905.95 784.82L1905.56 794.102L1893.87 803.385L1876.72 810.811L1868.54 812.296L1852.95 808.955L1843.21 803.013L1833.85 793.731L1830.35 784.448L1833.07 775.165L1861.13 758.828L1868.93 756.969L1877.11 758.456L1893.09 765.883L1901.66 775.537" stroke="#414141" stroke-width="3.66667" stroke-linecap="round" stroke-linejoin="round"/>
<path d="M1876.72 778.506L1881.01 784.448L1876.72 789.647L1868.54 791.132L1860.74 784.82L1868.54 776.279L1876.72 778.506" stroke="#414141" stroke-width="3.66667" stroke-linecap="round" stroke-linejoin="round"/>
<path d="M1996.35 648.548L2004.54 646.321L2012.72 646.692L2028.31 655.603L2035.71 664.886L2038.05 674.169L2035.71 683.451L2024.41 692.734L2013.11 695.705L1997.13 694.221L1988.95 691.25L1979.99 683.451L1978.82 674.169L1981.55 664.886L1987 655.603L1996.35 648.548" stroke="#414141" stroke-width="3.66667" stroke-linecap="round" stroke-linejoin="round"/>
<path d="M2020.51 674.167L2012.33 682.708L2004.15 682.337L1994.8 674.167L1997.13 664.884L2004.15 660.8L2012.33 661.913L2015.84 664.884L2020.51 674.167" stroke="#414141" stroke-width="3.66667" stroke-linecap="round" stroke-linejoin="round"/>
<path d="M1628.88 654.487L1652.65 680.481L1676.81 697.19L1700.97 691.991L1708.77 697.19L1715.39 720.211L1711.49 729.494L1708.77 732.093L1700.97 732.465L1692.79 729.494L1679.93 719.839L1676.81 715.755L1647.97 701.646L1620.7 675.282L1612.51 670.083L1596.54 664.885L1585.24 655.602L1588.74 652.631L1612.9 648.175L1628.88 654.487" stroke="#414141" stroke-width="3.66667" stroke-linecap="round" stroke-linejoin="round"/>
<path d="M1780.86 1229.66L1772.67 1218.15L1764.88 1214.06L1748.9 1210.72L1741.89 1207.01L1724.74 1193.27L1716.95 1191.41L1684.99 1192.15L1669.02 1186.58L1661.23 1178.04L1654.21 1151.68L1649.15 1142.4L1637.45 1134.97L1613.29 1127.54L1600.82 1114.92L1596.15 1105.64L1595.37 1096.35L1611.74 1077.79L1610.57 1068.51L1589.13 1050.68L1573.55 1032.12L1557.18 1017.63L1549.39 1013.18L1533.41 1010.21L1501.84 1013.92L1495.61 1004.27L1490.54 986.072L1477.68 978.648L1461.71 974.562L1445.73 963.795L1437.55 963.423L1413.78 971.593L1405.98 976.418L1390 1002.04L1381.82 1007.61L1374.03 1008.35L1358.05 1003.9L1342.46 1004.64L1326.49 1011.32L1310.51 1024.69L1294.53 1020.23L1270.76 1019.49L1249.33 1004.27L1237.64 1002.04L1225.56 1005.01L1197.89 1022.46L1190.1 1025.06H1181.91L1157.75 1019.49L1141.77 1019.12L1126.19 1020.98L1110.21 1029.52L1102.03 1030.63L1093.84 1025.43L1086.05 1010.21L1069.68 986.816L1067.74 977.533V968.25L1075.53 940.402L1075.92 931.489L1073.58 922.206L1055.27 894.358L1040.85 857.597L1007.33 802.642L999.54 784.077L990.966 774.794L974.21 761.797L964.468 747.318L957.454 728.75L948.88 691.991L948.49 682.709L952.388 673.426L976.548 645.576L985.122 627.382L990.188 608.817L995.644 599.532L1006.16 589.88L1030.33 577.998L1062.28 571.684L1077.87 571.312L1111.38 581.338L1127.75 590.621L1173.73 606.589L1197.89 608.074L1206.07 610.673L1218.15 618.471L1223.61 627.754L1224.78 636.665L1223.22 645.948L1215.43 664.513L1214.65 673.796L1216.98 683.078L1221.66 692.733L1229.84 701.274L1237.64 705.358L1245.82 705.73L1254.01 703.13L1269.98 692.363L1278.17 691.248L1285.96 694.219L1294.14 700.159L1315.18 719.839L1326.49 723.923L1334.67 723.182L1339.73 719.839L1358.44 699.418L1366.62 696.818H1374.81L1384.55 701.274L1393.12 719.839L1408.32 738.405L1397.02 802.642L1399.36 811.927L1407.15 822.694L1414.94 825.665L1423.13 819.723L1435.6 802.642L1454.69 784.449L1462.88 780.365L1471.06 781.106L1499.89 792.988L1538.86 829.749L1575.1 845.343L1598.88 852.77L1614.85 866.88L1623.04 871.337L1647.2 869.479L1654.99 871.337L1663.17 877.649L1671.36 893.987L1679.15 899.557L1703.31 905.126L1734.88 904.384L1742.67 906.984L1750.85 913.667L1762.15 930.748L1777.74 948.942L1782.81 958.968L1790.99 966.766L1798.78 967.507L1822.94 956.74L1838.92 954.512L1847.11 948.942L1852.95 930.748L1862.3 912.18L1863.08 902.898L1859.97 893.615L1848.66 875.421L1838.53 865.767L1814.37 860.94L1790.6 841.26L1781.25 829.377L1742.28 801.901L1734.49 792.618L1732.15 783.334L1726.69 773.31L1718.9 769.224L1701.75 765.14L1670.58 746.946L1654.6 730.609L1629.66 710.185L1606.67 687.905L1563.02 664.513L1556.79 655.23L1556.4 645.948L1561.86 636.665L1566.92 631.466L1582.51 623.298L1598.49 621.068L1630.44 628.125L1638.62 632.209L1662.4 650.775L1678.37 659.314L1686.55 660.801L1710.71 653.374L1718.51 655.973L1726.3 663.4L1732.93 673.796L1732.54 701.274L1734.49 706.473L1742.28 710.928L1750.46 701.646L1758.65 698.675L1790.6 698.303L1798.39 695.332L1813.2 682.709L1822.56 663.772L1830.74 660.801L1837.36 664.513L1846.72 673.796L1862.69 668.597L1870.49 668.227L1878.67 670.455L1897.37 683.078L1902.83 684.936H1911.01L1919.2 680.481L1925.04 673.796L1940.63 645.948L1951.15 635.922L1975.31 625.154L1991.29 621.44L2015.45 619.212L2031.04 625.154L2047.01 637.036L2061.82 654.859L2066.11 664.141L2067.67 673.424L2066.11 691.991L2061.43 700.902L2054.81 706.473L2038.83 715.012L2007.27 726.151L1983.11 749.546L1967.13 759.57L1963.62 764.768L1964.4 783.334L1961.67 801.901L1951.15 821.951L1934.39 838.66L1927.77 857.226L1935.17 865.024L1950.76 858.712L1982.72 864.28L1998.69 863.168L2006.88 859.825L2022.46 842.744L2030.65 839.775H2038.83L2047.4 842.744L2051.69 847.571L2058.7 866.139L2060.26 875.421L2058.31 884.332L2039.22 913.295L2031.04 921.463L2007.27 933.347L1999.08 939.659L1995.19 958.224L1990.12 967.507L1975.31 979.389L1947.64 994.985L1941.8 1003.9L1943.36 1013.18L1951.54 1018.75L1975.7 1026.18L1994.41 1040.66L2008.05 1044.74L2016.23 1042.51L2031.82 1022.83L2040 1017.63L2044.29 1016.89H2052.08L2076.24 1022.09L2080.14 1020.61" stroke="#414141" stroke-width="3.66667" stroke-linecap="round" stroke-linejoin="round"/>
<path d="M1846.32 1229.66L1844.77 1228.92L1839.31 1229.66" stroke="#414141" stroke-width="3.66667" stroke-linecap="round" stroke-linejoin="round"/>
<path d="M1877.11 1230.03L1860.74 1217.4L1852.56 1213.69L1836.58 1209.98L1804.63 1210.35L1780.86 1197.35L1756.7 1194.38L1748.51 1191.41L1732.54 1175.82L1724.35 1171.36L1700.58 1172.1L1684.61 1168.39L1677.98 1160.96L1674.08 1142.4L1668.63 1129.03L1660.84 1121.6L1637.07 1105.64L1632.78 1096.73L1631.22 1059.96L1627.32 1050.68L1604.72 1032.49L1573.16 999.07L1564.97 994.614L1524.83 989.787L1517.04 984.588L1501.45 968.25L1478.85 958.968L1461.32 944.115L1445.34 942.63L1437.16 944.486L1421.57 954.141L1397.02 963.052L1372.86 982.36L1364.67 984.588L1340.9 984.96L1316.74 995.357L1308.56 996.842L1284.4 995.727L1244.65 987.559L1225.56 986.444L1212.7 989.044L1188.93 1002.04L1180.74 1003.15L1156.58 1000.93L1108.65 1008.35L1103.58 1004.64L1100.47 998.698L1093.84 967.879L1094.62 958.596L1102.42 940.031L1101.64 931.118L1075.92 893.987L1071.24 875.793L1072.41 857.226L1070.46 847.943L1065.01 838.66L1044.74 823.438L1028.77 805.614L1019.41 792.619L1011.62 774.051L994.864 755.858L978.886 728.009L978.108 718.725L983.952 672.683L997.982 644.833L1007.72 617.356L1014.74 608.074L1036.56 593.592L1052.54 589.137H1062.28L1086.05 595.077L1118 611.045L1149.57 616.613L1181.52 631.095L1189.71 636.293L1187.37 645.576L1188.15 654.859L1205.68 705.73L1215.43 719.096L1229.46 725.41L1245.43 729.494L1253.62 729.122L1269.59 724.295H1277.78L1309.34 742.861L1325.32 749.546L1333.5 749.174L1357.27 738.405L1365.45 737.292L1373.64 741.004L1381.43 752.145L1385.33 765.14L1386.11 774.423L1380.26 802.271L1381.43 820.467L1384.94 829.749L1390 839.032L1411.83 857.597L1421.57 871.338L1429.36 875.422L1437.55 870.966L1438.33 866.88L1434.82 848.315L1436.38 839.032L1444.17 820.467L1453.52 808.585L1461.71 803.014L1471.84 802.643L1477.68 804.501L1496 820.838L1533.41 848.315L1549.78 855.37L1565.75 866.139L1589.52 872.451L1605.5 888.047L1613.68 892.502L1639.4 893.987L1646.03 897.699L1661.62 915.523L1669.41 918.494L1717.73 924.434L1733.32 931.118L1752.8 949.313L1758.65 958.596L1764.49 977.162L1770.34 986.444L1781.64 993.128L1789.82 992.386L1805.41 986.444L1813.59 986.073L1845.55 998.698L1861.52 997.955L1867.76 994.986L1873.99 985.703L1874.77 976.418L1870.88 939.659L1873.21 930.748L1885.29 915.152L1909.45 904.385L1941.41 898.071L1957 891.759L2020.91 881.733L2029.09 884.704L2024.41 893.987L2016.62 903.27L2003.37 912.552L1981.16 922.207L1974.53 931.118L1972.19 949.313L1965.57 961.196L1957.39 967.507L1939.46 977.162L1917.64 996.47L1905.56 1004.64L1897.37 1013.92L1898.15 1023.21L1907.9 1032.49L1917.64 1035.09L1941.8 1036.94L1951.54 1041.77L1981.55 1061.82L2020.13 1072.59H2028.31L2032.21 1069.25L2037.66 1051.05L2044.29 1040.66H2052.08L2068.05 1048.08L2080.14 1050.31" stroke="#414141" stroke-width="3.66667" stroke-linecap="round" stroke-linejoin="round"/>
<path d="M1732.93 609.187L1734.88 609.93L1736.43 619.213L1732.54 622.927L1724.35 624.783L1718.12 619.213L1722.41 609.93L1732.93 609.187" stroke="#414141" stroke-width="3.66667" stroke-linecap="round" stroke-linejoin="round"/>
<path d="M1525.22 570.571L1533.41 573.54L1544.71 582.081L1547.83 591.364L1545.88 600.647L1541.2 605.845L1533.02 609.929L1524.83 609.558L1517.04 605.474L1510.42 600.275L1503.79 590.992L1502.62 581.71L1507.69 572.799L1517.43 569.084L1525.22 570.571" stroke="#414141" stroke-width="3.66667" stroke-linecap="round" stroke-linejoin="round"/>
<path d="M1032.66 619.212L1046.3 609.558L1054.1 606.958L1069.68 607.33L1085.66 612.529L1117.61 628.123L1141.39 631.094L1149.57 635.18L1174.12 664.141L1180.74 682.708L1179.57 710.185L1181.13 719.467L1186.98 728.75L1197.89 735.433L1221.66 738.776L1253.62 751.401L1277.77 750.658L1317.52 766.996L1333.5 767.739L1349.48 765.511L1357.27 766.624L1364.68 774.422L1366.62 783.705L1365.06 820.466L1366.23 829.749L1373.25 849.801L1377.14 857.225L1396.24 875.793L1417.67 903.269L1421.57 912.552L1423.91 921.834L1422.74 931.117L1414.56 940.03L1397.41 946.342L1365.45 961.938L1357.27 963.423L1341.68 961.938L1333.89 963.794L1317.91 975.305L1309.73 977.533L1254.01 974.561L1213.87 967.135H1206.07L1197.89 970.106L1181.91 981.245L1157.75 984.587L1125.8 992.386L1118 990.529L1115.28 986.815L1113.72 968.25L1121.9 940.402L1122.29 931.489L1118.39 921.093L1101.25 894.358L1098.13 885.075L1098.91 857.597L1095.01 839.031L1078.26 822.694L1059.55 811.925L1049.81 802.642L1040.85 784.077L1027.21 738.404L1013.57 719.839L1011.23 710.556L1015.13 692.363L1016.3 655.23L1022.14 633.693L1032.66 619.212" stroke="#414141" stroke-width="3.66667" stroke-linecap="round" stroke-linejoin="round"/>
<path d="M1065.01 636.665L1070.07 635.922L1086.05 641.864L1126.19 661.914L1134.37 670.455L1141.77 683.45L1143.72 692.733L1136.32 720.211L1137.49 729.494L1149.96 752.145L1153.86 775.538L1165.94 788.533L1174.12 788.904L1198.28 771.082L1213.87 769.224L1230.23 774.795L1270.37 800.415L1278.55 801.53L1294.14 795.216L1302.32 794.475L1318.3 797.815L1326.49 802.643L1331.94 812.297L1340.51 849.058L1341.29 858.341L1336.62 876.906L1342.07 887.675L1360 895.102L1368.96 904.385L1365.06 913.667L1350.26 922.95L1310.12 934.832L1285.96 948.199L1254.39 950.057L1238.42 949.313L1198.67 939.288L1184.64 931.861L1159.7 913.296L1148.79 894.73L1141.78 848.686L1136.32 839.404L1110.99 808.213L1102.81 800.786L1086.83 792.247L1078.65 783.334L1074.75 757.342L1057.6 711.3L1048.64 693.104L1046.69 683.822L1047.86 674.539L1057.6 646.691L1063.45 638.521L1066.18 637.408" stroke="#414141" stroke-width="3.66667" stroke-linecap="round" stroke-linejoin="round"/>
<path d="M1041.63 637.778L1054.1 624.04L1062.28 621.068L1070.07 621.44L1086.05 627.382L1110.21 641.492L1134.37 645.948L1142.16 650.775L1159.31 674.91L1162.43 684.193L1162.04 693.476L1148.4 720.954L1149.96 726.894L1151.13 730.237L1169.05 748.802L1174.12 764.768L1198.28 755.114L1213.87 754.001L1230.23 758.828L1246.21 768.852L1262.19 775.538L1293.75 778.137L1330.77 785.192L1341.68 789.647L1345.58 794.475L1347.92 803.757L1349.48 821.951L1356.88 849.801L1358.44 868.366L1365.06 877.649L1379.09 886.56L1388.45 895.843L1393.51 905.126L1394.29 914.408L1389.61 921.094L1357.66 940.772L1333.89 944.858L1293.75 961.567L1285.57 963.051L1245.82 962.308L1206.07 954.14L1190.1 953.397L1181.91 954.884L1165.94 965.279L1141.77 970.85L1136.32 969.363L1132.81 960.08L1138.27 941.515L1138.66 932.604L1133.2 914.039L1119.56 886.189L1117.61 877.277L1118 849.429L1114.5 840.147L1100.86 821.579L1073.58 803.386L1065.01 794.103L1061.5 784.82L1059.55 766.255L1033.83 693.104L1032.27 674.539L1033.44 665.256L1041.63 637.408" stroke="#414141" stroke-width="3.66667" stroke-linecap="round" stroke-linejoin="round"/>
<path d="M1093.84 680.481L1102.03 685.678L1109.04 693.105L1112.94 702.016L1112.55 720.583L1109.82 735.806L1101.64 739.52L1093.45 733.95L1085.66 720.955L1075.53 693.105L1077.87 680.11L1086.05 677.51L1093.84 680.481" stroke="#414141" stroke-width="3.66667" stroke-linecap="round" stroke-linejoin="round"/>
<path d="M1118 678.995L1126.19 692.733L1127.36 701.646L1125.41 729.494L1132.42 756.971L1134.37 775.167L1137.88 784.449L1165.94 815.64L1174.12 816.012L1182.3 809.698L1190.49 798.931L1198.28 792.619L1213.87 791.133L1229.84 794.104L1245.43 802.643L1257.9 820.839L1269.59 827.522L1277.77 827.151L1293.36 813.041L1301.55 810.07L1309.34 811.556L1317.13 820.467L1318.69 829.75L1317.52 839.033L1304.27 866.881V876.163L1312.46 903.642L1305.44 912.924L1292.97 919.608L1277.38 931.861L1253.23 937.432L1213.09 930.377L1197.5 924.063L1183.08 912.553L1175.29 903.27L1166.72 884.705L1152.69 839.033L1118 792.989L1096.57 774.423L1089.95 756.23L1080.2 737.664L1064.62 700.903L1058.77 682.709L1059.94 673.425L1063.84 664.142L1069.29 657.83L1077.48 655.603L1085.66 657.087L1101.25 664.514L1118 678.995" stroke="#414141" stroke-width="3.66667" stroke-linecap="round" stroke-linejoin="round"/>
<path d="M1186.59 839.776L1197.89 833.092L1213.48 826.779L1221.66 825.666L1229.84 829.75L1257.12 849.058L1264.52 858.341L1280.5 885.818L1282.84 895.102L1280.11 904.385L1269.59 915.152L1261.8 919.979L1253.62 921.835L1213.48 916.639L1204.51 913.668L1193.21 904.385L1184.25 885.818L1178.41 858.341L1179.19 849.058L1186.59 839.776" stroke="#414141" stroke-width="3.66667" stroke-linecap="round" stroke-linejoin="round"/>
<path d="M1246.99 867.251L1249.33 876.534L1246.99 885.447L1238.03 891.015L1230.23 891.759L1214.26 888.416L1206.46 883.96L1200.23 876.534L1197.5 867.251L1199.84 857.968L1206.07 853.141L1213.87 851.657L1222.05 852.028L1238.03 857.225L1246.99 867.251" stroke="#414141" stroke-width="3.66667" stroke-linecap="round" stroke-linejoin="round"/>
<path d="M1744.62 1230.03L1740.72 1228.54L1716.95 1214.43L1700.97 1213.69L1676.81 1217.4L1660.84 1217.77L1652.65 1217.4L1644.86 1213.32L1633.17 1198.47L1631.22 1189.18L1632 1170.99L1628.88 1161.71L1594.98 1143.14L1573.16 1122.72L1565.75 1097.47L1564.97 1066.65L1559.91 1051.43L1554.06 1042.14L1541.2 1033.6L1533.02 1032.12L1524.83 1033.23L1508.86 1041.77L1501.07 1043.63L1485.09 1040.29L1474.57 1033.23L1471.06 1023.95L1469.11 1005.38L1460.93 1000.19L1444.95 996.099L1428.97 989.787L1421.18 991.644L1405.59 1013.55L1389.61 1024.69L1365.45 1036.57L1341.68 1037.32L1317.52 1057.37L1309.34 1058.11L1293.36 1055.14L1269.59 1054.77L1259.85 1051.43L1245.43 1040.29L1237.25 1038.8L1189.32 1055.51L1165.16 1049.2L1148.01 1051.43L1146.84 1069.62L1142.94 1078.9L1133.59 1088.19L1130.09 1097.47L1144.11 1124.57L1146.06 1133.49L1141.77 1145.37L1133.98 1152.42L1125.8 1154.65L1118.01 1152.8L1109.82 1142.77L1105.54 1133.49L1102.03 1114.92L1093.85 1116.78L1070.07 1129.4L1065.4 1133.86L1055.66 1161.71L1045.91 1171.36L1037.73 1172.1L1021.75 1166.53L997.593 1162.45H989.799L981.615 1167.65L969.535 1216.66L965.639 1226.32L962.131 1230.4" stroke="#414141" stroke-width="3.66667" stroke-linecap="round" stroke-linejoin="round"/>
<path d="M1046.3 1048.83L1049.81 1060.71L1038.51 1064.42L1024.87 1060.71L998.371 1045.11L996.811 1042.14L1006.55 1034.72L1022.53 1033.23L1030.71 1035.09L1038.9 1039.91L1046.3 1048.83" stroke="#414141" stroke-width="3.66667" stroke-linecap="round" stroke-linejoin="round"/>
<path d="M1102.81 1230.03L1103.97 1225.94L1102.03 1208.49L1086.05 1195.12L1077.87 1197.35L1062.28 1216.29L1046.3 1222.6L1038.12 1222.97L1029.93 1225.94L1026.43 1230.03" stroke="#414141" stroke-width="3.66667" stroke-linecap="round" stroke-linejoin="round"/>
<path d="M1458.59 1230.03L1450.02 1225.94L1445.34 1216.66L1444.17 1207.38L1444.56 1198.1L1449.24 1179.9L1499.12 1106.38L1499.51 1097.1L1492.88 1087.81L1485.09 1082.99L1477.29 1081.87L1453.13 1087.07L1445.34 1086.33L1429.36 1073.33L1413.78 1081.13L1397.41 1083.36L1381.43 1093.01L1365.45 1099.32L1333.89 1108.24L1325.71 1108.98L1301.55 1104.15L1285.57 1110.09L1261.8 1113.43L1245.82 1119L1221.66 1110.83L1213.48 1110.09L1205.68 1115.29L1201.79 1124.57L1189.71 1135.71L1185.03 1152.05L1192.04 1188.81L1201.79 1216.66L1203.35 1225.94L1202.96 1230.03" stroke="#414141" stroke-width="3.66667" stroke-linecap="round" stroke-linejoin="round"/>
<path d="M1617.58 1230.03L1604.72 1213.32L1588.74 1198.47L1582.51 1188.81L1572.77 1185.47L1564.58 1188.81L1556.79 1200.32L1516.65 1215.55L1486.65 1230.03" stroke="#414141" stroke-width="3.66667" stroke-linecap="round" stroke-linejoin="round"/>
<path d="M1157.75 1215.17V1217.4L1149.57 1221.49L1141.39 1221.12L1137.88 1216.66L1141.39 1209.23L1149.57 1208.86L1157.75 1215.17" stroke="#414141" stroke-width="3.66667" stroke-linecap="round" stroke-linejoin="round"/>
<path d="M1780.86 443.952L1796.44 454.719L1804.63 456.206L1820.6 454.348L1831.13 463.261L1829.57 472.543L1820.6 478.484L1812.42 478.855L1787.87 472.543L1780.47 464.745L1776.57 454.348L1776.18 445.065L1780.86 443.952" stroke="#414141" stroke-width="3.66667" stroke-linecap="round" stroke-linejoin="round"/>
<path d="M1740.72 413.133L1745.4 416.846L1750.46 426.128L1748.9 427.243L1732.54 426.128L1728.64 416.846L1732.93 413.503L1740.72 413.133" stroke="#414141" stroke-width="3.66667" stroke-linecap="round" stroke-linejoin="round"/>
<path d="M2080.52 874.306L2076.63 880.62L2057.53 931.86L2044.68 945.229L2033.37 950.056L2020.9 958.596L2011.16 977.533L2009.21 986.815L2013.11 991.271L2020.9 992.757L2044.68 984.216L2068.83 985.702L2077.02 981.245L2080.91 974.19" stroke="#414141" stroke-width="3.66667" stroke-linecap="round" stroke-linejoin="round"/>
<path d="M820.286 811.926L823.014 813.784L846.784 814.526L854.968 817.497L863.152 823.439L875.232 839.033L878.74 848.316L881.466 866.881L887.312 875.423L918.877 882.849L954.337 904.014L974.991 922.579L982.785 925.179L1002.27 904.014L1005.39 894.731L993.697 867.253L991.747 857.97L992.527 830.122L981.227 811.926L974.991 793.361L944.595 756.602L940.699 747.319L931.347 710.558L915.369 683.079V673.797L918.877 667.485L927.059 660.059L951.221 646.32L956.675 636.666L957.845 627.755L954.727 599.905L957.065 590.622L962.911 581.34L967.197 577.999L1031.11 556.091L1070.85 552.748L1102.81 557.204L1126.97 550.892L1166.72 556.091L1175.68 563.517L1182.69 578.369L1186.98 582.454L1221.66 594.706L1237.25 603.248L1245.04 609.559L1250.11 618.842L1253.62 642.606L1258.68 655.603L1261.8 658.574L1285.57 658.946L1325.71 676.396L1373.64 676.025L1389.61 678.996L1397.8 683.451L1407.54 692.734L1413.78 704.616L1426.25 719.841L1429.36 728.38V766.626L1437.55 767.741L1453.52 758.458L1461.71 756.971L1509.64 766.256L1517.82 771.453L1541.98 799.303L1550.16 804.871L1574.33 811.185L1630.05 843.117L1662.01 844.232L1669.8 846.46L1688.11 857.97L1708.77 876.535L1718.12 879.878L1733.71 882.477L1741.5 880.991L1750.85 876.535L1760.59 867.253L1762.15 857.97L1749.68 848.687L1733.71 843.117L1725.52 835.69L1704.48 811.926L1700.58 793.361L1693.96 787.049L1669.8 774.424L1638.23 747.319L1622.26 729.123L1590.3 701.275L1550.55 676.025L1540.81 664.886L1523.67 637.038L1488.99 609.559L1466.38 581.711L1446.12 565.002L1428.19 544.95L1422.74 535.667L1429.75 529.356H1437.94L1446.12 531.583L1470.28 545.693L1486.26 550.149L1534.19 551.264L1565.36 563.146L1582.12 575.028L1614.07 576.512L1622.26 581.34L1630.05 592.109L1669.8 613.645L1677.98 612.159L1693.96 592.85L1709.94 587.282L1749.68 584.682L1757.87 585.795L1764.1 590.622L1768.78 599.905L1768 618.472L1764.1 636.666L1766.05 638.894L1774.23 640.75L1790.21 640.009L1821.78 623.669L1840.87 618.472L1844.38 599.905L1848.27 590.622L1861.91 586.167L1869.71 587.282L1876.72 590.622L1893.48 606.219L1925.43 619.957L1973.36 606.219L1989.34 604.362L2013.5 606.59L2037.27 615.13L2061.43 632.954L2072.73 645.949L2079.36 664.514L2080.92 692.364L2079.36 701.275L2073.9 710.558L2061.82 719.469L2037.66 734.322L2021.68 740.634L2012.72 747.319L1996.35 784.078L1987.78 811.928L1985.44 820.839L1988.95 830.122L1997.52 827.151L2005.71 819.724L2013.89 816.384L2037.66 814.897L2050.13 811.928L2054.03 809.329L2073.51 784.078L2081.7 778.879" stroke="#414141" stroke-width="3.66667" stroke-linecap="round" stroke-linejoin="round"/>
<path d="M820.676 843.859L823.404 844.231L839.379 843.859L850.291 848.686L854.187 857.969L854.967 885.447L857.305 894.73L863.151 905.497L871.335 912.552H879.127L903.289 905.126L911.083 906.24L924.33 913.295L934.852 922.578L939.528 931.861L943.036 962.68L951.22 984.216L975.38 972.706L991.358 971.221L999.152 972.706L1023.31 989.043L1047.47 999.069L1057.6 1005.38L1073.58 1023.95L1093.45 1042.51L1098.13 1051.8L1100.47 1069.99L1092.28 1088.56L1077.87 1098.58L1069.68 1101.55L1043.19 1106.38L1038.12 1109.72L1032.66 1115.66L1030.33 1124.95V1137.57L1024.48 1143.14L1014.35 1144.25L990.578 1139.8L982.394 1140.17L974.6 1142.03L966.416 1148.34L961.74 1161.71L959.012 1189.18L954.726 1198.47L950.44 1204.41L934.462 1217.03L926.278 1230.4" stroke="#414141" stroke-width="3.66667" stroke-linecap="round" stroke-linejoin="round"/>
<path d="M820.285 869.108H823.013L831.197 872.822L833.145 876.535L832.755 894.73L846.783 922.578L848.343 931.861L853.797 940.772L870.945 947.457L878.737 944.858L894.715 930.748L902.509 926.662L910.303 927.777L915.758 931.861L920.824 940.772L926.278 958.596L932.904 996.099L942.256 1014.66L950.05 1017.26L958.234 1015.41L974.21 1001.3L982.004 997.214L997.592 994.243L1005.78 996.099L1045.91 1015.04L1079.42 1051.05L1084.49 1060.34L1085.66 1069.25L1081.76 1078.53L1070.07 1087.07L1054.48 1090.79L1030.33 1090.04L1014.35 1093.01L1006.94 1097.1L992.916 1115.66L966.806 1123.46L958.622 1127.54L954.336 1133.86L948.49 1152.42L946.932 1180.27L944.594 1189.18L924.72 1207.75L907.965 1226.32L902.899 1228.54L894.715 1226.32L886.531 1218.89L870.555 1198.47L854.577 1186.96L838.989 1183.98L831.195 1185.1L822.623 1188.81L826.519 1198.1L845.613 1216.66L849.901 1225.94L850.681 1230.03" stroke="#414141" stroke-width="3.66667" stroke-linecap="round" stroke-linejoin="round"/>
<path d="M820.286 1215.55L821.844 1216.66L829.248 1225.94L830.028 1230.03" stroke="#414141" stroke-width="3.66667" stroke-linecap="round" stroke-linejoin="round"/>
<path d="M820.285 916.637L825.741 922.206L826.519 949.684L831.197 953.768L854.967 961.195L863.151 967.135L879.127 989.414L887.311 992.385L899.391 986.443L903.289 980.132L911.083 980.875L934.852 1032.49L943.036 1039.54L950.83 1040.29L966.806 1034.34L974.99 1029.14L990.968 1013.92L998.762 1010.95L1006.94 1011.32L1040.46 1023.2L1059.16 1041.77L1071.63 1060.34L1071.24 1069.25L1063.45 1076.3L1055.26 1079.27L1039.29 1078.53L1007.33 1072.96L999.149 1076.3L986.68 1087.81L975.38 1101.55L951.22 1112.69L943.426 1123.83L936.8 1142.77L932.514 1161.33L931.734 1179.9L927.448 1188.81L903.289 1206.63L895.105 1205.52L879.127 1187.7L863.151 1174.7L831.585 1162.45L823.401 1163.19L820.675 1164.68" stroke="#414141" stroke-width="3.66667" stroke-linecap="round" stroke-linejoin="round"/>
<path d="M819.895 964.907L822.623 966.765L846.393 974.19L850.291 977.532L858.475 996.098L878.349 1011.32L886.53 1013.92L902.508 1012.44L910.302 1015.78L925.89 1046.6L934.072 1055.51L942.646 1057.74L974.6 1054.4L982.394 1059.59L965.248 1087.81L958.624 1093.01L942.646 1099.7L933.684 1106.01L922.382 1142.77L916.148 1170.62L910.692 1180.64L902.898 1184.36L894.714 1182.5L870.555 1165.05L838.599 1148.34L830.807 1147.22L822.623 1147.97L819.895 1148.71" stroke="#414141" stroke-width="3.66667" stroke-linecap="round" stroke-linejoin="round"/>
<path d="M819.895 980.503L834.703 986.815L843.665 1005.01L856.525 1014.29L870.555 1030.63L878.349 1033.6L894.324 1030.63L903.676 1032.86L910.302 1042.14L918.096 1061.82L929.396 1078.53L915.368 1106.38L910.302 1139.43L902.508 1159.48L894.324 1160.96L870.165 1146.85L846.003 1137.94L838.211 1136.83L819.505 1138.31" stroke="#414141" stroke-width="3.66667" stroke-linecap="round" stroke-linejoin="round"/>
<path d="M820.285 1000.55L828.469 1014.29L846.783 1027.29L854.967 1045.86L863.151 1050.31L887.31 1049.2L895.494 1052.17L903.288 1063.68L908.354 1079.27L895.494 1129.77L887.31 1133.86L839.379 1127.17L820.675 1128.66" stroke="#414141" stroke-width="3.66667" stroke-linecap="round" stroke-linejoin="round"/>
<path d="M820.286 1032.49L830.028 1041.77L833.924 1051.05L843.278 1060.34L854.968 1064.05L879.128 1064.79L886.921 1069.25L891.209 1078.53L890.429 1097.1L886.921 1108.24L878.738 1117.15L870.946 1119.38L838.99 1116.41L820.286 1119.38" stroke="#414141" stroke-width="3.66667" stroke-linecap="round" stroke-linejoin="round"/>
<path d="M820.285 1072.22L823.013 1073.7L862.76 1081.13L870.944 1087.07L872.112 1096.73L862.76 1105.64L838.989 1103.78L820.285 1107.49" stroke="#414141" stroke-width="3.66667" stroke-linecap="round" stroke-linejoin="round"/>
<path d="M2789.75 357.807L2782.74 361.519L2762.86 387.139L2754.68 394.566L2725.84 407.563L2716.1 426.128L2706.75 434.67L2674.79 445.437L2635.05 450.636L2626.86 457.319L2623.74 462.518L2624.52 471.8L2629.59 481.083L2659.21 525.64L2689.6 554.603L2686.48 563.886L2675.18 573.169L2659.21 579.111L2635.05 579.854L2595.3 568.713L2590.62 563.516L2582.44 544.949L2574.65 535.666L2553.99 517.473L2550.1 508.19L2544.64 462.146L2540.74 453.235L2531.39 448.78L2499.44 448.408L2488.52 444.694L2481.51 435.411L2478.78 416.846L2475.28 407.563L2467.09 402.364L2459.3 400.88L2419.55 413.875L2411.37 413.133L2405.91 407.935V399.023L2414.09 380.456L2414.87 371.173L2411.37 358.178" stroke="#414141" stroke-width="3.66667" stroke-linecap="round" stroke-linejoin="round"/>
<path d="M2770.66 357.807L2753.51 380.084L2746.89 385.283L2714.54 398.652L2701.29 416.846L2691.16 424.272L2659.6 433.926L2635.44 430.955L2627.25 433.555L2611.28 451.379L2606.21 462.889L2605.43 472.172L2609.72 481.083L2626.09 499.649L2636.61 518.216L2648.3 545.692L2643.62 549.405L2611.67 544.577L2603.48 540.865L2571.92 517.473L2565.29 508.931L2563.35 499.649L2562.57 471.8L2564.12 444.322L2557.89 435.039L2548.15 431.699L2508.4 431.327L2500.22 426.872L2496.32 407.563L2492.42 398.652L2484.24 390.11L2476.05 383.427L2467.87 379.715L2444.1 380.828L2435.92 377.857L2426.18 357.807" stroke="#414141" stroke-width="3.66667" stroke-linecap="round" stroke-linejoin="round"/>
<path d="M2755.07 357.807L2739.87 374.888L2731.69 380.085L2707.53 388.998L2691.16 403.108L2682.98 407.563L2667.39 413.503L2659.21 414.618L2651.03 413.134L2626.86 402.364L2618.68 403.108L2612.06 407.192L2606.21 416.474L2600.76 435.04L2595.69 444.324L2587.51 451.749L2576.98 425.757L2566.46 416.474L2555.55 412.39L2531.39 411.647L2523.6 409.419L2515.41 401.993L2507.23 388.998L2483.07 368.203L2474.89 363.376L2451.12 359.663L2445.66 357.436" stroke="#414141" stroke-width="3.66667" stroke-linecap="round" stroke-linejoin="round"/>
<path d="M2738.31 357.807L2727.4 370.802L2675.57 393.825L2659.99 394.196L2628.03 380.828L2619.85 380.456L2611.66 383.427L2587.89 401.992L2579.71 403.107L2555.55 395.681L2539.57 392.71L2533.34 389.739L2511.9 371.173L2491.25 358.178" stroke="#414141" stroke-width="3.66667" stroke-linecap="round" stroke-linejoin="round"/>
<path d="M2724.28 357.807L2723.12 360.035L2707.14 369.689L2682.98 377.116L2667.39 378.972L2651.41 375.629L2627.25 365.234L2619.07 364.49L2603.09 368.203L2587.51 380.085L2579.32 383.056L2571.14 382.684L2546.98 377.116L2538.79 373.402L2523.21 358.548L2520.87 357.436" stroke="#414141" stroke-width="3.66667" stroke-linecap="round" stroke-linejoin="round"/>
<path d="M2590.62 358.178L2579.32 363.375L2571.14 364.49L2558.67 361.519L2553.21 357.807" stroke="#414141" stroke-width="3.66667" stroke-linecap="round" stroke-linejoin="round"/>
<path d="M2707.92 358.179L2706.75 358.92L2700.12 361.891L2674.4 367.461L2658.82 366.346L2641.28 358.179" stroke="#414141" stroke-width="3.66667" stroke-linecap="round" stroke-linejoin="round"/>
<path d="M2080.52 1073.33L2092.22 1075.93L2100.4 1075.19L2108.58 1071.85L2124.56 1060.71L2132.74 1064.42L2146.77 1078.53L2156.9 1083.73L2180.67 1090.41L2196.65 1089.67L2204.84 1084.1L2208.34 1078.53L2210.68 1069.25L2212.63 1040.29L2220.81 1033.97L2231.72 1051.05L2260.56 1069.62L2264.07 1078.16L2263.68 1087.44L2258.61 1106.01L2258.22 1115.29L2261.34 1124.57L2271.86 1133.49L2284.33 1137.2H2292.51L2316.28 1129.4L2324.47 1130.14L2340.84 1152.05L2342.78 1161.34L2339.28 1170.62L2332.65 1176.56L2324.47 1179.9L2292.9 1187.33L2276.15 1189.18L2268.74 1198.47L2292.12 1230.4" stroke="#414141" stroke-width="3.66667" stroke-linecap="round" stroke-linejoin="round"/>
<path d="M2610.89 666.741L2635.05 651.518L2642.84 648.919L2651.02 650.403L2674.79 670.827L2701.29 683.45L2709.09 692.733L2707.14 700.159L2698.95 702.387L2682.98 694.96L2675.18 693.476L2627.25 693.848L2611.27 690.877L2598.03 683.45L2598.81 674.167L2610.89 666.741" stroke="#414141" stroke-width="3.66667" stroke-linecap="round" stroke-linejoin="round"/>
<path d="M2116.38 803.014L2108.19 808.585L2092.22 811.184L2083.25 803.014L2091.83 792.988L2100.01 790.389H2108.19L2116.38 793.731V803.014" stroke="#414141" stroke-width="3.66667" stroke-linecap="round" stroke-linejoin="round"/>
<path d="M2140.15 654.859L2148.33 658.945L2153.39 665.257L2152.23 674.539L2148.33 679.738L2140.15 681.966L2132.35 681.594L2119.49 674.539L2113.65 665.257L2115.98 655.974L2124.17 653.374L2140.15 654.859" stroke="#414141" stroke-width="3.66667" stroke-linecap="round" stroke-linejoin="round"/>
<path d="M2080.52 614.386L2085.59 618.472L2100.4 636.665L2105.08 645.948L2106.63 655.231L2103.52 673.796L2105.85 692.363L2108.58 699.788L2124.56 712.785L2148.72 725.782L2157.29 738.405L2164.31 753.258L2172.49 762.169L2176.39 756.971L2177.56 738.405L2180.29 728.751L2191.59 710.557L2193.92 692.363L2204.84 664.513L2205.23 655.231L2189.25 627.754L2188.47 619.213V618.1L2197.43 609.187L2202.5 599.904L2200.55 590.622L2196.65 586.538L2188.47 583.567L2180.29 585.053L2170.54 590.25L2164.31 597.305L2156.51 590.622L2154.57 580.967L2163.92 562.773L2162.75 553.491L2148.33 543.093L2142.88 534.925L2138.59 507.447L2127.29 479.599L2124.95 461.031L2128.07 442.838L2132.35 436.898L2148.33 431.327L2172.1 434.67L2180.29 433.555L2191.59 424.272L2196.26 419.074L2200.94 406.079L2202.89 378.6L2188.47 370.43L2172.49 375.629L2156.9 384.171L2148.72 386.77H2140.54L2108.58 380.085L2097.28 369.689L2093.77 360.406V356.692" stroke="#414141" stroke-width="3.66667" stroke-linecap="round" stroke-linejoin="round"/>
<path d="M2790.92 856.113L2778.84 861.312L2770.66 862.053L2746.5 860.568L2738.7 857.597L2716.88 830.493L2691.16 805.242L2659.6 792.247L2643.62 790.76L2627.64 794.103L2611.66 800.043L2563.73 797.074L2547.76 791.504L2522.82 775.909L2492.03 763.656L2480.73 756.97L2475.67 747.688L2474.11 729.122L2469.43 710.557L2455.4 683.078L2452.67 673.796L2451.89 655.23L2455.01 618.471L2451.11 614.385L2442.93 613.644L2402.79 624.411L2378.63 639.264L2370.84 640.749L2354.86 637.778L2347.07 632.581L2313.17 600.275L2283.16 582.453L2267.18 564.258L2244.58 545.321L2240.68 536.038L2243.8 526.755L2251.21 520.813L2274.98 508.561L2273.42 499.277L2260.95 489.994L2254.71 480.711L2255.1 471.429L2266.79 453.235L2266.01 443.952L2246.92 425.385L2242.24 416.102L2248.48 397.908L2254.71 370.06L2259 363.747L2271.47 357.063" stroke="#414141" stroke-width="3.66667" stroke-linecap="round" stroke-linejoin="round"/>
<path d="M2465.92 1230.03L2469.43 1225.94L2472.94 1216.66L2471.38 1188.81L2472.94 1179.9L2478 1170.62L2493.2 1161.33L2499.44 1152.05L2494.76 1142.77L2463.58 1115.29L2458.91 1106.01L2458.13 1096.73L2460.47 1078.16L2463.97 1068.88L2482.68 1050.68L2491.64 1013.92L2512.69 977.161L2511.52 967.879L2506.45 958.596L2504.89 949.313L2508.79 940.03L2517.75 931.117L2523.6 927.777L2531.39 925.921L2579.32 937.803L2599.19 950.056L2605.43 958.967L2610.11 977.533L2619.07 980.504H2627.25L2636.21 977.533L2641.67 968.622L2634.66 950.056L2633.88 940.772L2636.21 931.861L2643.23 920.722L2651.41 915.895L2659.6 915.151L2698.95 917.008L2754.68 932.976L2790.92 954.14" stroke="#414141" stroke-width="3.66667" stroke-linecap="round" stroke-linejoin="round"/>
<path d="M2790.92 830.493L2778.84 836.433L2762.86 836.804L2754.68 833.092L2739.09 819.352L2723.12 812.668L2714.93 806.357L2698.95 787.791L2659.21 771.082L2651.02 770.71L2610.89 777.022L2571.14 778.137L2555.16 773.679L2507.23 748.059L2488.91 711.3L2478 674.539V655.974L2483.85 646.691L2491.25 642.235L2499.05 634.066L2504.11 619.212L2500.22 609.93L2489.69 600.647L2483.85 591.364L2479.17 573.171L2475.28 565.744L2467.09 568.343L2451.5 582.453L2435.53 588.022L2427.34 588.765L2395.39 575.027L2379.41 573.54L2371.62 576.14L2362.27 582.453L2358.76 601.019L2355.64 604.359L2347.85 604.731L2331.87 598.419L2315.89 586.537L2292.51 573.171L2278.48 554.603L2273.81 545.321L2276.93 536.038L2322.13 517.844L2332.26 508.561L2329.92 499.279L2299.92 480.711L2297.97 471.429L2300.31 453.235L2299.14 443.952L2294.85 434.67L2281.99 416.102L2280.43 406.819L2281.21 397.908L2285.11 388.626L2310.44 370.06L2311.22 360.778L2308.88 357.063" stroke="#414141" stroke-width="3.66667" stroke-linecap="round" stroke-linejoin="round"/>
<path d="M2494.76 1230.03L2500.22 1216.66L2502.55 1198.1L2506.84 1188.81L2522.43 1179.9L2527.88 1170.62L2522.82 1142.77L2518.92 1133.49L2508.01 1125.32L2492.03 1117.52L2483.85 1110.09L2477.22 1096.73L2477.61 1087.44L2483.07 1078.16L2491.64 1074.08L2515.8 1070.73L2518.53 1068.88V1059.96L2509.96 1041.4L2508.79 1032.12L2511.91 1022.83L2523.99 1011.7L2531.78 1010.21L2547.76 1022.09L2563.73 1025.06L2587.9 1019.49L2603.48 1020.23L2611.66 1026.55L2621.02 1041.4L2627.25 1057.74L2635.44 1064.42L2643.23 1059.22L2651.02 1046.6L2658.04 1041.77L2682.59 1042.14L2690.77 1038.43L2698.57 1014.29L2700.51 996.099L2699.34 986.816L2690.38 979.018L2674.4 974.191L2666.61 965.652L2657.65 950.057V940.773L2666.61 937.06L2730.52 944.487L2743.77 949.686L2762.86 961.196L2771.05 968.623L2776.11 977.534L2773.77 1005.01L2779.23 1011.32L2787.02 1016.15L2790.92 1016.52" stroke="#414141" stroke-width="3.66667" stroke-linecap="round" stroke-linejoin="round"/>
<path d="M2790.92 798.93L2778.84 814.896L2770.66 817.867L2762.47 816.383L2746.5 805.242L2722.73 794.475L2706.75 774.795L2698.57 769.596L2658.82 752.515L2642.84 751.402L2610.89 759.941L2571.14 760.685L2555.16 756.601L2531.39 743.975L2523.6 735.064L2504.89 701.646L2499.44 683.45L2499.83 671.196L2515.8 642.236L2523.21 619.213L2521.26 609.93L2506.45 591.365L2502.94 582.082L2502.16 563.886L2499.44 554.603L2491.64 536.41L2483.46 527.87L2475.28 527.127L2467.09 530.098L2435.14 559.061L2426.95 559.431L2410.98 553.491L2402.79 552.747L2347.07 561.289L2331.09 569.828L2322.91 570.943L2306.93 565.373L2299.92 554.975L2304.98 545.692L2322.91 537.153L2394.61 522.671L2402.79 518.216L2412.54 509.303L2417.6 500.02L2418.38 490.737L2410.59 484.426H2371.62L2339.67 482.198L2331.48 479.227L2323.3 472.172L2321.35 462.889L2325.25 435.411L2314.73 407.563L2318.62 398.652L2331.48 389.369L2338.11 380.086L2341.22 370.802L2340.45 361.519L2337.33 357.807" stroke="#414141" stroke-width="3.66667" stroke-linecap="round" stroke-linejoin="round"/>
<path d="M2790.92 609.187L2783.91 609.93L2778.84 611.786L2771.83 618.841L2772.61 628.124L2778.06 637.037L2790.53 653.003" stroke="#414141" stroke-width="3.66667" stroke-linecap="round" stroke-linejoin="round"/>
<path d="M2790.92 431.327L2787.02 435.411L2784.29 453.976L2780.4 462.889L2771.05 472.172L2766.76 481.455L2787.02 510.418L2790.92 514.13" stroke="#414141" stroke-width="3.66667" stroke-linecap="round" stroke-linejoin="round"/>
<path d="M2790.53 774.423L2786.63 778.507L2770.66 790.019L2762.47 792.247L2734.02 784.449L2714.54 766.255L2706.75 761.056L2667 740.261L2651.02 734.321L2642.84 734.693L2618.68 742.119L2570.75 742.861L2556.72 738.777L2546.59 732.465L2530.61 717.612L2522.82 706.843L2517.75 693.105L2518.53 683.822L2532.56 647.063L2538.79 638.521L2554.38 628.867L2557.11 619.584L2525.93 591.736L2522.04 582.454L2525.54 564.258L2523.21 555.347L2509.57 536.781L2502.94 509.303L2499.04 502.991L2491.25 498.907H2483.07L2467.09 504.847L2443.32 520.444L2435.14 521.185L2433.19 518.216L2439.03 490.366V481.083L2435.14 469.201L2426.95 463.261L2419.16 462.518L2395 465.489H2370.84L2354.86 460.29L2345.51 453.978L2341.61 417.217L2343.95 407.935L2357.98 380.456L2360.32 371.173L2359.54 361.891L2357.98 358.179" stroke="#414141" stroke-width="3.66667" stroke-linecap="round" stroke-linejoin="round"/>
<path d="M2790.53 591.737L2770.66 594.336L2748.44 600.276L2737.14 609.559L2740.65 618.841L2772.99 655.603L2785.85 674.168L2789.36 701.646L2790.53 706.843" stroke="#414141" stroke-width="3.66667" stroke-linecap="round" stroke-linejoin="round"/>
<path d="M2790.92 407.935L2771.83 426.128L2764.03 435.411L2754.68 454.348L2739.09 468.088L2716.49 481.083L2715.71 490.366L2754.68 505.962L2762.86 511.159L2790.92 541.98" stroke="#414141" stroke-width="3.66667" stroke-linecap="round" stroke-linejoin="round"/>
<path d="M2790.92 388.998L2771.05 410.162L2750.78 426.128L2740.26 444.694L2732.47 453.976L2696.23 472.172L2683.37 481.455L2681.81 490.738L2683.76 500.02L2690.38 507.818L2698.57 509.675L2722.73 510.789L2738.7 515.617L2746.5 519.701L2756.63 527.127L2774.94 545.692L2782.74 554.975L2787.02 563.886L2784.68 573.171L2778.84 576.512L2762.86 581.339L2723.12 587.65L2714.15 591.736L2709.09 601.019L2710.26 610.302L2714.93 619.584L2751.95 656.345L2764.81 674.911L2767.93 684.194L2774.16 729.866L2780.01 748.431L2778.84 758.829L2772.22 766.625L2762.86 771.082L2746.89 772.567L2723.12 756.971L2659.21 724.295L2643.23 722.811L2619.07 728.01L2603.09 728.751L2563.35 722.811L2547.37 713.9L2536.85 702.759L2532.95 693.848L2533.34 684.565L2539.18 666.369L2547.37 654.487L2575.82 638.15L2586.33 629.239V619.956L2579.32 610.673L2554.77 592.108L2549.71 582.825L2548.15 555.347L2527.49 527.499L2523.6 490.738L2515.8 483.683L2511.13 481.827L2483.85 475.884L2467.87 469.573L2460.08 462.889L2452.28 451.007L2444.1 445.437L2403.96 448.408L2385.65 445.065L2372.01 438.754L2365 426.5L2363.83 417.217L2366.16 407.935L2377.86 380.456L2377.47 361.891L2376.3 358.179" stroke="#414141" stroke-width="3.66667" stroke-linecap="round" stroke-linejoin="round"/>
<path d="M2790.92 370.061L2789.36 371.174L2775.33 389.739L2762.86 402.364L2739.09 417.217L2728.18 435.783L2720 445.065L2690.77 457.691L2659.21 464.746L2648.3 472.172L2649.85 481.455L2665.05 509.303L2674.79 521.557L2682.59 527.499L2690.77 530.468L2714.93 524.899L2730.91 526.755L2745.72 536.781L2760.92 555.347L2759.36 564.629L2715.32 572.428L2698.95 580.226L2687.65 592.108L2684.54 601.391L2686.1 610.673L2698.95 633.694L2730.91 657.458L2745.72 674.911L2750.78 684.193L2753.51 702.387L2752.34 730.237L2750.39 739.52L2746.5 744.719L2738.7 745.088L2706.75 735.806L2690.77 728.751L2674.79 719.096L2659.21 713.9L2643.23 712.785L2619.07 715.756H2603.09L2571.53 712.042L2563.73 710.185L2555.55 705.73L2546.2 693.848L2545.42 684.565L2548.54 675.282L2555.16 665.628L2567.63 657.087L2594.91 644.463L2603.87 638.521L2608.94 629.61V620.328L2602.7 609.558L2578.54 592.478L2570.75 583.195L2568.02 555.718L2564.12 546.436L2545.03 527.868L2539.57 518.957L2537.24 491.109L2531.39 472.544L2522.82 466.602L2498.66 463.631L2482.68 458.434L2474.5 452.492L2469.04 445.437L2458.52 426.5L2450.73 424.272L2442.54 425.385L2426.56 431.327L2410.59 433.183L2402.4 430.584L2394.22 425.385L2387.6 417.961L2386.04 411.647L2386.43 399.765L2396.56 371.917L2395.78 362.634L2393.83 358.92" stroke="#414141" stroke-width="3.66667" stroke-linecap="round" stroke-linejoin="round"/>
<path d="M2631.93 1230.03L2631.54 1225.94L2635.05 1209.98L2642.84 1199.95L2667 1197.35L2682.59 1189.93L2690.77 1188.81L2698.95 1193.64L2712.98 1207.38L2739.09 1228.17L2741.82 1230.03" stroke="#414141" stroke-width="3.66667" stroke-linecap="round" stroke-linejoin="round"/>
<path d="M2658.82 1230.03L2656.87 1225.94L2665.05 1216.66L2682.59 1211.46L2690.77 1213.32L2706.75 1223.34L2716.1 1230.03" stroke="#414141" stroke-width="3.66667" stroke-linecap="round" stroke-linejoin="round"/>
<path d="M2080.52 1020.61L2084.42 1019.12L2108.19 996.099L2116.38 993.128L2124.56 996.842L2140.54 1012.81L2156.51 1025.06L2164.31 1023.95L2166.65 1014.29L2167.04 986.816L2172.1 978.277L2196.26 974.191L2204.45 969.364L2212.24 958.968L2214.58 949.685L2213.8 940.403L2194.7 885.448L2196.65 876.535L2204.45 867.252L2211.85 860.941L2220.03 858.713L2228.21 859.456L2243.8 865.396L2256.66 876.535L2272.25 904.013L2302.26 940.772L2321.35 959.34L2327.98 968.622L2330.7 977.905L2329.14 987.188L2324.08 992.387L2315.89 997.585L2278.87 1005.38L2274.98 1014.66L2276.15 1025.81L2280.82 1033.23L2292.12 1044L2301.48 1060.71L2305.37 1069.62L2309.27 1088.19L2315.89 1090.41H2331.87L2340.06 1092.27L2350.58 1097.47L2363.83 1109.72L2387.6 1118.26L2395.39 1127.92L2403.57 1143.14L2404.35 1161.71L2400.07 1170.99L2374.35 1189.18L2357.59 1207.75L2351.75 1217.03L2371.62 1229.66L2372.01 1230.4" stroke="#414141" stroke-width="3.66667" stroke-linecap="round" stroke-linejoin="round"/>
<path d="M2080.52 1050.31L2084.42 1051.05L2092.22 1046.6L2100.01 1032.49L2108.19 1023.95L2116.38 1022.46L2124.56 1026.18L2132.74 1032.86L2164.31 1064.05L2172.49 1066.65L2180.67 1065.16L2186.13 1060.34L2189.25 1051.05L2190.03 1032.49L2187.69 1013.92L2189.25 1004.64L2197.04 998.326L2221.2 985.703L2229.38 977.161L2233.67 967.879V949.313L2227.05 912.552L2218.86 893.987L2217.69 884.704L2221.2 879.505L2229.38 876.906L2237.18 880.62L2241.07 884.704L2247.7 903.269L2267.18 921.835L2285.11 952.654L2297.58 967.879L2301.48 977.161L2260.95 981.617L2249.65 986.444L2244.97 995.727L2253.16 1036.94L2255.88 1042.14L2277.32 1054.4L2282.38 1060.71L2285.89 1069.62L2277.32 1106.38L2278.87 1115.66L2285.5 1119.75L2293.68 1120.49L2325.25 1110.09L2333.43 1110.84L2339.27 1115.66L2349.41 1131.26L2357.2 1136.09L2373.18 1137.57L2380.97 1140.54L2386.43 1152.42L2382.53 1161.71L2365.38 1171.36L2347.07 1188.81L2341.22 1192.15L2317.06 1199.58L2307.32 1207.38L2306.15 1216.66L2309.66 1225.94L2312.78 1230.03" stroke="#414141" stroke-width="3.66667" stroke-linecap="round" stroke-linejoin="round"/>
<path d="M2629.98 628.123L2635.44 619.584L2643.23 613.272L2651.41 612.901L2659.6 616.985L2667.78 627.382L2677.13 647.062L2689.6 656.345L2715.32 667.112L2731.3 683.078L2735.2 693.104L2735.98 702.015L2734.42 711.3L2730.91 717.612L2722.73 721.324H2706.75L2698.95 719.468L2674.8 707.214L2667 704.986L2651.03 703.13L2619.07 704.245L2596.47 702.015L2579.32 699.788L2564.9 693.104L2564.51 683.822L2570.36 674.539L2587.51 661.172L2611.28 651.146L2616.73 647.06L2629.98 628.123" stroke="#414141" stroke-width="3.66667" stroke-linecap="round" stroke-linejoin="round"/>
<path d="M2259.78 599.163L2255.88 600.647L2252.38 609.93L2254.32 619.212L2267.96 634.437H2275.76L2281.6 628.124L2282.38 618.841L2275.76 609.558L2259.78 599.163" stroke="#414141" stroke-width="3.66667" stroke-linecap="round" stroke-linejoin="round"/>
<path d="M2595.3 498.535L2603.09 503.362L2607.77 508.931L2603.09 514.873L2595.3 513.388L2587.89 508.931L2588.28 499.648L2595.3 498.535" stroke="#414141" stroke-width="3.66667" stroke-linecap="round" stroke-linejoin="round"/>
<path d="M2790.92 1090.04L2780.01 1096.73L2771.83 1106.01L2767.93 1124.57L2770.66 1135.71L2778.84 1139.43H2790.92" stroke="#414141" stroke-width="3.66667" stroke-linecap="round" stroke-linejoin="round"/>
<path d="M2513.08 1230.03L2514.24 1225.94L2519.7 1216.66L2531.39 1207.38L2554.38 1198.1L2559.06 1188.81L2540.74 1133.86L2536.07 1124.57L2523.6 1113.44L2509.57 1106.01L2504.89 1096.73L2523.6 1095.61L2531.39 1092.64L2539.18 1085.22L2555.16 1060.34L2563.35 1059.6L2579.32 1061.82L2587.51 1065.16L2614.78 1087.44L2631.93 1106.01L2635.44 1108.24L2643.23 1108.61L2651.41 1097.84L2659.99 1077.05L2668.17 1067.76L2675.96 1068.51L2698.95 1079.27L2707.14 1080.39L2711.42 1078.53L2710.65 1060.34L2712.98 1041.77L2723.12 1021.35L2731.3 1016.15L2745.33 1023.58L2779.23 1034.72H2790.92" stroke="#414141" stroke-width="3.66667" stroke-linecap="round" stroke-linejoin="round"/>
<path d="M2529.44 1230.03L2531.39 1225.94L2539.18 1219.63L2571.92 1207.38L2581.66 1198.1V1188.81L2566.85 1161.34L2562.56 1133.49L2553.99 1115.29L2552.04 1106.01L2555.55 1096.73L2563.73 1087.07L2571.53 1083.36L2587.5 1086.7L2599.97 1096.73L2613.61 1115.29L2627.25 1128.29L2643.23 1140.17L2651.41 1142.77L2659.6 1140.17L2663.49 1133.49L2666.61 1106.01L2673.24 1096.73L2675.18 1094.87L2682.98 1095.24L2698.95 1104.15L2707.14 1106.01L2723.11 1101.55L2729.74 1097.1L2735.19 1087.82L2735.58 1060.34L2739.09 1052.17L2746.88 1048.45L2755.07 1048.08L2782.35 1059.97L2783.13 1068.88L2759.74 1096.73L2754.29 1106.01L2749.61 1133.49L2741.04 1161.34L2744.16 1170.62L2754.68 1176.93L2762.86 1176.56L2778.84 1166.16L2786.63 1163.19L2790.53 1163.93" stroke="#414141" stroke-width="3.66667" stroke-linecap="round" stroke-linejoin="round"/>
<path d="M2557.5 1230.03L2564.51 1225.94L2587.11 1219.26L2595.3 1213.69L2599.58 1207.38L2600.36 1198.1L2597.25 1188.81L2584.78 1161.34L2587.11 1140.17L2595.3 1129.4L2603.09 1132.74L2635.05 1156.51L2651.02 1162.82L2659.21 1163.19L2667.39 1160.22L2674.01 1152.05L2683.37 1129.03L2691.16 1124.2L2723.11 1117.89L2731.3 1120.86L2733.64 1124.57L2734.02 1133.86L2725.06 1161.71L2725.45 1170.99L2729.35 1180.27L2739.09 1189.18L2754.68 1197.35L2762.86 1198.84L2778.84 1197.73L2786.63 1200.69L2790.53 1206.26" stroke="#414141" stroke-width="3.66667" stroke-linecap="round" stroke-linejoin="round"/>
<path d="M2612.06 1230.03L2617.12 1216.66L2618.29 1207.38L2613.62 1179.9L2619.07 1172.47L2627.25 1171.73L2651.41 1178.42L2659.6 1179.53L2667.78 1177.67L2677.13 1170.25L2691.16 1152.8L2698.95 1150.57L2707.14 1163.56L2713.37 1179.9L2723.12 1192.9L2739.09 1206.26L2754.68 1215.92L2778.84 1220.37L2785.86 1230.03" stroke="#414141" stroke-width="3.66667" stroke-linecap="round" stroke-linejoin="round"/>
<path d="M2080.52 1098.58L2092.22 1099.7L2116.38 1091.16L2124.56 1090.41L2148.72 1098.58L2172.49 1103.04L2188.47 1109.35L2204.45 1111.21L2215.36 1106.38L2228.6 1090.79H2236.4L2238.74 1097.1L2239.13 1124.57L2244.58 1137.57L2252.77 1149.08L2257.05 1152.05L2258.22 1161.33L2236.79 1165.42L2229.77 1170.25L2225.88 1179.53V1188.81L2228.6 1198.1L2239.13 1216.66L2236.79 1223.34L2228.99 1222.6L2197.04 1200.69L2188.86 1197.35L2177.95 1198.47L2170.15 1207.75L2159.24 1230.4" stroke="#414141" stroke-width="3.66667" stroke-linecap="round" stroke-linejoin="round"/>
<path d="M2080.52 1124.57L2116.38 1110.84L2124.56 1111.21L2140.54 1115.66L2164.31 1117.15L2198.99 1133.86L2207.95 1143.14L2207.56 1152.42L2202.5 1161.71L2196.26 1168.02L2188.08 1172.1L2154.57 1179.9L2135.86 1188.81L2135.08 1198.1L2142.88 1216.66L2140.93 1230.03" stroke="#414141" stroke-width="3.66667" stroke-linecap="round" stroke-linejoin="round"/>
<path d="M2080.52 1171.36L2084.42 1174.33L2112.87 1207.01L2117.93 1216.29L2120.27 1225.57V1229.66" stroke="#414141" stroke-width="3.66667" stroke-linecap="round" stroke-linejoin="round"/>
<path d="M2746.89 975.305L2749.22 977.533L2750 986.816L2739.09 1002.78L2732.86 1005.01L2730.91 1009.1L2724.67 996.099L2725.06 977.533L2730.52 970.107L2738.7 970.478L2746.89 975.305" stroke="#414141" stroke-width="3.66667" stroke-linecap="round" stroke-linejoin="round"/>
<path d="M2115.99 1133.86L2132.35 1137.57L2156.51 1139.8L2162.36 1142.77L2165.48 1152.05L2156.51 1156.88L2140.54 1158.74L2112.09 1152.05L2105.46 1142.77L2108.58 1138.68L2115.99 1133.86" stroke="#414141" stroke-width="3.66667" stroke-linecap="round" stroke-linejoin="round"/>
<path d="M2163.53 470.685L2166.25 481.454L2163.53 484.425L2155.73 485.167L2151.06 481.083L2147.55 474.4V469.944L2155.73 466.23L2163.53 470.685" stroke="#414141" stroke-width="3.66667" stroke-linecap="round" stroke-linejoin="round"/>
<path d="M2080.14 974.563L2084.03 967.508L2091.83 959.34L2100.01 955.254H2115.99L2140.15 960.081L2168.98 940.772L2179.5 931.861L2181.84 922.579L2181.06 913.296L2171.32 885.448L2171.71 876.535L2175.22 867.252L2184.57 857.969L2204.44 843.488L2212.24 839.776L2228.21 834.205L2236.01 835.69L2238.35 839.776L2268.35 861.684L2276.54 870.223L2312.78 922.579L2345.12 958.968L2352.91 977.534L2352.13 986.816L2347.07 996.099L2332.26 1011.7L2315.12 1023.58L2342.39 1042.14L2352.52 1051.43L2350.96 1060.71L2357.98 1069.62L2395.78 1091.16L2402.79 1097.1L2415.65 1115.66L2424.23 1133.86L2426.17 1161.34L2425.01 1170.62L2419.55 1179.9L2403.57 1198.1L2419.55 1204.41L2427.34 1211.83L2430.46 1216.29L2432.02 1225.57L2431.63 1229.66" stroke="#414141" stroke-width="3.66667" stroke-linecap="round" stroke-linejoin="round"/>
<path d="M2080.52 779.251L2084.42 776.651L2100.01 770.34L2115.99 769.596L2131.96 774.795L2139.76 784.078L2141.32 793.732L2138.98 803.015L2131.57 815.64L2123.78 823.067L2108.19 830.493L2095.72 839.776L2098.06 849.059L2094.16 858.341L2084.03 867.996L2080.14 874.307" stroke="#414141" stroke-width="3.66667" stroke-linecap="round" stroke-linejoin="round"/>
<path d="M820.286 1298.72L816.778 1308" stroke="#414141" stroke-width="3.66667" stroke-linecap="round" stroke-linejoin="round"/>
<path d="M820.286 1265.67L808.984 1271.62L798.074 1280.9L796.124 1290.18L788.72 1308" stroke="#414141" stroke-width="3.66667" stroke-linecap="round" stroke-linejoin="round"/>
<path d="M812.101 1230.03L814.829 1235.23V1244.51L809.373 1253.42L782.485 1266.79L775.862 1271.99L773.134 1290.55L768.456 1308.38" stroke="#414141" stroke-width="3.66667" stroke-linecap="round" stroke-linejoin="round"/>
<path d="M791.447 1230.03L794.955 1235.23L793.007 1244.51L782.875 1250.82L750.922 1262.7L743.906 1271.99L752.09 1299.46L752.87 1308" stroke="#414141" stroke-width="3.66667" stroke-linecap="round" stroke-linejoin="round"/>
<path d="M766.508 1230.03L768.456 1235.23L757.546 1244.51L736.502 1253.42L725.592 1262.7L724.812 1271.99L737.282 1299.46L738.45 1308" stroke="#414141" stroke-width="3.66667" stroke-linecap="round" stroke-linejoin="round"/>
<path d="M743.516 1230.03L742.738 1235.23L711.562 1253.42L704.548 1262.7L704.158 1271.99L722.864 1299.46L724.422 1308" stroke="#414141" stroke-width="3.66667" stroke-linecap="round" stroke-linejoin="round"/>
<path d="M719.745 1230.03L716.237 1235.23L692.857 1253.42L685.454 1262.7L685.064 1271.99L705.327 1299.46L707.665 1308" stroke="#414141" stroke-width="3.66667" stroke-linecap="round" stroke-linejoin="round"/>
<path d="M698.312 1230.03L695.974 1235.23L674.542 1253.42L669.476 1262.7L669.086 1271.99L685.844 1299.46L686.622 1308" stroke="#414141" stroke-width="3.66667" stroke-linecap="round" stroke-linejoin="round"/>
<path d="M677.271 1230.03L674.934 1235.23L660.906 1253.42L656.618 1262.7L655.84 1271.99L658.956 1281.27L669.868 1299.84L670.648 1308.38" stroke="#414141" stroke-width="3.66667" stroke-linecap="round" stroke-linejoin="round"/>
<path d="M962.91 1230.03L958.624 1235.23L918.097 1269.39L910.303 1272.73L894.325 1273.47L890.039 1280.9L890.819 1290.18L886.531 1308" stroke="#414141" stroke-width="3.66667" stroke-linecap="round" stroke-linejoin="round"/>
<path d="M1882.96 1308L1876.72 1304.66L1863.86 1290.18L1852.95 1271.62L1844.77 1261.96L1836.58 1258.99L1804.63 1261.96L1789.04 1260.1L1780.86 1256.02L1757.87 1234.85L1744.62 1229.66" stroke="#414141" stroke-width="3.66667" stroke-linecap="round" stroke-linejoin="round"/>
<path d="M1026.82 1230.03L1014.35 1244.14L998.372 1255.65L993.306 1262.33L985.512 1280.9L983.174 1290.18L982.394 1308" stroke="#414141" stroke-width="3.66667" stroke-linecap="round" stroke-linejoin="round"/>
<path d="M1203.35 1230.03L1202.57 1235.23L1197.89 1238.57L1174.9 1244.51L1165.94 1249.71L1158.14 1260.48L1149.96 1277.19L1134.37 1294.27L1126.19 1296.49L1118.4 1294.64L1110.21 1286.84L1099.3 1263.08L1099.69 1244.88L1103.2 1230.77" stroke="#414141" stroke-width="3.66667" stroke-linecap="round" stroke-linejoin="round"/>
<path d="M1487.04 1230.03L1485.48 1230.77L1461.32 1231.14L1458.59 1229.66" stroke="#414141" stroke-width="3.66667" stroke-linecap="round" stroke-linejoin="round"/>
<path d="M1509.25 1308L1508.86 1299.46L1512.75 1280.9L1517.82 1271.62L1525.22 1264.19L1557.18 1243.03L1565.36 1238.2L1573.55 1237.08L1581.34 1243.4L1597.32 1265.3L1629.27 1289.44L1637.45 1288.7L1647.58 1281.27L1648.36 1262.7L1641.35 1253.42L1629.27 1245.25L1617.97 1230.03" stroke="#414141" stroke-width="3.66667" stroke-linecap="round" stroke-linejoin="round"/>
<path d="M2001.03 1308L1999.86 1299.46L1993.23 1280.9L1980.37 1271.99L1956.22 1268.65L1930.5 1253.42L1924.65 1247.11L1918.03 1235.23L1912.18 1230.03" stroke="#414141" stroke-width="3.66667" stroke-linecap="round" stroke-linejoin="round"/>
<path d="M1534.97 1308L1535.36 1290.18L1539.25 1280.9L1556.79 1272.36" stroke="#414141" stroke-width="3.66667" stroke-linecap="round" stroke-linejoin="round"/>
<path d="M1557.18 1272.36L1565.36 1270.87L1573.55 1273.1L1581.34 1279.04L1589.13 1290.18L1591.08 1299.46L1587.57 1308" stroke="#414141" stroke-width="3.66667" stroke-linecap="round" stroke-linejoin="round"/>
<path d="M925.891 1230.03L922.773 1235.23L910.303 1247.85L902.509 1249.71L894.325 1247.48L878.349 1238.94L870.555 1241.17L862.371 1255.65L860.033 1280.9L842.107 1299.46L841.327 1308" stroke="#414141" stroke-width="3.66667" stroke-linecap="round" stroke-linejoin="round"/>
<path d="M849.902 1230.03L850.682 1235.23L846.006 1262.7L841.718 1271.99L823.014 1290.55L820.286 1299.09" stroke="#414141" stroke-width="3.66667" stroke-linecap="round" stroke-linejoin="round"/>
<path d="M830.027 1230.03L833.535 1244.14L832.365 1253.05L826.129 1262.33L820.285 1265.67" stroke="#414141" stroke-width="3.66667" stroke-linecap="round" stroke-linejoin="round"/>
<path d="M2020.51 1308L2011.94 1280.9L2004.54 1267.53L1997.52 1262.33L1965.18 1253.05L1935.18 1230.03" stroke="#414141" stroke-width="3.66667" stroke-linecap="round" stroke-linejoin="round"/>
<path d="M2051.69 1308L2044.28 1301.69L2028.31 1279.41L2013.89 1253.05L2004.54 1243.77L1980.38 1240.8L1972.19 1237.83L1960.5 1230.03" stroke="#414141" stroke-width="3.66667" stroke-linecap="round" stroke-linejoin="round"/>
<path d="M2080.52 1286.84L2028.31 1242.65L2019.74 1229.66" stroke="#414141" stroke-width="3.66667" stroke-linecap="round" stroke-linejoin="round"/>
<path d="M1838.92 1230.03L1836.58 1230.4L1812.42 1241.54L1796.45 1241.91L1784.37 1234.85L1780.86 1229.66" stroke="#414141" stroke-width="3.66667" stroke-linecap="round" stroke-linejoin="round"/>
<path d="M1956.61 1308V1308L1942.97 1299.46L1900.49 1286.1L1889.19 1280.9L1881.4 1271.62L1873.21 1253.05L1860.74 1237.83L1852.95 1232.26L1846.71 1230.03" stroke="#414141" stroke-width="3.66667" stroke-linecap="round" stroke-linejoin="round"/>
<path d="M1980.38 1308L1980.77 1299.46L1978.04 1290.18L1972.58 1286.1L1948.42 1282.38L1932.83 1276.07L1908.67 1271.24L1900.49 1261.96L1895.82 1243.76L1877.5 1229.66" stroke="#414141" stroke-width="3.66667" stroke-linecap="round" stroke-linejoin="round"/>
<path d="M2256.66 1308L2243.8 1305.78H2235.62L2232.11 1308" stroke="#414141" stroke-width="3.66667" stroke-linecap="round" stroke-linejoin="round"/>
<path d="M2372.4 1230.03L2376.3 1235.23L2374.74 1244.51L2353.69 1271.99L2352.92 1281.27L2356.42 1299.84L2352.14 1308.38" stroke="#414141" stroke-width="3.66667" stroke-linecap="round" stroke-linejoin="round"/>
<path d="M2311.22 1230.03L2315.51 1235.6L2327.98 1244.14L2333.82 1253.05L2331.48 1289.81L2323.3 1296.12L2307.32 1301.32L2291.74 1299.84L2259.78 1290.18L2220.03 1267.9L2204.06 1266.42L2199.38 1271.62L2196.65 1290.18L2188.86 1308" stroke="#414141" stroke-width="3.66667" stroke-linecap="round" stroke-linejoin="round"/>
<path d="M2431.63 1230.03L2431.24 1235.23L2429.29 1244.51L2423.84 1253.42L2392.66 1271.99L2386.82 1281.27L2387.21 1308" stroke="#414141" stroke-width="3.66667" stroke-linecap="round" stroke-linejoin="round"/>
<path d="M2572.7 1308L2555.55 1290.18L2546.98 1283.5L2519.7 1271.62L2508.79 1262.33L2506.45 1253.05L2513.08 1230.03" stroke="#414141" stroke-width="3.66667" stroke-linecap="round" stroke-linejoin="round"/>
<path d="M2601.53 1308L2579.32 1282.01L2539.18 1258.62L2533.34 1253.05L2528.66 1244.14L2527.49 1234.85L2529.83 1229.66" stroke="#414141" stroke-width="3.66667" stroke-linecap="round" stroke-linejoin="round"/>
<path d="M2634.66 1308L2629.59 1299.46L2595.69 1264.93L2579.71 1255.28L2553.21 1244.14L2549.32 1234.85L2557.89 1229.66" stroke="#414141" stroke-width="3.66667" stroke-linecap="round" stroke-linejoin="round"/>
<path d="M2786.24 1230.03L2787.02 1231.14L2790.92 1240.8" stroke="#414141" stroke-width="3.66667" stroke-linecap="round" stroke-linejoin="round"/>
<path d="M2653.75 1308L2645.18 1290.18L2626.47 1271.62L2609.33 1244.14L2610.11 1234.85L2612.05 1229.66" stroke="#414141" stroke-width="3.66667" stroke-linecap="round" stroke-linejoin="round"/>
<path d="M2158.46 1230.03L2156.12 1235.23L2154.57 1244.51L2158.85 1271.99L2158.07 1281.27L2149.11 1308.38" stroke="#414141" stroke-width="3.66667" stroke-linecap="round" stroke-linejoin="round"/>
<path d="M2141.31 1230.03L2138.98 1244.14L2142.88 1271.62L2140.53 1283.87L2130.02 1308" stroke="#414141" stroke-width="3.66667" stroke-linecap="round" stroke-linejoin="round"/>
<path d="M2120.28 1230.03L2119.89 1244.14L2124.95 1271.62L2122.22 1280.9L2113.65 1290.18L2108.19 1293.15L2100.01 1293.89L2084.03 1290.18L2080.53 1287.21" stroke="#414141" stroke-width="3.66667" stroke-linecap="round" stroke-linejoin="round"/>
<path d="M2291.34 1230.4L2294.85 1235.6L2304.2 1253.79L2303.03 1272.36L2299.92 1277.18L2291.73 1280.9H2275.76L2259.78 1274.59L2235.62 1257.51L2195.87 1234.11L2187.69 1231.14L2178.73 1235.23L2173.66 1244.51L2172.49 1253.42L2176.39 1281.27L2175.22 1290.55L2168.59 1308.38" stroke="#414141" stroke-width="3.66667" stroke-linecap="round" stroke-linejoin="round"/>
<path d="M2741.82 1230.03L2746.89 1233L2770.66 1239.68L2778.84 1251.19L2783.13 1271.62L2787.02 1276.82L2790.92 1278.3" stroke="#414141" stroke-width="3.66667" stroke-linecap="round" stroke-linejoin="round"/>
<path d="M2672.85 1308L2665.83 1290.18L2635.05 1241.54L2632.32 1235.23L2631.93 1230.03" stroke="#414141" stroke-width="3.66667" stroke-linecap="round" stroke-linejoin="round"/>
<path d="M2716.1 1230.03L2739.09 1247.11L2750.39 1253.42L2756.63 1262.7L2757.8 1281.27L2761.69 1290.55L2771.05 1297.98L2779.23 1301.69L2790.92 1303.92" stroke="#414141" stroke-width="3.66667" stroke-linecap="round" stroke-linejoin="round"/>
<path d="M2696.62 1308L2691.94 1299.46L2686.1 1271.99L2661.54 1235.23L2659.21 1230.03" stroke="#414141" stroke-width="3.66667" stroke-linecap="round" stroke-linejoin="round"/>
<path d="M2439.04 1308L2435.53 1303.18L2427.35 1298.35L2429.29 1289.81L2435.53 1286.47L2443.71 1278.3L2445.66 1262.33L2451.51 1247.48L2465.93 1230.03" stroke="#414141" stroke-width="3.66667" stroke-linecap="round" stroke-linejoin="round"/>
<path d="M2547.37 1308L2538.79 1299.46L2491.25 1274.22L2484.24 1262.33L2485.41 1253.05L2494.37 1230.03" stroke="#414141" stroke-width="3.66667" stroke-linecap="round" stroke-linejoin="round"/>
<path d="M903.24 1.78906L901.035 9.13989L905.995 40.6468L905.719 51.4124L894.974 80.0316L901.862 99.7233L901.586 112.066L886.982 141.209L862.734 171.666L861.907 181.906L863.56 187.683L871 193.722L881.47 196.872L935.477 208.424L978.463 208.424L983.146 217.089L982.045 231.266L975.156 246.234L958.624 263.038L922.251 281.941L915.088 281.417L895.523 273.802L883.123 272.49L855.018 273.541L845.374 269.602L807.348 240.72L797.981 237.044L788.06 240.196L765.19 261.463L754.717 266.189L742.869 264.351L727.163 253.062L717.796 248.86L708.151 250.698L701.538 254.9L683.076 290.87L676.739 295.86L669.023 295.86L662.41 289.559L654.419 270.916L648.082 263.826L635.958 257.001" stroke="#414141" stroke-width="3.66667" stroke-linecap="round" stroke-linejoin="round"/>
<path d="M889.738 14.6545L894.146 41.9598L893.319 50.1004L880.369 81.346L884.501 103.139L882.849 115.215L867.693 143.31L848.405 157.488L844.547 164.84L846.476 188.209L851.435 199.762L857.774 206.85L867.417 210.263L892.768 212.362L913.985 218.403L942.642 229.954L942.09 235.73L915.912 253.848L907.372 256.736L867.692 261.463L856.67 259.886L848.404 254.635L827.187 235.469L807.898 214.989L796.601 212.626L787.234 216.827L758.852 243.346L749.759 245.71L732.674 234.683L723.307 231.007L711.181 230.481L700.435 231.27L691.895 234.157L675.911 250.961L667.92 254.375L646.152 246.761" stroke="#414141" stroke-width="3.66667" stroke-linecap="round" stroke-linejoin="round"/>
<path d="M878.717 25.1568L880.646 47.4749L878.715 56.6638L868.246 79.2447L867.144 100.249L864.663 108.914L858.049 123.617L853.089 129.919L846.202 134.382L821.126 143.047L815.89 149.087L814.237 156.438L816.992 166.941L826.912 183.743L830.22 193.722L829.943 204.486L803.215 193.196L788.886 193.722L778.141 198.185L760.505 213.939L753.34 217.615L742.044 217.877L726.614 214.202L694.099 215.776L684.73 217.877L665.166 231.269L659.656 233.369" stroke="#414141" stroke-width="3.66667" stroke-linecap="round" stroke-linejoin="round"/>
<path d="M866.87 36.4468L868.797 52.9879L849.234 104.188L838.488 114.954L805.973 127.03L799.91 132.282L796.328 139.897L793.297 169.04L788.337 175.343L765.743 186.37L752.24 195.035L745.627 197.134L716.694 198.448L692.447 203.176" stroke="#414141" stroke-width="3.66667" stroke-linecap="round" stroke-linejoin="round"/>
<path d="M856.949 45.9004L857.776 48.2626L853.643 65.8548L842.07 87.3846L832.425 99.1999L818.647 107.602L793.849 116.53L787.51 121.518L778.969 134.907L776.764 153.812L773.182 161.427L767.119 166.679L745.903 179.02L737.36 181.907L715.317 181.906L712.838 182.695" stroke="#414141" stroke-width="3.66667" stroke-linecap="round" stroke-linejoin="round"/>
<path d="M762.711 136.222L758.576 147.512L753.616 153.814L742.594 160.115L735.983 161.165" stroke="#414141" stroke-width="3.66667" stroke-linecap="round" stroke-linejoin="round"/>
<path d="M845.651 57.1904L845.374 58.5029L842.895 65.0668L828.842 86.3353L816.992 96.0498L798.531 102.09" stroke="#414141" stroke-width="3.66667" stroke-linecap="round" stroke-linejoin="round"/>
<path d="M1006.02 340.754L1011.8 313.711L1015.39 306.622L1022.28 302.157L1054.24 300.583L1082.34 291.655L1094.74 292.968L1098.88 299.532L1094.74 306.621L1077.94 312.134L1071.32 316.336L1037.71 348.894L1024.2 357.559L1009.32 361.234L1002.99 354.146L1006.02 340.754" stroke="#414141" stroke-width="3.66667" stroke-linecap="round" stroke-linejoin="round"/>
<path d="M1273.85 353.357L1269.17 365.172L1263.93 371.21L1245.74 386.441L1238.03 389.591L1202.48 385.128L1165.56 384.602L1133.6 396.681L1121.2 406.394L1112.38 419.524L1105.49 434.489L1069.39 464.686L1053.96 471.511L1024.76 477.288L993.893 489.366L980.942 492.253L970.471 489.102L955.591 477.026L938.508 467.048L908.198 457.07L899.38 452.344L885.052 439.742L859.978 411.649L854.19 411.386L847.854 416.374L827.463 451.032L821.4 477.815L816.991 484.116L803.489 492.779L794.122 494.356L746.176 494.355L711.732 501.971L686.933 499.869L656.898 501.707L647.254 497.77L642.57 489.105L643.396 479.915L651.113 455.235L643.12 449.721L627.414 451.559L616.118 449.195L609.505 442.369L604.27 421.627L596.83 415.589L569.55 415.325L559.355 411.912L550.262 394.846L534.006 370.953L532.352 363.601L536.21 350.473" stroke="#414141" stroke-width="3.66667" stroke-linecap="round" stroke-linejoin="round"/>
<path d="M1254.84 335.241L1250.7 347.58L1239.68 358.608L1231.14 361.498L1209.92 362.285L1193.67 368.323L1183.19 369.374L1158.12 367.012L1117.61 381.978L1111.55 387.228L1087.86 418.735L1060.58 446.306L1045.97 453.919L993.066 468.098L952.837 454.446L917.843 435.803L904.066 422.675L901.309 412.174L903.238 404.035L902.687 393.006L895.247 379.09L885.604 375.151L871.275 375.677L860.253 373.052L843.445 363.338L835.179 360.711L831.321 368.064L830.77 388.544L823.605 403.245L818.37 409.285L785.58 421.101L773.179 430.815L769.597 437.905L767.67 448.67L778.966 464.161L779.242 468.623L774.006 474.137L758.025 480.44L737.909 482.804L711.458 489.105L687.759 485.429L677.564 482.016L672.88 473.351L691.343 430.029L691.619 416.638L683.077 411.65L648.081 418.738L639.816 413.486L627.968 399.046L620.252 393.271L610.333 389.595L587.461 385.13L579.471 379.616L573.408 372.791L569.276 363.601L573.41 333.406L567.072 326.318L562.662 325.267" stroke="#414141" stroke-width="3.66667" stroke-linecap="round" stroke-linejoin="round"/>
<path d="M1231.42 312.922L1234.72 332.351L1231.14 339.966L1224.25 344.43L1204.69 347.318L1179.89 355.72L1153.99 352.57L1144.34 354.407L1103.56 369.111L1091.44 379.089L1075.18 406.657L1047.62 433.965L1033.3 441.842L1007.12 448.931L994.995 447.881L956.971 436.853L939.61 427.663L930.793 418.736L920.599 387.492L908.75 366.223L900.483 360.973L876.235 357.823L866.867 353.621L852.813 341.28L843.996 336.555L824.983 328.941L812.86 328.417L806.523 333.404L802.94 341.019L801.839 383.029L796.326 388.805L780.62 395.37L774.283 400.357L741.217 443.944L736.256 460.748L731.298 467.049L715.866 473.876L703.191 471.249L699.885 461.272L706.223 443.156L746.177 384.605L748.658 375.94L748.932 363.074L745.626 353.096L739.288 346.008L729.094 346.795L701.538 373.052L677.291 393.007L669.299 396.42L658.277 396.946L650.011 391.695L632.376 369.638L604.271 357.036L600.413 348.11L602.617 332.881L600.414 321.853L595.728 313.188L588.289 307.149L583.329 306.624" stroke="#414141" stroke-width="3.66667" stroke-linecap="round" stroke-linejoin="round"/>
<path d="M1090.61 178.754L1086.2 184.005L1084 188.731L1084.27 198.447L1091.71 204.485L1102.18 207.111L1122.85 209.999" stroke="#414141" stroke-width="3.66667" stroke-linecap="round" stroke-linejoin="round"/>
<path d="M958.626 52.9875L958.9 58.5017L970.748 73.4675L974.608 82.395L974.883 95.26L978.74 104.713L1014.56 111.54L1020.07 111.538" stroke="#414141" stroke-width="3.66667" stroke-linecap="round" stroke-linejoin="round"/>
<path d="M1212.95 295.855L1213.23 301.369L1210.47 320.274L1206.34 327.363L1180.44 341.017L1153.16 341.28L1143.79 342.855L1100.25 354.932L1084.55 361.496L1079.04 367.273L1067.46 388.804L1034.12 421.622L1021.17 428.188L1009.32 430.551L987.005 430.813L973.502 428.449L959.726 422.148L953.387 415.06L936.03 379.615L934.099 369.375L937.957 352.045L932.998 343.643L890.288 344.957L880.644 341.018L869.622 325.788L861.356 321.063L837.935 317.125L812.86 302.158L805.42 300.322L796.878 302.685L791.092 308.198L784.202 323.164L778.968 350.208L773.732 356.246L770.151 355.459L753.616 331.829L746.728 325.265L735.155 319.488L724.961 320.802L718.898 325.528L704.019 343.907L686.934 360.187L671.78 367.275L660.483 369.113L630.447 345.746L625.212 337.606L614.741 308.723L609.506 300.584L602.066 294.546L598.21 292.97" stroke="#414141" stroke-width="3.66667" stroke-linecap="round" stroke-linejoin="round"/>
<path d="M1077.39 166.677L1065.26 181.906L1053.96 201.072L1052.86 215.251L1062.23 219.451L1112.38 223.653L1135.25 228.116L1158.12 245.184L1162.8 248.07" stroke="#414141" stroke-width="3.66667" stroke-linecap="round" stroke-linejoin="round"/>
<path d="M941.265 36.4468L941.263 62.1782L942.641 73.9935L950.081 93.6851L949.255 113.904L942.916 138.321L949.255 145.409L988.383 130.182L998.026 128.342L1040.74 131.231" stroke="#414141" stroke-width="3.66667" stroke-linecap="round" stroke-linejoin="round"/>
<path d="M927.214 23.0564L928.867 51.4128L926.387 76.3559L932.724 96.5731L934.101 108.388L921.978 145.672L919.774 160.901L925.559 168.516L933.826 173.766L944.297 174.817L951.461 170.615L969.372 155.125L984.251 147.774L992.792 145.411L1005.47 143.835L1032.2 144.622L1044.6 145.934L1054.24 149.348L1059.48 157.488L1057.82 163.788L1050.11 177.967L1026.68 209.211L1023.38 218.14L1026.68 228.117L1034.4 233.893L1044.6 237.306L1098.05 238.357L1120.92 242.82L1130.02 247.283L1168.32 275.378L1186.23 284.567L1193.12 292.706L1194.22 302.683L1190.91 312.136L1180.71 323.951L1152.33 328.939L1082.89 348.895L1070.5 358.609L1057.27 378.565L1046.52 389.854L1014.01 412.435L996.099 416.899L980.391 416.111L971.024 412.435L964.411 405.608L955.041 388.805L952.01 374.888L960.002 344.168L960.828 330.779L953.939 324.215L942.091 322.377L910.955 325.791L900.484 322.64L878.992 304.26L843.722 298.485L813.686 275.117L802.941 275.378L798.256 277.218L774.558 291.395L758.578 297.697L748.107 298.222L733.778 295.072L723.858 296.647L697.681 325.792L682.251 335.768L667.922 340.495L653.869 336.556L646.153 330.781L640.918 322.642L628.794 295.334L614.742 282.469L611.16 280.632" stroke="#414141" stroke-width="3.66667" stroke-linecap="round" stroke-linejoin="round"/>
<path d="M913.162 9.66511L912.885 11.5032L916.742 34.0826L917.294 51.412L911.507 77.9318L917.569 98.4104L918.671 110.488L907.374 139.108L890.289 165.365L888.086 177.967L896.076 183.481L927.488 192.933L943.47 195.033L953.39 193.984L961.38 190.569L974.332 170.353L987.007 160.9L1004.92 158.012L1029.44 160.9L1035.23 168.515L1009.88 203.698L1004.09 220.24L1004.92 236.256L1009.6 244.921L1017.59 250.433L1043.77 258.048L1084 253.321L1107.42 255.684L1117.89 258.835L1133.32 269.862L1153.16 290.343L1158.67 298.219L1159.77 304.522L1154.54 310.034L1125.05 325L1108.52 330.776L1090.06 334.715L1075.18 341.543L1063.06 351.519L1048.18 369.9L1036.88 380.664L1011.8 399.306L1004.91 403.245L995.823 405.607L980.392 403.508L972.953 397.468L968.269 388.804L965.789 377.514L968.268 363.072L978.189 335.767L980.116 325.527L977.086 315.812L970.197 309.249L957.798 305.834L928.039 310.034L915.639 308.722L893.321 291.131L883.676 287.194L856.396 286.93L845.925 284.305L823.607 266.188L805.696 257L795.225 258.574L775.936 272.753L760.783 279.842L750.586 281.155L741.493 279.842L720 273.541L712.837 277.216L707.876 283.517L700.988 298.484L691.068 310.561L683.353 314.237L673.708 316.075L663.514 315.289L657.726 311.875L649.184 303.211L635.683 276.692L628.245 270.653L624.11 269.34" stroke="#414141" stroke-width="3.66667" stroke-linecap="round" stroke-linejoin="round"/>
<path d="M990.862 300.583L988.383 290.868L989.211 281.154L994.72 275.378L1003.54 272.752L1017.04 274.59L1038.26 282.205L1053.96 280.366L1080.14 270.65L1103.29 271.174L1113.48 275.639L1120.65 281.414L1126.43 289.031L1128.64 295.856L1125.61 303.995L1114.31 314.761L1107.42 318.7L1081.24 326.313L1074.08 329.99L1061.4 339.441L1039.63 361.761L1022 375.413L1008.22 385.39L993.067 390.379L985.902 384.078L983.148 373.575L985.352 352.571L994.72 329.466L995.546 322.901L990.862 300.583" stroke="#414141" stroke-width="3.66667" stroke-linecap="round" stroke-linejoin="round"/>
<path d="M870.175 232.318L879.268 230.479L886.707 231.266L887.81 238.619L881.197 242.82L872.654 244.657L866.041 237.83L870.175 232.318" stroke="#414141" stroke-width="3.66667" stroke-linecap="round" stroke-linejoin="round"/>
</g>
</svg>
