<svg width="40" height="40" viewBox="0 0 40 40" fill="none" xmlns="http://www.w3.org/2000/svg">
<path d="M8.915 11.9892H29.6383M8.915 16.2042H25.0117M8.915 20.4192H20.8275M30.7217 5.4917H7.8325C6.97069 5.49192 6.14425 5.83443 5.53494 6.4439C4.92563 7.05337 4.58333 7.87989 4.58333 8.7417V23.4584C4.58355 24.3199 4.92583 25.1461 5.53494 25.7553C6.14405 26.3646 6.97014 26.7071 7.83167 26.7075H8.22583V30.4642C8.22583 31.7659 9.80083 32.4184 10.7208 31.4975L15.5108 26.7075H30.7217C31.5832 26.7071 32.4093 26.3646 33.0184 25.7553C33.6275 25.1461 33.9698 24.3199 33.97 23.4584V8.7417C33.9698 7.88018 33.6275 7.05399 33.0184 6.44473C32.4093 5.83546 31.5832 5.49214 30.7217 5.4917Z" stroke="#F0F0F0" stroke-width="0.5" stroke-linecap="round" stroke-linejoin="round"/>
<path d="M31.5642 19.285C32.7543 20.1665 33.7223 21.3136 34.3911 22.635C35.0599 23.9564 35.4111 25.4157 35.4167 26.8967C35.412 28.3771 35.0619 29.8359 34.3945 31.1573C33.727 32.4787 32.7604 33.6261 31.5717 34.5084M29.53 22.0167C30.3063 22.5747 30.9412 23.3067 31.3838 24.1541C31.8265 25.0015 32.0646 25.9408 32.0792 26.8967C32.0656 27.8553 31.8271 28.7972 31.3831 29.6468C30.939 30.4965 30.3017 31.23 29.5225 31.7884M27.61 24.555C27.9721 24.8287 28.2658 25.1825 28.4681 25.5888C28.6703 25.9952 28.7756 26.4428 28.7756 26.8967C28.7756 27.3506 28.6703 27.7982 28.4681 28.2046C28.2658 28.6109 27.9721 28.9647 27.61 29.2384" stroke="#F0F0F0" stroke-width="0.5" stroke-linecap="round" stroke-linejoin="round"/>
</svg>
